<svg xmlns="http://www.w3.org/2000/svg" xmlns:xlink="http://www.w3.org/1999/xlink" width="300" height="264" viewBox="0 0 300 264"><title>illu-Branded User Tests</title><defs><circle id="a" cx="71" cy="35" r="35"/><mask id="b" width="70" height="70" x="0" y="0" fill="#fff" maskContentUnits="userSpaceOnUse" maskUnits="objectBoundingBox"><use xlink:href="#a"/></mask></defs><g fill="none" fill-rule="evenodd"><path fill="#FFF" d="M4 0h292a4 4 0 0 1 4 4v256a4 4 0 0 1-4 4H4a4 4 0 0 1-4-4V4a4 4 0 0 1 4-4z"/><g fill="#2C3F58" fill-rule="nonzero"><path d="M30.706 159h-1.3v-3.978l-3.445-5.226h1.586l2.548 4.16 2.561-4.16h1.495l-3.445 5.226V159zm9.4-3.094c0 .477-.084.914-.253 1.313a3.12 3.12 0 01-.702 1.033c-.299.29-.652.516-1.06.676-.407.16-.844.241-1.312.241-.468 0-.906-.08-1.313-.24a3.097 3.097 0 01-1.053-.677 3.17 3.17 0 01-.696-1.033 3.33 3.33 0 01-.253-1.313c0-.477.084-.912.253-1.306.17-.395.401-.735.696-1.021.294-.286.645-.51 1.053-.67.407-.16.845-.24 1.313-.24.468 0 .905.08 1.313.24.407.16.76.384 1.06.67.298.286.532.626.701 1.02.17.395.254.83.254 1.307zm-1.273 0c0-.295-.046-.576-.137-.845a2.14 2.14 0 00-.396-.709 1.905 1.905 0 00-.644-.487 2.023 2.023 0 00-.877-.182c-.33 0-.622.06-.878.182-.256.121-.47.284-.643.487a2.14 2.14 0 00-.397.709c-.09.269-.136.55-.136.845 0 .295.045.576.136.845.091.269.223.507.397.715.173.208.387.373.643.494s.548.182.878.182c.329 0 .621-.06.877-.182.256-.121.47-.286.644-.494.173-.208.305-.446.396-.715.091-.269.137-.55.137-.845zM46.049 159a11.324 11.324 0 01-.052-1.014h-.026c-.156.33-.418.609-.786.839-.369.23-.778.344-1.229.344-.398 0-.743-.065-1.033-.195-.29-.13-.529-.31-.715-.54a2.305 2.305 0 01-.416-.799 3.377 3.377 0 01-.137-.975v-3.822h1.222v3.406c0 .251.02.492.059.721.039.23.11.432.214.605s.247.312.43.416c.181.104.415.156.701.156.494 0 .893-.184 1.196-.553.304-.368.455-.86.455-1.475v-3.276h1.222v4.836a19.884 19.884 0 00.052 1.326H46.05zm3.655-5.954h-1.027l.897-3.25h1.209l-1.08 3.25zM55.19 159h-1.326l-2.509-6.162h1.352l1.808 4.849h.026l1.82-4.849h1.3L55.192 159zm8.075-3.627a2.324 2.324 0 00-.123-.682 1.567 1.567 0 00-.325-.553 1.528 1.528 0 00-.533-.37 1.887 1.887 0 00-.748-.137 1.976 1.976 0 00-1.332.507c-.17.156-.308.34-.416.552-.109.213-.172.44-.189.683h3.666zm1.235.494v.208c0 .07-.004.139-.013.208H59.6c.009.26.067.505.176.734.108.23.253.43.435.598a2.02 2.02 0 001.391.54c.416 0 .776-.091 1.08-.273.302-.182.54-.403.714-.663l.858.689c-.33.433-.717.752-1.163.956a3.544 3.544 0 01-1.489.305c-.468 0-.901-.078-1.3-.234a3.004 3.004 0 01-1.027-.657 3.043 3.043 0 01-.676-1.02 3.442 3.442 0 01-.247-1.326c0-.477.08-.916.24-1.32a3.02 3.02 0 01.67-1.033c.286-.286.624-.51 1.014-.67.39-.16.81-.24 1.261-.24.45 0 .86.074 1.229.221.368.147.68.36.936.637.255.277.452.613.591 1.008a4 4 0 01.208 1.332zm5.983 2.158V159h-1.183v-9.828h1.222v4.589h.04a2.58 2.58 0 01.87-.774c.373-.212.815-.318 1.326-.318.46 0 .878.082 1.255.247.377.165.702.394.975.689.273.295.483.64.63 1.033.148.395.221.817.221 1.268 0 .45-.073.875-.22 1.274a3.14 3.14 0 01-.625 1.04 2.881 2.881 0 01-.975.695c-.381.17-.81.254-1.287.254-.442 0-.862-.097-1.26-.293a2.371 2.371 0 01-.963-.851h-.026zm4.095-2.119c0-.286-.043-.563-.13-.832a2.123 2.123 0 00-.39-.715 1.867 1.867 0 00-.643-.494 2.055 2.055 0 00-.89-.182 1.96 1.96 0 00-1.509.676 2.279 2.279 0 00-.422.715c-.1.269-.15.55-.15.845 0 .295.05.576.15.845.1.269.24.505.422.708.182.204.401.367.657.488s.54.182.851.182c.338 0 .635-.063.89-.189.257-.125.471-.292.644-.5.174-.208.304-.446.39-.715.087-.269.13-.546.13-.832zm7.386-.533a2.324 2.324 0 00-.123-.682 1.567 1.567 0 00-.326-.553 1.528 1.528 0 00-.533-.37 1.887 1.887 0 00-.747-.137 1.976 1.976 0 00-1.333.507c-.169.156-.307.34-.416.552-.108.213-.17.44-.188.683h3.666zm1.235.494v.208c0 .07-.004.139-.013.208h-4.888c.009.26.067.505.175.734.109.23.254.43.436.598a2.02 2.02 0 001.391.54c.416 0 .776-.091 1.079-.273.303-.182.542-.403.715-.663l.858.689c-.33.433-.717.752-1.163.956a3.544 3.544 0 01-1.489.305c-.468 0-.901-.078-1.3-.234a3.004 3.004 0 01-1.027-.657 3.043 3.043 0 01-.676-1.02 3.442 3.442 0 01-.247-1.326c0-.477.08-.916.24-1.32a3.02 3.02 0 01.67-1.033c.286-.286.624-.51 1.014-.67.39-.16.81-.24 1.261-.24.45 0 .86.074 1.229.221.368.147.68.36.936.637.255.277.452.613.591 1.008a4 4 0 01.208 1.332zm6.125-.494a2.324 2.324 0 00-.124-.682 1.567 1.567 0 00-.325-.553 1.528 1.528 0 00-.533-.37 1.887 1.887 0 00-.747-.137 1.976 1.976 0 00-1.333.507c-.169.156-.308.34-.416.552-.108.213-.171.44-.188.683h3.666zm1.235.494v.208c0 .07-.005.139-.013.208h-4.888c.008.26.067.505.175.734.108.23.254.43.436.598a2.02 2.02 0 001.39.54c.417 0 .776-.091 1.08-.273.303-.182.541-.403.715-.663l.858.689c-.33.433-.718.752-1.164.956a3.544 3.544 0 01-1.488.305c-.468 0-.902-.078-1.3-.234a3.004 3.004 0 01-1.027-.657 3.043 3.043 0 01-.676-1.02 3.442 3.442 0 01-.247-1.326c0-.477.08-.916.24-1.32a3.02 3.02 0 01.67-1.033c.286-.286.624-.51 1.014-.67.39-.16.81-.24 1.26-.24.451 0 .86.074 1.23.221.367.147.68.36.935.637.256.277.453.613.592 1.008a4 4 0 01.208 1.332zm2.718-3.029a11.324 11.324 0 01.052 1.014h.04c.077-.165.183-.318.318-.462a2.307 2.307 0 011.683-.721c.399 0 .741.067 1.027.201.286.135.525.315.715.54.19.225.332.49.423.793.09.303.136.628.136.975V159H96.45v-3.419c0-.251-.02-.49-.058-.715a1.722 1.722 0 00-.215-.598 1.163 1.163 0 00-.429-.416c-.182-.104-.416-.156-.702-.156-.485 0-.882.184-1.19.552-.307.369-.46.86-.46 1.476V159h-1.223v-4.836a19.884 19.884 0 00-.052-1.326h1.157zM104.045 159h-1.222v-6.162h1.223V159zm.209-8.385c0 .225-.08.412-.241.559a.825.825 0 01-.579.221.79.79 0 01-.572-.228.742.742 0 01-.233-.552.79.79 0 01.806-.793c.225 0 .418.076.578.228.16.151.24.34.24.565zm2.94 2.223a11.324 11.324 0 01.052 1.014h.038c.078-.165.184-.318.319-.461a2.307 2.307 0 011.683-.722c.399 0 .741.067 1.027.202.286.134.524.314.715.539.19.225.332.49.423.793.09.303.136.628.136.975V159h-1.222v-3.419c0-.251-.02-.49-.058-.715a1.722 1.722 0 00-.215-.598 1.163 1.163 0 00-.429-.416c-.182-.104-.416-.156-.702-.156-.485 0-.882.184-1.19.553-.307.368-.46.86-.46 1.475V159h-1.223v-4.836a19.884 19.884 0 00-.052-1.326h1.157zm9.27 6.162h-1.326l-2.51-6.162h1.353l1.807 4.849h.026l1.82-4.849h1.3l-2.47 6.162zm4.798 0h-1.222v-6.162h1.222V159zm.208-8.385c0 .225-.08.412-.24.559a.825.825 0 01-.579.221.79.79 0 01-.572-.227.742.742 0 01-.234-.553.79.79 0 01.806-.793c.226 0 .419.076.579.228.16.151.24.34.24.565zm4.851 3.224h-1.638v3.211c0 .373.07.64.208.8.139.16.36.24.663.24.113 0 .234-.013.364-.039.13-.026.247-.065.351-.117l.039 1.001a3.278 3.278 0 01-1.04.169c-.58 0-1.025-.16-1.332-.481-.308-.32-.462-.802-.462-1.443v-3.341h-1.183v-1.001h1.183v-1.768h1.209v1.768h1.638v1.001zm5.683 1.534a2.324 2.324 0 00-.124-.682 1.567 1.567 0 00-.325-.553 1.528 1.528 0 00-.533-.37 1.887 1.887 0 00-.747-.137 1.976 1.976 0 00-1.333.507c-.169.156-.308.34-.416.553-.108.212-.171.44-.188.682h3.666zm1.235.494v.208c0 .07-.005.139-.013.208h-4.888c.008.26.067.505.175.735.108.23.254.428.436.598a2.02 2.02 0 001.39.539c.417 0 .776-.091 1.08-.273.303-.182.541-.403.715-.663l.858.689c-.33.433-.718.752-1.164.956a3.544 3.544 0 01-1.488.305c-.468 0-.902-.078-1.3-.234a3.004 3.004 0 01-1.027-.657 3.043 3.043 0 01-.676-1.02 3.442 3.442 0 01-.247-1.326c0-.477.08-.916.24-1.32a3.02 3.02 0 01.67-1.033c.286-.286.624-.51 1.014-.67.39-.16.81-.24 1.26-.24.451 0 .86.074 1.23.221.367.147.68.36.935.637.256.277.453.613.592 1.008a4 4 0 01.208 1.332zm6.527 2.158a2.274 2.274 0 01-.955.852 2.875 2.875 0 01-1.268.292c-.476 0-.905-.084-1.287-.253a2.881 2.881 0 01-.975-.696 3.14 3.14 0 01-.624-1.04 3.646 3.646 0 01-.22-1.274c0-.45.073-.873.22-1.267.148-.395.358-.74.63-1.034.274-.295.6-.524.982-.689a3.148 3.148 0 011.261-.247c.503 0 .94.106 1.313.319.373.212.668.47.884.773h.026v-4.589h1.222V159h-1.183v-.975h-.026zm-4.056-2.119c0 .286.044.563.13.832.087.269.217.507.39.715.174.208.386.375.637.5.252.126.546.189.884.189.312 0 .596-.06.852-.182.255-.121.474-.284.656-.487a2.2 2.2 0 00.423-.709c.1-.269.15-.55.15-.845 0-.295-.05-.576-.15-.845-.1-.269-.24-.507-.423-.715a1.96 1.96 0 00-1.508-.676c-.338 0-.632.06-.884.182a1.884 1.884 0 00-.637.494 2.123 2.123 0 00-.39.715c-.086.269-.13.546-.13.832zm13.485-2.067h-1.638v3.211c0 .373.069.64.208.8.138.16.36.24.663.24.112 0 .233-.013.364-.039.13-.026.246-.065.35-.117l.04 1.001a3.278 3.278 0 01-1.04.169c-.581 0-1.025-.16-1.333-.481-.308-.32-.461-.802-.461-1.443v-3.341h-1.183v-1.001h1.183v-1.768h1.209v1.768h1.638v1.001zm7.411 2.067c0 .477-.084.914-.253 1.313a3.12 3.12 0 01-.702 1.034c-.3.29-.653.515-1.06.676-.407.16-.845.24-1.313.24-.468 0-.906-.08-1.313-.24a3.097 3.097 0 01-1.053-.676 3.17 3.17 0 01-.695-1.034 3.33 3.33 0 01-.254-1.313c0-.477.085-.912.254-1.306.169-.395.4-.735.695-1.021.295-.286.646-.51 1.053-.67.407-.16.845-.24 1.313-.24.468 0 .906.08 1.313.24.407.16.76.384 1.06.67.299.286.533.626.702 1.02.169.395.253.83.253 1.307zm-1.274 0c0-.295-.045-.576-.136-.845a2.14 2.14 0 00-.397-.708 1.905 1.905 0 00-.643-.488 2.023 2.023 0 00-.878-.182c-.33 0-.622.06-.877.182-.256.121-.47.284-.644.487a2.14 2.14 0 00-.396.709c-.091.269-.137.55-.137.845 0 .295.046.576.137.845.09.269.223.507.396.715.173.208.388.373.644.494.255.121.548.182.877.182.33 0 .622-.06.878-.182.255-.121.47-.286.643-.494.173-.208.306-.446.397-.715.09-.269.136-.55.136-.845zm9.051-2.067h-1.638v3.211c0 .373.07.64.208.8.139.16.36.24.663.24.113 0 .234-.013.364-.039.13-.026.247-.065.351-.117l.04 1.001a3.278 3.278 0 01-1.04.169c-.581 0-1.025-.16-1.333-.481-.308-.32-.462-.802-.462-1.443v-3.341h-1.183v-1.001h1.183v-1.768h1.21v1.768h1.637v1.001zm5.683 1.534a2.324 2.324 0 00-.123-.682 1.567 1.567 0 00-.325-.553 1.528 1.528 0 00-.533-.37 1.887 1.887 0 00-.748-.137 1.976 1.976 0 00-1.332.507c-.17.156-.308.34-.416.553-.109.212-.172.44-.189.682h3.666zm1.235.494v.208c0 .07-.004.139-.013.208H166.4c.009.26.067.505.176.735.108.23.253.428.435.598a2.02 2.02 0 001.391.539c.416 0 .776-.091 1.079-.273.303-.182.542-.403.715-.663l.858.689c-.33.433-.717.752-1.163.956a3.544 3.544 0 01-1.489.305c-.468 0-.901-.078-1.3-.234a3.004 3.004 0 01-1.027-.657 3.043 3.043 0 01-.676-1.02 3.442 3.442 0 01-.247-1.326c0-.477.08-.916.24-1.32a3.02 3.02 0 01.67-1.033c.286-.286.624-.51 1.014-.67.39-.16.81-.24 1.261-.24.45 0 .86.074 1.229.221.368.147.68.36.936.637.255.277.452.613.591 1.008a4 4 0 01.208 1.332zm4.942-1.469a1.598 1.598 0 00-.585-.552 1.678 1.678 0 00-.845-.215c-.139 0-.278.015-.416.046-.139.03-.263.077-.37.143a.79.79 0 00-.26.247.664.664 0 00-.098.37c0 .26.117.453.35.579.235.125.586.24 1.054.344.294.07.567.152.819.247.251.095.47.214.656.358.186.143.332.314.436.513.104.2.156.433.156.702 0 .364-.07.672-.208.923a1.805 1.805 0 01-.553.618c-.23.16-.492.275-.786.344a3.96 3.96 0 01-.91.104c-.468 0-.926-.091-1.372-.273a2.684 2.684 0 01-1.111-.832l.87-.741c.165.243.393.446.683.611.29.165.609.247.956.247.156 0 .305-.015.448-.045.143-.03.273-.08.39-.15.117-.07.21-.16.28-.273a.807.807 0 00.104-.429c0-.286-.137-.498-.41-.637-.273-.139-.674-.269-1.202-.39a7.399 7.399 0 01-.63-.188 2.11 2.11 0 01-.58-.306 1.53 1.53 0 01-.422-.487 1.468 1.468 0 01-.162-.722c0-.33.067-.613.201-.851.134-.239.31-.434.527-.585.216-.152.463-.265.74-.338a3.328 3.328 0 012.14.149c.41.173.73.425.955.754l-.845.715zm5.37-.559h-1.638v3.211c0 .373.07.64.208.8.139.16.36.24.663.24.113 0 .234-.013.364-.039.13-.026.247-.065.351-.117l.04 1.001a3.278 3.278 0 01-1.04.169c-.581 0-1.026-.16-1.333-.481-.308-.32-.462-.802-.462-1.443v-3.341h-1.183v-1.001h1.183v-1.768h1.21v1.768h1.637v1.001zm-150.725 19.17c0-.46-.139-.8-.416-1.02-.277-.222-.646-.332-1.105-.332-.347 0-.674.067-.981.202a2.485 2.485 0 00-.774.513l-.65-.78a3.282 3.282 0 011.112-.676 3.973 3.973 0 011.41-.247c.442 0 .825.063 1.15.188.326.126.592.297.8.514.208.217.364.472.468.767.104.295.156.611.156.949v2.691c0 .208.006.427.02.657.013.23.036.418.071.565h-1.105a3.848 3.848 0 01-.104-.884h-.039c-.225.33-.51.585-.851.767-.343.182-.748.273-1.216.273-.243 0-.496-.032-.76-.098a2.21 2.21 0 01-.722-.318 1.799 1.799 0 01-.54-.585c-.143-.243-.214-.542-.214-.897 0-.468.126-.838.377-1.112.251-.273.58-.48.988-.624a5.58 5.58 0 011.378-.279 18.312 18.312 0 011.547-.065v-.169zm-.299 1.053c-.303 0-.617.013-.942.039-.326.026-.62.078-.884.156a1.672 1.672 0 00-.657.351.798.798 0 00-.26.624c0 .182.037.334.11.455a.918.918 0 00.293.299c.121.078.256.132.403.163.147.03.299.045.455.045.572 0 1.012-.171 1.32-.513.307-.343.461-.774.461-1.294v-.325h-.299zm7.803 6.058H37.17v-9.282h1.196v.962h.04c.199-.33.491-.6.877-.813.385-.212.834-.318 1.345-.318.46 0 .878.082 1.255.247.377.165.702.394.975.689.273.295.483.64.63 1.034.148.394.221.816.221 1.267 0 .45-.073.875-.22 1.274a3.14 3.14 0 01-.625 1.04 2.881 2.881 0 01-.975.696c-.381.169-.81.253-1.287.253-.442 0-.858-.095-1.248-.286-.39-.19-.697-.46-.923-.806h-.039v4.043zm4.056-6.214c0-.286-.043-.563-.13-.832a2.123 2.123 0 00-.39-.715 1.867 1.867 0 00-.643-.494 2.055 2.055 0 00-.89-.182 1.96 1.96 0 00-1.509.676 2.279 2.279 0 00-.422.715c-.1.269-.15.55-.15.845 0 .295.05.576.15.845.1.269.24.505.422.708.182.204.401.367.657.488.255.121.54.182.851.182.338 0 .635-.063.89-.189.256-.125.47-.292.644-.5.174-.208.304-.446.39-.715.087-.269.13-.546.13-.832zm2.875-1.742a19.884 19.884 0 00-.052-1.326h1.157a12.227 12.227 0 01.052 1.04h.039c.173-.364.427-.656.76-.877a1.991 1.991 0 011.125-.332c.19 0 .35.017.48.052l-.051 1.131a2.3 2.3 0 00-.56-.065c-.294 0-.55.054-.766.163a1.566 1.566 0 00-.54.435c-.143.182-.249.392-.318.63-.07.239-.104.488-.104.748V177h-1.222v-4.836zm10.623 1.742c0 .477-.085.914-.254 1.313a3.12 3.12 0 01-.702 1.033c-.299.29-.652.516-1.06.676-.407.16-.844.241-1.312.241-.469 0-.906-.08-1.313-.24a3.097 3.097 0 01-1.053-.677 3.17 3.17 0 01-.696-1.033 3.33 3.33 0 01-.253-1.313c0-.477.084-.912.253-1.306.169-.395.4-.735.696-1.021.294-.286.645-.51 1.053-.67.407-.16.844-.24 1.313-.24.468 0 .905.08 1.313.24.407.16.76.384 1.059.67.299.286.533.626.702 1.02.169.395.254.83.254 1.307zm-1.274 0c0-.295-.046-.576-.137-.845a2.14 2.14 0 00-.396-.709 1.905 1.905 0 00-.644-.487 2.023 2.023 0 00-.877-.182c-.33 0-.622.06-.878.182-.256.121-.47.284-.643.487a2.14 2.14 0 00-.397.709c-.091.269-.136.55-.136.845 0 .295.045.576.136.845.091.269.223.507.397.715.173.208.387.373.643.494s.548.182.878.182c.329 0 .621-.06.877-.182.256-.121.47-.286.644-.494.173-.208.305-.446.396-.715.091-.269.137-.55.137-.845zm5.89-2.067h-1.638v3.211c0 .373.07.64.208.8.139.16.36.24.663.24.113 0 .234-.013.364-.039.13-.026.247-.065.351-.117l.04 1.001a3.278 3.278 0 01-1.04.169c-.582 0-1.026-.16-1.333-.481-.308-.32-.462-.802-.462-1.443v-3.341h-1.183v-1.001h1.183v-1.768h1.21v1.768h1.637v1.001zm7.412 2.067c0 .477-.085.914-.254 1.313a3.12 3.12 0 01-.702 1.033c-.299.29-.652.516-1.06.676-.407.16-.844.241-1.312.241-.468 0-.906-.08-1.313-.24a3.097 3.097 0 01-1.053-.677 3.17 3.17 0 01-.696-1.033 3.33 3.33 0 01-.253-1.313c0-.477.084-.912.253-1.306.17-.395.401-.735.696-1.021.294-.286.645-.51 1.053-.67.407-.16.845-.24 1.313-.24.468 0 .905.08 1.313.24.407.16.76.384 1.06.67.298.286.532.626.701 1.02.17.395.254.83.254 1.307zm-1.274 0c0-.295-.046-.576-.137-.845a2.14 2.14 0 00-.396-.709 1.905 1.905 0 00-.644-.487 2.023 2.023 0 00-.877-.182c-.33 0-.622.06-.878.182-.255.121-.47.284-.643.487a2.14 2.14 0 00-.397.709c-.09.269-.136.55-.136.845 0 .295.045.576.136.845.091.269.223.507.397.715.173.208.388.373.643.494.256.121.548.182.878.182.33 0 .622-.06.877-.182.256-.121.47-.286.644-.494.173-.208.305-.446.396-.715.091-.269.137-.55.137-.845zm5.89-2.067h-1.638v3.211c0 .373.07.64.208.8.139.16.36.24.663.24.113 0 .234-.013.364-.039.13-.026.247-.065.351-.117l.04 1.001a3.278 3.278 0 01-1.04.169c-.581 0-1.025-.16-1.333-.481-.308-.32-.462-.802-.462-1.443v-3.341H68.56v-1.001h1.183v-1.768h1.21v1.768h1.637v1.001zm3.512 3.835h.026l1.703-4.836h1.3l-2.99 7.618c-.104.26-.217.492-.338.696a2.115 2.115 0 01-.429.52 1.77 1.77 0 01-.578.331 2.368 2.368 0 01-.787.117c-.13 0-.262-.006-.396-.02a2.8 2.8 0 01-.41-.071l.117-1.079c.208.07.412.104.611.104.32 0 .559-.089.715-.266.156-.178.299-.432.429-.761l.39-1.027-2.639-6.162h1.365l1.911 4.836zm5.345 4.446h-1.222v-9.282h1.196v.962h.039c.199-.33.491-.6.877-.813.386-.212.834-.318 1.346-.318.459 0 .877.082 1.254.247.377.165.702.394.975.689.273.295.483.64.63 1.034.148.394.222.816.222 1.267 0 .45-.074.875-.221 1.274a3.14 3.14 0 01-.624 1.04 2.881 2.881 0 01-.975.696c-.382.169-.81.253-1.287.253-.442 0-.858-.095-1.248-.286-.39-.19-.698-.46-.923-.806h-.04v4.043zm4.056-6.214c0-.286-.044-.563-.13-.832a2.123 2.123 0 00-.39-.715 1.867 1.867 0 00-.644-.494 2.055 2.055 0 00-.89-.182 1.96 1.96 0 00-1.508.676 2.279 2.279 0 00-.423.715c-.1.269-.15.55-.15.845 0 .295.05.576.15.845.1.269.24.505.423.708.182.204.4.367.656.488s.54.182.852.182c.338 0 .634-.063.89-.189.256-.125.47-.292.644-.5.173-.208.303-.446.39-.715.086-.269.13-.546.13-.832zm7.385-.533a2.324 2.324 0 00-.123-.682 1.567 1.567 0 00-.325-.553 1.528 1.528 0 00-.533-.37 1.887 1.887 0 00-.748-.137 1.976 1.976 0 00-1.332.507c-.17.156-.308.34-.416.552-.109.213-.171.44-.189.683h3.666zm1.235.494v.208c0 .07-.004.139-.013.208h-4.888c.009.26.067.505.176.734.108.23.253.43.435.598a2.02 2.02 0 001.391.54c.416 0 .776-.091 1.08-.273.303-.182.54-.403.714-.663l.858.689c-.33.433-.717.752-1.163.956a3.544 3.544 0 01-1.489.305c-.468 0-.901-.078-1.3-.234a3.004 3.004 0 01-1.027-.657 3.043 3.043 0 01-.676-1.02 3.442 3.442 0 01-.247-1.326c0-.477.08-.916.24-1.32a3.02 3.02 0 01.67-1.033c.286-.286.624-.51 1.014-.67.39-.16.81-.24 1.261-.24.45 0 .86.074 1.229.221.368.147.68.36.936.637.255.277.453.613.591 1.008a4 4 0 01.208 1.332zM39.168 134h-2.704l-2.24-7.664h-.048L31.936 134h-2.72L26 122.672h2.944l1.792 7.536h.048l2.016-7.536h2.848l2.032 7.536h.048l1.824-7.536H42.4L39.168 134zm9.058-4.896c0-.416-.13-.773-.392-1.072-.261-.299-.653-.448-1.176-.448-.256 0-.49.04-.704.12-.213.08-.4.19-.56.328-.16.139-.288.301-.384.488-.096.187-.15.381-.16.584h3.376zm2.416 1.008v.32c0 .107-.005.208-.016.304H44.85c.021.224.088.427.2.608.112.181.256.339.432.472.176.133.373.237.592.312.219.075.445.112.68.112.416 0 .768-.077 1.056-.232.288-.155.523-.355.704-.6l1.824 1.152a3.69 3.69 0 01-1.48 1.256c-.613.293-1.325.44-2.136.44a5.097 5.097 0 01-1.696-.28c-.533-.187-1-.459-1.4-.816a3.779 3.779 0 01-.944-1.32c-.23-.523-.344-1.12-.344-1.792 0-.65.112-1.24.336-1.768.224-.528.528-.976.912-1.344a4.066 4.066 0 011.36-.856 4.65 4.65 0 011.696-.304c.587 0 1.125.099 1.616.296.49.197.912.483 1.264.856s.627.827.824 1.36c.197.533.296 1.141.296 1.824zM52.196 134v-12.096h2.656V134h-2.656zm10.114-5.392a1.593 1.593 0 00-.608-.464 1.864 1.864 0 00-.784-.176c-.277 0-.528.056-.752.168a1.825 1.825 0 00-.576.448c-.16.187-.285.403-.376.648-.09.245-.136.507-.136.784s.043.539.128.784.21.461.376.648c.165.187.363.333.592.44.23.107.488.16.776.16.267 0 .53-.05.792-.152.261-.101.472-.248.632-.44l1.456 1.776c-.33.32-.757.57-1.28.752a5.04 5.04 0 01-1.664.272c-.63 0-1.216-.096-1.76-.288a4.06 4.06 0 01-1.416-.84 3.944 3.944 0 01-.944-1.336c-.23-.523-.344-1.115-.344-1.776 0-.65.115-1.237.344-1.76.23-.523.544-.968.944-1.336.4-.368.872-.65 1.416-.848a5.075 5.075 0 012.6-.216c.283.053.555.125.816.216.261.09.501.203.72.336.219.133.408.28.568.44l-1.52 1.76zm10.898 1.376c0 .65-.117 1.24-.352 1.768a3.964 3.964 0 01-.96 1.344 4.395 4.395 0 01-1.408.856 4.779 4.779 0 01-1.712.304 4.799 4.799 0 01-1.704-.304 4.282 4.282 0 01-1.408-.856 4.018 4.018 0 01-.952-1.344 4.307 4.307 0 01-.352-1.768c0-.65.117-1.237.352-1.76.235-.523.552-.965.952-1.328.4-.363.87-.64 1.408-.832a5.037 5.037 0 011.704-.288c.608 0 1.179.096 1.712.288.533.192 1.003.47 1.408.832a3.9 3.9 0 01.96 1.328c.235.523.352 1.11.352 1.76zm-2.528 0c0-.256-.043-.507-.128-.752a1.989 1.989 0 00-.368-.648 1.802 1.802 0 00-1.408-.632c-.31 0-.581.059-.816.176a1.78 1.78 0 00-.584.456 1.953 1.953 0 00-.352.648 2.411 2.411 0 000 1.504c.08.245.2.467.36.664.16.197.357.355.592.472.235.117.507.176.816.176.31 0 .581-.059.816-.176.235-.117.432-.275.592-.472.16-.197.28-.419.36-.664.08-.245.12-.496.12-.752zM84.938 134v-4.352c0-.224-.016-.44-.048-.648a1.547 1.547 0 00-.176-.536c-.085-.15-.2-.27-.344-.36-.144-.09-.333-.136-.568-.136-.224 0-.419.048-.584.144a1.3 1.3 0 00-.416.384 1.68 1.68 0 00-.248.552c-.053.208-.08.424-.08.648V134H79.85v-4.544c0-.459-.09-.821-.272-1.088-.181-.267-.47-.4-.864-.4-.416 0-.739.165-.968.496-.23.33-.344.736-.344 1.216V134h-2.64v-7.968h2.544v1.104h.032c.096-.17.216-.336.36-.496.144-.16.317-.301.52-.424s.43-.221.68-.296c.25-.075.525-.112.824-.112.576 0 1.064.117 1.464.352.4.235.712.57.936 1.008a3.034 3.034 0 011.024-.992c.416-.245.923-.368 1.52-.368.544 0 1 .099 1.368.296.368.197.664.453.888.768.224.315.387.667.488 1.056.101.39.152.77.152 1.144V134h-2.624zm9.986-4.896c0-.416-.13-.773-.392-1.072-.261-.299-.653-.448-1.176-.448-.256 0-.49.04-.704.12-.213.08-.4.19-.56.328-.16.139-.288.301-.384.488-.096.187-.15.381-.16.584h3.376zm2.416 1.008v.32c0 .107-.005.208-.016.304h-5.776c.021.224.088.427.2.608.112.181.256.339.432.472.176.133.373.237.592.312.219.075.445.112.68.112.416 0 .768-.077 1.056-.232.288-.155.523-.355.704-.6l1.824 1.152a3.69 3.69 0 01-1.48 1.256c-.613.293-1.325.44-2.136.44a5.097 5.097 0 01-1.696-.28c-.533-.187-1-.459-1.4-.816a3.779 3.779 0 01-.944-1.32c-.23-.523-.344-1.12-.344-1.792 0-.65.112-1.24.336-1.768.224-.528.528-.976.912-1.344a4.066 4.066 0 011.36-.856 4.65 4.65 0 011.696-.304c.587 0 1.125.099 1.616.296.49.197.912.483 1.264.856s.627.827.824 1.36c.197.533.296 1.141.296 1.824zM105.6 128v3.04c0 .373.072.653.216.84.144.187.403.28.776.28.128 0 .264-.01.408-.032a1.4 1.4 0 00.36-.096l.032 1.92c-.181.064-.41.12-.688.168a4.87 4.87 0 01-.832.072c-.533 0-.981-.067-1.344-.2a2.084 2.084 0 01-.872-.576 2.258 2.258 0 01-.472-.896 4.344 4.344 0 01-.144-1.16V128h-1.28v-1.968h1.264v-2.096h2.576v2.096h1.872V128H105.6zm11.442 1.984c0 .65-.117 1.24-.352 1.768a3.964 3.964 0 01-.96 1.344 4.395 4.395 0 01-1.408.856 4.779 4.779 0 01-1.712.304 4.799 4.799 0 01-1.704-.304 4.282 4.282 0 01-1.408-.856 4.018 4.018 0 01-.952-1.344 4.307 4.307 0 01-.352-1.768c0-.65.117-1.237.352-1.76.235-.523.552-.965.952-1.328.4-.363.87-.64 1.408-.832a5.037 5.037 0 011.704-.288c.608 0 1.179.096 1.712.288.533.192 1.003.47 1.408.832a3.9 3.9 0 01.96 1.328c.235.523.352 1.11.352 1.76zm-2.528 0c0-.256-.043-.507-.128-.752a1.989 1.989 0 00-.368-.648 1.802 1.802 0 00-1.408-.632c-.31 0-.581.059-.816.176a1.78 1.78 0 00-.584.456 1.953 1.953 0 00-.352.648 2.411 2.411 0 000 1.504c.08.245.2.467.36.664.16.197.357.355.592.472.235.117.507.176.816.176.31 0 .581-.059.816-.176.235-.117.432-.275.592-.472.16-.197.28-.419.36-.664.08-.245.12-.496.12-.752zm16.42 0c0 .65-.117 1.24-.352 1.768a3.964 3.964 0 01-.96 1.344 4.395 4.395 0 01-1.408.856 4.779 4.779 0 01-1.712.304 4.799 4.799 0 01-1.704-.304 4.282 4.282 0 01-1.408-.856 4.018 4.018 0 01-.952-1.344 4.307 4.307 0 01-.352-1.768c0-.65.117-1.237.352-1.76.235-.523.552-.965.952-1.328.4-.363.87-.64 1.408-.832a5.037 5.037 0 011.704-.288c.608 0 1.179.096 1.712.288.533.192 1.003.47 1.408.832a3.9 3.9 0 01.96 1.328c.235.523.352 1.11.352 1.76zm-2.528 0c0-.256-.043-.507-.128-.752a1.989 1.989 0 00-.368-.648 1.802 1.802 0 00-1.408-.632c-.31 0-.581.059-.816.176a1.78 1.78 0 00-.584.456 1.953 1.953 0 00-.352.648 2.411 2.411 0 000 1.504c.08.245.2.467.36.664.16.197.357.355.592.472.235.117.507.176.816.176.31 0 .581-.059.816-.176.235-.117.432-.275.592-.472.16-.197.28-.419.36-.664.08-.245.12-.496.12-.752zm9.33 4.016v-1.104h-.032a2.255 2.255 0 01-.376.512 2.37 2.37 0 01-.544.416 3.33 3.33 0 01-.688.288 2.76 2.76 0 01-.792.112c-.533 0-.984-.096-1.352-.288a2.619 2.619 0 01-.896-.744 2.934 2.934 0 01-.496-1.04 4.713 4.713 0 01-.152-1.192v-4.928h2.64v4.32c0 .224.016.437.048.64a1.6 1.6 0 00.184.544c.09.16.21.285.36.376.15.09.347.136.592.136.459 0 .808-.17 1.048-.512.24-.341.36-.741.36-1.2v-4.304h2.624V134h-2.528zm9.634-5.824a2.044 2.044 0 00-.344-.064 3.46 3.46 0 00-.328-.016c-.352 0-.648.064-.888.192s-.432.283-.576.464a1.758 1.758 0 00-.312.592c-.064.213-.096.4-.096.56V134h-2.624v-7.968h2.528v1.152h.032c.203-.405.49-.736.864-.992a2.236 2.236 0 011.296-.384c.107 0 .21.005.312.016.101.01.184.027.248.048l-.112 2.304zM157.566 134v-1.104h-.032a2.255 2.255 0 01-.376.512 2.37 2.37 0 01-.544.416 3.33 3.33 0 01-.688.288 2.76 2.76 0 01-.792.112c-.533 0-.984-.096-1.352-.288a2.619 2.619 0 01-.896-.744 2.934 2.934 0 01-.496-1.04 4.713 4.713 0 01-.152-1.192v-4.928h2.64v4.32c0 .224.016.437.048.64a1.6 1.6 0 00.184.544c.09.16.21.285.36.376.15.09.347.136.592.136.459 0 .808-.17 1.048-.512.24-.341.36-.741.36-1.2v-4.304h2.624V134h-2.528zm9.154-5.616a2.923 2.923 0 00-.752-.512 2.076 2.076 0 00-.912-.208c-.245 0-.472.048-.68.144a.505.505 0 00-.312.496c0 .224.115.384.344.48.23.096.6.203 1.112.32.299.064.6.155.904.272.304.117.579.272.824.464s.443.427.592.704c.15.277.224.608.224.992 0 .501-.101.925-.304 1.272a2.492 2.492 0 01-.792.84c-.325.213-.69.368-1.096.464a5.26 5.26 0 01-1.216.144c-.65 0-1.288-.104-1.912-.312-.624-.208-1.144-.515-1.56-.92l1.472-1.552c.235.256.523.47.864.64a2.4 2.4 0 001.088.256c.213 0 .424-.05.632-.152.208-.101.312-.28.312-.536 0-.245-.128-.427-.384-.544-.256-.117-.656-.24-1.2-.368a6.2 6.2 0 01-.832-.256 2.641 2.641 0 01-.744-.432 2.149 2.149 0 01-.536-.672c-.139-.267-.208-.587-.208-.96 0-.48.101-.888.304-1.224.203-.336.464-.61.784-.824.32-.213.675-.37 1.064-.472a4.59 4.59 0 011.16-.152 5.6 5.6 0 011.752.28c.57.187 1.053.467 1.448.84l-1.44 1.488zm7.458 2.144h-.336c-.288 0-.579.013-.872.04a3.587 3.587 0 00-.784.152 1.45 1.45 0 00-.568.328.753.753 0 00-.224.568c0 .15.035.277.104.384.07.107.157.192.264.256.107.064.23.11.368.136.139.027.272.04.4.04.533 0 .941-.147 1.224-.44.283-.293.424-.69.424-1.192v-.272zm-4.816-3.408a4.595 4.595 0 011.64-1.008 5.62 5.62 0 011.912-.336c.672 0 1.24.083 1.704.248.464.165.84.421 1.128.768.288.347.499.784.632 1.312s.2 1.155.2 1.88V134h-2.4v-.848h-.048c-.203.33-.51.587-.92.768a3.27 3.27 0 01-1.336.272c-.32 0-.65-.043-.992-.128a2.906 2.906 0 01-.936-.416 2.253 2.253 0 01-.696-.768c-.181-.32-.272-.715-.272-1.184 0-.576.157-1.04.472-1.392.315-.352.72-.624 1.216-.816a6.442 6.442 0 011.656-.384c.608-.064 1.2-.096 1.776-.096v-.128c0-.395-.139-.685-.416-.872-.277-.187-.619-.28-1.024-.28-.373 0-.733.08-1.08.24-.347.16-.643.352-.888.576l-1.328-1.424zm17.938 2.864c0 .555-.085 1.088-.256 1.6-.17.512-.419.963-.744 1.352-.325.39-.723.701-1.192.936-.47.235-1.003.352-1.6.352a3.57 3.57 0 01-1.512-.328 2.49 2.49 0 01-1.096-.936h-.032V134h-2.416v-12.096h2.624v4.976h.032c.224-.267.539-.512.944-.736.405-.224.901-.336 1.488-.336.576 0 1.096.112 1.56.336.464.224.859.528 1.184.912.325.384.576.83.752 1.336.176.507.264 1.037.264 1.592zm-2.528 0c0-.256-.04-.507-.12-.752a1.88 1.88 0 00-.36-.648 1.802 1.802 0 00-1.408-.632c-.299 0-.565.059-.8.176a1.909 1.909 0 00-.6.464c-.165.192-.293.41-.384.656a2.153 2.153 0 00.384 2.16c.165.192.365.347.6.464.235.117.501.176.8.176.31 0 .581-.059.816-.176.235-.117.432-.272.592-.464.16-.192.28-.413.36-.664.08-.25.12-.504.12-.76zm6.93-6.496c0 .203-.04.392-.12.568-.08.176-.187.328-.32.456s-.293.23-.48.304a1.558 1.558 0 01-.584.112 1.47 1.47 0 01-1.072-.424 1.373 1.373 0 01-.432-1.016 1.4 1.4 0 01.112-.552c.075-.176.181-.328.32-.456s.299-.232.48-.312a1.558 1.558 0 011.656.296c.133.128.24.28.32.456.08.176.12.365.12.568zM188.886 134v-7.968h2.624V134h-2.624zm4.626 0v-12.096h2.656V134h-2.656zm7.474-10.512c0 .203-.04.392-.12.568-.08.176-.187.328-.32.456s-.293.23-.48.304a1.558 1.558 0 01-.584.112 1.47 1.47 0 01-1.072-.424 1.373 1.373 0 01-.432-1.016 1.4 1.4 0 01.112-.552c.075-.176.181-.328.32-.456s.299-.232.48-.312a1.558 1.558 0 011.656.296c.133.128.24.28.32.456.08.176.12.365.12.568zM198.17 134v-7.968h2.624V134h-2.624zm7.442-6v3.04c0 .373.072.653.216.84.144.187.403.28.776.28.128 0 .264-.01.408-.032a1.4 1.4 0 00.36-.096l.032 1.92c-.181.064-.41.12-.688.168a4.87 4.87 0 01-.832.072c-.533 0-.981-.067-1.344-.2a2.084 2.084 0 01-.872-.576 2.258 2.258 0 01-.472-.896 4.344 4.344 0 01-.144-1.16V128h-1.28v-1.968h1.264v-2.096h2.576v2.096h1.872V128h-1.872zm7.49 7.2c-.16.416-.339.787-.536 1.112a3.348 3.348 0 01-.704.832c-.272.23-.592.403-.96.52-.368.117-.803.176-1.304.176-.245 0-.499-.016-.76-.048a4.707 4.707 0 01-.68-.128l.288-2.208a2.902 2.902 0 00.848.144c.405 0 .699-.093.88-.28.181-.187.336-.45.464-.792l.256-.656-3.328-7.84h2.912l1.776 5.12h.048l1.584-5.12h2.784l-3.568 9.168zm11.204-7.2v3.04c0 .373.072.653.216.84.144.187.403.28.776.28.128 0 .264-.01.408-.032a1.4 1.4 0 00.36-.096l.032 1.92c-.181.064-.41.12-.688.168a4.87 4.87 0 01-.832.072c-.533 0-.981-.067-1.344-.2a2.084 2.084 0 01-.872-.576 2.258 2.258 0 01-.472-.896 4.344 4.344 0 01-.144-1.16V128h-1.28v-1.968h1.264v-2.096h2.576v2.096h1.872V128h-1.872zm8.482 1.104c0-.416-.13-.773-.392-1.072-.261-.299-.653-.448-1.176-.448-.256 0-.49.04-.704.12-.213.08-.4.19-.56.328-.16.139-.288.301-.384.488-.096.187-.15.381-.16.584h3.376zm2.416 1.008v.32c0 .107-.005.208-.016.304h-5.776c.021.224.088.427.2.608.112.181.256.339.432.472.176.133.373.237.592.312.219.075.445.112.68.112.416 0 .768-.077 1.056-.232.288-.155.523-.355.704-.6l1.824 1.152a3.69 3.69 0 01-1.48 1.256c-.613.293-1.325.44-2.136.44a5.097 5.097 0 01-1.696-.28c-.533-.187-1-.459-1.4-.816a3.779 3.779 0 01-.944-1.32c-.23-.523-.344-1.12-.344-1.792 0-.65.112-1.24.336-1.768.224-.528.528-.976.912-1.344a4.066 4.066 0 011.36-.856 4.65 4.65 0 011.696-.304c.587 0 1.125.099 1.616.296.49.197.912.483 1.264.856s.627.827.824 1.36c.197.533.296 1.141.296 1.824zm6.21-1.728a2.923 2.923 0 00-.752-.512 2.076 2.076 0 00-.912-.208c-.245 0-.472.048-.68.144a.505.505 0 00-.312.496c0 .224.115.384.344.48.23.096.6.203 1.112.32.299.064.6.155.904.272.304.117.579.272.824.464s.443.427.592.704c.15.277.224.608.224.992 0 .501-.101.925-.304 1.272a2.492 2.492 0 01-.792.84c-.325.213-.69.368-1.096.464a5.26 5.26 0 01-1.216.144c-.65 0-1.288-.104-1.912-.312-.624-.208-1.144-.515-1.56-.92l1.472-1.552c.235.256.523.47.864.64a2.4 2.4 0 001.088.256c.213 0 .424-.05.632-.152.208-.101.312-.28.312-.536 0-.245-.128-.427-.384-.544-.256-.117-.656-.24-1.2-.368a6.2 6.2 0 01-.832-.256 2.641 2.641 0 01-.744-.432 2.149 2.149 0 01-.536-.672c-.139-.267-.208-.587-.208-.96 0-.48.101-.888.304-1.224.203-.336.464-.61.784-.824.32-.213.675-.37 1.064-.472a4.59 4.59 0 011.16-.152 5.6 5.6 0 011.752.28c.57.187 1.053.467 1.448.84l-1.44 1.488zm5.602-.384v3.04c0 .373.072.653.216.84.144.187.403.28.776.28.128 0 .264-.01.408-.032a1.4 1.4 0 00.36-.096l.032 1.92c-.181.064-.41.12-.688.168a4.87 4.87 0 01-.832.072c-.533 0-.981-.067-1.344-.2a2.084 2.084 0 01-.872-.576 2.258 2.258 0 01-.472-.896 4.344 4.344 0 01-.144-1.16V128h-1.28v-1.968h1.264v-2.096h2.576v2.096h1.872V128h-1.872zm3.474 2.208v-7.536h2.688v7.536h-2.688zm2.912 2.432c0 .213-.04.413-.12.6-.08.187-.192.347-.336.48-.144.133-.312.24-.504.32-.192.08-.395.12-.608.12a1.6 1.6 0 01-.6-.112 1.437 1.437 0 01-.488-.32 1.692 1.692 0 01-.336-.48 1.468 1.468 0 01-.008-1.176 1.519 1.519 0 01.824-.816c.192-.08.395-.12.608-.12.213 0 .416.04.608.12.192.08.36.187.504.32a1.468 1.468 0 01.456 1.064z"/></g><path fill="#225CFF" fill-rule="nonzero" d="M32.146 220.16c-.187-.243-.45-.446-.791-.609a2.36 2.36 0 0 0-1.645-.168c-.205.051-.392.13-.56.238a1.315 1.315 0 0 0-.413.42c-.107.173-.161.38-.161.623 0 .224.047.415.14.574.093.159.222.294.385.406.163.112.362.21.595.294.233.084.49.168.77.252.317.103.646.22.987.35.34.13.653.303.938.518.285.215.518.485.7.812.182.327.273.733.273 1.218 0 .532-.098.996-.294 1.393a2.874 2.874 0 0 1-.784.987c-.327.261-.71.457-1.148.588-.439.13-.9.196-1.386.196a5.203 5.203 0 0 1-1.89-.357 3.65 3.65 0 0 1-1.512-1.057l1.26-1.176c.243.336.567.602.973.798a2.74 2.74 0 0 0 1.197.294c.205 0 .415-.026.63-.077a1.68 1.68 0 0 0 .581-.259 1.45 1.45 0 0 0 .42-.455c.107-.182.161-.408.161-.679 0-.261-.06-.478-.182-.651a1.628 1.628 0 0 0-.49-.448 3.518 3.518 0 0 0-.728-.329l-.882-.294a8.738 8.738 0 0 1-.896-.336 2.971 2.971 0 0 1-.805-.518 2.503 2.503 0 0 1-.581-.791c-.15-.313-.224-.702-.224-1.169 0-.504.105-.938.315-1.302.21-.364.485-.665.826-.903.34-.238.728-.415 1.162-.532a5.075 5.075 0 0 1 1.323-.175c.504 0 1.015.089 1.533.266.518.177.968.443 1.351.798l-1.148 1.26zm4.664-.532h-3.038v-1.54h7.84v1.54h-3.038V228H36.81v-8.372zm8.121-1.54h1.527l4.27 9.912H48.71l-.924-2.268H43.49L42.593 228H40.62l4.312-9.912zm2.24 6.132l-1.526-4.032-1.554 4.032h3.08zm4.44-6.132h3.444c.467 0 .92.049 1.358.147.439.098.829.259 1.17.483.34.224.613.518.818.882.206.364.308.807.308 1.33 0 .719-.203 1.304-.609 1.757-.406.453-.959.758-1.659.917L59.087 228H56.96l-2.296-4.2h-1.288v4.2h-1.764v-9.912zm3.206 4.27c.252 0 .504-.019.756-.056.252-.037.479-.107.68-.21.2-.103.366-.25.496-.441s.196-.436.196-.735c0-.27-.06-.492-.182-.665a1.355 1.355 0 0 0-.462-.413 1.932 1.932 0 0 0-.637-.21 4.47 4.47 0 0 0-.693-.056h-1.596v2.786h1.442zm7.338-2.73h-3.038v-1.54h7.84v1.54h-3.038V228h-1.764v-8.372zm10.587 0h-3.037v-1.54h7.84v1.54h-3.038V228h-1.765v-8.372zm5.854-1.54h6.566v1.54H80.36v2.52h4.55v1.484h-4.55v2.8h5.054V228h-6.818v-9.912zm13.498 2.072c-.187-.243-.45-.446-.791-.609a2.36 2.36 0 0 0-1.645-.168c-.205.051-.392.13-.56.238a1.315 1.315 0 0 0-.413.42c-.107.173-.161.38-.161.623 0 .224.047.415.14.574.093.159.222.294.385.406.163.112.362.21.595.294.233.084.49.168.77.252.317.103.646.22.987.35.34.13.653.303.938.518.285.215.518.485.7.812.182.327.273.733.273 1.218 0 .532-.098.996-.294 1.393a2.874 2.874 0 0 1-.784.987c-.327.261-.71.457-1.148.588-.439.13-.9.196-1.386.196a5.203 5.203 0 0 1-1.89-.357 3.65 3.65 0 0 1-1.512-1.057l1.26-1.176c.243.336.567.602.973.798a2.74 2.74 0 0 0 1.197.294c.205 0 .415-.026.63-.077a1.68 1.68 0 0 0 .581-.259 1.45 1.45 0 0 0 .42-.455c.107-.182.161-.408.161-.679 0-.261-.06-.478-.182-.651a1.628 1.628 0 0 0-.49-.448 3.518 3.518 0 0 0-.728-.329l-.882-.294a8.738 8.738 0 0 1-.896-.336 2.971 2.971 0 0 1-.805-.518 2.503 2.503 0 0 1-.581-.791c-.15-.313-.224-.702-.224-1.169 0-.504.105-.938.315-1.302.21-.364.485-.665.826-.903.34-.238.728-.415 1.162-.532a5.075 5.075 0 0 1 1.323-.175c.504 0 1.015.089 1.533.266.518.177.968.443 1.351.798l-1.148 1.26zm4.664-.532H93.72v-1.54h7.84v1.54h-3.038V228h-1.764v-8.372zm5.854-1.54h1.764V228h-1.764v-9.912zm3.851 0h2.338l4.606 7.42h.028v-7.42h1.764V228h-2.24l-4.704-7.658h-.028V228h-1.764v-9.912zm19.504 9.394a7.709 7.709 0 0 1-1.659.567c-.602.135-1.295.203-2.079.203-.803 0-1.535-.128-2.198-.385a5.026 5.026 0 0 1-1.708-1.078 4.891 4.891 0 0 1-1.113-1.652c-.266-.64-.399-1.346-.399-2.121 0-.793.138-1.51.413-2.149a4.786 4.786 0 0 1 1.134-1.631 5.035 5.035 0 0 1 1.701-1.036 6.065 6.065 0 0 1 2.128-.364c.793 0 1.519.114 2.177.343.658.229 1.188.53 1.589.903l-1.218 1.316c-.252-.28-.604-.518-1.057-.714a3.677 3.677 0 0 0-1.477-.294c-.523 0-.996.093-1.421.28a3.188 3.188 0 0 0-1.085.77c-.299.327-.53.71-.693 1.148a4.06 4.06 0 0 0-.245 1.428c0 .532.082 1.02.245 1.463.163.443.397.828.7 1.155a3.15 3.15 0 0 0 1.106.763c.434.182.926.273 1.477.273.756 0 1.414-.117 1.974-.35v-2.52h-2.086v-1.456h3.794v5.138z"/><path stroke="#225CFF" stroke-linecap="round" stroke-linejoin="round" stroke-width="2" d="M137 223h17l-3-3m0 6l3-3" opacity=".85"/><g><g transform="translate(22 30)"><use fill="#2C3F58" fill-opacity=".06" stroke="#979797" stroke-dasharray="5" stroke-width="2" mask="url(#b)" opacity=".5" xlink:href="#a"/><circle cx="35" cy="35" r="35" fill="#E1E9FF"/><path fill="#225CFF" d="M61.901 62.368L51.533 52.092a.313.313 0 0 0-.533.22v14.653a.313.313 0 0 0 .533.217l3.275-3.29 2.397 5.725a.622.622 0 0 0 .816.335l1.166-.484a.62.62 0 0 0 .336-.81l-2.402-5.753h4.559a.31.31 0 0 0 .221-.537z"/><path fill="#225CFF" fill-rule="nonzero" stroke="#225CFF" stroke-width=".5" d="M12.25 26.25v1.293h9.196V26.25H12.25zm10.5 0v1.293h13.106s-1.339-1.293-3.112-1.293H22.75zm15.676 0v1.293h7.928l-.47-1.293h-7.458zm13.613 0l-.47 1.293h7.857V26.25H52.04zM12.25 28.765v1.292h9.196v-1.292H12.25zm10.5.001v1.29h14.625s-.17-.994-.468-1.29H22.75zm15.676 0v1.29h8.804l-.435-1.29h-8.369zm12.672 0l-.435 1.29h8.763v-1.29h-8.328zM14.893 31.28v1.295h3.983v-1.295h-3.983zm10.5 0v1.295h3.983v-1.295h-3.983zm7.857 0v1.295h3.983s.253-.684.253-1.295H33.25zm7.82 0v1.295h7.055l-.47-1.295H41.07zm9.162 0l-.473 1.295h7.096v-1.295h-6.623zm-35.338 2.517v1.292h3.983v-1.292h-3.983zm10.5 0v1.292h10.172s.85-.663 1.122-1.292H25.393zm15.676 0v1.292h3.983v-.72l.253.72h7.297l.271-.72v.72h3.983v-1.292H49.38l-.397 1.095-.398-1.095H41.07zM14.893 36.31v1.293h3.983V36.31h-3.983zm10.5 0v1.293h11.294c-.271-.627-1.121-1.293-1.121-1.293H25.393zm15.676 0v1.293h3.983V36.31H41.07zm4.707 0l.482 1.293h5.47l.46-1.293h-6.412zm7.096 0v1.293h3.983V36.31h-3.983zm-37.978 2.515v1.293h3.983v-1.293h-3.983zm10.5 0v1.293h3.983v-1.293h-3.983zm7.857 0v1.293h4.236c0-.61-.253-1.293-.253-1.293H33.25zm7.82 0v1.293h3.983v-1.293h-3.983zm5.61 0l.467 1.293h3.667l.47-1.293h-4.603zm6.192 0v1.293h3.983v-1.293h-3.983zm-40.55 2.514v1.295h9.197v-1.295h-9.196zm10.429 0v1.295h14.157c.298-.297.469-1.295.469-1.295H22.752zm15.748 0v1.295h6.552v-1.295H38.5zm9.087 0l.48 1.295h1.866l.45-1.295h-2.796zm5.286 0v1.295H59.5v-1.295h-6.626zm-40.55 2.517v1.293h9.197v-1.293h-9.196zm10.429 0v1.29h9.992c1.773 0 3.112-1.29 3.112-1.29H22.752zm15.748 0v1.293h6.552v-1.293H38.5zm9.998 0l.461 1.289.08.002.468-1.29-1.009-.001zm4.376 0v1.293H59.5v-1.293h-6.626z"/></g></g></g></svg>