<svg xmlns="http://www.w3.org/2000/svg" width="338" height="246" viewBox="0 0 338 246"><title>illu-Centralized Ownership</title><g fill="none" fill-rule="evenodd"><path fill="#FFF" d="M4 0h142a4 4 0 0 1 4 4v238a4 4 0 0 1-4 4H4a4 4 0 0 1-4-4V4a4 4 0 0 1 4-4z"/><path fill="#2C3F58" fill-rule="nonzero" d="M16.936 182.504h1.512V191h-1.512v-8.496zm3.23 2.736h1.367v.924h.024c.129-.288.35-.542.667-.762.316-.22.69-.33 1.122-.33.376 0 .697.066.965.198.269.132.488.306.66.522.173.216.298.464.378.744.08.28.12.568.12.864v3.6h-1.44v-3.192c0-.168-.011-.344-.035-.528a1.425 1.425 0 00-.157-.498c-.08-.148-.19-.27-.33-.366-.14-.096-.325-.144-.558-.144-.232 0-.431.046-.6.138-.168.092-.305.21-.413.354-.109.144-.19.31-.247.498a1.987 1.987 0 00-.084.57V191h-1.44v-5.76zm6.037 0h1.572l1.512 4.2h.024l1.524-4.2h1.524L30.067 191h-1.536l-2.328-5.76zm6.601 2.856c0-.456.082-.87.246-1.242.165-.372.386-.69.667-.954.28-.264.611-.468.995-.612a3.457 3.457 0 011.224-.216c.433 0 .84.072 1.224.216.385.144.716.348.997.612.28.264.501.582.666.954.164.372.245.786.245 1.242 0 .456-.081.872-.245 1.248a2.955 2.955 0 01-.666.966c-.28.268-.612.478-.996.63a3.295 3.295 0 01-1.224.228c-.433 0-.84-.076-1.224-.228a3.042 3.042 0 01-.996-.63 2.955 2.955 0 01-.666-.966 3.089 3.089 0 01-.247-1.248zm1.465 0c0 .224.033.448.102.672.068.224.17.424.305.6.137.176.308.32.517.432.208.112.455.168.744.168.288 0 .535-.056.744-.168.208-.112.38-.256.516-.432a1.85 1.85 0 00.305-.6 2.244 2.244 0 000-1.338 1.861 1.861 0 00-.306-.594 1.537 1.537 0 00-.515-.426 1.595 1.595 0 00-.744-.162c-.289 0-.536.054-.744.162-.209.108-.38.25-.517.426a1.861 1.861 0 00-.306.594c-.068.22-.101.442-.101.666zm6.133-2.856h1.44V191h-1.44v-5.76zm-.204-1.956a.83.83 0 01.258-.606.886.886 0 01.654-.258c.264 0 .486.082.666.246a.8.8 0 01.27.618.8.8 0 01-.27.618.952.952 0 01-.666.246.886.886 0 01-.654-.258.83.83 0 01-.258-.606zm7.25 3.552a1.27 1.27 0 00-.505-.402 1.56 1.56 0 00-1.38 0c-.2.108-.365.25-.498.426-.132.176-.23.374-.293.594-.065.22-.096.442-.096.666 0 .224.033.446.102.666.068.22.17.418.306.594.136.176.305.318.51.426.204.108.441.162.713.162.225 0 .448-.044.672-.132a1.28 1.28 0 00.54-.384l.9.912c-.24.256-.545.454-.917.594-.373.14-.774.21-1.207.21-.424 0-.825-.068-1.206-.204a2.86 2.86 0 01-.995-.6 2.846 2.846 0 01-.672-.96 3.183 3.183 0 01-.246-1.284c0-.464.081-.884.245-1.26a2.888 2.888 0 011.645-1.572c.372-.144.77-.216 1.194-.216.424 0 .833.08 1.23.24.396.16.71.38.941.66l-.983.864zm5.893.708c0-.184-.026-.36-.078-.528a1.208 1.208 0 00-.246-.444 1.201 1.201 0 00-.426-.306 1.49 1.49 0 00-.606-.114c-.432 0-.798.13-1.098.39-.3.26-.466.594-.498 1.002h2.952zm1.44.648v.192c0 .064-.004.128-.012.192h-4.38a1.426 1.426 0 00.528 1.014c.152.124.324.222.516.294.192.072.392.108.6.108.36 0 .664-.066.912-.198s.452-.314.612-.546l.96.768c-.568.768-1.392 1.152-2.472 1.152-.448 0-.86-.07-1.236-.21a2.917 2.917 0 01-.978-.594 2.677 2.677 0 01-.648-.942 3.247 3.247 0 01-.234-1.266c0-.464.078-.886.234-1.266.156-.38.37-.704.642-.972s.594-.476.966-.624a3.233 3.233 0 011.206-.222c.4 0 .77.066 1.11.198.34.132.634.328.882.588.248.26.442.584.582.972.14.388.21.842.21 1.362zm5.907-2.196h.384c.216 0 .43-.018.642-.054.212-.036.406-.102.582-.198.176-.096.318-.226.426-.39.108-.164.162-.378.162-.642 0-.192-.036-.364-.108-.516a1.12 1.12 0 00-.294-.384 1.337 1.337 0 00-.432-.24 1.567 1.567 0 00-.51-.084c-.352 0-.644.1-.876.3-.232.2-.392.464-.48.792l-1.356-.348c.072-.288.194-.55.366-.786s.38-.44.624-.612.518-.306.822-.402a3.17 3.17 0 01.96-.144c.368 0 .718.05 1.05.15.332.1.624.248.876.444s.45.438.594.726c.144.288.216.624.216 1.008 0 .456-.138.862-.414 1.218-.276.356-.646.59-1.11.702v.024c.52.104.942.338 1.266.702.324.364.486.81.486 1.338 0 .44-.086.824-.258 1.152-.172.328-.4.6-.684.816a3.03 3.03 0 01-.954.486 3.622 3.622 0 01-1.068.162c-.36 0-.7-.038-1.02-.114a3.111 3.111 0 01-.882-.354 2.618 2.618 0 01-.708-.624 2.818 2.818 0 01-.474-.912l1.344-.42c.104.336.298.62.582.852.284.232.654.348 1.11.348.184 0 .37-.026.558-.078a1.48 1.48 0 00.504-.246 1.27 1.27 0 00.36-.432c.092-.176.138-.392.138-.648a1.17 1.17 0 00-.198-.69 1.433 1.433 0 00-.498-.444 2.345 2.345 0 00-.666-.234 3.638 3.638 0 00-.702-.072h-.36v-1.152zm5.522 3.684l3.276-3.216c.264-.256.473-.514.63-.774.156-.26.234-.558.234-.894 0-.4-.13-.718-.39-.954s-.582-.354-.966-.354c-.409 0-.736.138-.984.414-.249.276-.4.622-.457 1.038l-1.403-.216c.04-.352.14-.676.3-.972a2.73 2.73 0 01.611-.768c.249-.216.538-.386.87-.51a3.08 3.08 0 011.087-.186c.368 0 .721.052 1.061.156.34.104.642.262.907.474.264.212.473.472.63.78.156.308.234.666.234 1.074 0 .272-.036.526-.108.762-.073.236-.17.458-.294.666a4.084 4.084 0 01-.432.594c-.165.188-.342.37-.535.546l-2.447 2.34h3.828V191H66.21v-1.32zm10.585-.444h-3.924v-1.272l3.612-5.46h1.728V188h1.188v1.236h-1.188V191h-1.416v-1.764zm0-5.04h-.024L74.359 188h2.436v-3.804zm3.95 7.38l-.996-.36 3.744-9.312.996.384-3.745 9.288zm9.757-7.776h-3.468l-.084 1.836c.136-.04.298-.068.486-.084s.358-.024.51-.024c.416 0 .802.06 1.158.18.356.12.666.294.93.522.264.228.47.508.618.84.148.332.222.714.222 1.146 0 .472-.082.894-.246 1.266a2.773 2.773 0 01-1.65 1.53 3.5 3.5 0 01-1.2.204c-.712 0-1.312-.166-1.8-.498a2.854 2.854 0 01-1.068-1.362l1.308-.48c.12.336.32.606.6.81.28.204.612.306.996.306.216 0 .42-.036.612-.108.192-.072.36-.176.504-.312.144-.136.258-.306.342-.51.084-.204.126-.434.126-.69 0-.328-.056-.6-.168-.816a1.478 1.478 0 00-.438-.522 1.64 1.64 0 00-.606-.276 3.015 3.015 0 00-.684-.078c-.16 0-.33.012-.51.036a4.56 4.56 0 00-.528.102 6.69 6.69 0 00-.504.15c-.164.056-.31.116-.438.18l.144-4.644h4.836v1.296zm3.722 2.196h.383c.217 0 .43-.018.642-.054.213-.036.406-.102.583-.198.176-.096.317-.226.425-.39.109-.164.162-.378.162-.642 0-.192-.035-.364-.108-.516a1.12 1.12 0 00-.294-.384 1.337 1.337 0 00-.431-.24 1.567 1.567 0 00-.51-.084c-.353 0-.644.1-.876.3-.233.2-.392.464-.48.792l-1.356-.348c.072-.288.193-.55.365-.786.173-.236.38-.44.624-.612.245-.172.518-.306.823-.402a3.17 3.17 0 01.96-.144c.368 0 .717.05 1.05.15.332.1.623.248.875.444.253.196.45.438.594.726.145.288.216.624.216 1.008 0 .456-.137.862-.413 1.218-.277.356-.646.59-1.11.702v.024c.52.104.941.338 1.266.702.324.364.486.81.486 1.338 0 .44-.086.824-.258 1.152-.173.328-.4.6-.684.816a3.03 3.03 0 01-.954.486 3.622 3.622 0 01-1.069.162c-.36 0-.7-.038-1.02-.114a3.111 3.111 0 01-.881-.354 2.618 2.618 0 01-.709-.624 2.818 2.818 0 01-.474-.912l1.344-.42c.105.336.298.62.583.852.284.232.653.348 1.11.348.184 0 .37-.026.558-.078a1.48 1.48 0 00.504-.246 1.27 1.27 0 00.36-.432c.092-.176.137-.392.137-.648a1.17 1.17 0 00-.198-.69 1.433 1.433 0 00-.498-.444 2.345 2.345 0 00-.665-.234 3.638 3.638 0 00-.703-.072h-.36v-1.152zm5.305-3.492h5.772v1.32L101.905 191h-1.692l3.576-7.2h-4.26v-1.296zM48.663 28.742l.891 1.177-.99.693-.891-1.199-.869 1.155-.968-.693.891-1.144-1.419-.473.385-1.1 1.397.484v-1.43h1.21v1.43l1.397-.44.374 1.1-1.408.44zm7.137 0l.89 1.177-.99.693-.89-1.199-.87 1.155-.967-.693.89-1.144-1.418-.473.385-1.1 1.397.484v-1.43h1.21v1.43l1.397-.44.374 1.1-1.408.44zm7.136 0l.891 1.177-.99.693-.89-1.199-.87 1.155-.968-.693.891-1.144-1.419-.473.385-1.1 1.397.484v-1.43h1.21v1.43l1.397-.44.374 1.1-1.408.44zm7.137 0l.891 1.177-.99.693-.89-1.199-.87 1.155-.968-.693.891-1.144-1.419-.473.385-1.1 1.397.484v-1.43h1.21v1.43l1.397-.44.374 1.1-1.408.44z" opacity=".7"/><g opacity=".5" transform="translate(15 22)"><rect width="18" height="13" stroke="#364962" stroke-linecap="round" stroke-linejoin="round" stroke-width="2" rx="1.875"/><path fill="#364962" d="M0 4h18v2H0z"/><rect width="8" height="2" x="3" y="8" fill="#364962" rx="1"/></g><path fill="#2C3F58" fill-rule="nonzero" d="M84.665 30.482V32h-1.727v-1.518h-3.663v-1.551l3.168-4.719h2.211v4.774h1.078v1.496h-1.067zm-1.716-4.378h-.033l-1.848 2.882h1.881v-2.882zm9.822 4.378V32h-1.727v-1.518h-3.663v-1.551l3.168-4.719h2.211v4.774h1.078v1.496h-1.067zm-1.716-4.378h-.033l-1.848 2.882h1.881v-2.882zM98.325 32v-5.72l-1.452 1.122-.957-1.309 2.563-1.881h1.694V32h-1.848zm5.741 0v-1.54l3.036-2.75c.19-.183.345-.37.462-.561.117-.19.176-.403.176-.638 0-.279-.088-.504-.264-.676-.176-.173-.41-.259-.704-.259a.966.966 0 0 0-.754.325c-.194.216-.31.5-.346.852l-1.771-.242c.044-.396.152-.748.325-1.056a2.727 2.727 0 0 1 1.561-1.282c.342-.113.703-.17 1.084-.17.36 0 .708.048 1.045.143.337.095.638.242.902.44s.475.447.633.748c.157.3.236.653.236 1.056 0 .279-.037.53-.11.754-.073.223-.174.43-.302.621-.129.19-.275.368-.44.534-.166.165-.336.328-.512.489l-1.804 1.606h3.179V32h-5.632z" opacity=".7"/><path fill="#2C3F58" fill-rule="nonzero" d="M23.92 205.204c.836.03 1.694.176 2.574.44a6.82 6.82 0 0 1 2.354 1.232c-.719.821-1.43 1.62-2.134 2.398a3.878 3.878 0 0 0-1.32-.858 4.336 4.336 0 0 0-1.474-.33v3.52c.572.176 1.151.374 1.738.594.587.22 1.122.513 1.606.88s.88.814 1.188 1.342c.308.528.462 1.188.462 1.98 0 .807-.143 1.507-.429 2.101a4.358 4.358 0 0 1-1.144 1.485 5.047 5.047 0 0 1-1.628.902 6.298 6.298 0 0 1-1.881.33v1.606h-1.628v-1.606a9.837 9.837 0 0 1-2.882-.539 7.281 7.281 0 0 1-2.552-1.485l1.155-1.199c.389-.403.774-.81 1.155-1.221.19.22.418.422.682.605a5.718 5.718 0 0 0 1.65.792c.279.08.543.121.792.121v-3.85a21.045 21.045 0 0 1-1.815-.594 5.621 5.621 0 0 1-1.529-.858 3.996 3.996 0 0 1-1.056-1.287c-.264-.506-.396-1.126-.396-1.859 0-.719.147-1.36.44-1.925a4.565 4.565 0 0 1 1.144-1.43c.47-.389.997-.69 1.584-.902a5.985 5.985 0 0 1 1.738-.363v-1.518h1.606v1.496zm-1.606 2.838a2.01 2.01 0 0 0-1.067.451c-.315.257-.473.627-.473 1.111 0 .47.14.829.418 1.078.279.25.653.433 1.122.55v-3.19zm1.518 10.274c.499-.03.891-.194 1.177-.495.286-.3.429-.708.429-1.221 0-.513-.15-.898-.451-1.155-.3-.257-.686-.458-1.155-.605v3.476zM42.227 221l-1.21-3.058h-6.028L33.845 221h-4.092l6.534-15.576h3.652L46.407 221h-4.18zm-4.18-11.418l-1.98 5.346h3.916l-1.936-5.346zM54.55 221v-5.984c0-.308-.026-.601-.078-.88a2.426 2.426 0 0 0-.253-.737 1.312 1.312 0 0 0-.495-.506c-.212-.125-.48-.187-.802-.187-.323 0-.605.062-.847.187a1.714 1.714 0 0 0-.606.517c-.16.22-.282.473-.363.759-.08.286-.12.583-.12.891V221h-3.63v-10.956h3.497v1.518h.044c.133-.235.305-.466.517-.693.213-.227.462-.422.748-.583.287-.161.598-.293.935-.396a3.683 3.683 0 0 1 1.078-.154c.734 0 1.357.132 1.87.396.514.264.928.605 1.243 1.023.316.418.543.898.683 1.441.139.543.209 1.085.209 1.628V221h-3.63zm13.4 0v-5.984c0-.308-.025-.601-.077-.88a2.426 2.426 0 0 0-.253-.737 1.312 1.312 0 0 0-.495-.506c-.212-.125-.48-.187-.803-.187-.322 0-.605.062-.847.187a1.714 1.714 0 0 0-.605.517c-.161.22-.282.473-.363.759-.08.286-.12.583-.12.891V221h-3.63v-10.956h3.497v1.518h.044c.132-.235.305-.466.517-.693.213-.227.462-.422.748-.583.286-.161.598-.293.935-.396a3.683 3.683 0 0 1 1.078-.154c.734 0 1.357.132 1.87.396.514.264.928.605 1.243 1.023.316.418.543.898.682 1.441.14.543.21 1.085.21 1.628V221h-3.63zm13.423 0v-1.518h-.044c-.132.25-.304.484-.517.704-.213.22-.462.41-.748.572a4.579 4.579 0 0 1-.946.396 3.795 3.795 0 0 1-1.089.154c-.733 0-1.353-.132-1.859-.396a3.6 3.6 0 0 1-1.232-1.023 4.035 4.035 0 0 1-.682-1.43 6.48 6.48 0 0 1-.209-1.639v-6.776h3.63v5.94c0 .308.022.601.066.88.044.279.128.528.253.748.125.22.29.392.495.517.205.125.477.187.814.187.63 0 1.111-.235 1.441-.704.33-.47.495-1.02.495-1.65v-5.918h3.608V221h-3.476zm12.609-4.774h-.462c-.396 0-.796.018-1.2.055a4.932 4.932 0 0 0-1.077.209 1.994 1.994 0 0 0-.781.451c-.206.198-.308.458-.308.781 0 .205.047.381.143.528.095.147.216.264.363.352.146.088.315.15.506.187.19.037.374.055.55.055.733 0 1.294-.202 1.683-.605.388-.403.583-.95.583-1.639v-.374zm-6.622-4.686a6.318 6.318 0 0 1 2.255-1.386 7.727 7.727 0 0 1 2.629-.462c.924 0 1.705.114 2.343.341.638.227 1.155.58 1.55 1.056.397.477.686 1.078.87 1.804.183.726.275 1.588.275 2.585V221h-3.3v-1.166h-.066c-.279.455-.7.807-1.265 1.056a4.497 4.497 0 0 1-1.837.374c-.44 0-.895-.059-1.364-.176a3.995 3.995 0 0 1-1.287-.572 3.098 3.098 0 0 1-.957-1.056c-.25-.44-.374-.983-.374-1.628 0-.792.216-1.43.649-1.914.432-.484.99-.858 1.672-1.122a8.858 8.858 0 0 1 2.277-.528c.836-.088 1.65-.132 2.442-.132v-.176c0-.543-.19-.942-.572-1.199-.382-.257-.85-.385-1.408-.385-.514 0-1.009.11-1.485.33a4.74 4.74 0 0 0-1.221.792l-1.826-1.958zM99.859 221v-16.632h3.651V221H99.86z"/><path fill="#FFF" d="M162 62h172a4 4 0 0 1 4 4v80a4 4 0 0 1-4 4H162a4 4 0 0 1-4-4V66a4 4 0 0 1 4-4z"/><path fill="#C8F1DA" d="M291 115h33a4 4 0 0 1 4 4v16a4 4 0 0 1-4 4h-33a4 4 0 0 1-4-4v-16a4 4 0 0 1 4-4z"/><path fill="#2F905D" fill-rule="nonzero" d="M295.936 122.504h2.772c.488 0 .928.044 1.32.132a2.75 2.75 0 0 1 1.008.432c.28.2.496.456.648.768.152.312.228.688.228 1.128 0 .472-.088.868-.264 1.188-.176.32-.414.578-.714.774-.3.196-.65.338-1.05.426-.4.088-.824.132-1.272.132h-1.164V131h-1.512v-8.496zm2.568 3.708c.248 0 .484-.018.708-.054.224-.036.424-.1.6-.192s.316-.218.42-.378c.104-.16.156-.368.156-.624 0-.248-.052-.45-.156-.606a1.078 1.078 0 0 0-.414-.366 1.773 1.773 0 0 0-.588-.174 5.366 5.366 0 0 0-.678-.042h-1.104v2.436h1.056zm8.256 4.056h-.036c-.144.256-.376.466-.696.63a2.36 2.36 0 0 1-1.092.246c-.232 0-.474-.03-.726-.09a2.16 2.16 0 0 1-.696-.3 1.744 1.744 0 0 1-.528-.552c-.14-.228-.21-.51-.21-.846 0-.432.122-.776.366-1.032s.558-.452.942-.588a5.31 5.31 0 0 1 1.278-.27c.468-.044.926-.066 1.374-.066v-.144c0-.36-.13-.626-.39-.798a1.647 1.647 0 0 0-.93-.258c-.304 0-.596.064-.876.192s-.512.284-.696.468l-.744-.876a3.25 3.25 0 0 1 1.134-.684 3.865 3.865 0 0 1 1.302-.228c.512 0 .934.072 1.266.216.332.144.594.332.786.564.192.232.326.492.402.78.076.288.114.576.114.864V131h-1.344v-.732zm-.024-1.896h-.324c-.232 0-.476.01-.732.03-.256.02-.492.064-.708.132a1.511 1.511 0 0 0-.54.288.638.638 0 0 0-.216.51.613.613 0 0 0 .324.564c.096.056.204.096.324.12.12.024.24.036.36.036.496 0 .872-.132 1.128-.396.256-.264.384-.624.384-1.08v-.204zm3.072-3.132h1.44V131h-1.44v-5.76zm-.204-1.956a.83.83 0 0 1 .258-.606.886.886 0 0 1 .654-.258c.264 0 .486.082.666.246a.8.8 0 0 1 .27.618.8.8 0 0 1-.27.618.952.952 0 0 1-.666.246.886.886 0 0 1-.654-.258.83.83 0 0 1-.258-.606zm9.252 7.716h-1.368v-.864h-.024a1.96 1.96 0 0 1-.834.768 2.55 2.55 0 0 1-1.146.264 2.74 2.74 0 0 1-1.182-.246 2.714 2.714 0 0 1-.888-.66 2.928 2.928 0 0 1-.564-.972 3.544 3.544 0 0 1-.198-1.194c0-.424.068-.82.204-1.188a2.9 2.9 0 0 1 .576-.96 2.692 2.692 0 0 1 2.016-.876 2.556 2.556 0 0 1 1.254.312c.156.088.29.184.402.288.112.104.204.204.276.3h.036v-4.044h1.44V131zm-4.74-2.904c0 .224.034.448.102.672.068.224.17.424.306.6a1.521 1.521 0 0 0 1.248.6c.264 0 .5-.054.708-.162.208-.108.386-.25.534-.426.148-.176.26-.374.336-.594a2.027 2.027 0 0 0 0-1.338 1.814 1.814 0 0 0-.87-1.032 1.47 1.47 0 0 0-.708-.168c-.28 0-.524.054-.732.162-.208.108-.38.25-.516.426a1.861 1.861 0 0 0-.306.594c-.068.22-.102.442-.102.666z" opacity=".9"/><path fill="#2C3F58" fill-rule="nonzero" d="M182.476 128.788c0 .78-.138 1.455-.414 2.025a4.049 4.049 0 0 1-1.107 1.413 4.789 4.789 0 0 1-1.575.837 5.992 5.992 0 0 1-1.818.279 5.935 5.935 0 0 1-1.647-.225 5.278 5.278 0 0 1-1.422-.639 4.324 4.324 0 0 1-1.098-1.017 4.065 4.065 0 0 1-.675-1.359l2.754-.846c.132.444.381.81.747 1.098.366.288.801.432 1.305.432a2.04 2.04 0 0 0 1.341-.468c.378-.312.567-.774.567-1.386 0-.372-.078-.684-.234-.936a1.81 1.81 0 0 0-.603-.603 2.499 2.499 0 0 0-.837-.315 4.946 4.946 0 0 0-.936-.09c-.456 0-.975.051-1.557.153a9.021 9.021 0 0 0-1.557.405l.306-7.29h7.812v2.592h-5.13l-.108 2.016c.192-.048.405-.081.639-.099.234-.018.447-.027.639-.027.636 0 1.236.084 1.8.252a4.12 4.12 0 0 1 1.467.765c.414.342.741.765.981 1.269.24.504.36 1.092.36 1.764zm11.828-2.196c0 .9-.09 1.758-.27 2.574-.18.816-.468 1.533-.864 2.151a4.473 4.473 0 0 1-1.539 1.476c-.63.366-1.395.549-2.295.549-.9 0-1.668-.183-2.304-.549a4.526 4.526 0 0 1-1.557-1.476c-.402-.618-.693-1.335-.873-2.151-.18-.816-.27-1.674-.27-2.574 0-.9.09-1.755.27-2.565.18-.81.471-1.518.873-2.124a4.505 4.505 0 0 1 1.557-1.449c.636-.36 1.404-.54 2.304-.54.9 0 1.665.18 2.295.54a4.45 4.45 0 0 1 1.54 1.449c.395.606.683 1.314.863 2.124.18.81.27 1.665.27 2.565zm-3.096 0c0-.396-.024-.834-.072-1.314a6.553 6.553 0 0 0-.27-1.341 2.91 2.91 0 0 0-.567-1.044c-.246-.282-.567-.423-.963-.423s-.72.141-.972.423c-.252.282-.447.63-.585 1.044a6.173 6.173 0 0 0-.279 1.341c-.048.48-.072.918-.072 1.314 0 .408.024.855.072 1.341.048.486.141.936.28 1.35.137.414.332.762.584 1.044.252.282.576.423.972.423s.717-.141.963-.423a2.91 2.91 0 0 0 .567-1.044 6.56 6.56 0 0 0 .27-1.35c.048-.486.072-.933.072-1.341zm17.92 5.036c-.438.504-.98.903-1.623 1.197-.644.294-1.386.441-2.226.441a5.808 5.808 0 0 1-2.121-.378 4.982 4.982 0 0 1-1.687-1.071 4.96 4.96 0 0 1-1.12-1.659 5.438 5.438 0 0 1-.406-2.128c0-.793.137-1.512.413-2.156a4.796 4.796 0 0 1 1.14-1.645 5.053 5.053 0 0 1 1.709-1.043 6.024 6.024 0 0 1 2.114-.364c.7 0 1.388.124 2.065.371.676.247 1.225.609 1.645 1.085l-1.624 1.624a2.01 2.01 0 0 0-.882-.686 2.925 2.925 0 0 0-1.12-.224c-.42 0-.805.077-1.155.231a2.71 2.71 0 0 0-.903.637c-.252.27-.448.59-.588.959-.14.369-.21.772-.21 1.211 0 .448.07.859.21 1.232.14.373.333.693.58.959.248.266.544.474.89.623.345.15.723.224 1.134.224.476 0 .891-.093 1.246-.28.354-.187.64-.43.854-.728l1.666 1.568zm5.323-3.724a1.788 1.788 0 0 0-.301-.056 3.027 3.027 0 0 0-.287-.014c-.309 0-.567.056-.777.168-.21.112-.378.247-.504.406a1.538 1.538 0 0 0-.273.518c-.057.187-.084.35-.084.49V133h-2.296v-6.972h2.212v1.008h.028c.177-.355.429-.644.756-.868a1.956 1.956 0 0 1 1.134-.336c.093 0 .184.005.273.014.088.01.16.023.217.042l-.098 2.016zm5.475.812c0-.364-.114-.677-.343-.938-.228-.261-.571-.392-1.029-.392-.224 0-.43.035-.616.105-.186.07-.35.166-.49.287a1.42 1.42 0 0 0-.336.427 1.25 1.25 0 0 0-.14.511h2.954zm2.114.882v.28c0 .093-.004.182-.014.266h-5.054c.019.196.077.373.175.532.098.159.224.296.378.413.154.117.327.208.518.273.192.065.39.098.595.098.364 0 .672-.068.924-.203s.458-.31.616-.525l1.596 1.008a3.23 3.23 0 0 1-1.295 1.099c-.536.257-1.16.385-1.869.385a4.46 4.46 0 0 1-1.484-.245 3.604 3.604 0 0 1-1.225-.714 3.306 3.306 0 0 1-.826-1.155c-.2-.457-.3-.98-.3-1.568 0-.57.097-1.085.293-1.547.196-.462.462-.854.798-1.176a3.557 3.557 0 0 1 1.19-.749 4.07 4.07 0 0 1 1.484-.266c.514 0 .985.086 1.414.259.43.173.798.422 1.106.749.308.327.549.723.721 1.19.173.467.26.999.26 1.596zm6.61 3.402v-.91h-.028a2.18 2.18 0 0 1-.959.819 3.124 3.124 0 0 1-1.323.287 3.088 3.088 0 0 1-2.443-1.127 3.6 3.6 0 0 1-.651-1.183 4.398 4.398 0 0 1-.224-1.4c0-.485.077-.95.231-1.393.154-.443.373-.833.658-1.169.285-.336.63-.602 1.036-.798a3.1 3.1 0 0 1 1.365-.294c.513 0 .947.098 1.302.294.355.196.63.41.826.644h.028v-4.354h2.296V133h-2.114zm-.084-3.5c0-.224-.04-.443-.119-.658a1.859 1.859 0 0 0-.336-.574 1.67 1.67 0 0 0-.525-.406 1.544 1.544 0 0 0-.7-.154 1.577 1.577 0 0 0-1.232.553c-.14.163-.245.352-.315.567a2.11 2.11 0 0 0-.105.658c0 .224.035.446.105.665.07.22.175.413.315.581.14.168.313.303.518.406.205.103.443.154.714.154.261 0 .495-.051.7-.154a1.67 1.67 0 0 0 .525-.406c.145-.168.257-.36.336-.574.08-.215.119-.434.119-.658zm6.414-5.698c0 .177-.035.343-.105.497-.07.154-.164.287-.28.399a1.363 1.363 0 0 1-.931.364c-.374 0-.686-.124-.938-.371a1.202 1.202 0 0 1-.378-.889c0-.168.032-.329.098-.483.065-.154.158-.287.28-.399.121-.112.261-.203.42-.273a1.363 1.363 0 0 1 1.449.259c.116.112.21.245.28.399.07.154.105.32.105.497zM232.516 133v-6.972h2.296V133h-2.296zm6.512-5.25v2.66c0 .327.062.572.189.735.126.163.352.245.679.245.112 0 .23-.01.357-.028.126-.019.23-.047.315-.084l.028 1.68a3.79 3.79 0 0 1-.602.147 4.261 4.261 0 0 1-.728.063c-.467 0-.86-.058-1.176-.175a1.823 1.823 0 0 1-.763-.504 1.976 1.976 0 0 1-.413-.784 3.801 3.801 0 0 1-.126-1.015v-2.94h-1.12v-1.722h1.106v-1.834h2.254v1.834h1.638v1.722h-1.638zm6.721.336a2.557 2.557 0 0 0-.658-.448 1.817 1.817 0 0 0-.798-.182c-.214 0-.413.042-.595.126a.442.442 0 0 0-.273.434c0 .196.1.336.301.42.2.084.525.177.973.28.262.056.525.135.791.238.266.103.507.238.721.406.215.168.388.373.518.616s.196.532.196.868c0 .439-.088.81-.266 1.113a2.18 2.18 0 0 1-.693.735 2.99 2.99 0 0 1-.959.406c-.354.084-.71.126-1.064.126-.57 0-1.127-.091-1.673-.273a3.512 3.512 0 0 1-1.365-.805l1.288-1.358c.206.224.458.41.756.56a2.1 2.1 0 0 0 .952.224c.187 0 .371-.044.553-.133.182-.089.273-.245.273-.469 0-.215-.112-.373-.336-.476-.224-.103-.574-.21-1.05-.322a5.426 5.426 0 0 1-.728-.224 2.311 2.311 0 0 1-.65-.378 1.88 1.88 0 0 1-.47-.588 1.8 1.8 0 0 1-.182-.84c0-.42.089-.777.266-1.071.178-.294.406-.534.686-.721.28-.187.59-.324.931-.413.34-.089.68-.133 1.015-.133a4.9 4.9 0 0 1 1.533.245c.5.163.922.408 1.267.735l-1.26 1.302z"/><g><path fill="#2C3F58" fill-rule="nonzero" d="M206.663 86.742l.891 1.177-.99.693-.891-1.199-.869 1.155-.968-.693.891-1.144-1.419-.473.385-1.1 1.397.484v-1.43h1.21v1.43l1.397-.44.374 1.1-1.408.44zm7.137 0l.89 1.177-.99.693-.89-1.199-.87 1.155-.967-.693.89-1.144-1.418-.473.385-1.1 1.397.484v-1.43h1.21v1.43l1.397-.44.374 1.1-1.408.44zm7.136 0l.891 1.177-.99.693-.89-1.199-.87 1.155-.968-.693.891-1.144-1.419-.473.385-1.1 1.397.484v-1.43h1.21v1.43l1.397-.44.374 1.1-1.408.44zm7.137 0l.891 1.177-.99.693-.89-1.199-.87 1.155-.968-.693.891-1.144-1.419-.473.385-1.1 1.397.484v-1.43h1.21v1.43l1.397-.44.374 1.1-1.408.44z" opacity=".7"/><g opacity=".5" transform="translate(173 80)"><rect width="18" height="13" stroke="#364962" stroke-linecap="round" stroke-linejoin="round" stroke-width="2" rx="1.875"/><path fill="#364962" d="M0 4h18v2H0z"/><rect width="8" height="2" x="3" y="8" fill="#364962" rx="1"/></g><path fill="#2C3F58" fill-rule="nonzero" d="M242.665 88.482V90h-1.727v-1.518h-3.663v-1.551l3.168-4.719h2.211v4.774h1.078v1.496h-1.067zm-1.716-4.378h-.033l-1.848 2.882h1.881v-2.882zm9.822 4.378V90h-1.727v-1.518h-3.663v-1.551l3.168-4.719h2.211v4.774h1.078v1.496h-1.067zm-1.716-4.378h-.033l-1.848 2.882h1.881v-2.882zm7.27 5.896v-5.72l-1.452 1.122-.957-1.309 2.563-1.881h1.694V90h-1.848zm5.741 0v-1.54l3.036-2.75c.19-.183.345-.37.462-.561.117-.19.176-.403.176-.638 0-.279-.088-.504-.264-.676-.176-.173-.41-.259-.704-.259a.966.966 0 0 0-.754.325c-.194.216-.31.5-.346.852l-1.771-.242c.044-.396.152-.748.324-1.056a2.727 2.727 0 0 1 1.562-1.282c.342-.113.703-.17 1.084-.17.36 0 .708.048 1.045.143.337.095.638.242.902.44s.475.447.632.748c.158.3.237.653.237 1.056 0 .279-.037.53-.11.753-.073.224-.174.431-.303.622-.128.19-.274.368-.44.533-.165.166-.335.329-.511.49l-1.804 1.606h3.179V90h-5.632z" opacity=".7"/></g><g><path fill="#FFF" d="M162 158h172a4 4 0 0 1 4 4v80a4 4 0 0 1-4 4H162a4 4 0 0 1-4-4v-80a4 4 0 0 1 4-4z"/><path fill="#FFEFD3" d="M273 211h51a4 4 0 0 1 4 4v16a4 4 0 0 1-4 4h-51a4 4 0 0 1-4-4v-16a4 4 0 0 1 4-4z"/><path fill="#FFAE00" fill-rule="nonzero" d="M275.936 218.504h2.772c.488 0 .928.044 1.32.132a2.75 2.75 0 0 1 1.008.432c.28.2.496.456.648.768.152.312.228.688.228 1.128 0 .472-.088.868-.264 1.188-.176.32-.414.578-.714.774-.3.196-.65.338-1.05.426-.4.088-.824.132-1.272.132h-1.164V227h-1.512v-8.496zm2.568 3.708c.248 0 .484-.018.708-.054.224-.036.424-.1.6-.192s.316-.218.42-.378c.104-.16.156-.368.156-.624 0-.248-.052-.45-.156-.606a1.078 1.078 0 0 0-.414-.366 1.773 1.773 0 0 0-.588-.174 5.366 5.366 0 0 0-.678-.042h-1.104v2.436h1.056zm8.736 1.332c0-.184-.026-.36-.078-.528a1.208 1.208 0 0 0-.246-.444 1.201 1.201 0 0 0-.426-.306 1.49 1.49 0 0 0-.606-.114c-.432 0-.798.13-1.098.39-.3.26-.466.594-.498 1.002h2.952zm1.44.648v.192c0 .064-.004.128-.012.192h-4.38a1.426 1.426 0 0 0 .528 1.014c.152.124.324.222.516.294.192.072.392.108.6.108.36 0 .664-.066.912-.198s.452-.314.612-.546l.96.768c-.568.768-1.392 1.152-2.472 1.152-.448 0-.86-.07-1.236-.21a2.917 2.917 0 0 1-.978-.594 2.677 2.677 0 0 1-.648-.942 3.247 3.247 0 0 1-.234-1.266c0-.464.078-.886.234-1.266.156-.38.37-.704.642-.972s.594-.476.966-.624a3.233 3.233 0 0 1 1.206-.222c.4 0 .77.066 1.11.198.34.132.634.328.882.588.248.26.442.584.582.972.14.388.21.842.21 1.362zm1.392-2.952h1.368v.924h.024c.128-.288.35-.542.666-.762.316-.22.69-.33 1.122-.33.376 0 .698.066.966.198s.488.306.66.522c.172.216.298.464.378.744.08.28.12.568.12.864v3.6h-1.44v-3.192c0-.168-.012-.344-.036-.528a1.425 1.425 0 0 0-.156-.498c-.08-.148-.19-.27-.33-.366-.14-.096-.326-.144-.558-.144-.232 0-.432.046-.6.138-.168.092-.306.21-.414.354-.108.144-.19.31-.246.498a1.987 1.987 0 0 0-.084.57V227h-1.44v-5.76zm12.84 5.76h-1.368v-.864h-.024a1.96 1.96 0 0 1-.834.768 2.55 2.55 0 0 1-1.146.264 2.74 2.74 0 0 1-1.182-.246 2.714 2.714 0 0 1-.888-.66 2.928 2.928 0 0 1-.564-.972 3.544 3.544 0 0 1-.198-1.194c0-.424.068-.82.204-1.188a2.9 2.9 0 0 1 .576-.96 2.692 2.692 0 0 1 2.016-.876 2.556 2.556 0 0 1 1.254.312c.156.088.29.184.402.288.112.104.204.204.276.3h.036v-4.044h1.44V227zm-4.74-2.904c0 .224.034.448.102.672.068.224.17.424.306.6a1.521 1.521 0 0 0 1.248.6c.264 0 .5-.054.708-.162.208-.108.386-.25.534-.426.148-.176.26-.374.336-.594a2.027 2.027 0 0 0 0-1.338 1.814 1.814 0 0 0-.87-1.032 1.47 1.47 0 0 0-.708-.168c-.28 0-.524.054-.732.162-.208.108-.38.25-.516.426a1.861 1.861 0 0 0-.306.594c-.068.22-.102.442-.102.666zm6.516-2.856h1.44V227h-1.44v-5.76zm-.204-1.956a.83.83 0 0 1 .258-.606.886.886 0 0 1 .654-.258c.264 0 .486.082.666.246a.8.8 0 0 1 .27.618.8.8 0 0 1-.27.618.952.952 0 0 1-.666.246.886.886 0 0 1-.654-.258.83.83 0 0 1-.258-.606zm3.396 1.956h1.368v.924h.024c.128-.288.35-.542.666-.762.316-.22.69-.33 1.122-.33.376 0 .698.066.966.198s.488.306.66.522c.172.216.298.464.378.744.08.28.12.568.12.864v3.6h-1.44v-3.192c0-.168-.012-.344-.036-.528a1.425 1.425 0 0 0-.156-.498c-.08-.148-.19-.27-.33-.366-.14-.096-.326-.144-.558-.144-.232 0-.432.046-.6.138-.168.092-.306.21-.414.354-.108.144-.19.31-.246.498a1.987 1.987 0 0 0-.084.57V227h-1.44v-5.76zm12.84 0v5.244c0 .52-.064.99-.192 1.41a2.73 2.73 0 0 1-.594 1.068 2.678 2.678 0 0 1-1.014.678c-.408.16-.892.24-1.452.24a5.095 5.095 0 0 1-1.506-.24 4.62 4.62 0 0 1-.726-.3 3.5 3.5 0 0 1-.624-.408l.828-1.116a2.972 2.972 0 0 0 2.016.816c.344 0 .634-.05.87-.15.236-.1.424-.238.564-.414.14-.176.24-.384.3-.624s.09-.504.09-.792v-.42h-.024c-.208.28-.474.494-.798.642a2.584 2.584 0 0 1-1.086.222 2.81 2.81 0 0 1-1.176-.24 2.666 2.666 0 0 1-.894-.648 2.968 2.968 0 0 1-.57-.954 3.281 3.281 0 0 1-.204-1.158c0-.416.066-.808.198-1.176.132-.368.32-.688.564-.96.244-.272.54-.488.888-.648.348-.16.738-.24 1.17-.24.408 0 .788.084 1.14.252.352.168.632.428.84.78h.024v-.864h1.368zm-3.072 1.008a1.63 1.63 0 0 0-.702.144 1.52 1.52 0 0 0-.516.39c-.14.164-.248.358-.324.582a2.226 2.226 0 0 0-.114.72 2.01 2.01 0 0 0 .438 1.254c.14.172.312.31.516.414.204.104.434.156.69.156.264 0 .502-.05.714-.15.212-.1.392-.234.54-.402.148-.168.262-.362.342-.582a2.09 2.09 0 0 0 0-1.398 1.79 1.79 0 0 0-.342-.588 1.592 1.592 0 0 0-1.242-.54z"/><path fill="#2C3F58" fill-rule="nonzero" d="M182.836 220.468c0 .756-.132 1.443-.396 2.061a11.936 11.936 0 0 1-1.026 1.881l-3.078 4.59h-3.654l3.168-4.392.036-.054a2.26 2.26 0 0 1-.441.108 3.139 3.139 0 0 1-.459.036 4.341 4.341 0 0 1-1.602-.297 4.065 4.065 0 0 1-1.332-.846 4.11 4.11 0 0 1-.918-1.314 4.122 4.122 0 0 1-.342-1.701c0-.72.132-1.368.396-1.944a4.246 4.246 0 0 1 1.08-1.458 4.78 4.78 0 0 1 1.602-.909 5.948 5.948 0 0 1 1.944-.315c.696 0 1.35.105 1.962.315a4.68 4.68 0 0 1 1.593.909c.45.396.807.876 1.071 1.44.264.564.396 1.194.396 1.89zm-3.024-.036c0-.552-.177-1.029-.531-1.431-.354-.402-.837-.603-1.449-.603-.612 0-1.101.189-1.467.567-.366.378-.549.873-.549 1.485 0 .576.18 1.053.54 1.431.36.378.84.567 1.44.567s1.086-.186 1.458-.558c.372-.372.558-.858.558-1.458zm14.528.036c0 .756-.132 1.443-.396 2.061a11.936 11.936 0 0 1-1.026 1.881L189.84 229h-3.654l3.168-4.392.036-.054a2.26 2.26 0 0 1-.44.108 3.139 3.139 0 0 1-.46.036 4.341 4.341 0 0 1-1.602-.297 4.065 4.065 0 0 1-1.332-.846 4.11 4.11 0 0 1-.918-1.314 4.122 4.122 0 0 1-.342-1.701c0-.72.132-1.368.396-1.944a4.246 4.246 0 0 1 1.08-1.458 4.78 4.78 0 0 1 1.602-.909 5.948 5.948 0 0 1 1.944-.315c.696 0 1.35.105 1.962.315a4.68 4.68 0 0 1 1.593.909c.45.396.807.876 1.071 1.44.264.564.396 1.194.396 1.89zm-3.024-.036c0-.552-.177-1.029-.53-1.431-.355-.402-.838-.603-1.45-.603s-1.1.189-1.467.567c-.366.378-.549.873-.549 1.485 0 .576.18 1.053.54 1.431.36.378.84.567 1.44.567s1.086-.186 1.458-.558c.372-.372.558-.858.558-1.458zm17.813 7.196c-.439.504-.98.903-1.624 1.197-.644.294-1.386.441-2.226.441a5.808 5.808 0 0 1-2.121-.378 4.982 4.982 0 0 1-1.687-1.071 4.96 4.96 0 0 1-1.12-1.659 5.438 5.438 0 0 1-.406-2.128c0-.793.137-1.512.413-2.156a4.796 4.796 0 0 1 1.14-1.645 5.053 5.053 0 0 1 1.709-1.043 6.024 6.024 0 0 1 2.114-.364c.7 0 1.388.124 2.065.371.676.247 1.225.609 1.645 1.085l-1.624 1.624a2.01 2.01 0 0 0-.882-.686 2.925 2.925 0 0 0-1.12-.224c-.42 0-.805.077-1.155.231a2.71 2.71 0 0 0-.903.637c-.252.27-.448.59-.588.959-.14.369-.21.772-.21 1.211 0 .448.07.859.21 1.232.14.373.333.693.58.959.248.266.544.474.89.623.345.15.723.224 1.134.224.476 0 .891-.093 1.246-.28.354-.187.64-.43.854-.728l1.666 1.568zm5.322-3.724a1.788 1.788 0 0 0-.301-.056 3.027 3.027 0 0 0-.287-.014c-.309 0-.567.056-.777.168-.21.112-.378.247-.504.406a1.538 1.538 0 0 0-.273.518c-.057.187-.084.35-.084.49V229h-2.296v-6.972h2.212v1.008h.028c.177-.355.429-.644.756-.868a1.956 1.956 0 0 1 1.134-.336c.093 0 .184.005.273.014.088.01.16.023.217.042l-.098 2.016zm5.475.812c0-.364-.114-.677-.343-.938-.228-.261-.571-.392-1.029-.392-.224 0-.43.035-.616.105-.186.07-.35.166-.49.287a1.42 1.42 0 0 0-.336.427 1.25 1.25 0 0 0-.14.511h2.954zm2.114.882v.28c0 .093-.004.182-.014.266h-5.054c.019.196.077.373.175.532.098.159.224.296.378.413.154.117.327.208.518.273.192.065.39.098.595.098.364 0 .672-.068.924-.203s.458-.31.616-.525l1.596 1.008a3.23 3.23 0 0 1-1.295 1.099c-.536.257-1.16.385-1.869.385a4.46 4.46 0 0 1-1.484-.245 3.604 3.604 0 0 1-1.225-.714 3.306 3.306 0 0 1-.826-1.155c-.2-.457-.3-.98-.3-1.568 0-.57.097-1.085.293-1.547.196-.462.462-.854.798-1.176a3.557 3.557 0 0 1 1.19-.749 4.07 4.07 0 0 1 1.484-.266c.514 0 .985.086 1.414.259.43.173.798.422 1.106.749.308.327.549.723.721 1.19.173.467.26.999.26 1.596zm6.61 3.402v-.91h-.028a2.18 2.18 0 0 1-.959.819 3.124 3.124 0 0 1-1.323.287 3.088 3.088 0 0 1-2.443-1.127 3.6 3.6 0 0 1-.651-1.183 4.398 4.398 0 0 1-.224-1.4c0-.485.077-.95.231-1.393.154-.443.373-.833.658-1.169.285-.336.63-.602 1.036-.798a3.1 3.1 0 0 1 1.365-.294c.513 0 .947.098 1.302.294.355.196.63.41.826.644h.028v-4.354h2.296V229h-2.114zm-.084-3.5c0-.224-.04-.443-.119-.658a1.859 1.859 0 0 0-.336-.574 1.67 1.67 0 0 0-.525-.406 1.544 1.544 0 0 0-.7-.154 1.577 1.577 0 0 0-1.232.553c-.14.163-.245.352-.315.567a2.11 2.11 0 0 0-.105.658c0 .224.035.446.105.665.07.22.175.413.315.581.14.168.313.303.518.406.205.103.443.154.714.154.261 0 .495-.051.7-.154a1.67 1.67 0 0 0 .525-.406c.145-.168.257-.36.336-.574.08-.215.119-.434.119-.658zm6.414-5.698c0 .177-.035.343-.105.497-.07.154-.164.287-.28.399a1.363 1.363 0 0 1-.931.364c-.374 0-.686-.124-.938-.371a1.202 1.202 0 0 1-.378-.889c0-.168.032-.329.098-.483.065-.154.158-.287.28-.399.121-.112.261-.203.42-.273a1.363 1.363 0 0 1 1.449.259c.116.112.21.245.28.399.07.154.105.32.105.497zM232.516 229v-6.972h2.296V229h-2.296zm6.512-5.25v2.66c0 .327.062.572.189.735.126.163.352.245.679.245.112 0 .23-.01.357-.028.126-.019.23-.047.315-.084l.028 1.68a3.79 3.79 0 0 1-.602.147 4.261 4.261 0 0 1-.728.063c-.467 0-.86-.058-1.176-.175a1.823 1.823 0 0 1-.763-.504 1.976 1.976 0 0 1-.413-.784 3.801 3.801 0 0 1-.126-1.015v-2.94h-1.12v-1.722h1.106v-1.834h2.254v1.834h1.638v1.722h-1.638zm6.721.336a2.557 2.557 0 0 0-.658-.448 1.817 1.817 0 0 0-.798-.182c-.214 0-.413.042-.595.126a.442.442 0 0 0-.273.434c0 .196.1.336.301.42.2.084.525.177.973.28.262.056.525.135.791.238.266.103.507.238.721.406.215.168.388.373.518.616s.196.532.196.868c0 .439-.088.81-.266 1.113a2.18 2.18 0 0 1-.693.735 2.99 2.99 0 0 1-.959.406c-.354.084-.71.126-1.064.126-.57 0-1.127-.091-1.673-.273a3.512 3.512 0 0 1-1.365-.805l1.288-1.358c.206.224.458.41.756.56a2.1 2.1 0 0 0 .952.224c.187 0 .371-.044.553-.133.182-.089.273-.245.273-.469 0-.215-.112-.373-.336-.476-.224-.103-.574-.21-1.05-.322a5.426 5.426 0 0 1-.728-.224 2.311 2.311 0 0 1-.65-.378 1.88 1.88 0 0 1-.47-.588 1.8 1.8 0 0 1-.182-.84c0-.42.089-.777.266-1.071.178-.294.406-.534.686-.721.28-.187.59-.324.931-.413.34-.089.68-.133 1.015-.133a4.9 4.9 0 0 1 1.533.245c.5.163.922.408 1.267.735l-1.26 1.302z"/><g><path fill="#2C3F58" fill-rule="nonzero" d="M206.663 182.742l.891 1.177-.99.693-.891-1.199-.869 1.155-.968-.693.891-1.144-1.419-.473.385-1.1 1.397.484v-1.43h1.21v1.43l1.397-.44.374 1.1-1.408.44zm7.137 0l.89 1.177-.99.693-.89-1.199-.87 1.155-.967-.693.89-1.144-1.418-.473.385-1.1 1.397.484v-1.43h1.21v1.43l1.397-.44.374 1.1-1.408.44zm7.136 0l.891 1.177-.99.693-.89-1.199-.87 1.155-.968-.693.891-1.144-1.419-.473.385-1.1 1.397.484v-1.43h1.21v1.43l1.397-.44.374 1.1-1.408.44zm7.137 0l.891 1.177-.99.693-.89-1.199-.87 1.155-.968-.693.891-1.144-1.419-.473.385-1.1 1.397.484v-1.43h1.21v1.43l1.397-.44.374 1.1-1.408.44z" opacity=".7"/><g opacity=".5" transform="translate(173 176)"><rect width="18" height="13" stroke="#364962" stroke-linecap="round" stroke-linejoin="round" stroke-width="2" rx="1.875"/><path fill="#364962" d="M0 4h18v2H0z"/><rect width="8" height="2" x="3" y="8" fill="#364962" rx="1"/></g><path fill="#2C3F58" fill-rule="nonzero" d="M242.665 184.482V186h-1.727v-1.518h-3.663v-1.551l3.168-4.719h2.211v4.774h1.078v1.496h-1.067zm-1.716-4.378h-.033l-1.848 2.882h1.881v-2.882zm9.822 4.378V186h-1.727v-1.518h-3.663v-1.551l3.168-4.719h2.211v4.774h1.078v1.496h-1.067zm-1.716-4.378h-.033l-1.848 2.882h1.881v-2.882zm7.27 5.896v-5.72l-1.452 1.122-.957-1.309 2.563-1.881h1.694V186h-1.848zm5.741 0v-1.54l3.036-2.75c.19-.183.345-.37.462-.561.117-.19.176-.403.176-.638 0-.279-.088-.504-.264-.676-.176-.173-.41-.259-.704-.259a.966.966 0 0 0-.754.325c-.194.216-.31.5-.346.852l-1.771-.242c.044-.396.152-.748.324-1.056a2.727 2.727 0 0 1 1.562-1.282c.342-.113.703-.17 1.084-.17.36 0 .708.048 1.045.143.337.095.638.242.902.44s.475.447.632.748c.158.3.237.653.237 1.056 0 .279-.037.53-.11.754-.073.223-.174.43-.303.621-.128.19-.274.368-.44.534-.165.165-.335.328-.511.489l-1.804 1.606h3.179V186h-5.632z" opacity=".7"/></g></g><g><path fill="#C8F1DA" d="M18 145h33a4 4 0 0 1 4 4v16a4 4 0 0 1-4 4H18a4 4 0 0 1-4-4v-16a4 4 0 0 1 4-4z"/><path fill="#2F905D" fill-rule="nonzero" d="M22.936 152.504h2.772c.488 0 .928.044 1.32.132a2.75 2.75 0 0 1 1.008.432c.28.2.496.456.648.768.152.312.228.688.228 1.128 0 .472-.088.868-.264 1.188-.176.32-.414.578-.714.774-.3.196-.65.338-1.05.426-.4.088-.824.132-1.272.132h-1.164V161h-1.512v-8.496zm2.568 3.708c.248 0 .484-.018.708-.054.224-.036.424-.1.6-.192s.316-.218.42-.378c.104-.16.156-.368.156-.624 0-.248-.052-.45-.156-.606a1.078 1.078 0 0 0-.414-.366 1.773 1.773 0 0 0-.588-.174 5.366 5.366 0 0 0-.678-.042h-1.104v2.436h1.056zm8.256 4.056h-.036c-.144.256-.376.466-.696.63a2.36 2.36 0 0 1-1.092.246c-.232 0-.474-.03-.726-.09a2.16 2.16 0 0 1-.696-.3 1.744 1.744 0 0 1-.528-.552c-.14-.228-.21-.51-.21-.846 0-.432.122-.776.366-1.032s.558-.452.942-.588a5.31 5.31 0 0 1 1.278-.27c.468-.044.926-.066 1.374-.066v-.144c0-.36-.13-.626-.39-.798a1.647 1.647 0 0 0-.93-.258c-.304 0-.596.064-.876.192s-.512.284-.696.468l-.744-.876a3.25 3.25 0 0 1 1.134-.684 3.865 3.865 0 0 1 1.302-.228c.512 0 .934.072 1.266.216.332.144.594.332.786.564.192.232.326.492.402.78.076.288.114.576.114.864V161H33.76v-.732zm-.024-1.896h-.324c-.232 0-.476.01-.732.03-.256.02-.492.064-.708.132a1.511 1.511 0 0 0-.54.288.638.638 0 0 0-.216.51.613.613 0 0 0 .324.564c.096.056.204.096.324.12.12.024.24.036.36.036.496 0 .872-.132 1.128-.396.256-.264.384-.624.384-1.08v-.204zm3.072-3.132h1.44V161h-1.44v-5.76zm-.204-1.956a.83.83 0 0 1 .258-.606.886.886 0 0 1 .654-.258c.264 0 .486.082.666.246a.8.8 0 0 1 .27.618.8.8 0 0 1-.27.618.952.952 0 0 1-.666.246.886.886 0 0 1-.654-.258.83.83 0 0 1-.258-.606zM45.856 161h-1.368v-.864h-.024a1.96 1.96 0 0 1-.834.768 2.55 2.55 0 0 1-1.146.264 2.74 2.74 0 0 1-1.182-.246 2.714 2.714 0 0 1-.888-.66 2.928 2.928 0 0 1-.564-.972 3.544 3.544 0 0 1-.198-1.194c0-.424.068-.82.204-1.188a2.9 2.9 0 0 1 .576-.96 2.692 2.692 0 0 1 2.016-.876 2.556 2.556 0 0 1 1.254.312c.156.088.29.184.402.288.112.104.204.204.276.3h.036v-4.044h1.44V161zm-4.74-2.904c0 .224.034.448.102.672.068.224.17.424.306.6a1.521 1.521 0 0 0 1.248.6c.264 0 .5-.054.708-.162.208-.108.386-.25.534-.426.148-.176.26-.374.336-.594a2.027 2.027 0 0 0 0-1.338 1.814 1.814 0 0 0-.87-1.032 1.47 1.47 0 0 0-.708-.168c-.28 0-.524.054-.732.162-.208.108-.38.25-.516.426a1.861 1.861 0 0 0-.306.594c-.068.22-.102.442-.102.666z" opacity=".9"/></g></g></svg>