<?xml version="1.0" encoding="UTF-8"?>
<svg width="96px" height="26px" viewBox="0 0 96 26" version="1.1" xmlns="http://www.w3.org/2000/svg" xmlns:xlink="http://www.w3.org/1999/xlink">
    <!-- Generator: Sketch 57.1 (83088) - https://sketch.com -->
    <title>logo_accenture</title>
    <desc>Created with Sketch.</desc>
    <g id="Page-1" stroke="none" stroke-width="1" fill="none" fill-rule="evenodd" opacity="0.800000012">
        <g id="logo_accenture" transform="translate(0.355732, 0.000000)" fill="#364962" fill-rule="nonzero">
            <polygon id="Path" points="55.3941273 3.27433333 60.8636876 5.42874976 55.3941273 7.46548 55.3941273 10.3753658 64.7615679 6.59327353 64.7615679 4.26612415 55.3941273 0.484031884"></polygon>
            <path d="M5.17629391,14.098615 C2.55682725,14.098615 0.637783188,15.2621897 0.463152077,17.7051271 L3.37303787,17.7051271 L3.37303787,17.6481821 C3.4299828,16.8338697 4.18735034,16.2530314 5.00261188,16.3194671 C6.10829256,16.3194671 6.63218589,16.9591485 6.63218589,18.0657783 L6.63218589,18.5896716 L5.30347092,18.5896716 C2.45242821,18.5896716 0.124329758,19.4628271 0.124329758,22.1961837 L0.124329758,22.3129208 C0.124329758,24.5242821 1.75390377,25.5132257 3.73084184,25.5132257 C4.95325961,25.5701706 6.05799121,24.9893324 6.75651565,24.0582828 L6.75651565,25.3395437 L9.72429546,25.3395437 L9.72429546,18.0078843 C9.66735053,15.2147356 7.74545923,14.1090549 5.18578473,14.1090549 L5.17629391,14.098615 Z M4.53661256,23.3521657 C3.48882589,23.3521657 3.02377565,22.8282724 3.02377565,22.0709048 L3.02377565,21.9541677 C3.02377565,20.9652242 3.78019411,20.559017 5.30157275,20.559017 L6.52399053,20.559017 L6.52399053,21.6068037 C6.58093546,22.7703784 5.59389005,23.3531148 4.5451543,23.3531148 L4.53661256,23.3521657 Z M16.6981509,23.2335304 C15.243208,23.2335304 14.4867896,22.2445869 14.4867896,20.0332255 L14.4867896,19.6839633 C14.4867896,17.5295469 15.3599451,16.4836584 16.6981509,16.4836584 C17.7459376,16.4836584 18.3277249,17.1821828 18.501407,18.2299695 L21.4112928,18.2299695 C21.1787676,15.3789268 19.0841434,14.098615 16.6393078,14.098615 C13.729422,14.098615 11.4022727,16.0774512 11.4022727,19.7931077 L11.4022727,19.9098448 C11.4022727,23.6340431 13.613634,25.4961422 16.6393078,25.4961422 C19.6070876,25.4961422 21.2945557,23.6928862 21.5270808,21.2480506 L18.7348812,21.2480506 C18.502356,22.4704684 17.7459376,23.2268869 16.6981509,23.2268869 L16.6981509,23.2335304 Z M28.0453768,23.2335304 C26.5904339,23.2335304 25.8340155,22.2445869 25.8340155,20.0332255 L25.8340155,19.6839633 C25.8340155,17.5295469 26.707171,16.4836584 28.0453768,16.4836584 C29.0931635,16.4836584 29.6749508,17.1821828 29.8486329,18.2299695 L32.7585186,18.2299695 C32.5259935,15.3789268 30.4313693,14.098615 27.9865337,14.098615 C25.0766479,14.098615 22.7494986,16.0774512 22.7494986,19.7931077 L22.7494986,19.9098448 C22.7494986,23.6340431 24.9608599,25.4961422 27.9865337,25.4961422 C30.9543135,25.4961422 32.6417815,23.6928862 32.8268526,21.2480506 L30.0915979,21.2480506 C29.9169668,22.4704684 29.1026543,23.2268869 28.0548676,23.2268869 L28.0453768,23.2335304 Z M39.5083907,23.2923735 C38.1796757,23.2923735 37.3539743,22.5359551 37.2305936,20.5571188 L44.3297279,20.5571188 L44.3297279,19.2663671 C44.3297279,15.6598551 42.0519308,14.087226 39.3252179,14.087226 C36.3574381,14.087226 34.0881827,16.1239562 34.0881827,19.7817187 L34.0881827,20.0142439 C34.0881827,23.6805481 36.2425991,25.5426472 39.384061,25.5426472 C42.2351037,25.5426472 43.9814148,23.9719163 44.2718339,21.876343 L41.4207912,21.876343 C41.3040541,22.7494986 40.4318476,23.3891799 39.5007981,23.2714937 L39.5083907,23.2923735 Z M39.3337596,16.1932392 C40.5561774,16.1932392 41.3125958,16.8917637 41.3704899,18.5203886 L37.2970294,18.5203886 C37.5295545,16.7740775 38.40271,16.2425915 39.3337596,16.1932392 Z" id="Shape"></path>
            <path d="M37.2970294,18.5203886 L37.2400844,18.5203886 L37.2970294,18.5203886 Z" id="Path"></path>
            <path d="M52.6009786,14.098615 C51.2058279,14.04167 49.9245671,14.7382963 49.2839366,15.9607141 L49.2839366,14.3311401 L46.2582628,14.3311401 L46.2582628,25.2712098 L49.2839366,25.2712098 L49.2839366,18.2888126 C49.3408815,17.299869 50.2140371,16.4855565 51.2039298,16.5425014 C52.3096104,16.5425014 52.8335038,17.1242888 52.8335038,18.4046006 L52.8335038,25.2712098 L55.9180207,25.2712098 L55.9180207,17.9376522 C55.9180207,15.2612406 54.5893057,14.0967168 52.6009786,14.0967168 L52.6009786,14.098615 Z M61.6210552,21.7795366 L61.6210552,16.6089372 L63.7156794,16.6089372 L63.7156794,14.3311401 L61.6210552,14.3311401 L61.6210552,11.0140981 L58.5953814,12.2953589 L58.5953814,14.3311401 L57.2666664,14.3311401 L57.2666664,16.6089372 L58.5479272,16.6089372 L58.5479272,22.1373406 C58.5479272,24.3487019 59.6536079,25.4543826 62.0405495,25.4543826 C62.6223368,25.4543826 63.2041242,25.3974377 63.7868606,25.2218575 L63.7868606,22.8254251 C63.4493489,22.9399493 63.0954847,22.9989267 62.7390739,23.0000562 C62.0405495,23.0000562 61.6333932,22.5919509 61.6333932,21.7776385 L61.6210552,21.7795366 Z M72.1530195,21.1389062 L72.1530195,21.4302744 C72.0960746,22.419218 71.222919,23.2335304 70.2330264,23.1765855 C69.1273457,23.1765855 68.6622955,22.5947982 68.6622955,21.3144864 L68.6622955,14.3311401 L65.5777786,14.3311401 L65.5777786,21.7216426 C65.5777786,24.2822662 67.0327214,25.5037349 69.0106086,25.5037349 C70.3509859,25.5673918 71.6039023,24.8383817 72.2109135,23.6416357 L72.2109135,25.2712098 L75.2954304,25.2712098 L75.2954304,14.3311401 L72.2109135,14.3311401 L72.1530195,21.1389062 Z M80.5334147,16.2985873 L80.5334147,14.2618571 L77.5077409,14.2618571 L77.5077409,25.2019268 L80.5334147,25.2019268 L80.5334147,19.5577354 C80.5334147,17.7544793 81.7558325,17.1138489 83.8504567,17.1138489 L83.8504567,14.0881751 C82.3376198,14.0881751 80.999414,14.9613306 80.5334147,16.2995364 L80.5334147,16.2985873 Z M95.0221024,19.218913 C95.0221024,15.612401 92.7443053,14.098615 90.0175924,14.098615 C87.0498126,14.098615 84.7805572,16.1353452 84.7805572,19.7931077 L84.7805572,20.0256329 C84.7805572,23.6919371 86.9349736,25.5540362 90.0764355,25.5540362 C92.9274782,25.5540362 94.6149462,23.9833053 94.9642084,21.887732 L92.1131657,21.887732 C91.8806406,22.8178325 91.007485,23.4005689 90.0764355,23.3426749 C88.7477205,23.3426749 87.922019,22.5862564 87.7986384,20.6074202 L94.9082126,20.6074202 L94.9082126,19.2122695 L95.0221024,19.218913 Z M87.9229681,18.5203886 C88.1554932,16.7171326 89.0286488,16.1932392 90.0175924,16.1932392 C91.2400101,16.1932392 91.9964286,16.8917637 92.0543226,18.5203886 L87.9229681,18.5203886 Z" id="Shape"></path>
        </g>
    </g>
</svg>