<svg xmlns="http://www.w3.org/2000/svg" width="340" height="264" viewBox="0 0 340 264"><title>illu-Full Export Options</title><g fill="none" fill-rule="evenodd"><path fill="#FFF" d="M4 0h292a4 4 0 0 1 4 4v52a4 4 0 0 1-4 4H4a4 4 0 0 1-4-4V4a4 4 0 0 1 4-4z"/><rect width="38" height="38" fill="#FFEFD3" rx="4" transform="translate(11 11)"/><g stroke="#225CFF" stroke-width="2" transform="translate(258 16)"><rect width="26" height="26" x="1" y="1" rx="13"/><path stroke-linecap="round" stroke-linejoin="round" d="M14 8v12l4-4m-8 0l4 4"/></g><path fill="#2C3F58" fill-rule="nonzero" d="M61.65 22.09c0-.277.102-.516.306-.715.203-.2.448-.299.734-.299.277 0 .52.095.728.286.208.19.312.425.312.702a.965.965 0 0 1-.305.715c-.204.2-.449.299-.735.299-.139 0-.27-.026-.396-.078a1.13 1.13 0 0 1-.332-.208.967.967 0 0 1-.228-.312.915.915 0 0 1-.084-.39zm5.072-5.33v.871h.039a2.26 2.26 0 0 1 .305-.37c.126-.126.28-.239.462-.338a2.84 2.84 0 0 1 1.391-.345 2.924 2.924 0 0 1 2.184.949c.268.295.476.641.624 1.04.147.399.22.828.22 1.287 0 .46-.07.89-.214 1.294a3.172 3.172 0 0 1-.61 1.053 2.94 2.94 0 0 1-.963.715 2.968 2.968 0 0 1-1.28.266c-.442 0-.848-.091-1.216-.273a2.07 2.07 0 0 1-.851-.741h-.026v3.952h-1.56v-9.36h1.495zm3.64 3.094a2.43 2.43 0 0 0-.11-.721 2.017 2.017 0 0 0-.332-.644 1.665 1.665 0 0 0-.56-.462 1.698 1.698 0 0 0-.792-.175c-.286 0-.542.06-.767.182a1.965 1.965 0 0 0-.943 1.118 2.196 2.196 0 0 0 0 1.45c.082.238.204.452.364.643.16.19.353.344.579.461.225.118.48.176.767.176a1.648 1.648 0 0 0 1.352-.65c.147-.19.257-.407.331-.65.074-.243.11-.485.11-.728zm3.004-3.094h1.482v1.001h.026c.139-.312.38-.587.722-.825.342-.239.747-.358 1.215-.358.408 0 .756.071 1.047.215.29.143.528.331.715.565.186.234.323.503.41.806.086.303.13.615.13.936V23h-1.56v-3.458c0-.182-.014-.373-.04-.572-.026-.2-.082-.38-.169-.54a1.12 1.12 0 0 0-.357-.396c-.152-.104-.353-.156-.605-.156-.251 0-.468.05-.65.15a1.38 1.38 0 0 0-.448.383 1.698 1.698 0 0 0-.267.54c-.06.203-.09.409-.09.617V23h-1.56v-6.24zm13.82 0v5.681a5.23 5.23 0 0 1-.207 1.527c-.139.456-.353.841-.644 1.157-.29.317-.656.562-1.098.735-.442.173-.966.26-1.573.26a5.52 5.52 0 0 1-1.632-.26 5.005 5.005 0 0 1-.786-.325 3.792 3.792 0 0 1-.676-.442l.897-1.209a3.22 3.22 0 0 0 2.184.884c.373 0 .687-.054.942-.163a1.52 1.52 0 0 0 .611-.448c.152-.19.26-.416.325-.676.065-.26.098-.546.098-.858v-.455H85.6a2.193 2.193 0 0 1-.865.695 2.8 2.8 0 0 1-1.176.241c-.468 0-.893-.087-1.274-.26a2.888 2.888 0 0 1-.969-.702 3.215 3.215 0 0 1-.617-1.034 3.555 3.555 0 0 1-.221-1.254c0-.45.071-.875.214-1.274.143-.399.347-.745.611-1.04.265-.295.585-.529.962-.702a3 3 0 0 1 1.268-.26c.442 0 .854.091 1.235.273.381.182.685.464.91.845h.026v-.936h1.482zm-3.327 1.092c-.286 0-.54.052-.76.156a1.646 1.646 0 0 0-.56.422 1.899 1.899 0 0 0-.35.631 2.412 2.412 0 0 0-.124.78 2.177 2.177 0 0 0 .474 1.358c.152.187.338.336.56.449.22.113.47.169.747.169.286 0 .544-.054.773-.163.23-.108.425-.253.585-.435.16-.182.284-.392.37-.63a2.263 2.263 0 0 0 0-1.514 1.94 1.94 0 0 0-.37-.638 1.725 1.725 0 0 0-1.345-.585z" opacity=".7"/><path fill="#2C3F58" fill-rule="nonzero" d="M70.76 35.16c0 .661-.123 1.219-.368 1.672a3.023 3.023 0 0 1-.992 1.096c-.416.277-.896.48-1.44.608a7.381 7.381 0 0 1-1.696.192h-1.36V43h-2.736V31.672h4.16c.619 0 1.197.061 1.736.184.539.123 1.008.32 1.408.592.4.272.715.63.944 1.072.23.443.344.99.344 1.64zm-2.736.016c0-.267-.053-.485-.16-.656a1.115 1.115 0 0 0-.432-.4 1.853 1.853 0 0 0-.616-.192 5.148 5.148 0 0 0-.712-.048h-1.2v2.672h1.152c.256 0 .501-.021.736-.064s.445-.117.632-.224a1.2 1.2 0 0 0 .44-.424c.107-.176.16-.397.16-.664zm8.61 2a2.044 2.044 0 0 0-.344-.064 3.46 3.46 0 0 0-.328-.016c-.352 0-.648.064-.888.192s-.432.283-.576.464a1.758 1.758 0 0 0-.312.592c-.064.213-.096.4-.096.56V43h-2.624v-7.968h2.528v1.152h.032c.203-.405.49-.736.864-.992a2.236 2.236 0 0 1 1.296-.384c.107 0 .21.005.312.016.101.01.184.027.248.048l-.112 2.304zm9.218 1.808c0 .65-.117 1.24-.352 1.768a3.964 3.964 0 0 1-.96 1.344 4.395 4.395 0 0 1-1.408.856 4.779 4.779 0 0 1-1.712.304 4.799 4.799 0 0 1-1.704-.304 4.282 4.282 0 0 1-1.408-.856 4.018 4.018 0 0 1-.952-1.344 4.307 4.307 0 0 1-.352-1.768c0-.65.117-1.237.352-1.76.235-.523.552-.965.952-1.328.4-.363.87-.64 1.408-.832a5.037 5.037 0 0 1 1.704-.288c.608 0 1.179.096 1.712.288.533.192 1.003.47 1.408.832a3.9 3.9 0 0 1 .96 1.328c.235.523.352 1.11.352 1.76zm-2.528 0c0-.256-.043-.507-.128-.752a1.989 1.989 0 0 0-.368-.648 1.802 1.802 0 0 0-1.408-.632c-.31 0-.581.059-.816.176a1.78 1.78 0 0 0-.584.456 1.953 1.953 0 0 0-.352.648 2.411 2.411 0 0 0 0 1.504c.08.245.2.467.36.664.16.197.357.355.592.472.235.117.507.176.816.176.31 0 .581-.059.816-.176.235-.117.432-.275.592-.472.16-.197.28-.419.36-.664.08-.245.12-.496.12-.752zm6.978-6.496c0 .203-.04.392-.12.568-.08.176-.187.328-.32.456s-.293.23-.48.304a1.558 1.558 0 0 1-.584.112 1.47 1.47 0 0 1-1.072-.424 1.373 1.373 0 0 1-.432-1.016 1.4 1.4 0 0 1 .112-.552c.075-.176.181-.328.32-.456s.299-.232.48-.312a1.558 1.558 0 0 1 1.656.296c.133.128.24.28.32.456.08.176.12.365.12.568zm-.192 10.72c0 .49-.045.957-.136 1.4-.09.443-.253.83-.488 1.16-.235.33-.56.592-.976.784-.416.192-.944.288-1.584.288-.181 0-.379-.01-.592-.032a3.151 3.151 0 0 1-.544-.096l.176-2.192c.096.032.195.053.296.064.101.01.19.016.264.016.384 0 .64-.13.768-.392.128-.261.192-.595.192-1v-8.176h2.624v8.176zm7.458-5.104c0-.416-.13-.773-.392-1.072-.261-.299-.653-.448-1.176-.448-.256 0-.49.04-.704.12-.213.08-.4.19-.56.328-.16.139-.288.301-.384.488-.096.187-.15.381-.16.584h3.376zm2.416 1.008v.32c0 .107-.005.208-.016.304h-5.776c.021.224.088.427.2.608.112.181.256.339.432.472.176.133.373.237.592.312.219.075.445.112.68.112.416 0 .768-.077 1.056-.232.288-.155.523-.355.704-.6l1.824 1.152a3.69 3.69 0 0 1-1.48 1.256c-.613.293-1.325.44-2.136.44a5.097 5.097 0 0 1-1.696-.28c-.533-.187-1-.459-1.4-.816a3.779 3.779 0 0 1-.944-1.32c-.23-.523-.344-1.12-.344-1.792 0-.65.112-1.24.336-1.768.224-.528.528-.976.912-1.344a4.066 4.066 0 0 1 1.36-.856 4.65 4.65 0 0 1 1.696-.304c.587 0 1.125.099 1.616.296.49.197.912.483 1.264.856s.627.827.824 1.36c.197.533.296 1.141.296 1.824zm7.01-1.504a1.593 1.593 0 0 0-.608-.464 1.864 1.864 0 0 0-.784-.176c-.277 0-.528.056-.752.168a1.825 1.825 0 0 0-.576.448c-.16.187-.285.403-.376.648-.09.245-.136.507-.136.784s.043.539.128.784.21.461.376.648c.165.187.363.333.592.44.23.107.488.16.776.16.267 0 .53-.05.792-.152.261-.101.472-.248.632-.44l1.456 1.776c-.33.32-.757.57-1.28.752a5.04 5.04 0 0 1-1.664.272c-.63 0-1.216-.096-1.76-.288a4.06 4.06 0 0 1-1.416-.84 3.944 3.944 0 0 1-.944-1.336c-.23-.523-.344-1.115-.344-1.776 0-.65.115-1.237.344-1.76.23-.523.544-.968.944-1.336.4-.368.872-.65 1.416-.848a5.075 5.075 0 0 1 2.6-.216c.283.053.555.125.816.216.261.09.501.203.72.336.219.133.408.28.568.44l-1.52 1.76zm5.298-.608v3.04c0 .373.072.653.216.84.144.187.403.28.776.28.128 0 .264-.01.408-.032a1.4 1.4 0 0 0 .36-.096l.032 1.92c-.181.064-.41.12-.688.168a4.87 4.87 0 0 1-.832.072c-.533 0-.981-.067-1.344-.2a2.084 2.084 0 0 1-.872-.576 2.258 2.258 0 0 1-.472-.896 4.344 4.344 0 0 1-.144-1.16V37h-1.28v-1.968h1.264v-2.096h2.576v2.096h1.872V37h-1.872zm13.668 6l-2.48-4-2.384 4h-3.264l3.968-5.984-3.648-5.344h3.296l2.112 3.52 2.08-3.52h3.184l-3.584 5.344L129.336 43h-3.376zm15.156 0v-4.736H136.7V43h-2.736V31.672h2.736v4.288h4.416v-4.288h2.736V43h-2.736zm10.306-4.896c0-.416-.13-.773-.392-1.072-.261-.299-.653-.448-1.176-.448-.256 0-.49.04-.704.12-.213.08-.4.19-.56.328-.16.139-.288.301-.384.488-.096.187-.15.381-.16.584h3.376zm2.416 1.008v.32c0 .107-.005.208-.016.304h-5.776c.021.224.088.427.2.608.112.181.256.339.432.472.176.133.373.237.592.312.219.075.445.112.68.112.416 0 .768-.077 1.056-.232.288-.155.523-.355.704-.6l1.824 1.152a3.69 3.69 0 0 1-1.48 1.256c-.613.293-1.325.44-2.136.44a5.097 5.097 0 0 1-1.696-.28c-.533-.187-1-.459-1.4-.816a3.779 3.779 0 0 1-.944-1.32c-.23-.523-.344-1.12-.344-1.792 0-.65.112-1.24.336-1.768.224-.528.528-.976.912-1.344a4.066 4.066 0 0 1 1.36-.856 4.65 4.65 0 0 1 1.696-.304c.587 0 1.125.099 1.616.296.49.197.912.483 1.264.856s.627.827.824 1.36c.197.533.296 1.141.296 1.824zm6.13.416h-.336c-.288 0-.579.013-.872.04a3.587 3.587 0 0 0-.784.152 1.45 1.45 0 0 0-.568.328.753.753 0 0 0-.224.568c0 .15.035.277.104.384.07.107.157.192.264.256.107.064.23.11.368.136.139.027.272.04.4.04.533 0 .941-.147 1.224-.44.283-.293.424-.69.424-1.192v-.272zm-4.816-3.408a4.595 4.595 0 0 1 1.64-1.008 5.62 5.62 0 0 1 1.912-.336c.672 0 1.24.083 1.704.248.464.165.84.421 1.128.768.288.347.499.784.632 1.312s.2 1.155.2 1.88V43h-2.4v-.848h-.048c-.203.33-.51.587-.92.768a3.27 3.27 0 0 1-1.336.272c-.32 0-.65-.043-.992-.128a2.906 2.906 0 0 1-.936-.416 2.253 2.253 0 0 1-.696-.768c-.181-.32-.272-.715-.272-1.184 0-.576.157-1.04.472-1.392.315-.352.72-.624 1.216-.816a6.442 6.442 0 0 1 1.656-.384c.608-.064 1.2-.096 1.776-.096v-.128c0-.395-.139-.685-.416-.872-.277-.187-.619-.28-1.024-.28-.373 0-.733.08-1.08.24-.347.16-.643.352-.888.576l-1.328-1.424zm11.746.88v3.04c0 .373.072.653.216.84.144.187.403.28.776.28.128 0 .264-.01.408-.032a1.4 1.4 0 0 0 .36-.096l.032 1.92c-.181.064-.41.12-.688.168a4.87 4.87 0 0 1-.832.072c-.533 0-.981-.067-1.344-.2a2.084 2.084 0 0 1-.872-.576 2.258 2.258 0 0 1-.472-.896 4.344 4.344 0 0 1-.144-1.16V37h-1.28v-1.968h1.264v-2.096h2.576v2.096h1.872V37h-1.872zm13.17 6v-4.352c0-.224-.016-.44-.048-.648a1.547 1.547 0 0 0-.176-.536c-.085-.15-.2-.27-.344-.36-.144-.09-.333-.136-.568-.136-.224 0-.419.048-.584.144a1.3 1.3 0 0 0-.416.384 1.68 1.68 0 0 0-.248.552c-.053.208-.08.424-.08.648V43h-2.624v-4.544c0-.459-.09-.821-.272-1.088-.181-.267-.47-.4-.864-.4-.416 0-.739.165-.968.496-.23.33-.344.736-.344 1.216V43h-2.64v-7.968h2.544v1.104h.032c.096-.17.216-.336.36-.496.144-.16.317-.301.52-.424s.43-.221.68-.296c.25-.075.525-.112.824-.112.576 0 1.064.117 1.464.352.4.235.712.57.936 1.008a3.034 3.034 0 0 1 1.024-.992c.416-.245.923-.368 1.52-.368.544 0 1 .099 1.368.296.368.197.664.453.888.768.224.315.387.667.488 1.056.101.39.152.77.152 1.144V43h-2.624zm9.202-3.472h-.336c-.288 0-.579.013-.872.04a3.587 3.587 0 0 0-.784.152 1.45 1.45 0 0 0-.568.328.753.753 0 0 0-.224.568c0 .15.035.277.104.384.07.107.157.192.264.256.107.064.23.11.368.136.139.027.272.04.4.04.533 0 .941-.147 1.224-.44.283-.293.424-.69.424-1.192v-.272zm-4.816-3.408a4.595 4.595 0 0 1 1.64-1.008 5.62 5.62 0 0 1 1.912-.336c.672 0 1.24.083 1.704.248.464.165.84.421 1.128.768.288.347.499.784.632 1.312s.2 1.155.2 1.88V43h-2.4v-.848h-.048c-.203.33-.51.587-.92.768a3.27 3.27 0 0 1-1.336.272c-.32 0-.65-.043-.992-.128a2.906 2.906 0 0 1-.936-.416 2.253 2.253 0 0 1-.696-.768c-.181-.32-.272-.715-.272-1.184 0-.576.157-1.04.472-1.392.315-.352.72-.624 1.216-.816a6.442 6.442 0 0 1 1.656-.384c.608-.064 1.2-.096 1.776-.096v-.128c0-.395-.139-.685-.416-.872-.277-.187-.619-.28-1.024-.28-.373 0-.733.08-1.08.24-.347.16-.643.352-.888.576l-1.328-1.424zm17.922 2.864c0 .555-.085 1.088-.256 1.6-.17.512-.419.963-.744 1.352-.325.39-.723.701-1.192.936-.47.235-1.003.352-1.6.352-.49 0-.955-.099-1.392-.296-.437-.197-.779-.467-1.024-.808h-.032v4.72h-2.624V35.032h2.496v.976h.048c.245-.32.584-.6 1.016-.84.432-.24.941-.36 1.528-.36.576 0 1.099.112 1.568.336.47.224.867.528 1.192.912.325.384.576.83.752 1.336.176.507.264 1.037.264 1.592zm-2.544 0c0-.256-.04-.507-.12-.752a1.953 1.953 0 0 0-.352-.648 1.78 1.78 0 0 0-.584-.456 1.802 1.802 0 0 0-.816-.176c-.299 0-.565.059-.8.176a1.909 1.909 0 0 0-.6.464c-.165.192-.293.41-.384.656a2.153 2.153 0 0 0 .384 2.16c.165.192.365.347.6.464.235.117.501.176.8.176.31 0 .581-.059.816-.176.235-.117.43-.272.584-.464.155-.192.272-.413.352-.664.08-.25.12-.504.12-.76zm8.77-1.6a2.923 2.923 0 0 0-.752-.512 2.076 2.076 0 0 0-.912-.208c-.245 0-.472.048-.68.144a.505.505 0 0 0-.312.496c0 .224.115.384.344.48.23.096.6.203 1.112.32.299.064.6.155.904.272.304.117.579.272.824.464s.443.427.592.704c.15.277.224.608.224.992 0 .501-.101.925-.304 1.272a2.492 2.492 0 0 1-.792.84c-.325.213-.69.368-1.096.464a5.26 5.26 0 0 1-1.216.144c-.65 0-1.288-.104-1.912-.312-.624-.208-1.144-.515-1.56-.92l1.472-1.552c.235.256.523.47.864.64a2.4 2.4 0 0 0 1.088.256c.213 0 .424-.05.632-.152.208-.101.312-.28.312-.536 0-.245-.128-.427-.384-.544-.256-.117-.656-.24-1.2-.368a6.2 6.2 0 0 1-.832-.256 2.641 2.641 0 0 1-.744-.432 2.149 2.149 0 0 1-.536-.672c-.139-.267-.208-.587-.208-.96 0-.48.101-.888.304-1.224.203-.336.464-.61.784-.824.32-.213.675-.37 1.064-.472a4.59 4.59 0 0 1 1.16-.152 5.6 5.6 0 0 1 1.752.28c.57.187 1.053.467 1.448.84l-1.44 1.488z"/><path fill="#FFF" d="M14 204h292a4 4 0 0 1 4 4v52a4 4 0 0 1-4 4H14a4 4 0 0 1-4-4v-52a4 4 0 0 1 4-4z"/><rect width="38" height="38" fill="#1D5CFF" opacity=".15" rx="4" transform="translate(21 215)"/><g stroke="#225CFF" stroke-width="2" transform="translate(268 220)"><rect width="26" height="26" x="1" y="1" rx="13"/><path stroke-linecap="round" stroke-linejoin="round" d="M14 8v12l4-4m-8 0l4 4"/></g><path fill="#2C3F58" fill-rule="nonzero" d="M71.65 226.09c0-.277.102-.516.306-.715.203-.2.448-.299.734-.299.277 0 .52.095.728.286.208.19.312.425.312.702a.965.965 0 0 1-.305.715c-.204.2-.449.299-.735.299-.139 0-.27-.026-.396-.078a1.13 1.13 0 0 1-.332-.208.967.967 0 0 1-.228-.312.915.915 0 0 1-.084-.39zm5.072-5.33v.871h.039a2.26 2.26 0 0 1 .305-.37c.126-.126.28-.239.462-.338a2.84 2.84 0 0 1 1.391-.345 2.924 2.924 0 0 1 2.184.949c.268.295.476.641.624 1.04.147.399.22.828.22 1.287 0 .46-.07.89-.214 1.294a3.172 3.172 0 0 1-.61 1.053 2.94 2.94 0 0 1-.963.715 2.968 2.968 0 0 1-1.28.266c-.442 0-.848-.091-1.216-.273a2.07 2.07 0 0 1-.851-.741h-.026v3.952h-1.56v-9.36h1.495zm3.64 3.094a2.43 2.43 0 0 0-.11-.722 2.017 2.017 0 0 0-.332-.643 1.665 1.665 0 0 0-.56-.462 1.698 1.698 0 0 0-.792-.175c-.286 0-.542.06-.767.182a1.965 1.965 0 0 0-.943 1.118 2.196 2.196 0 0 0 0 1.45c.082.238.204.452.364.643.16.19.353.344.579.461.225.118.48.176.767.176a1.648 1.648 0 0 0 1.352-.65c.147-.19.257-.407.331-.65.074-.243.11-.485.11-.728zm3.004-3.094h1.482v1.001h.026c.139-.312.38-.587.722-.825.342-.239.747-.358 1.215-.358.408 0 .756.071 1.047.214.29.144.528.332.715.566.186.234.323.503.41.806.086.303.13.615.13.936v3.9h-1.56v-3.458c0-.182-.014-.373-.04-.572-.026-.2-.082-.38-.169-.54a1.12 1.12 0 0 0-.357-.396c-.152-.104-.353-.156-.605-.156-.251 0-.468.05-.65.15a1.38 1.38 0 0 0-.448.383 1.698 1.698 0 0 0-.267.54c-.06.203-.09.409-.09.617V227h-1.56v-6.24zm13.82 0v5.681a5.23 5.23 0 0 1-.207 1.527c-.139.456-.353.841-.644 1.157-.29.317-.656.562-1.098.735-.442.173-.966.26-1.573.26a5.52 5.52 0 0 1-1.632-.26 5.005 5.005 0 0 1-.786-.325 3.792 3.792 0 0 1-.676-.442l.897-1.209a3.22 3.22 0 0 0 2.184.884c.373 0 .687-.054.942-.163a1.52 1.52 0 0 0 .611-.448c.152-.19.26-.416.325-.676.065-.26.098-.546.098-.858v-.455H95.6a2.193 2.193 0 0 1-.865.695 2.8 2.8 0 0 1-1.176.241c-.468 0-.893-.087-1.274-.26a2.888 2.888 0 0 1-.969-.702 3.215 3.215 0 0 1-.617-1.034 3.555 3.555 0 0 1-.221-1.254c0-.45.071-.875.214-1.274.143-.399.347-.745.611-1.04.265-.295.585-.529.962-.702a3 3 0 0 1 1.268-.26c.442 0 .854.091 1.235.273.381.182.685.464.91.845h.026v-.936h1.482zm-3.327 1.092c-.286 0-.54.052-.76.156a1.646 1.646 0 0 0-.56.422 1.899 1.899 0 0 0-.35.631 2.412 2.412 0 0 0-.124.78 2.177 2.177 0 0 0 .474 1.359c.152.186.338.335.56.448.22.113.47.169.747.169.286 0 .544-.054.773-.162.23-.109.425-.254.585-.436.16-.182.284-.392.37-.63a2.263 2.263 0 0 0 0-1.514 1.94 1.94 0 0 0-.37-.638 1.725 1.725 0 0 0-1.345-.585z" opacity=".7"/><path fill="#2C3F58" fill-rule="nonzero" d="M82.44 247l.064-8.016h-.048L79.512 247h-1.92l-2.864-8.016h-.048l.064 8.016h-2.576v-11.328h3.888l2.576 7.264h.064l2.464-7.264h3.952V247H82.44zm7.602-10.512c0 .203-.04.392-.12.568-.08.176-.187.328-.32.456s-.293.23-.48.304a1.558 1.558 0 0 1-.584.112 1.47 1.47 0 0 1-1.072-.424 1.373 1.373 0 0 1-.432-1.016 1.4 1.4 0 0 1 .112-.552c.075-.176.181-.328.32-.456s.299-.232.48-.312a1.558 1.558 0 0 1 1.656.296c.133.128.24.28.32.456.08.176.12.365.12.568zM87.226 247v-7.968h2.624V247h-2.624zm9.282-5.616a2.923 2.923 0 0 0-.752-.512 2.076 2.076 0 0 0-.912-.208c-.245 0-.472.048-.68.144a.505.505 0 0 0-.312.496c0 .224.115.384.344.48.23.096.6.203 1.112.32.299.064.6.155.904.272.304.117.579.272.824.464s.443.427.592.704c.15.277.224.608.224.992 0 .501-.101.925-.304 1.272a2.492 2.492 0 0 1-.792.84c-.325.213-.69.368-1.096.464a5.26 5.26 0 0 1-1.216.144c-.65 0-1.288-.104-1.912-.312-.624-.208-1.144-.515-1.56-.92l1.472-1.552c.235.256.523.47.864.64a2.4 2.4 0 0 0 1.088.256c.213 0 .424-.05.632-.152.208-.101.312-.28.312-.536 0-.245-.128-.427-.384-.544-.256-.117-.656-.24-1.2-.368a6.2 6.2 0 0 1-.832-.256 2.641 2.641 0 0 1-.744-.432 2.149 2.149 0 0 1-.536-.672c-.139-.267-.208-.587-.208-.96 0-.48.101-.888.304-1.224.203-.336.464-.61.784-.824.32-.213.675-.37 1.064-.472a4.59 4.59 0 0 1 1.16-.152 5.6 5.6 0 0 1 1.752.28c.57.187 1.053.467 1.448.84l-1.44 1.488zm7.442 0a2.923 2.923 0 0 0-.752-.512 2.076 2.076 0 0 0-.912-.208c-.245 0-.472.048-.68.144a.505.505 0 0 0-.312.496c0 .224.115.384.344.48.23.096.6.203 1.112.32.299.064.6.155.904.272.304.117.579.272.824.464s.443.427.592.704c.15.277.224.608.224.992 0 .501-.101.925-.304 1.272a2.492 2.492 0 0 1-.792.84c-.325.213-.69.368-1.096.464a5.26 5.26 0 0 1-1.216.144c-.65 0-1.288-.104-1.912-.312-.624-.208-1.144-.515-1.56-.92l1.472-1.552c.235.256.523.47.864.64a2.4 2.4 0 0 0 1.088.256c.213 0 .424-.05.632-.152.208-.101.312-.28.312-.536 0-.245-.128-.427-.384-.544-.256-.117-.656-.24-1.2-.368a6.2 6.2 0 0 1-.832-.256 2.641 2.641 0 0 1-.744-.432 2.149 2.149 0 0 1-.536-.672c-.139-.267-.208-.587-.208-.96 0-.48.101-.888.304-1.224.203-.336.464-.61.784-.824.32-.213.675-.37 1.064-.472a4.59 4.59 0 0 1 1.16-.152 5.6 5.6 0 0 1 1.752.28c.57.187 1.053.467 1.448.84l-1.44 1.488zm8.242.224a1.593 1.593 0 0 0-.608-.464 1.864 1.864 0 0 0-.784-.176c-.277 0-.528.056-.752.168a1.825 1.825 0 0 0-.576.448c-.16.187-.285.403-.376.648-.09.245-.136.507-.136.784s.043.539.128.784.21.461.376.648c.165.187.363.333.592.44.23.107.488.16.776.16.267 0 .53-.05.792-.152.261-.101.472-.248.632-.44l1.456 1.776c-.33.32-.757.57-1.28.752a5.04 5.04 0 0 1-1.664.272c-.63 0-1.216-.096-1.76-.288a4.06 4.06 0 0 1-1.416-.84 3.944 3.944 0 0 1-.944-1.336c-.23-.523-.344-1.115-.344-1.776 0-.65.115-1.237.344-1.76.23-.523.544-.968.944-1.336.4-.368.872-.65 1.416-.848a5.075 5.075 0 0 1 2.6-.216c.283.053.555.125.816.216.261.09.501.203.72.336.219.133.408.28.568.44l-1.52 1.76zm2.482 5.392v-12.096h2.656V247h-2.656zm7.474-10.512c0 .203-.04.392-.12.568-.08.176-.187.328-.32.456s-.293.23-.48.304a1.558 1.558 0 0 1-.584.112 1.47 1.47 0 0 1-1.072-.424 1.373 1.373 0 0 1-.432-1.016 1.4 1.4 0 0 1 .112-.552c.075-.176.181-.328.32-.456s.299-.232.48-.312a1.558 1.558 0 0 1 1.656.296c.133.128.24.28.32.456.08.176.12.365.12.568zM119.332 247v-7.968h2.624V247h-2.624zm10.082-5.392a1.593 1.593 0 0 0-.608-.464 1.864 1.864 0 0 0-.784-.176c-.277 0-.528.056-.752.168a1.825 1.825 0 0 0-.576.448c-.16.187-.285.403-.376.648-.09.245-.136.507-.136.784s.043.539.128.784.21.461.376.648c.165.187.363.333.592.44.23.107.488.16.776.16.267 0 .53-.05.792-.152.261-.101.472-.248.632-.44l1.456 1.776c-.33.32-.757.57-1.28.752a5.04 5.04 0 0 1-1.664.272c-.63 0-1.216-.096-1.76-.288a4.06 4.06 0 0 1-1.416-.84 3.944 3.944 0 0 1-.944-1.336c-.23-.523-.344-1.115-.344-1.776 0-.65.115-1.237.344-1.76.23-.523.544-.968.944-1.336.4-.368.872-.65 1.416-.848a5.075 5.075 0 0 1 2.6-.216c.283.053.555.125.816.216.261.09.501.203.72.336.219.133.408.28.568.44l-1.52 1.76zm11.01 5.392h-3.248l-2.608-3.824h-.048V247h-2.64v-12.096h2.64v7.36h.048l2.544-3.232h3.184l-3.072 3.6 3.2 4.368zm10.948 0l-2.448-4.496h-.928V247h-2.688v-11.328h4.32c.544 0 1.075.056 1.592.168.517.112.981.301 1.392.568.41.267.739.619.984 1.056.245.437.368.981.368 1.632 0 .768-.208 1.413-.624 1.936-.416.523-.992.896-1.728 1.12l2.96 4.848h-3.2zm-.112-7.856c0-.267-.056-.483-.168-.648a1.151 1.151 0 0 0-.432-.384 1.876 1.876 0 0 0-.592-.184 4.366 4.366 0 0 0-.632-.048h-1.456v2.64h1.296c.224 0 .453-.019.688-.056.235-.037.448-.104.64-.2.192-.096.35-.235.472-.416.123-.181.184-.416.184-.704zm9.698 2.96c0-.416-.13-.773-.392-1.072-.261-.299-.653-.448-1.176-.448-.256 0-.49.04-.704.12-.213.08-.4.19-.56.328-.16.139-.288.301-.384.488-.096.187-.15.381-.16.584h3.376zm2.416 1.008v.32c0 .107-.005.208-.016.304h-5.776c.021.224.088.427.2.608.112.181.256.339.432.472.176.133.373.237.592.312.219.075.445.112.68.112.416 0 .768-.077 1.056-.232.288-.155.523-.355.704-.6l1.824 1.152a3.69 3.69 0 0 1-1.48 1.256c-.613.293-1.325.44-2.136.44a5.097 5.097 0 0 1-1.696-.28c-.533-.187-1-.459-1.4-.816a3.779 3.779 0 0 1-.944-1.32c-.23-.523-.344-1.12-.344-1.792 0-.65.112-1.24.336-1.768.224-.528.528-.976.912-1.344a4.066 4.066 0 0 1 1.36-.856 4.65 4.65 0 0 1 1.696-.304c.587 0 1.125.099 1.616.296.49.197.912.483 1.264.856s.627.827.824 1.36c.197.533.296 1.141.296 1.824zm10.386-.128c0 .555-.085 1.088-.256 1.6-.17.512-.419.963-.744 1.352-.325.39-.723.701-1.192.936-.47.235-1.003.352-1.6.352-.49 0-.955-.099-1.392-.296-.437-.197-.779-.467-1.024-.808h-.032v4.72h-2.624v-11.808h2.496v.976h.048c.245-.32.584-.6 1.016-.84.432-.24.941-.36 1.528-.36.576 0 1.099.112 1.568.336.47.224.867.528 1.192.912.325.384.576.83.752 1.336.176.507.264 1.037.264 1.592zm-2.544 0c0-.256-.04-.507-.12-.752a1.953 1.953 0 0 0-.352-.648 1.78 1.78 0 0 0-.584-.456 1.802 1.802 0 0 0-.816-.176c-.299 0-.565.059-.8.176a1.909 1.909 0 0 0-.6.464c-.165.192-.293.41-.384.656a2.153 2.153 0 0 0 .384 2.16c.165.192.365.347.6.464.235.117.501.176.8.176.31 0 .581-.059.816-.176.235-.117.43-.272.584-.464.155-.192.272-.413.352-.664.08-.25.12-.504.12-.76zm12.53 0c0 .65-.117 1.24-.352 1.768a3.964 3.964 0 0 1-.96 1.344 4.395 4.395 0 0 1-1.408.856 4.779 4.779 0 0 1-1.712.304 4.799 4.799 0 0 1-1.704-.304 4.282 4.282 0 0 1-1.408-.856 4.018 4.018 0 0 1-.952-1.344 4.307 4.307 0 0 1-.352-1.768c0-.65.117-1.237.352-1.76.235-.523.552-.965.952-1.328.4-.363.87-.64 1.408-.832a5.037 5.037 0 0 1 1.704-.288c.608 0 1.179.096 1.712.288.533.192 1.003.47 1.408.832a3.9 3.9 0 0 1 .96 1.328c.235.523.352 1.11.352 1.76zm-2.528 0c0-.256-.043-.507-.128-.752a1.989 1.989 0 0 0-.368-.648 1.802 1.802 0 0 0-1.408-.632c-.31 0-.581.059-.816.176a1.78 1.78 0 0 0-.584.456 1.953 1.953 0 0 0-.352.648 2.411 2.411 0 0 0 0 1.504c.08.245.2.467.36.664.16.197.357.355.592.472.235.117.507.176.816.176.31 0 .581-.059.816-.176.235-.117.432-.275.592-.472.16-.197.28-.419.36-.664.08-.245.12-.496.12-.752zm9.25-1.808a2.044 2.044 0 0 0-.344-.064 3.46 3.46 0 0 0-.328-.016c-.352 0-.648.064-.888.192s-.432.283-.576.464a1.758 1.758 0 0 0-.312.592c-.064.213-.096.4-.096.56V247H185.3v-7.968h2.528v1.152h.032c.203-.405.49-.736.864-.992a2.236 2.236 0 0 1 1.296-.384c.107 0 .21.005.312.016.101.01.184.027.248.048l-.112 2.304zm3.714-.176v3.04c0 .373.072.653.216.84.144.187.403.28.776.28.128 0 .264-.01.408-.032a1.4 1.4 0 0 0 .36-.096l.032 1.92c-.181.064-.41.12-.688.168a4.87 4.87 0 0 1-.832.072c-.533 0-.981-.067-1.344-.2a2.084 2.084 0 0 1-.872-.576 2.258 2.258 0 0 1-.472-.896 4.344 4.344 0 0 1-.144-1.16V241h-1.28v-1.968h1.264v-2.096h2.576v2.096h1.872V241h-1.872z"/><g><path fill="#FFF" d="M24 68h292a4 4 0 0 1 4 4v52a4 4 0 0 1-4 4H24a4 4 0 0 1-4-4V72a4 4 0 0 1 4-4z"/><g transform="translate(31 79)"><rect width="38" height="38" fill="#DDE6FF" rx="4"/><path stroke="#225CFF" stroke-linecap="round" stroke-linejoin="round" stroke-width="2" d="M10 22c3.333.667 5 2.333 5 5 0-3 7-13 14-13"/></g><g stroke="#225CFF" stroke-width="2" transform="translate(278 84)"><rect width="26" height="26" x="1" y="1" rx="13"/><path stroke-linecap="round" stroke-linejoin="round" d="M14 8v12l4-4m-8 0l4 4"/></g><path fill="#2C3F58" fill-rule="nonzero" d="M81.65 90.09c0-.277.102-.516.306-.715.203-.2.448-.299.734-.299.277 0 .52.095.728.286.208.19.312.425.312.702a.965.965 0 0 1-.305.715c-.204.2-.449.299-.735.299-.139 0-.27-.026-.396-.078a1.13 1.13 0 0 1-.332-.208.967.967 0 0 1-.228-.312.915.915 0 0 1-.084-.39zm7.84-3.601a1.375 1.375 0 0 0-.545-.436 1.69 1.69 0 0 0-.741-.175 1.563 1.563 0 0 0-1.294.637c-.143.19-.249.405-.318.643a2.57 2.57 0 0 0-.104.722c0 .243.036.483.11.722.074.238.184.452.332.643.147.19.331.344.552.461.221.118.479.176.774.176.242 0 .485-.048.728-.143.242-.095.437-.234.585-.416l.975.988c-.26.277-.592.492-.995.643a3.68 3.68 0 0 1-1.306.228c-.46 0-.895-.074-1.307-.221a3.1 3.1 0 0 1-1.079-.65 3.083 3.083 0 0 1-.728-1.04 3.448 3.448 0 0 1-.266-1.391c0-.503.088-.958.266-1.365a3.129 3.129 0 0 1 1.781-1.703 3.552 3.552 0 0 1 1.294-.234c.459 0 .903.087 1.332.26.43.173.77.412 1.02.715l-1.065.936zm5.41-.065a1.8 1.8 0 0 0-.572-.474 1.61 1.61 0 0 0-.793-.202c-.251 0-.48.052-.689.156a.538.538 0 0 0-.312.52c0 .243.115.414.345.513.23.1.565.202 1.007.306.234.052.47.121.709.208.238.087.455.201.65.345.195.143.353.32.474.532.122.213.182.47.182.774 0 .381-.071.704-.214.968a1.823 1.823 0 0 1-.572.644 2.409 2.409 0 0 1-.832.357c-.317.074-.644.111-.982.111-.485 0-.957-.089-1.417-.267a2.996 2.996 0 0 1-1.144-.76l1.027-.962c.174.225.399.412.676.559.278.147.585.221.923.221.113 0 .228-.013.345-.039.117-.026.225-.067.325-.123.1-.057.18-.133.24-.228a.64.64 0 0 0 .091-.351c0-.26-.119-.446-.357-.559-.239-.113-.596-.225-1.073-.338a5.157 5.157 0 0 1-.682-.201 2.228 2.228 0 0 1-.592-.326 1.506 1.506 0 0 1-.416-.5c-.104-.2-.156-.446-.156-.741 0-.347.072-.646.215-.897.143-.251.331-.457.565-.618.234-.16.499-.279.793-.357.295-.078.598-.117.91-.117.45 0 .89.078 1.32.234.429.156.769.394 1.02.715l-1.014.897zm1.328-1.664h1.703l1.638 4.55h.026l1.65-4.55h1.652L100.414 91H98.75l-2.522-6.24z" opacity=".7"/><path fill="#2C3F58" fill-rule="nonzero" d="M91 107.704c0 .619-.123 1.139-.368 1.56a2.92 2.92 0 0 1-.976 1.016c-.405.256-.867.44-1.384.552a7.502 7.502 0 0 1-1.592.168h-4.512V99.672h4.512c.437 0 .885.045 1.344.136.459.09.875.245 1.248.464.373.219.677.515.912.888s.352.848.352 1.424c0 .63-.17 1.15-.512 1.56-.341.41-.79.707-1.344.888v.032c.32.053.621.152.904.296.283.144.528.328.736.552.208.224.373.485.496.784.123.299.184.635.184 1.008zm-3.104-4.752c0-.384-.147-.664-.44-.84-.293-.176-.728-.264-1.304-.264h-1.344v2.336h1.472c.512 0 .91-.104 1.192-.312.283-.208.424-.515.424-.92zm.368 4.496c0-.47-.176-.795-.528-.976-.352-.181-.821-.272-1.408-.272h-1.52v2.592h1.536c.213 0 .435-.019.664-.056a2.09 2.09 0 0 0 .624-.2c.187-.096.339-.232.456-.408.117-.176.176-.403.176-.68zm12.738-.464c0 .65-.117 1.24-.352 1.768a3.964 3.964 0 0 1-.96 1.344 4.395 4.395 0 0 1-1.408.856 4.779 4.779 0 0 1-1.712.304 4.799 4.799 0 0 1-1.704-.304 4.282 4.282 0 0 1-1.408-.856 4.018 4.018 0 0 1-.952-1.344 4.307 4.307 0 0 1-.352-1.768c0-.65.117-1.237.352-1.76.235-.523.552-.965.952-1.328.4-.363.87-.64 1.408-.832a5.037 5.037 0 0 1 1.704-.288c.608 0 1.179.096 1.712.288.533.192 1.003.47 1.408.832a3.9 3.9 0 0 1 .96 1.328c.235.523.352 1.11.352 1.76zm-2.528 0c0-.256-.043-.507-.128-.752a1.989 1.989 0 0 0-.368-.648 1.802 1.802 0 0 0-1.408-.632c-.31 0-.581.059-.816.176a1.78 1.78 0 0 0-.584.456 1.953 1.953 0 0 0-.352.648 2.411 2.411 0 0 0 0 1.504c.08.245.2.467.36.664.16.197.357.355.592.472.235.117.507.176.816.176.31 0 .581-.059.816-.176.235-.117.432-.275.592-.472.16-.197.28-.419.36-.664.08-.245.12-.496.12-.752zm9.33 4.016v-1.104h-.032a2.255 2.255 0 0 1-.376.512 2.37 2.37 0 0 1-.544.416 3.33 3.33 0 0 1-.688.288 2.76 2.76 0 0 1-.792.112c-.533 0-.984-.096-1.352-.288a2.619 2.619 0 0 1-.896-.744 2.934 2.934 0 0 1-.496-1.04 4.713 4.713 0 0 1-.152-1.192v-4.928h2.64v4.32c0 .224.016.437.048.64a1.6 1.6 0 0 0 .184.544c.09.16.21.285.36.376.15.09.347.136.592.136.459 0 .808-.17 1.048-.512.24-.341.36-.741.36-1.2v-4.304h2.624V111h-2.528zm9.698 0v-4.352c0-.224-.019-.437-.056-.64a1.764 1.764 0 0 0-.184-.536.954.954 0 0 0-.36-.368 1.14 1.14 0 0 0-.584-.136c-.235 0-.44.045-.616.136-.176.09-.323.216-.44.376-.117.16-.205.344-.264.552a2.376 2.376 0 0 0-.088.648V111h-2.64v-7.968h2.544v1.104h.032a2.63 2.63 0 0 1 .376-.504c.155-.165.336-.307.544-.424.208-.117.435-.213.68-.288.245-.075.507-.112.784-.112.533 0 .987.096 1.36.288.373.192.675.44.904.744.23.304.395.653.496 1.048.101.395.152.79.152 1.184V111h-2.64zm10.002-5.392a1.593 1.593 0 0 0-.608-.464 1.864 1.864 0 0 0-.784-.176c-.277 0-.528.056-.752.168a1.825 1.825 0 0 0-.576.448c-.16.187-.285.403-.376.648-.09.245-.136.507-.136.784s.043.539.128.784.21.461.376.648c.165.187.363.333.592.44.23.107.488.16.776.16.267 0 .53-.05.792-.152.261-.101.472-.248.632-.44l1.456 1.776c-.33.32-.757.57-1.28.752a5.04 5.04 0 0 1-1.664.272c-.63 0-1.216-.096-1.76-.288a4.06 4.06 0 0 1-1.416-.84 3.944 3.944 0 0 1-.944-1.336c-.23-.523-.344-1.115-.344-1.776 0-.65.115-1.237.344-1.76.23-.523.544-.968.944-1.336.4-.368.872-.65 1.416-.848a5.075 5.075 0 0 1 2.6-.216c.283.053.555.125.816.216.261.09.501.203.72.336.219.133.408.28.568.44l-1.52 1.76zm7.938.496c0-.416-.13-.773-.392-1.072-.261-.299-.653-.448-1.176-.448-.256 0-.49.04-.704.12-.213.08-.4.19-.56.328-.16.139-.288.301-.384.488-.096.187-.15.381-.16.584h3.376zm2.416 1.008v.32c0 .107-.005.208-.016.304h-5.776c.021.224.088.427.2.608.112.181.256.339.432.472.176.133.373.237.592.312.219.075.445.112.68.112.416 0 .768-.077 1.056-.232.288-.155.523-.355.704-.6l1.824 1.152a3.69 3.69 0 0 1-1.48 1.256c-.613.293-1.325.44-2.136.44a5.097 5.097 0 0 1-1.696-.28c-.533-.187-1-.459-1.4-.816a3.779 3.779 0 0 1-.944-1.32c-.23-.523-.344-1.12-.344-1.792 0-.65.112-1.24.336-1.768.224-.528.528-.976.912-1.344a4.066 4.066 0 0 1 1.36-.856 4.65 4.65 0 0 1 1.696-.304c.587 0 1.125.099 1.616.296.49.197.912.483 1.264.856s.627.827.824 1.36c.197.533.296 1.141.296 1.824zm11.62 3.888l-2.448-4.496h-.928V111h-2.688V99.672h4.32c.544 0 1.075.056 1.592.168.517.112.981.301 1.392.568.41.267.739.619.984 1.056.245.437.368.981.368 1.632 0 .768-.208 1.413-.624 1.936-.416.523-.992.896-1.728 1.12l2.96 4.848h-3.2zm-.112-7.856c0-.267-.056-.483-.168-.648a1.151 1.151 0 0 0-.432-.384 1.876 1.876 0 0 0-.592-.184 4.366 4.366 0 0 0-.632-.048h-1.456v2.64h1.296c.224 0 .453-.019.688-.056.235-.037.448-.104.64-.2.192-.096.35-.235.472-.416.123-.181.184-.416.184-.704zm8.914 4.384h-.336c-.288 0-.579.013-.872.04a3.587 3.587 0 0 0-.784.152 1.45 1.45 0 0 0-.568.328.753.753 0 0 0-.224.568c0 .15.035.277.104.384.07.107.157.192.264.256.107.064.23.11.368.136.139.027.272.04.4.04.533 0 .941-.147 1.224-.44.283-.293.424-.69.424-1.192v-.272zm-4.816-3.408a4.595 4.595 0 0 1 1.64-1.008 5.62 5.62 0 0 1 1.912-.336c.672 0 1.24.083 1.704.248.464.165.84.421 1.128.768.288.347.499.784.632 1.312s.2 1.155.2 1.88V111h-2.4v-.848h-.048c-.203.33-.51.587-.92.768a3.27 3.27 0 0 1-1.336.272c-.32 0-.65-.043-.992-.128a2.906 2.906 0 0 1-.936-.416 2.253 2.253 0 0 1-.696-.768c-.181-.32-.272-.715-.272-1.184 0-.576.157-1.04.472-1.392.315-.352.72-.624 1.216-.816a6.442 6.442 0 0 1 1.656-.384c.608-.064 1.2-.096 1.776-.096v-.128c0-.395-.139-.685-.416-.872-.277-.187-.619-.28-1.024-.28-.373 0-.733.08-1.08.24-.347.16-.643.352-.888.576l-1.328-1.424zm11.746.88v3.04c0 .373.072.653.216.84.144.187.403.28.776.28.128 0 .264-.01.408-.032a1.4 1.4 0 0 0 .36-.096l.032 1.92c-.181.064-.41.12-.688.168a4.87 4.87 0 0 1-.832.072c-.533 0-.981-.067-1.344-.2a2.084 2.084 0 0 1-.872-.576 2.258 2.258 0 0 1-.472-.896 4.344 4.344 0 0 1-.144-1.16V105h-1.28v-1.968h1.264v-2.096h2.576v2.096h1.872V105h-1.872zm8.482 1.104c0-.416-.13-.773-.392-1.072-.261-.299-.653-.448-1.176-.448-.256 0-.49.04-.704.12-.213.08-.4.19-.56.328-.16.139-.288.301-.384.488-.096.187-.15.381-.16.584h3.376zm2.416 1.008v.32c0 .107-.005.208-.016.304h-5.776c.021.224.088.427.2.608.112.181.256.339.432.472.176.133.373.237.592.312.219.075.445.112.68.112.416 0 .768-.077 1.056-.232.288-.155.523-.355.704-.6l1.824 1.152a3.69 3.69 0 0 1-1.48 1.256c-.613.293-1.325.44-2.136.44a5.097 5.097 0 0 1-1.696-.28c-.533-.187-1-.459-1.4-.816a3.779 3.779 0 0 1-.944-1.32c-.23-.523-.344-1.12-.344-1.792 0-.65.112-1.24.336-1.768.224-.528.528-.976.912-1.344a4.066 4.066 0 0 1 1.36-.856 4.65 4.65 0 0 1 1.696-.304c.587 0 1.125.099 1.616.296.49.197.912.483 1.264.856s.627.827.824 1.36c.197.533.296 1.141.296 1.824zm11.62 3.888l-2.448-4.496h-.928V111h-2.688V99.672h4.32c.544 0 1.075.056 1.592.168.517.112.981.301 1.392.568.41.267.739.619.984 1.056.245.437.368.981.368 1.632 0 .768-.208 1.413-.624 1.936-.416.523-.992.896-1.728 1.12l2.96 4.848h-3.2zm-.112-7.856c0-.267-.056-.483-.168-.648a1.151 1.151 0 0 0-.432-.384 1.876 1.876 0 0 0-.592-.184 4.366 4.366 0 0 0-.632-.048h-1.456v2.64h1.296c.224 0 .453-.019.688-.056.235-.037.448-.104.64-.2.192-.096.35-.235.472-.416.123-.181.184-.416.184-.704zm9.698 2.96c0-.416-.13-.773-.392-1.072-.261-.299-.653-.448-1.176-.448-.256 0-.49.04-.704.12-.213.08-.4.19-.56.328-.16.139-.288.301-.384.488-.096.187-.15.381-.16.584h3.376zm2.416 1.008v.32c0 .107-.005.208-.016.304h-5.776c.021.224.088.427.2.608.112.181.256.339.432.472.176.133.373.237.592.312.219.075.445.112.68.112.416 0 .768-.077 1.056-.232.288-.155.523-.355.704-.6l1.824 1.152a3.69 3.69 0 0 1-1.48 1.256c-.613.293-1.325.44-2.136.44a5.097 5.097 0 0 1-1.696-.28c-.533-.187-1-.459-1.4-.816a3.779 3.779 0 0 1-.944-1.32c-.23-.523-.344-1.12-.344-1.792 0-.65.112-1.24.336-1.768.224-.528.528-.976.912-1.344a4.066 4.066 0 0 1 1.36-.856 4.65 4.65 0 0 1 1.696-.304c.587 0 1.125.099 1.616.296.49.197.912.483 1.264.856s.627.827.824 1.36c.197.533.296 1.141.296 1.824zm10.386-.128c0 .555-.085 1.088-.256 1.6-.17.512-.419.963-.744 1.352-.325.39-.723.701-1.192.936-.47.235-1.003.352-1.6.352-.49 0-.955-.099-1.392-.296-.437-.197-.779-.467-1.024-.808h-.032v4.72h-2.624v-11.808h2.496v.976h.048c.245-.32.584-.6 1.016-.84.432-.24.941-.36 1.528-.36.576 0 1.099.112 1.568.336.47.224.867.528 1.192.912.325.384.576.83.752 1.336.176.507.264 1.037.264 1.592zm-2.544 0c0-.256-.04-.507-.12-.752a1.953 1.953 0 0 0-.352-.648 1.78 1.78 0 0 0-.584-.456 1.802 1.802 0 0 0-.816-.176c-.299 0-.565.059-.8.176a1.909 1.909 0 0 0-.6.464c-.165.192-.293.41-.384.656a2.153 2.153 0 0 0 .384 2.16c.165.192.365.347.6.464.235.117.501.176.8.176.31 0 .581-.059.816-.176.235-.117.43-.272.584-.464.155-.192.272-.413.352-.664.08-.25.12-.504.12-.76zm12.53 0c0 .65-.117 1.24-.352 1.768a3.964 3.964 0 0 1-.96 1.344 4.395 4.395 0 0 1-1.408.856 4.779 4.779 0 0 1-1.712.304 4.799 4.799 0 0 1-1.704-.304 4.282 4.282 0 0 1-1.408-.856 4.018 4.018 0 0 1-.952-1.344 4.307 4.307 0 0 1-.352-1.768c0-.65.117-1.237.352-1.76.235-.523.552-.965.952-1.328.4-.363.87-.64 1.408-.832a5.037 5.037 0 0 1 1.704-.288c.608 0 1.179.096 1.712.288.533.192 1.003.47 1.408.832a3.9 3.9 0 0 1 .96 1.328c.235.523.352 1.11.352 1.76zm-2.528 0c0-.256-.043-.507-.128-.752a1.989 1.989 0 0 0-.368-.648 1.802 1.802 0 0 0-1.408-.632c-.31 0-.581.059-.816.176a1.78 1.78 0 0 0-.584.456 1.953 1.953 0 0 0-.352.648 2.411 2.411 0 0 0 0 1.504c.08.245.2.467.36.664.16.197.357.355.592.472.235.117.507.176.816.176.31 0 .581-.059.816-.176.235-.117.432-.275.592-.472.16-.197.28-.419.36-.664.08-.245.12-.496.12-.752zm9.25-1.808a2.044 2.044 0 0 0-.344-.064 3.46 3.46 0 0 0-.328-.016c-.352 0-.648.064-.888.192s-.432.283-.576.464a1.758 1.758 0 0 0-.312.592c-.064.213-.096.4-.096.56V111h-2.624v-7.968h2.528v1.152h.032c.203-.405.49-.736.864-.992a2.236 2.236 0 0 1 1.296-.384c.107 0 .21.005.312.016.101.01.184.027.248.048l-.112 2.304zm3.714-.176v3.04c0 .373.072.653.216.84.144.187.403.28.776.28.128 0 .264-.01.408-.032a1.4 1.4 0 0 0 .36-.096l.032 1.92c-.181.064-.41.12-.688.168a4.87 4.87 0 0 1-.832.072c-.533 0-.981-.067-1.344-.2a2.084 2.084 0 0 1-.872-.576 2.258 2.258 0 0 1-.472-.896 4.344 4.344 0 0 1-.144-1.16V105h-1.28v-1.968h1.264v-2.096h2.576v2.096h1.872V105h-1.872z"/></g><g><path fill="#FFF" d="M44 136h292a4 4 0 0 1 4 4v52a4 4 0 0 1-4 4H44a4 4 0 0 1-4-4v-52a4 4 0 0 1 4-4z"/><g transform="translate(51 89)"><rect width="38" height="38" y="58" fill="#C8F1DA" rx="4"/><rect width="20" height="20" x="9" y="67" stroke="#2F905D" stroke-width="2" rx="4"/><circle cx="7" cy="4" r="4" fill="#FFF" stroke="#225CFF" stroke-width="2"/></g><g stroke="#225CFF" stroke-width="2" transform="translate(298 152)"><rect width="26" height="26" x="1" y="1" rx="13"/><path stroke-linecap="round" stroke-linejoin="round" d="M14 8v12l4-4m-8 0l4 4"/></g><path fill="#2C3F58" fill-rule="nonzero" d="M101.65 158.09c0-.277.102-.516.306-.715.203-.2.448-.299.734-.299.277 0 .52.095.728.286.208.19.312.425.312.702a.965.965 0 0 1-.305.715c-.204.2-.449.299-.735.299-.139 0-.27-.026-.396-.078a1.13 1.13 0 0 1-.332-.208.967.967 0 0 1-.228-.312.915.915 0 0 1-.084-.39zm5.072-5.33v.871h.039a2.26 2.26 0 0 1 .305-.37c.126-.126.28-.239.462-.339a2.84 2.84 0 0 1 1.391-.344 2.924 2.924 0 0 1 2.184.949c.268.295.476.641.624 1.04.147.399.22.828.22 1.287 0 .46-.07.89-.214 1.293a3.172 3.172 0 0 1-.61 1.054 2.94 2.94 0 0 1-.963.715 2.968 2.968 0 0 1-1.28.266c-.442 0-.848-.091-1.216-.273a2.07 2.07 0 0 1-.851-.741h-.026v3.952h-1.56v-9.36h1.495zm3.64 3.094a2.43 2.43 0 0 0-.11-.722 2.017 2.017 0 0 0-.332-.643 1.665 1.665 0 0 0-.56-.462 1.698 1.698 0 0 0-.792-.175c-.286 0-.542.06-.767.182a1.965 1.965 0 0 0-.943 1.118 2.196 2.196 0 0 0 0 1.45c.082.238.204.452.364.643.16.19.353.344.579.462.225.117.48.175.767.175a1.648 1.648 0 0 0 1.352-.65c.147-.19.257-.407.331-.65.074-.243.11-.485.11-.728zm3.004-3.094h1.482v1.001h.026c.139-.312.38-.587.722-.825.342-.239.747-.358 1.215-.358.408 0 .756.071 1.047.214.29.144.528.332.715.566.186.234.323.503.41.806.086.303.13.615.13.936v3.9h-1.56v-3.458c0-.182-.014-.373-.04-.572-.026-.2-.082-.38-.169-.54a1.12 1.12 0 0 0-.357-.396c-.152-.104-.353-.156-.605-.156-.251 0-.468.05-.65.15a1.38 1.38 0 0 0-.448.383 1.698 1.698 0 0 0-.267.54c-.06.203-.09.409-.09.617V159h-1.56v-6.24zm13.82 0v5.681a5.23 5.23 0 0 1-.207 1.528c-.139.455-.353.84-.644 1.157-.29.316-.656.56-1.098.734-.442.173-.966.26-1.573.26a5.52 5.52 0 0 1-1.632-.26 5.005 5.005 0 0 1-.786-.325 3.792 3.792 0 0 1-.676-.442l.897-1.209a3.22 3.22 0 0 0 2.184.884c.373 0 .687-.054.942-.162a1.52 1.52 0 0 0 .611-.449c.152-.19.26-.416.325-.676.065-.26.098-.546.098-.858v-.455h-.026a2.193 2.193 0 0 1-.865.696 2.8 2.8 0 0 1-1.176.24c-.468 0-.893-.087-1.274-.26a2.888 2.888 0 0 1-.969-.702 3.215 3.215 0 0 1-.617-1.033 3.555 3.555 0 0 1-.221-1.255c0-.45.071-.875.214-1.274.143-.399.347-.745.611-1.04.265-.295.585-.529.962-.702a3 3 0 0 1 1.268-.26c.442 0 .854.091 1.235.273.381.182.685.464.91.845h.026v-.936h1.482zm-3.327 1.092c-.286 0-.54.052-.76.156a1.646 1.646 0 0 0-.56.422 1.899 1.899 0 0 0-.35.631 2.412 2.412 0 0 0-.124.78 2.177 2.177 0 0 0 .474 1.358c.152.187.338.336.56.449.22.113.47.169.747.169.286 0 .544-.054.773-.162.23-.109.425-.254.585-.436.16-.182.284-.392.37-.63a2.263 2.263 0 0 0 0-1.514 1.94 1.94 0 0 0-.37-.638 1.725 1.725 0 0 0-1.345-.585z" opacity=".7"/><path fill="#2C3F58" fill-rule="nonzero" d="M112.44 179l.064-8.016h-.048L109.512 179h-1.92l-2.864-8.016h-.048l.064 8.016h-2.576v-11.328h3.888l2.576 7.264h.064l2.464-7.264h3.952V179h-2.672zm7.602-10.512c0 .203-.04.392-.12.568-.08.176-.187.328-.32.456s-.293.23-.48.304a1.558 1.558 0 0 1-.584.112 1.47 1.47 0 0 1-1.072-.424 1.373 1.373 0 0 1-.432-1.016 1.4 1.4 0 0 1 .112-.552c.075-.176.181-.328.32-.456s.299-.232.48-.312a1.558 1.558 0 0 1 1.656.296c.133.128.24.28.32.456.08.176.12.365.12.568zM117.226 179v-7.968h2.624V179h-2.624zm9.282-5.616a2.923 2.923 0 0 0-.752-.512 2.076 2.076 0 0 0-.912-.208c-.245 0-.472.048-.68.144a.505.505 0 0 0-.312.496c0 .224.115.384.344.48.23.096.6.203 1.112.32.299.064.6.155.904.272.304.117.579.272.824.464s.443.427.592.704c.15.277.224.608.224.992 0 .501-.101.925-.304 1.272a2.492 2.492 0 0 1-.792.84c-.325.213-.69.368-1.096.464a5.26 5.26 0 0 1-1.216.144c-.65 0-1.288-.104-1.912-.312-.624-.208-1.144-.515-1.56-.92l1.472-1.552c.235.256.523.47.864.64a2.4 2.4 0 0 0 1.088.256c.213 0 .424-.05.632-.152.208-.101.312-.28.312-.536 0-.245-.128-.427-.384-.544-.256-.117-.656-.24-1.2-.368a6.2 6.2 0 0 1-.832-.256 2.641 2.641 0 0 1-.744-.432 2.149 2.149 0 0 1-.536-.672c-.139-.267-.208-.587-.208-.96 0-.48.101-.888.304-1.224.203-.336.464-.61.784-.824.32-.213.675-.37 1.064-.472a4.59 4.59 0 0 1 1.16-.152 5.6 5.6 0 0 1 1.752.28c.57.187 1.053.467 1.448.84l-1.44 1.488zm7.442 0a2.923 2.923 0 0 0-.752-.512 2.076 2.076 0 0 0-.912-.208c-.245 0-.472.048-.68.144a.505.505 0 0 0-.312.496c0 .224.115.384.344.48.23.096.6.203 1.112.32.299.064.6.155.904.272.304.117.579.272.824.464s.443.427.592.704c.15.277.224.608.224.992 0 .501-.101.925-.304 1.272a2.492 2.492 0 0 1-.792.84c-.325.213-.69.368-1.096.464a5.26 5.26 0 0 1-1.216.144c-.65 0-1.288-.104-1.912-.312-.624-.208-1.144-.515-1.56-.92l1.472-1.552c.235.256.523.47.864.64a2.4 2.4 0 0 0 1.088.256c.213 0 .424-.05.632-.152.208-.101.312-.28.312-.536 0-.245-.128-.427-.384-.544-.256-.117-.656-.24-1.2-.368a6.2 6.2 0 0 1-.832-.256 2.641 2.641 0 0 1-.744-.432 2.149 2.149 0 0 1-.536-.672c-.139-.267-.208-.587-.208-.96 0-.48.101-.888.304-1.224.203-.336.464-.61.784-.824.32-.213.675-.37 1.064-.472a4.59 4.59 0 0 1 1.16-.152 5.6 5.6 0 0 1 1.752.28c.57.187 1.053.467 1.448.84l-1.44 1.488zm5.602-4.896c0 .203-.04.392-.12.568-.08.176-.187.328-.32.456s-.293.23-.48.304a1.558 1.558 0 0 1-.584.112 1.47 1.47 0 0 1-1.072-.424 1.373 1.373 0 0 1-.432-1.016 1.4 1.4 0 0 1 .112-.552c.075-.176.181-.328.32-.456s.299-.232.48-.312a1.558 1.558 0 0 1 1.656.296c.133.128.24.28.32.456.08.176.12.365.12.568zM136.736 179v-7.968h2.624V179h-2.624zm13.042-4.016c0 .65-.117 1.24-.352 1.768a3.964 3.964 0 0 1-.96 1.344 4.395 4.395 0 0 1-1.408.856 4.779 4.779 0 0 1-1.712.304 4.799 4.799 0 0 1-1.704-.304 4.282 4.282 0 0 1-1.408-.856 4.018 4.018 0 0 1-.952-1.344 4.307 4.307 0 0 1-.352-1.768c0-.65.117-1.237.352-1.76.235-.523.552-.965.952-1.328.4-.363.87-.64 1.408-.832a5.037 5.037 0 0 1 1.704-.288c.608 0 1.179.096 1.712.288.533.192 1.003.47 1.408.832a3.9 3.9 0 0 1 .96 1.328c.235.523.352 1.11.352 1.76zm-2.528 0c0-.256-.043-.507-.128-.752a1.989 1.989 0 0 0-.368-.648 1.802 1.802 0 0 0-1.408-.632c-.31 0-.581.059-.816.176a1.78 1.78 0 0 0-.584.456 1.953 1.953 0 0 0-.352.648 2.411 2.411 0 0 0 0 1.504c.08.245.2.467.36.664.16.197.357.355.592.472.235.117.507.176.816.176.31 0 .581-.059.816-.176.235-.117.432-.275.592-.472.16-.197.28-.419.36-.664.08-.245.12-.496.12-.752zm9.314 4.016v-4.352c0-.224-.019-.437-.056-.64a1.764 1.764 0 0 0-.184-.536.954.954 0 0 0-.36-.368 1.14 1.14 0 0 0-.584-.136c-.235 0-.44.045-.616.136-.176.09-.323.216-.44.376-.117.16-.205.344-.264.552a2.376 2.376 0 0 0-.088.648V179h-2.64v-7.968h2.544v1.104h.032a2.63 2.63 0 0 1 .376-.504c.155-.165.336-.307.544-.424.208-.117.435-.213.68-.288.245-.075.507-.112.784-.112.533 0 .987.096 1.36.288.373.192.675.44.904.744.23.304.395.653.496 1.048.101.395.152.79.152 1.184V179h-2.64zm15.188 0l-2.48-4-2.384 4h-3.264l3.968-5.984-3.648-5.344h3.296l2.112 3.52 2.08-3.52h3.184l-3.584 5.344 4.096 5.984h-3.376zm14.068 0l-2.448-4.496h-.928V179h-2.688v-11.328h4.32c.544 0 1.075.056 1.592.168.517.112.981.301 1.392.568.41.267.739.619.984 1.056.245.437.368.981.368 1.632 0 .768-.208 1.413-.624 1.936-.416.523-.992.896-1.728 1.12l2.96 4.848h-3.2zm-.112-7.856c0-.267-.056-.483-.168-.648a1.151 1.151 0 0 0-.432-.384 1.876 1.876 0 0 0-.592-.184 4.366 4.366 0 0 0-.632-.048h-1.456v2.64h1.296c.224 0 .453-.019.688-.056.235-.037.448-.104.64-.2.192-.096.35-.235.472-.416.123-.181.184-.416.184-.704zm9.698 2.96c0-.416-.13-.773-.392-1.072-.261-.299-.653-.448-1.176-.448-.256 0-.49.04-.704.12-.213.08-.4.19-.56.328-.16.139-.288.301-.384.488-.096.187-.15.381-.16.584h3.376zm2.416 1.008v.32c0 .107-.005.208-.016.304h-5.776c.021.224.088.427.2.608.112.181.256.339.432.472.176.133.373.237.592.312.219.075.445.112.68.112.416 0 .768-.077 1.056-.232.288-.155.523-.355.704-.6l1.824 1.152a3.69 3.69 0 0 1-1.48 1.256c-.613.293-1.325.44-2.136.44a5.097 5.097 0 0 1-1.696-.28c-.533-.187-1-.459-1.4-.816a3.779 3.779 0 0 1-.944-1.32c-.23-.523-.344-1.12-.344-1.792 0-.65.112-1.24.336-1.768.224-.528.528-.976.912-1.344a4.066 4.066 0 0 1 1.36-.856 4.65 4.65 0 0 1 1.696-.304c.587 0 1.125.099 1.616.296.49.197.912.483 1.264.856s.627.827.824 1.36c.197.533.296 1.141.296 1.824zm6.21-1.728a2.923 2.923 0 0 0-.752-.512 2.076 2.076 0 0 0-.912-.208c-.245 0-.472.048-.68.144a.505.505 0 0 0-.312.496c0 .224.115.384.344.48.23.096.6.203 1.112.32.299.064.6.155.904.272.304.117.579.272.824.464s.443.427.592.704c.15.277.224.608.224.992 0 .501-.101.925-.304 1.272a2.492 2.492 0 0 1-.792.84c-.325.213-.69.368-1.096.464a5.26 5.26 0 0 1-1.216.144c-.65 0-1.288-.104-1.912-.312-.624-.208-1.144-.515-1.56-.92l1.472-1.552c.235.256.523.47.864.64a2.4 2.4 0 0 0 1.088.256c.213 0 .424-.05.632-.152.208-.101.312-.28.312-.536 0-.245-.128-.427-.384-.544-.256-.117-.656-.24-1.2-.368a6.2 6.2 0 0 1-.832-.256 2.641 2.641 0 0 1-.744-.432 2.149 2.149 0 0 1-.536-.672c-.139-.267-.208-.587-.208-.96 0-.48.101-.888.304-1.224.203-.336.464-.61.784-.824.32-.213.675-.37 1.064-.472a4.59 4.59 0 0 1 1.16-.152 5.6 5.6 0 0 1 1.752.28c.57.187 1.053.467 1.448.84l-1.44 1.488zm8.002 5.616v-1.104h-.032a2.255 2.255 0 0 1-.376.512 2.37 2.37 0 0 1-.544.416 3.33 3.33 0 0 1-.688.288 2.76 2.76 0 0 1-.792.112c-.533 0-.984-.096-1.352-.288a2.619 2.619 0 0 1-.896-.744 2.934 2.934 0 0 1-.496-1.04 4.713 4.713 0 0 1-.152-1.192v-4.928h2.64v4.32c0 .224.016.437.048.64a1.6 1.6 0 0 0 .184.544c.09.16.21.285.36.376.15.09.347.136.592.136.459 0 .808-.17 1.048-.512.24-.341.36-.741.36-1.2v-4.304h2.624V179h-2.528zm4.498 0v-12.096h2.656V179h-2.656zm7.474-6v3.04c0 .373.072.653.216.84.144.187.403.28.776.28.128 0 .264-.01.408-.032a1.4 1.4 0 0 0 .36-.096l.032 1.92c-.181.064-.41.12-.688.168a4.87 4.87 0 0 1-.832.072c-.533 0-.981-.067-1.344-.2a2.084 2.084 0 0 1-.872-.576 2.258 2.258 0 0 1-.472-.896 4.344 4.344 0 0 1-.144-1.16V173h-1.28v-1.968h1.264v-2.096h2.576v2.096h1.872V173h-1.872zm7.682.384a2.923 2.923 0 0 0-.752-.512 2.076 2.076 0 0 0-.912-.208c-.245 0-.472.048-.68.144a.505.505 0 0 0-.312.496c0 .224.115.384.344.48.23.096.6.203 1.112.32.299.064.6.155.904.272.304.117.579.272.824.464s.443.427.592.704c.15.277.224.608.224.992 0 .501-.101.925-.304 1.272a2.492 2.492 0 0 1-.792.84c-.325.213-.69.368-1.096.464a5.26 5.26 0 0 1-1.216.144c-.65 0-1.288-.104-1.912-.312-.624-.208-1.144-.515-1.56-.92l1.472-1.552c.235.256.523.47.864.64a2.4 2.4 0 0 0 1.088.256c.213 0 .424-.05.632-.152.208-.101.312-.28.312-.536 0-.245-.128-.427-.384-.544-.256-.117-.656-.24-1.2-.368a6.2 6.2 0 0 1-.832-.256 2.641 2.641 0 0 1-.744-.432 2.149 2.149 0 0 1-.536-.672c-.139-.267-.208-.587-.208-.96 0-.48.101-.888.304-1.224.203-.336.464-.61.784-.824.32-.213.675-.37 1.064-.472a4.59 4.59 0 0 1 1.16-.152 5.6 5.6 0 0 1 1.752.28c.57.187 1.053.467 1.448.84l-1.44 1.488z"/></g><circle cx="39.5" cy="232.5" r="8.5" stroke="#225CFF" stroke-width="1.875"/><path stroke="#225CFF" stroke-linecap="round" stroke-width="1.875" d="M36 233h8"/><path fill="#225CFF" d="M50.92 240.64l-8.484-8.563a.252.252 0 0 0-.279-.057.259.259 0 0 0-.157.24v12.211c0 .105.063.199.158.238.096.04.205.018.278-.057l2.68-2.742 1.96 4.77a.514.514 0 0 0 .277.281.503.503 0 0 0 .392-.001l.953-.404a.52.52 0 0 0 .276-.675l-1.966-4.794h3.73a.255.255 0 0 0 .243-.16.261.261 0 0 0-.062-.287z"/><path fill="#DCE9F9" fill-opacity=".15" stroke="#FFAE00" stroke-width="1.875" d="M22.548 22.946c1.217-1.242 2.28-2.327 4.02-2.775 2.3-.59 3.007.645 5.742 0 1.873-.44 2.41-1.222 4.236-1.168.281.01 1.403.062 2.656.657 2.743 1.305 3.754 4.09 4.02 4.819.3.826 1.63 4.487-.072 6.645-1.032 1.307-2.14.745-5.025 2.7-1.1.747-1.848 1.444-2.728 2.265-2.67 2.489-2.538 3.215-3.732 4.015-2.694 1.804-7.228.689-10.05-1.606-.617-.503-2.998-2.439-3.516-5.695-.73-4.572 2.782-8.155 4.45-9.857z"/><path fill="#FFF" stroke="#FFAE00" stroke-width="1.875" d="M23.08 27.215c.622-.783 1.167-1.47 2.15-1.843 1.3-.494 1.8.15 3.351-.403 1.06-.38 1.32-.857 2.388-.954a4.13 4.13 0 0 1 1.596.183c1.693.541 2.478 2.035 2.685 2.429.232.443 1.267 2.409.426 3.741-.51.81-1.196.57-2.743 1.873-.588.497-.976.941-1.432 1.466-1.382 1.588-1.254 1.988-1.894 2.521-1.445 1.203-4.17.894-5.976-.198-.396-.24-1.921-1.162-2.453-2.957-.748-2.521 1.049-4.784 1.903-5.858z"/><path stroke="#FFAE00" stroke-width="1.875" d="M24.17 32.374c-.573-.852.474-2.332.617-2.528.199-.276 1.611-2.22 3.41-1.782.813.198 1.678.881 1.79 1.724.233 1.735-2.899 2.88-3.201 2.988-.89.315-1.448.243-1.822.115-.204-.07-.578-.198-.794-.517z"/><circle cx="67.5" cy="163.5" r="2.5" fill="#FFF" stroke="#2F905D" stroke-width="2"/><path stroke="#2F905D" stroke-linejoin="round" stroke-width="2" d="M65 176l9.367-9.367a1 1 0 0 1 1.332-.074L80 170h0"/></g></svg>