<?xml version="1.0" encoding="UTF-8"?>
<svg width="57px" height="24px" viewBox="0 0 57 24" version="1.1" xmlns="http://www.w3.org/2000/svg" xmlns:xlink="http://www.w3.org/1999/xlink">
    <!-- Generator: Sketch 57.1 (83088) - https://sketch.com -->
    <title>logo_ibm copy</title>
    <desc>Created with Sketch.</desc>
    <g id="Page-1" stroke="none" stroke-width="1" fill="none" fill-rule="evenodd">
        <g id="logo_ibm-copy" transform="translate(0.567958, 0.593859)" fill="#223958" fill-rule="nonzero">
            <path d="M0.0815943333,0.23458875 L0.0815943333,1.75870475 L10.9224381,1.75870475 L10.9224381,0.23458875 L0.0815943333,0.23458875 Z M12.4593498,0.23458875 L12.4593498,1.75870475 L27.9095071,1.75870475 C27.9095071,1.75870475 26.3313646,0.23458875 24.2413921,0.23458875 L12.4593498,0.23458875 Z M30.9399672,0.23458875 L30.9399672,1.75870475 L40.2858408,1.75870475 L39.7313583,0.23458875 L30.9399672,0.23458875 Z M46.9879703,0.23458875 L46.4334878,1.75870475 L55.6961891,1.75870475 L55.6961891,0.23458875 L46.9879703,0.23458875 Z M0.0815943333,3.1989375 L0.0815943333,4.7230535 L10.9224381,4.7230535 L10.9224381,3.1989375 L0.0815943333,3.1989375 Z M12.4593498,3.20107012 L12.4593498,4.72234262 L29.7009121,4.72234262 C29.7009121,4.72234262 29.4997345,3.54939887 29.1485622,3.20107012 L12.4593498,3.20107012 Z M30.9399672,3.20107012 L30.9399672,4.72234262 L41.3187422,4.72234262 L40.8054905,3.20107012 L30.9399672,3.20107012 Z M45.8782945,3.20107012 L45.3650427,4.72234262 L55.6954782,4.72234262 L55.6954782,3.20107012 L45.8782945,3.20107012 Z M3.19735946,6.16328625 L3.19735946,7.68953487 L7.89268883,7.68953487 L7.89268883,6.16328625 L3.19735946,6.16328625 Z M15.575115,6.16328625 L15.575115,7.68953487 L20.2704443,7.68953487 L20.2704443,6.16328625 L15.575115,6.16328625 Z M24.8378162,6.16328625 L24.8378162,7.68953487 L29.5331456,7.68953487 C29.5331456,7.68953487 29.8317131,6.88340262 29.8317131,6.16328625 L24.8378162,6.16328625 Z M34.0564432,6.16328625 L34.0564432,7.68953487 L42.3736807,7.68953487 L41.8191982,6.16328625 L34.0564432,6.16328625 Z M44.8567671,6.16328625 L44.2994411,7.68953487 L52.6650181,7.68953487 L52.6650181,6.16328625 L44.8567671,6.16328625 Z M3.19807033,9.12976762 L3.19807033,10.6538836 L7.89339971,10.6538836 L7.89339971,9.12976762 L3.19807033,9.12976762 Z M15.5758258,9.12976762 L15.5758258,10.6538836 L27.5682871,10.6538836 C27.5682871,10.6538836 28.5706208,9.87192112 28.8905146,9.12976762 L15.5758258,9.12976762 Z M34.0564432,9.12976762 L34.0564432,10.6538836 L38.7517726,10.6538836 L38.7517726,9.80509887 L39.0503401,10.6538836 L47.6519276,10.6538836 L47.9718213,9.80509887 L47.9718213,10.6538836 L52.6671507,10.6538836 L52.6671507,9.12976762 L43.8523007,9.12976762 L43.384545,10.4207166 L42.9153675,9.12976762 L34.0564432,9.12976762 Z M3.19735946,12.0941164 L3.19735946,13.6182324 L7.89268883,13.6182324 L7.89268883,12.0941164 L3.19735946,12.0941164 Z M15.575115,12.0941164 L15.575115,13.6182324 L28.8898037,13.6182324 C28.56991,12.8789224 27.5675762,12.0941164 27.5675762,12.0941164 L15.575115,12.0941164 Z M34.0557323,12.0941164 L34.0557323,13.6182324 L38.7510617,13.6182324 L38.7510617,12.0941164 L34.0557323,12.0941164 Z M39.6041117,12.0941164 L40.1728117,13.6182324 L46.6218697,13.6182324 L47.1621347,12.0941164 L39.6041117,12.0941164 Z M47.9696887,12.0941164 L47.9696887,13.6182324 L52.6650181,13.6182324 L52.6650181,12.0941164 L47.9696887,12.0941164 Z M3.19878121,15.0584651 L3.19878121,16.5825811 L7.89411058,16.5825811 L7.89411058,15.0584651 L3.19878121,15.0584651 Z M15.5765367,15.0584651 L15.5765367,16.5825811 L20.2718661,16.5825811 L20.2718661,15.0584651 L15.5765367,15.0584651 Z M24.839238,15.0584651 L24.839238,16.5825811 L29.832424,16.5825811 C29.832424,15.8631756 29.5338565,15.0584651 29.5338565,15.0584651 L24.839238,15.0584651 Z M34.057865,15.0584651 L34.057865,16.5825811 L38.7531943,16.5825811 L38.7531943,15.0584651 L34.057865,15.0584651 Z M40.671846,15.0584651 L41.2220632,16.5825811 L45.5441832,16.5825811 L46.0986657,15.0584651 L40.671846,15.0584651 Z M47.9711105,15.0584651 L47.9711105,16.5825811 L52.6664398,16.5825811 L52.6664398,15.0584651 L47.9711105,15.0584651 Z M0.168321083,18.0228139 L0.168321083,19.5490625 L11.0091648,19.5490625 L11.0091648,18.0228139 L0.168321083,18.0228139 Z M12.4614825,18.0228139 L12.4614825,19.5490625 L29.1514057,19.5490625 C29.502578,19.199312 29.7037556,18.0228139 29.7037556,18.0228139 L12.4614825,18.0228139 Z M31.026694,18.0228139 L31.026694,19.5490625 L38.7503508,19.5490625 L38.7503508,18.0228139 L31.026694,18.0228139 Z M41.7395802,18.0228139 L42.3054367,19.5490625 L44.504884,19.5490625 L45.0359076,18.0228139 L41.7395802,18.0228139 Z M47.9711105,18.0228139 L47.9711105,19.5490625 L55.782205,19.5490625 L55.782205,18.0228139 L47.9711105,18.0228139 Z M0.168321083,20.9892952 L0.168321083,22.5134112 L11.0091648,22.5134112 L11.0091648,20.9892952 L0.168321083,20.9892952 Z M12.4614825,20.9892952 L12.4614825,22.5105677 L24.2413921,22.5105677 C26.3313646,22.5105677 27.9095071,20.9892952 27.9095071,20.9892952 L12.4614825,20.9892952 Z M31.026694,20.9892952 L31.026694,22.5134112 L38.7503508,22.5134112 L38.7503508,20.9892952 L31.026694,20.9892952 Z M42.8130015,20.9892952 L43.3568208,22.509146 L43.4506563,22.5112786 L44.0030062,20.9900061 L42.8130015,20.9892952 Z M47.9718213,20.9892952 L47.9718213,22.5134112 L55.7829158,22.5134112 L55.7829158,20.9892952 L47.9718213,20.9892952 Z" id="Shape"></path>
        </g>
    </g>
</svg>