<svg xmlns="http://www.w3.org/2000/svg" width="338" height="226" viewBox="0 0 338 226"><title>illu-Instant Reporting</title><defs><radialGradient id="a" cx="50%" cy="50%" r="50%" fx="50%" fy="50%"><stop offset="0%" stop-color="#FF6461"/><stop offset="43.225%" stop-color="#FF6461"/><stop offset="56.424%" stop-color="#FFCB46"/><stop offset="65.847%" stop-color="#49CE94"/><stop offset="80.875%" stop-color="#002CFF" stop-opacity=".2"/><stop offset="100%" stop-color="#0058AA" stop-opacity="0"/></radialGradient><radialGradient id="b" cx="50%" cy="50%" r="50%" fx="50%" fy="50%" gradientTransform="matrix(0 1 -.97436 0 .987 0)"><stop offset="0%" stop-color="#FF6461"/><stop offset="43.225%" stop-color="#FF6461"/><stop offset="56.424%" stop-color="#FFCB46"/><stop offset="65.847%" stop-color="#49CE94"/><stop offset="80.875%" stop-color="#002CFF" stop-opacity=".2"/><stop offset="100%" stop-color="#0058AA" stop-opacity="0"/></radialGradient><radialGradient id="c" cx="50%" cy="50%" r="50%" fx="50%" fy="50%" gradientTransform="matrix(0 1 -.98591 0 .993 0)"><stop offset="0%" stop-color="#FF4A5A"/><stop offset="43.225%" stop-color="#FF6461"/><stop offset="56.424%" stop-color="#FFCB46"/><stop offset="65.847%" stop-color="#49CE94"/><stop offset="80.875%" stop-color="#002CFF" stop-opacity=".2"/><stop offset="100%" stop-color="#0058AA" stop-opacity="0"/></radialGradient></defs><g fill="none" fill-rule="evenodd"><path fill="#FFF" d="M4 0h142a4 4 0 0 1 4 4v218a4 4 0 0 1-4 4H4a4 4 0 0 1-4-4V4a4 4 0 0 1 4-4z"/><g fill="#2C3F58" opacity=".15" transform="translate(14 19)"><path d="M2 0h78a2 2 0 0 1 2 2v2a2 2 0 0 1-2 2H2a2 2 0 0 1-2-2V2a2 2 0 0 1 2-2z"/><rect width="56" height="4" y="12" rx="2"/><path d="M2 170h32a2 2 0 0 1 2 2v2a2 2 0 0 1-2 2H2a2 2 0 0 1-2-2v-2a2 2 0 0 1 2-2z"/><rect width="25" height="4" y="182" rx="2"/><path d="M68 170h32a2 2 0 0 1 2 2v2a2 2 0 0 1-2 2H68a2 2 0 0 1-2-2v-2a2 2 0 0 1 2-2z"/><rect width="25" height="4" x="66" y="182" rx="2"/></g><circle cx="126" cy="27" r="10" fill="#D5D9DE" opacity=".9"/><rect width="56" height="56" x="14" y="55" fill="#D5D9DE" opacity=".8" rx="4"/><rect width="56" height="56" x="80" y="55" fill="#D5D9DE" opacity=".8" rx="4"/><rect width="56" height="56" x="14" y="121" fill="#D5D9DE" opacity=".8" rx="4"/><rect width="56" height="56" x="80" y="121" fill="#D5D9DE" opacity=".5" rx="4"/><g><path fill="#FFF" d="M162 42h172a4 4 0 0 1 4 4v176a4 4 0 0 1-4 4H162a4 4 0 0 1-4-4V46a4 4 0 0 1 4-4z"/><path fill="#DDE1E5" d="M325 56H171a3 3 0 0 0-3 3v77a3 3 0 0 0 3 3h154a3 3 0 0 0 3-3V59a3 3 0 0 0-3-3z" opacity=".4"/><path fill="#1B55FF" d="M328 99l-40-9-40-7-40-13-40-6v-5a3 3 0 0 1 3-3h154a3 3 0 0 1 3 3v40z" opacity=".2"/><g stroke="#FFF" stroke-width="2" transform="matrix(-1 0 0 1 332 60)"><path d="M4 39l40-9 40-7 40-13 40-6"/><circle cx="4" cy="39" r="4" fill="#878AFF"/><circle cx="164" cy="4" r="4" fill="#878AFF"/><circle cx="124" cy="10" r="4" fill="#878AFF"/><circle cx="84" cy="23" r="4" fill="#878AFF"/><circle cx="44" cy="30" r="4" fill="#878AFF"/></g><path fill="#2C3F58" fill-rule="nonzero" d="M190.936 161.504h3.312c.32 0 .636.038.948.114.312.076.59.2.834.372s.442.394.594.666c.152.272.228.6.228.984 0 .48-.136.876-.408 1.188a2.269 2.269 0 0 1-1.068.672v.024c.536.072.976.28 1.32.624.344.344.516.804.516 1.38 0 .464-.092.854-.276 1.17a2.21 2.21 0 0 1-.726.762c-.3.192-.644.33-1.032.414a5.57 5.57 0 0 1-1.182.126h-3.06v-8.496zm1.512 3.456h1.344c.504 0 .888-.1 1.152-.3.264-.2.396-.484.396-.852 0-.384-.136-.656-.408-.816-.272-.16-.696-.24-1.272-.24h-1.212v2.208zm0 3.768h1.356c.192 0 .4-.014.624-.042.224-.028.43-.086.618-.174s.344-.216.468-.384c.124-.168.186-.392.186-.672 0-.448-.152-.76-.456-.936-.304-.176-.764-.264-1.38-.264h-1.416v2.472zm5.761-1.632c0-.456.082-.87.246-1.242.165-.372.386-.69.666-.954s.612-.468.996-.612a3.457 3.457 0 0 1 1.225-.216c.432 0 .84.072 1.223.216.385.144.716.348.996.612s.502.582.666.954c.165.372.246.786.246 1.242 0 .456-.081.872-.246 1.248a2.955 2.955 0 0 1-.666.966c-.28.268-.611.478-.996.63a3.295 3.295 0 0 1-1.224.228c-.432 0-.84-.076-1.224-.228a3.042 3.042 0 0 1-.995-.63 2.955 2.955 0 0 1-.667-.966 3.089 3.089 0 0 1-.246-1.248zm1.464 0c0 .224.034.448.102.672.069.224.17.424.306.6.137.176.308.32.517.432.208.112.455.168.743.168.289 0 .536-.056.744-.168.209-.112.38-.256.516-.432a1.85 1.85 0 0 0 .306-.6 2.244 2.244 0 0 0 0-1.338 1.861 1.861 0 0 0-.306-.594 1.537 1.537 0 0 0-.516-.426 1.595 1.595 0 0 0-.744-.162c-.288 0-.535.054-.744.162-.208.108-.38.25-.516.426a1.861 1.861 0 0 0-.305.594c-.069.22-.102.442-.102.666zM211.04 170h-1.368v-.924h-.024c-.128.288-.35.542-.666.762-.316.22-.69.33-1.122.33-.376 0-.698-.066-.966-.198a1.904 1.904 0 0 1-.66-.522 2.112 2.112 0 0 1-.378-.744 3.13 3.13 0 0 1-.12-.864v-3.6h1.44v3.192c0 .168.012.344.036.528.024.184.076.35.156.498.08.148.19.27.33.366.14.096.326.144.558.144a1.24 1.24 0 0 0 1.014-.492c.108-.144.19-.31.246-.498.056-.188.084-.378.084-.57v-3.168h1.44V170zm1.645-5.76h1.368v.924h.024c.129-.288.35-.542.666-.762.317-.22.69-.33 1.122-.33.377 0 .698.066.966.198.269.132.488.306.66.522.173.216.298.464.378.744.08.28.12.568.12.864v3.6h-1.44v-3.192c0-.168-.011-.344-.036-.528a1.425 1.425 0 0 0-.156-.498c-.08-.148-.19-.27-.33-.366-.14-.096-.325-.144-.558-.144-.232 0-.431.046-.6.138-.168.092-.305.21-.413.354-.109.144-.19.31-.246.498a1.987 1.987 0 0 0-.084.57V170h-1.44v-5.76zm10.838 1.596a1.27 1.27 0 0 0-.504-.402 1.56 1.56 0 0 0-1.38 0c-.2.108-.366.25-.498.426s-.23.374-.294.594c-.064.22-.096.442-.096.666 0 .224.034.446.102.666.068.22.17.418.306.594.136.176.306.318.51.426.204.108.442.162.714.162.224 0 .448-.044.672-.132a1.28 1.28 0 0 0 .54-.384l.9.912c-.24.256-.546.454-.918.594-.372.14-.774.21-1.206.21-.424 0-.826-.068-1.206-.204a2.86 2.86 0 0 1-.996-.6 2.846 2.846 0 0 1-.672-.96 3.183 3.183 0 0 1-.246-1.284c0-.464.082-.884.246-1.26a2.888 2.888 0 0 1 1.644-1.572c.372-.144.77-.216 1.194-.216.424 0 .834.08 1.23.24.396.16.71.38.942.66l-.984.864zm5.893.708c0-.184-.025-.36-.078-.528a1.208 1.208 0 0 0-.246-.444 1.201 1.201 0 0 0-.426-.306 1.49 1.49 0 0 0-.606-.114c-.432 0-.797.13-1.098.39-.3.26-.465.594-.498 1.002h2.952zm1.44.648v.192c0 .064-.003.128-.011.192h-4.38a1.426 1.426 0 0 0 .528 1.014c.152.124.323.222.516.294.192.072.391.108.6.108.36 0 .663-.066.912-.198.248-.132.451-.314.611-.546l.96.768c-.568.768-1.391 1.152-2.472 1.152-.448 0-.86-.07-1.235-.21a2.917 2.917 0 0 1-.978-.594 2.677 2.677 0 0 1-.648-.942 3.247 3.247 0 0 1-.235-1.266c0-.464.078-.886.235-1.266.156-.38.37-.704.641-.972.273-.268.594-.476.966-.624a3.233 3.233 0 0 1 1.206-.222c.4 0 .77.066 1.11.198.34.132.634.328.883.588.248.26.441.584.582.972.14.388.21.842.21 1.362zm4.3-5.688h2.951c.4 0 .788.042 1.164.126.377.084.71.222 1.002.414.293.192.526.444.703.756.176.312.263.692.263 1.14 0 .616-.173 1.118-.522 1.506-.348.388-.821.65-1.422.786l2.268 3.768h-1.824l-1.968-3.6h-1.104v3.6h-1.512v-8.496zm2.747 3.66c.217 0 .432-.016.648-.048a1.87 1.87 0 0 0 .582-.18c.173-.088.314-.214.426-.378.113-.164.168-.374.168-.63 0-.232-.051-.422-.156-.57a1.161 1.161 0 0 0-.396-.354 1.656 1.656 0 0 0-.546-.18 3.832 3.832 0 0 0-.594-.048h-1.368v2.388h1.236zm8.078 4.104h-.036c-.144.256-.376.466-.696.63a2.36 2.36 0 0 1-1.092.246c-.232 0-.474-.03-.726-.09a2.16 2.16 0 0 1-.696-.3 1.744 1.744 0 0 1-.528-.552c-.14-.228-.21-.51-.21-.846 0-.432.122-.776.366-1.032s.558-.452.942-.588a5.31 5.31 0 0 1 1.278-.27c.468-.044.926-.066 1.374-.066v-.144c0-.36-.13-.626-.39-.798a1.647 1.647 0 0 0-.93-.258c-.304 0-.596.064-.876.192s-.512.284-.696.468l-.744-.876a3.25 3.25 0 0 1 1.134-.684 3.865 3.865 0 0 1 1.302-.228c.512 0 .934.072 1.266.216.332.144.594.332.786.564.192.232.326.492.402.78.076.288.114.576.114.864V170h-1.344v-.732zm-.024-1.896h-.324c-.232 0-.476.01-.732.03-.256.02-.492.064-.708.132a1.511 1.511 0 0 0-.54.288.638.638 0 0 0-.216.51.613.613 0 0 0 .324.564c.096.056.204.096.324.12.12.024.24.036.36.036.496 0 .872-.132 1.128-.396.256-.264.384-.624.384-1.08v-.204zm2.017-1.98v-1.152h1.008v-1.668h1.416v1.668h1.44v1.152h-1.44v2.676c0 .256.046.468.138.636.093.168.298.252.618.252.097 0 .2-.01.312-.03.113-.02.212-.05.3-.09l.048 1.128c-.128.048-.28.086-.456.114a3.211 3.211 0 0 1-.504.042c-.384 0-.695-.054-.936-.162a1.419 1.419 0 0 1-.57-.444 1.644 1.644 0 0 1-.288-.648 3.768 3.768 0 0 1-.078-.786v-2.688h-1.008zm8.882 1.152c0-.184-.026-.36-.078-.528a1.208 1.208 0 0 0-.246-.444 1.201 1.201 0 0 0-.426-.306 1.49 1.49 0 0 0-.606-.114c-.432 0-.798.13-1.098.39-.3.26-.466.594-.498 1.002h2.952zm1.44.648v.192c0 .064-.004.128-.012.192h-4.38a1.426 1.426 0 0 0 .528 1.014c.152.124.324.222.516.294.192.072.392.108.6.108.36 0 .664-.066.912-.198s.452-.314.612-.546l.96.768c-.568.768-1.392 1.152-2.472 1.152-.448 0-.86-.07-1.236-.21a2.917 2.917 0 0 1-.978-.594 2.677 2.677 0 0 1-.648-.942 3.247 3.247 0 0 1-.234-1.266c0-.464.078-.886.234-1.266.156-.38.37-.704.642-.972s.594-.476.966-.624a3.233 3.233 0 0 1 1.206-.222c.4 0 .77.066 1.11.198.34.132.634.328.882.588.248.26.442.584.582.972.14.388.21.842.21 1.362z" opacity=".7"/><path fill="#2C3F58" fill-rule="nonzero" d="M296.904 166.256c0 .693-.123 1.293-.368 1.8a3.599 3.599 0 0 1-.984 1.256c-.41.33-.877.579-1.4.744a5.326 5.326 0 0 1-1.616.248c-.512 0-1-.067-1.464-.2a4.692 4.692 0 0 1-1.264-.568 3.844 3.844 0 0 1-.976-.904 3.613 3.613 0 0 1-.6-1.208l2.448-.752c.117.395.339.72.664.976a1.82 1.82 0 0 0 1.16.384c.459 0 .856-.139 1.192-.416.336-.277.504-.688.504-1.232 0-.33-.07-.608-.208-.832a1.61 1.61 0 0 0-.536-.536 2.221 2.221 0 0 0-.744-.28 4.396 4.396 0 0 0-.832-.08c-.405 0-.867.045-1.384.136a8.02 8.02 0 0 0-1.384.36l.272-6.48h6.944v2.304h-4.56l-.096 1.792c.17-.043.36-.072.568-.088a7.46 7.46 0 0 1 .568-.024c.565 0 1.099.075 1.6.224.501.15.936.376 1.304.68.368.304.659.68.872 1.128.213.448.32.97.32 1.568zm4.13 2.336c0 .448-.157.821-.472 1.12-.315.299-.69.448-1.128.448a1.689 1.689 0 0 1-1.152-.448 1.464 1.464 0 0 1-.48-1.104c0-.213.043-.416.128-.608a1.59 1.59 0 0 1 .352-.504c.15-.144.323-.259.52-.344.197-.085.408-.128.632-.128.437 0 .813.15 1.128.448.315.299.472.672.472 1.12zm.962 1.408v-2.24l4.416-4c.277-.267.501-.539.672-.816.17-.277.256-.587.256-.928 0-.405-.128-.733-.384-.984-.256-.25-.597-.376-1.024-.376-.448 0-.813.157-1.096.472-.283.315-.45.728-.504 1.24l-2.576-.352a4.02 4.02 0 0 1 .472-1.536c.25-.448.568-.83.952-1.144a4.113 4.113 0 0 1 1.32-.72 4.951 4.951 0 0 1 1.576-.248c.523 0 1.03.07 1.52.208.49.139.928.352 1.312.64.384.288.69.65.92 1.088.23.437.344.95.344 1.536 0 .405-.053.77-.16 1.096a3.643 3.643 0 0 1-.44.904c-.187.277-.4.536-.64.776s-.488.477-.744.712l-2.624 2.336h4.624V170h-8.192zm22.562-2.832c0 .416-.08.808-.24 1.176-.16.368-.376.688-.648.96a3.054 3.054 0 0 1-4.304 0 3.079 3.079 0 0 1-.648-.96c-.16-.368-.24-.76-.24-1.176 0-.416.08-.808.24-1.176.16-.368.376-.688.648-.96a3.054 3.054 0 0 1 4.304 0c.272.272.488.592.648.96.16.368.24.76.24 1.176zm-1.792 0c0-.17-.035-.333-.104-.488a1.327 1.327 0 0 0-.272-.4 1.239 1.239 0 0 0-.872-.36 1.2 1.2 0 0 0-.88.368 1.2 1.2 0 0 0-.368.88c0 .341.123.632.368.872s.539.36.88.36a1.239 1.239 0 0 0 .872-.36c.112-.112.203-.243.272-.392.07-.15.104-.31.104-.48zm-5.888-5.664c0 .416-.08.808-.24 1.176-.16.368-.376.688-.648.96a3.054 3.054 0 0 1-4.304 0 3.079 3.079 0 0 1-.648-.96c-.16-.368-.24-.76-.24-1.176 0-.427.08-.824.24-1.192.16-.368.376-.688.648-.96s.595-.485.968-.64a3.063 3.063 0 0 1 1.184-.232 3.063 3.063 0 0 1 2.152.872c.272.272.488.592.648.96.16.368.24.765.24 1.192zm-1.792 0a1.2 1.2 0 0 0-.368-.88 1.2 1.2 0 0 0-.88-.368 1.2 1.2 0 0 0-.88.368 1.2 1.2 0 0 0-.368.88c0 .341.123.632.368.872s.539.36.88.36c.341 0 .635-.12.88-.36s.368-.53.368-.872zm-.016 9.04l-1.424-.704 6.608-11.68 1.488.72-6.672 11.664z"/><path fill="#2C3F58" fill-rule="nonzero" d="M190.936 191.504h2.364l2.208 6.036h.036l2.184-6.036h2.376V200h-1.5v-6.828h-.024L196 200h-1.056l-2.544-6.828h-.024V200h-1.44v-8.496zm10.91 2.736h1.44V200h-1.44v-5.76zm-.204-1.956a.83.83 0 0 1 .258-.606.886.886 0 0 1 .654-.258c.264 0 .485.082.666.246a.8.8 0 0 1 .27.618.8.8 0 0 1-.27.618.952.952 0 0 1-.666.246.886.886 0 0 1-.654-.258.83.83 0 0 1-.258-.606zm6.469 3.492a1.662 1.662 0 0 0-.528-.438 1.487 1.487 0 0 0-.732-.186c-.232 0-.444.048-.636.144a.496.496 0 0 0-.288.48c0 .224.106.382.318.474.212.092.522.186.93.282.216.048.434.112.654.192.22.08.42.186.6.318s.326.296.438.492c.112.196.168.434.168.714 0 .352-.066.65-.198.894a1.683 1.683 0 0 1-.528.594c-.22.152-.476.262-.768.33a3.982 3.982 0 0 1-.906.102c-.448 0-.884-.082-1.308-.246a2.765 2.765 0 0 1-1.056-.702l.948-.888c.16.208.368.38.624.516s.54.204.852.204c.104 0 .21-.012.318-.036.108-.024.208-.062.3-.114a.621.621 0 0 0 .222-.21.592.592 0 0 0 .084-.324c0-.24-.11-.412-.33-.516-.22-.104-.55-.208-.99-.312a4.76 4.76 0 0 1-.63-.186 2.056 2.056 0 0 1-.546-.3 1.39 1.39 0 0 1-.384-.462 1.467 1.467 0 0 1-.144-.684c0-.32.066-.596.198-.828a1.7 1.7 0 0 1 .522-.57c.216-.148.46-.258.732-.33.272-.072.552-.108.84-.108.416 0 .822.072 1.218.216.396.144.71.364.942.66l-.936.828zm6.026.06a1.27 1.27 0 0 0-.505-.402 1.56 1.56 0 0 0-1.38 0c-.2.108-.365.25-.498.426-.132.176-.23.374-.293.594-.065.22-.096.442-.096.666 0 .224.033.446.102.666.068.22.17.418.306.594.136.176.305.318.51.426.204.108.441.162.714.162.224 0 .447-.044.672-.132a1.28 1.28 0 0 0 .54-.384l.9.912c-.24.256-.546.454-.918.594-.373.14-.774.21-1.206.21-.425 0-.826-.068-1.206-.204a2.86 2.86 0 0 1-.996-.6 2.846 2.846 0 0 1-.672-.96 3.183 3.183 0 0 1-.246-1.284c0-.464.081-.884.246-1.26a2.888 2.888 0 0 1 1.644-1.572c.372-.144.77-.216 1.194-.216.424 0 .833.08 1.23.24.396.16.71.38.942.66l-.984.864zm1.861-4.908h1.44V200h-1.44v-9.072zm3.134 3.312h1.44V200h-1.44v-5.76zm-.205-1.956a.83.83 0 0 1 .258-.606.886.886 0 0 1 .654-.258c.265 0 .486.082.666.246a.8.8 0 0 1 .27.618.8.8 0 0 1-.27.618.952.952 0 0 1-.666.246.886.886 0 0 1-.654-.258.83.83 0 0 1-.258-.606zm7.25 3.552a1.27 1.27 0 0 0-.504-.402 1.56 1.56 0 0 0-1.38 0c-.2.108-.366.25-.498.426s-.23.374-.294.594c-.064.22-.096.442-.096.666 0 .224.034.446.102.666.068.22.17.418.306.594.136.176.306.318.51.426.204.108.442.162.714.162.224 0 .448-.044.672-.132a1.28 1.28 0 0 0 .54-.384l.9.912c-.24.256-.546.454-.918.594-.372.14-.774.21-1.206.21-.424 0-.826-.068-1.206-.204a2.86 2.86 0 0 1-.996-.6 2.846 2.846 0 0 1-.672-.96 3.183 3.183 0 0 1-.246-1.284c0-.464.082-.884.246-1.26a2.888 2.888 0 0 1 1.644-1.572c.372-.144.77-.216 1.194-.216.424 0 .834.08 1.23.24.396.16.71.38.942.66l-.984.864zm1.861-4.908h1.44v5.736h.036l2.184-2.424h1.848l-2.496 2.604 2.652 3.156h-1.908l-2.28-2.952h-.036V200h-1.44v-9.072zm9.4.576h2.952c.4 0 .787.042 1.164.126.376.084.71.222 1.001.414.293.192.526.444.702.756.177.312.264.692.264 1.14 0 .616-.173 1.118-.521 1.506-.349.388-.822.65-1.422.786l2.268 3.768h-1.824l-1.968-3.6h-1.105v3.6h-1.512v-8.496zm2.748 3.66c.216 0 .431-.016.647-.048a1.87 1.87 0 0 0 .582-.18c.173-.088.314-.214.426-.378.113-.164.168-.374.168-.63 0-.232-.051-.422-.155-.57a1.161 1.161 0 0 0-.397-.354 1.656 1.656 0 0 0-.546-.18 3.832 3.832 0 0 0-.594-.048h-1.368v2.388h1.236zm8.077 4.104h-.036c-.144.256-.376.466-.696.63a2.36 2.36 0 0 1-1.092.246c-.232 0-.474-.03-.726-.09a2.16 2.16 0 0 1-.696-.3 1.744 1.744 0 0 1-.528-.552c-.14-.228-.21-.51-.21-.846 0-.432.122-.776.366-1.032s.558-.452.942-.588a5.31 5.31 0 0 1 1.278-.27c.468-.044.926-.066 1.374-.066v-.144c0-.36-.13-.626-.39-.798a1.647 1.647 0 0 0-.93-.258c-.304 0-.596.064-.876.192s-.512.284-.696.468l-.744-.876a3.25 3.25 0 0 1 1.134-.684 3.865 3.865 0 0 1 1.302-.228c.512 0 .934.072 1.266.216.332.144.594.332.786.564.192.232.326.492.402.78.076.288.114.576.114.864V200h-1.344v-.732zm-.024-1.896h-.324c-.232 0-.476.01-.732.03-.256.02-.492.064-.708.132a1.511 1.511 0 0 0-.54.288.638.638 0 0 0-.216.51.613.613 0 0 0 .324.564c.096.056.204.096.324.12.12.024.24.036.36.036.496 0 .872-.132 1.128-.396.256-.264.384-.624.384-1.08v-.204zm2.017-1.98v-1.152h1.008v-1.668h1.416v1.668h1.44v1.152h-1.44v2.676c0 .256.046.468.138.636.093.168.298.252.618.252.097 0 .2-.01.312-.03.113-.02.212-.05.3-.09l.048 1.128c-.128.048-.28.086-.456.114a3.211 3.211 0 0 1-.504.042c-.384 0-.695-.054-.936-.162a1.419 1.419 0 0 1-.57-.444 1.644 1.644 0 0 1-.288-.648 3.768 3.768 0 0 1-.078-.786v-2.688h-1.008zm8.882 1.152c0-.184-.026-.36-.078-.528a1.208 1.208 0 0 0-.246-.444 1.201 1.201 0 0 0-.426-.306 1.49 1.49 0 0 0-.606-.114c-.432 0-.798.13-1.098.39-.3.26-.466.594-.498 1.002h2.952zm1.44.648v.192c0 .064-.004.128-.012.192h-4.38a1.426 1.426 0 0 0 .528 1.014c.152.124.324.222.516.294.192.072.392.108.6.108.36 0 .664-.066.912-.198s.452-.314.612-.546l.96.768c-.568.768-1.392 1.152-2.472 1.152-.448 0-.86-.07-1.236-.21a2.917 2.917 0 0 1-.978-.594 2.677 2.677 0 0 1-.648-.942 3.247 3.247 0 0 1-.234-1.266c0-.464.078-.886.234-1.266.156-.38.37-.704.642-.972s.594-.476.966-.624a3.233 3.233 0 0 1 1.206-.222c.4 0 .77.066 1.11.198.34.132.634.328.882.588.248.26.442.584.582.972.14.388.21.842.21 1.362z" opacity=".7"/><path fill="#2C3F58" fill-rule="nonzero" d="M283.694 200v-8.32l-2.112 1.632-1.392-1.904 3.728-2.736h2.464V200h-2.688zm13.322-3.232c0 .597-.117 1.117-.352 1.56-.235.443-.547.81-.936 1.104a4.03 4.03 0 0 1-1.36.656 5.968 5.968 0 0 1-1.608.216 5.942 5.942 0 0 1-1.616-.216 4.13 4.13 0 0 1-1.352-.648 3.216 3.216 0 0 1-.936-1.096c-.235-.443-.352-.963-.352-1.56 0-.341.053-.659.16-.952.107-.293.253-.555.44-.784a2.974 2.974 0 0 1 1.432-.968v-.032a2.802 2.802 0 0 1-1.232-.888c-.33-.41-.496-.93-.496-1.56 0-.523.107-.987.32-1.392a3 3 0 0 1 .864-1.016 3.878 3.878 0 0 1 1.264-.616c.48-.139.981-.208 1.504-.208s1.021.067 1.496.2a3.86 3.86 0 0 1 1.256.6c.363.267.653.6.872 1 .219.4.328.861.328 1.384 0 .63-.16 1.157-.48 1.584a2.52 2.52 0 0 1-1.248.896v.048a2.893 2.893 0 0 1 1.44.968 2.791 2.791 0 0 1 .592 1.72zm-2.896-5.024c0-.373-.133-.683-.4-.928a1.368 1.368 0 0 0-.96-.368c-.405 0-.73.123-.976.368a1.258 1.258 0 0 0-.368.928c0 .363.12.677.36.944.24.267.568.4.984.4.395 0 .72-.133.976-.4s.384-.581.384-.944zm.208 4.928c0-.437-.147-.803-.44-1.096-.293-.293-.67-.44-1.128-.44-.47 0-.85.144-1.144.432-.293.288-.44.656-.44 1.104 0 .459.147.824.44 1.096.293.272.675.408 1.144.408.47 0 .848-.136 1.136-.408.288-.272.432-.637.432-1.096zm6.706 1.92c0 .448-.157.821-.472 1.12-.315.299-.69.448-1.128.448a1.689 1.689 0 0 1-1.152-.448 1.464 1.464 0 0 1-.48-1.104c0-.213.043-.416.128-.608a1.59 1.59 0 0 1 .352-.504c.15-.144.323-.259.52-.344.197-.085.408-.128.632-.128.437 0 .813.15 1.128.448.315.299.472.672.472 1.12zm4.77 1.408h-3.12l4.592-9.024h-5.36v-2.304h8.224v2.144L305.804 200zm18.754-2.832c0 .416-.08.808-.24 1.176-.16.368-.376.688-.648.96a3.054 3.054 0 0 1-4.304 0 3.079 3.079 0 0 1-.648-.96c-.16-.368-.24-.76-.24-1.176 0-.416.08-.808.24-1.176.16-.368.376-.688.648-.96a3.054 3.054 0 0 1 4.304 0c.272.272.488.592.648.96.16.368.24.76.24 1.176zm-1.792 0c0-.17-.035-.333-.104-.488a1.327 1.327 0 0 0-.272-.4 1.239 1.239 0 0 0-.872-.36 1.2 1.2 0 0 0-.88.368 1.2 1.2 0 0 0-.368.88c0 .341.123.632.368.872s.539.36.88.36a1.239 1.239 0 0 0 .872-.36c.112-.112.203-.243.272-.392.07-.15.104-.31.104-.48zm-5.888-5.664c0 .416-.08.808-.24 1.176-.16.368-.376.688-.648.96a3.054 3.054 0 0 1-4.304 0 3.079 3.079 0 0 1-.648-.96c-.16-.368-.24-.76-.24-1.176 0-.427.08-.824.24-1.192.16-.368.376-.688.648-.96s.595-.485.968-.64a3.063 3.063 0 0 1 1.184-.232 3.063 3.063 0 0 1 2.152.872c.272.272.488.592.648.96.16.368.24.765.24 1.192zm-1.792 0a1.2 1.2 0 0 0-.368-.88 1.2 1.2 0 0 0-.88-.368 1.2 1.2 0 0 0-.88.368 1.2 1.2 0 0 0-.368.88c0 .341.123.632.368.872s.539.36.88.36c.341 0 .635-.12.88-.36s.368-.53.368-.872zm-.016 9.04l-1.424-.704 6.608-11.68 1.488.72-6.672 11.664z"/></g><circle cx="105" cy="110" r="28" fill="url(#a)" opacity=".8"/><ellipse cx="51.5" cy="184" fill="url(#b)" opacity=".8" rx="19.5" ry="19"/><ellipse cx="54.5" cy="72.5" fill="url(#c)" opacity=".8" rx="35.5" ry="35"/><path fill="#225CFF" d="M181.928 196.488l-7.54-7.422a.228.228 0 0 0-.248-.049.224.224 0 0 0-.14.209v10.582c0 .091.056.173.14.207a.228.228 0 0 0 .248-.05l2.382-2.376 1.743 4.134a.458.458 0 0 0 .594.242l.847-.35a.447.447 0 0 0 .245-.585l-1.748-4.154h3.316a.227.227 0 0 0 .216-.14.223.223 0 0 0-.055-.248z"/><path stroke="#225CFF" stroke-linecap="round" stroke-linejoin="round" stroke-width="2" d="M172 167c2 0 3 1 3 3 0-3 2-7 9-7"/><circle cx="181" cy="163" r="3" fill="#FFF" stroke="#225CFF" stroke-width="2"/></g></svg>