<?xml version="1.0" encoding="UTF-8"?>
<svg width="97px" height="21px" viewBox="0 0 97 21" version="1.1" xmlns="http://www.w3.org/2000/svg" xmlns:xlink="http://www.w3.org/1999/xlink">
    <!-- Generator: Sketch 57.1 (83088) - https://sketch.com -->
    <title>logo_microsoft</title>
    <desc>Created with Sketch.</desc>
    <g id="Page-1" stroke="none" stroke-width="1" fill="none" fill-rule="evenodd" opacity="0.900000036">
        <g id="logo_microsoft" transform="translate(0.000000, 0.187500)" fill="#364962" fill-rule="nonzero">
            <path d="M34.5423347,12.0075972 L33.9668548,13.6381236 L33.9188981,13.6381236 C33.8229848,13.2704559 33.6471437,12.7109615 33.3594037,12.0395683 L30.2741919,4.28657491 L27.2529224,4.28657491 L27.2529224,16.6434077 L29.2511165,16.6434077 L29.2511165,9.0182987 L29.235131,7.32383005 C29.2191454,6.98813343 29.1871743,6.73236457 29.1711888,6.54053793 L29.2191454,6.54053793 C29.3150587,7.02010453 29.4269576,7.37178671 29.5068854,7.59558446 L33.2155338,16.6114366 L34.6222625,16.6114366 L38.2989397,7.51565669 C38.3788675,7.30784449 38.4587953,6.89222011 38.538723,6.54053793 L38.5866797,6.54053793 L38.4907664,8.76252985 L38.4907664,16.595451 L40.616845,16.595451 L40.616845,4.2546038 L37.7074743,4.2546038 L34.5423347,12.0075972 Z M42.6310247,7.73945444 L44.7091466,7.73945444 L44.7091466,16.595451 L42.6310247,16.595451 L42.6310247,7.73945444 Z M43.6860712,3.99883495 C43.334389,3.99883495 43.0466491,4.12671938 42.8068658,4.35051712 C42.5670825,4.57431487 42.4391981,4.86205483 42.4391981,5.213737 C42.4346806,5.53578728 42.5685619,5.84429638 42.8068658,6.06097133 C43.0466491,6.28476908 43.334389,6.39666795 43.6860712,6.39666795 C44.0377534,6.39666795 44.3414789,6.26878353 44.5652767,6.06097133 C44.8035806,5.84429638 44.9374619,5.53578728 44.9329444,5.213737 C44.9329444,4.87804038 44.80506,4.59030042 44.5652767,4.35051712 C44.3574645,4.12671938 44.0537389,3.99883495 43.6860712,3.99883495 M52.0784867,7.65952667 C51.6948335,7.5795989 51.2951946,7.53164224 50.9115413,7.53164224 C49.9683937,7.53164224 49.1051738,7.73945444 48.3858239,8.15507882 C47.666474,8.57070321 47.0909941,9.14618313 46.7233264,9.86553303 C46.3396731,10.6008685 46.1478464,11.4481028 46.1478464,12.4232216 C46.1478464,13.2704559 46.3396731,14.0217769 46.7073408,14.7091557 C47.0750085,15.3805489 47.5865462,15.9240578 48.273925,16.2917255 C48.9293327,16.6593932 49.6966393,16.8512199 50.5598592,16.8512199 C51.5509635,16.8512199 52.3981978,16.6434077 53.069591,16.2597544 L53.0855766,16.2437688 L53.0855766,14.3255024 L53.0056488,14.3894446 C52.7019233,14.6132424 52.3502411,14.805069 51.998559,14.9169679 C51.6308912,15.0448523 51.2951946,15.1087945 51.0074547,15.1087945 C50.1762059,15.1087945 49.5207982,14.8690112 49.0572172,14.341488 C48.5776506,13.8299503 48.3378673,13.1265859 48.3378673,12.2473805 C48.3378673,11.3362039 48.5776506,10.616854 49.0732027,10.0893308 C49.5687549,9.56180752 50.2241625,9.29005311 51.0234402,9.29005311 C51.6948335,9.29005311 52.3822123,9.51385086 53.0056488,9.96144635 L53.0855766,10.0253886 L53.0855766,7.99522329 L53.069591,7.97923774 C52.7978366,7.86733886 52.4941111,7.73945444 52.0784867,7.65952667 M58.9362891,7.59558446 C58.4247514,7.59558446 57.9451848,7.75543999 57.5295604,8.09113661 C57.1778783,8.37887657 56.938095,8.79450096 56.7302828,9.29005311 L56.7142972,9.29005311 L56.7142972,7.73945444 L54.6361753,7.73945444 L54.6361753,16.595451 L56.7142972,16.595451 L56.7142972,12.0715394 C56.7142972,11.3042328 56.8741527,10.6648107 57.2258349,10.2012297 C57.5775171,9.72166305 58.0251126,9.48187975 58.5686214,9.48187975 C58.760448,9.48187975 58.9522747,9.52983641 59.192058,9.56180752 C59.4158557,9.62574973 59.5757113,9.68969195 59.6876101,9.76961971 L59.7675379,9.83356193 L59.7675379,7.75543999 L59.7195812,7.73945444 C59.5757113,7.64354112 59.2879713,7.59558446 58.9362891,7.59558446 M64.595175,7.5476278 C63.1404897,7.5476278 61.9735443,7.97923774 61.158281,8.82647206 C60.3270323,9.67370639 59.9273934,10.8406518 59.9273934,12.3113227 C59.9273934,13.6860803 60.3430178,14.805069 61.1422955,15.6203322 C61.9415732,16.4196099 63.0285908,16.8352343 64.3873628,16.8352343 C65.8100771,16.8352343 66.9450514,16.4036244 67.7603146,15.5404045 C68.5915634,14.6771846 68.9912022,13.5262248 68.9912022,12.1035105 C68.9912022,10.6967818 68.6075489,9.57779307 67.8242568,8.76252985 C67.0729358,7.94726663 65.9699326,7.5476278 64.595175,7.5476278 M66.2576726,14.3574735 C65.8740193,14.8530257 65.2665683,15.092809 64.5152473,15.092809 C63.7639262,15.092809 63.1564752,14.8530257 62.7248653,14.3255024 C62.2932553,13.8299503 62.0854431,13.1106004 62.0854431,12.1994238 C62.0854431,11.2562762 62.3092409,10.5369263 62.7248653,10.0253886 C63.1564752,9.51385086 63.7479407,9.25808201 64.4992617,9.25808201 C65.2345972,9.25808201 65.8100771,9.49786531 66.2257015,9.99341746 C66.6413259,10.4889696 66.8651236,11.2083195 66.8651236,12.1514672 C66.8331525,13.1106004 66.6573114,13.8619214 66.2576726,14.3574735 M73.6270127,11.4161317 C72.971605,11.1443773 72.5559806,10.9365651 72.364154,10.760724 C72.2042984,10.6008685 72.1243707,10.3770707 72.1243707,10.0893308 C72.1243707,9.84954748 72.220284,9.60976418 72.4600673,9.44990865 C72.6998506,9.29005311 72.971605,9.21012535 73.3712438,9.21012535 C73.722926,9.21012535 74.0905937,9.27406756 74.4422759,9.36998088 C74.7939581,9.4658942 75.1136691,9.60976418 75.369438,9.80159082 L75.4493658,9.86553303 L75.4493658,7.91529552 L75.4014091,7.89930997 C75.1616258,7.80339665 74.8419147,7.70748333 74.4582614,7.62755556 C74.0746082,7.56361335 73.722926,7.53164224 73.435186,7.53164224 C72.4440817,7.53164224 71.6288185,7.77142554 70.9893964,8.2989488 C70.3499742,8.79450096 70.0462487,9.4658942 70.0462487,10.2491863 C70.0462487,10.6648107 70.1101909,11.0324784 70.2540609,11.3362039 C70.3979309,11.6399295 70.6057431,11.9276694 70.893483,12.1674527 C71.181223,12.3912505 71.5968474,12.6470193 72.1723273,12.8868026 C72.6518939,13.0946148 73.0195616,13.2544703 73.2433594,13.3823548 C73.4671571,13.5102392 73.6110271,13.6541092 73.722926,13.7660081 C73.8028538,13.8938925 73.8508104,14.053748 73.8508104,14.2615602 C73.8508104,14.8530257 73.4032149,15.1407656 72.4920384,15.1407656 C72.1403562,15.1407656 71.7726885,15.0768234 71.3410785,14.9329534 C70.9094686,14.7890835 70.5098298,14.5812713 70.1741331,14.341488 L70.0942054,14.2775458 L70.0942054,16.307711 L70.142162,16.3236966 C70.4458876,16.4675666 70.8135553,16.5634799 71.2611508,16.6753788 C71.7087463,16.7553065 72.1083851,16.8192487 72.4600673,16.8192487 C73.5310994,16.8192487 74.4103048,16.5794654 75.0337414,16.0519422 C75.6731635,15.5404045 76.0088601,14.8849968 76.0088601,14.0377625 C76.0088601,13.446297 75.8490046,12.9187737 75.4973224,12.5191349 C75.0337414,12.1354816 74.4582614,11.7358428 73.6270127,11.4161317 M81.4919049,7.5476278 C80.0372196,7.5476278 78.8702742,7.97923774 78.055011,8.82647206 C77.2397477,9.67370639 76.8241233,10.8406518 76.8241233,12.3113227 C76.8241233,13.6860803 77.2397477,14.805069 78.0390254,15.6203322 C78.8383031,16.4196099 79.9253207,16.8352343 81.2840927,16.8352343 C82.706807,16.8352343 83.8417813,16.4036244 84.6570445,15.5404045 C85.4882933,14.6771846 85.8879321,13.5262248 85.8879321,12.1035105 C85.8879321,10.6967818 85.5042788,9.57779307 84.7209867,8.76252985 C83.9696657,7.94726663 82.8666625,7.5476278 81.4919049,7.5476278 M83.1384169,14.3574735 C82.7547636,14.8530257 82.1473126,15.092809 81.3959916,15.092809 C80.628685,15.092809 80.0372196,14.8530257 79.6056096,14.3255024 C79.1739997,13.8299503 78.9661875,13.1106004 78.9661875,12.1994238 C78.9661875,11.2562762 79.1899852,10.5369263 79.6056096,10.0253886 C80.0372196,9.51385086 80.628685,9.25808201 81.3800061,9.25808201 C82.099356,9.25808201 82.6908214,9.49786531 83.1064458,9.99341746 C83.5220702,10.4889696 83.745868,11.2083195 83.745868,12.1514672 C83.745868,13.1106004 83.5380558,13.8619214 83.1384169,14.3574735 M96.9978917,9.44990865 L96.9978917,7.73945444 L94.9037842,7.73945444 L94.9037842,5.11782368 L94.839842,5.13380924 L92.8576334,5.72527471 L92.8096767,5.74126027 L92.8096767,7.73945444 L89.6765083,7.73945444 L89.6765083,6.6204657 C89.6765083,6.10892799 89.8043927,5.70928916 90.0281904,5.4535203 C90.2519882,5.19775145 90.5876848,5.06986702 91.0033092,5.06986702 C91.2910491,5.06986702 91.5947747,5.13380924 91.9304713,5.27767922 L92.010399,5.32563588 L92.010399,3.51926835 L91.9624424,3.50328279 C91.6747024,3.40736947 91.2910491,3.34342726 90.795497,3.34342726 C90.1720604,3.34342726 89.6285516,3.48729724 89.1329994,3.72708054 C88.6374473,3.99883495 88.2697796,4.36650268 87.9980251,4.86205483 C87.7262707,5.34162143 87.5824008,5.88513025 87.5824008,6.50856683 L87.5824008,7.73945444 L86.1277154,7.73945444 L86.1277154,9.43392309 L87.5824008,9.43392309 L87.5824008,16.595451 L89.6765083,16.595451 L89.6765083,9.44990865 L92.8096767,9.44990865 L92.8096767,14.0057914 C92.8096767,15.8761011 93.6888821,16.8192487 95.447293,16.8192487 C95.735033,16.8192487 96.0387585,16.7712921 96.3264985,16.7233354 C96.630224,16.6593932 96.8540217,16.5794654 96.9819061,16.5155232 L96.9978917,16.4995377 L96.9978917,14.7890835 L96.9179639,14.8530257 C96.7900795,14.9329534 96.6781806,14.9968957 96.486354,15.0448523 C96.3264985,15.092809 96.1826285,15.1087945 96.0707296,15.1087945 C95.6551052,15.1087945 95.3673653,15.0128812 95.1595531,14.7730979 C94.9677264,14.5493002 94.8718131,14.1816324 94.8718131,13.6381236 L94.8718131,9.44990865 L96.9978917,9.44990865 Z" id="Shape"></path>
            <polygon id="Path" points="0.461134922 0.130331034 10.2602791 0.130331034 10.2602791 9.92947525 0.461134922 9.92947525"></polygon>
            <polygon id="Path" points="11.2833546 0.130331034 21.0824988 0.130331034 21.0824988 9.92947525 11.2833546 9.92947525"></polygon>
            <polygon id="Path" points="0.461134922 10.9525507 10.2602791 10.9525507 10.2602791 20.7516949 0.461134922 20.7516949"></polygon>
            <polygon id="Path" points="11.2833546 10.9525507 21.0824988 10.9525507 21.0824988 20.7516949 11.2833546 20.7516949"></polygon>
        </g>
    </g>
</svg>