<?xml version="1.0" encoding="UTF-8"?>
<svg width="92px" height="25px" viewBox="0 0 92 25" version="1.1" xmlns="http://www.w3.org/2000/svg" xmlns:xlink="http://www.w3.org/1999/xlink">
    <!-- Generator: Sketch 57.1 (83088) - https://sketch.com -->
    <title>logo_revolut</title>
    <desc>Created with Sketch.</desc>
    <g id="Page-1" stroke="none" stroke-width="1" fill="none" fill-rule="evenodd" opacity="0.800000012">
        <g id="logo_revolut" fill="#364962" fill-rule="nonzero">
            <path d="M9.40148958,4.23282246 C7.52204901,4.28101325 5.44984531,4.47377638 4.8715559,4.61834873 C5.44984531,4.47377638 7.52204901,4.28101325 9.40148958,4.23282246 M10.5580684,6.93150636 L9.49787115,6.93150636 C9.40148958,7.36522341 9.3532988,7.79894047 9.30510801,8.23265752 L8.53405547,12.9071636 L9.83520663,12.9071636 C11.5218841,12.9071636 12.7748444,11.5096308 12.7748444,9.38923633 C12.7748444,7.89532203 11.9074103,6.93150636 10.5580684,6.93150636 M24.918922,11.9915387 C24.1478694,11.9915387 23.6177708,13.485453 23.3286261,14.6902226 L23.7623432,14.6902226 C24.7261588,14.6902226 25.4972114,14.0637424 25.5935929,13.2926898 L25.5935929,13.0035451 C25.5935929,12.7625912 25.5454022,12.5216373 25.4008298,12.3288741 C25.352639,12.136111 25.1598759,11.9915387 24.918922,11.9915387 M50.1227019,12.1843018 C50.0745111,12.1843018 50.0745111,12.136111 50.0263203,12.136111 C49.9781296,12.0879202 49.881748,12.0879202 49.8335572,12.0879202 C49.6889849,12.0879202 49.5444125,12.136111 49.4480309,12.2324926 C49.3998402,12.2806834 49.3516494,12.2806834 49.3034586,12.3288741 C49.2552678,12.3770649 49.2552678,12.4252557 49.207077,12.4252557 C48.9661231,12.7625912 48.77336,13.0999267 48.6769784,13.485453 C48.6287876,13.5336437 48.6287876,13.6300253 48.5805968,13.7264069 C48.4842153,13.9673608 48.4360245,14.2565055 48.3396429,14.4974594 L48.1950706,15.1239396 C48.098689,15.7986106 48.0023074,16.5214723 48.0023074,17.2443341 L48.0504982,18.3045313 C48.0429978,18.3878155 48.0597332,18.4714923 48.098689,18.5454853 L48.2432613,19.1237747 L48.3878337,19.4129194 C48.532406,19.7020641 48.6769784,19.8466364 48.8697415,19.8466364 C48.9661231,19.8466364 49.0143139,19.8466364 49.1106955,19.7984456 C49.207077,19.7502549 49.3034586,19.7020641 49.3998402,19.6056825 C49.6889849,19.268347 49.9781296,18.6900576 50.2190835,17.9190051 L50.3636558,17.3407157 L50.5082282,16.6178539 L50.6046098,15.6058474 C50.6528005,15.268512 50.6528005,14.9793673 50.6528005,14.6420318 C50.7009913,13.9673608 50.6046098,13.244499 50.3636558,12.5698281 C50.3636558,12.4734465 50.2672743,12.2806834 50.1227019,12.1843018 M87.0368423,16.4250908 L87.2777962,14.7866041 C88.3379935,14.6902226 89.1572368,14.4974594 89.783717,14.0637424 C90.5547695,13.5818345 91.5185852,12.6662096 91.5185852,10.8831506 C91.5185852,9.91933495 91.2776313,9.00371006 90.8439142,8.18446674 C90.3620064,7.31703263 89.4463815,6.78693401 88.4825658,6.78693401 L88.3379935,6.78693401 C88.2898027,5.34121049 87.0850331,4.23282246 85.6393096,4.18463168 C84.2899676,4.18463168 82.9406257,4.28101325 81.6394745,4.47377638 C80.4828957,4.66653952 79.5672708,5.72673676 79.3745077,6.88331557 C79.3745077,6.93150636 76.2902975,6.88331557 74.2662846,6.88331557 C72.6759887,6.88331557 71.8567454,7.65436811 71.8567454,7.65436811 C71.8567454,7.65436811 71.0856929,6.64236165 69.0134892,6.88331557 C68.0014827,6.93150636 67.037667,7.07607871 66.0256606,7.26884184 C66.2184237,6.01588146 66.3629961,4.76292108 66.4111868,3.50996071 L66.4111868,3.41357914 C66.4111868,1.91966484 65.2064172,0.714895243 63.712503,0.66670446 C61.7366808,0.66670446 59.471714,0.955849163 58.3151352,1.19680308 C57.0621748,1.53413857 56.1947407,2.69071738 56.2429315,3.99186854 C56.2911222,5.14844736 55.7610236,8.61818379 55.7610236,8.61818379 C54.5080632,7.55798655 52.8213858,6.97969714 50.8937545,6.97969714 C49.1588862,6.97969714 47.424018,7.36522341 45.8819129,8.18446674 C45.3518143,7.60617733 44.5807618,7.22065106 43.8097092,7.26884184 C42.2676041,7.26884184 41.1110253,7.26884184 40.0026373,7.36522341 C39.1352032,7.4134142 38.3641507,7.89532203 37.8822428,8.66637457 C37.834052,8.61818379 37.834052,8.56999301 37.7858613,8.52180222 C37.3039534,7.65436811 36.3883285,7.12426949 35.4245128,7.12426949 C33.4004999,7.12426949 29.8825727,7.7025589 29.7380004,7.79894047 C28.5332308,7.26884184 27.2320796,6.97969714 25.8827376,7.02788792 C23.9069155,6.97969714 21.9792842,7.50979576 20.3407975,8.52180222 C20.0516528,4.4255856 16.5337256,1.63052014 11.5218841,1.63052014 C11.5218841,1.63052014 5.40165452,1.87147406 4.29326649,2.11242797 C2.99211533,2.40157268 2.07649044,3.60634227 2.172872,4.90749344 C2.172872,5.82311833 2.12468122,6.78693401 1.93191809,7.79894047 L0.148859084,19.268347 C0.0042867328,19.943018 -0.333048754,22.0152217 0.968102409,23.5573268 C1.49820103,24.183807 2.46201671,24.9066687 4.14869414,24.9066687 C4.91974668,24.9066687 6.99195039,24.8102872 8.67862782,24.0392346 C9.11234488,23.8464715 9.49787115,23.509136 9.78701585,23.1236097 C10.7026407,24.183807 12.0519827,24.9548595 14.0278048,24.9548595 C15.762673,24.9548595 17.4493505,24.5211425 18.9914556,23.7500899 C20.3889883,24.5693332 21.9792842,25.0030503 23.6177708,24.9548595 C26.5574086,24.9548595 29.3042833,23.7982807 31.0391515,21.8224586 C32.0029672,24.2801885 33.7860262,24.8584779 35.2317497,24.8584779 C36.4365193,24.8584779 37.8822428,24.7139056 39.3279663,23.9910438 C40.5327359,23.4127544 41.0628346,21.4369323 41.3037885,21.0032152 C42.5085581,23.4127544 44.9180973,24.9066687 47.9541166,24.9066687 C50.3636558,24.9066687 52.7250042,24.1356162 54.6526356,22.5935111 C54.7972079,22.834465 54.9417803,23.0272282 55.0863526,23.2199913 C55.7128328,23.942853 56.9176024,24.8102872 58.9898061,24.8102872 C60.4837204,24.8584779 61.9776347,24.4247609 63.1824043,23.6055176 C63.8570753,24.2801885 64.9654633,24.9066687 66.6521408,24.9066687 C67.9051011,24.9066687 69.1580615,24.5693332 70.2664496,23.9910438 C71.0856929,24.5693332 72.1458901,24.8584779 73.3988505,24.8584779 C75.3746726,24.8584779 77.1577316,24.183807 78.3143105,22.9790374 C79.2781261,23.942853 80.9648036,24.9066687 83.8562506,24.9066687 C86.5067437,24.9066687 89.1572368,23.2199913 90.5065788,20.9550245 C91.566776,19.268347 90.4101972,16.2805184 87.0368423,16.4250908 M17.5939228,9.34104555 C17.4493505,11.46144 16.1000085,13.1963083 14.0278048,14.3046963 L15.9072454,19.268347 C16.437344,20.617689 16.7746795,21.1477876 17.3529689,21.5815046 C17.2083966,21.6778862 17.0638242,21.726077 16.9192519,21.7742678 C16.003627,22.0634125 14.9916205,22.2561756 14.0278048,22.2079848 C13.0639891,22.2079848 11.762838,21.9670309 10.9435947,19.6056825 L9.54606193,15.5576567 L8.1485292,15.5576567 L7.52204901,19.4129194 C7.42566744,19.8466364 7.37747666,20.2803535 7.37747666,20.7140705 L7.37747666,20.8104521 C7.37747666,21.051406 7.42566744,21.2923599 7.52204901,21.5333139 C6.46185177,22.0152217 5.01612825,22.159794 4.14869414,22.159794 C3.42583238,22.159794 2.75116141,21.9188401 2.70297063,20.6658797 C2.70297063,20.3285443 2.75116141,19.9912088 2.79935219,19.6538733 L4.5824112,8.18446674 C4.72698355,7.31703263 4.82336512,6.40140773 4.82336512,5.53397363 L4.82336512,4.61834873 C5.40165452,4.47377638 7.47385823,4.23282246 9.3532988,4.23282246 L11.4255025,4.23282246 C12.6784629,4.18463168 13.8832325,4.47377638 15.0398113,4.95568422 C15.328956,5.10025657 15.6662915,5.29301971 15.9072454,5.48578284 C16.1481993,5.67854598 16.3891532,5.9194999 16.6301072,6.16045382 C16.9192519,6.54598009 17.1602058,6.93150636 17.3529689,7.4134142 C17.4975413,7.89532203 17.5939228,8.37722987 17.5939228,8.90732849 L17.5939228,9.34104555 M24.4852049,17.051571 C24.2924418,17.051571 24.0996786,17.0997617 23.9551063,17.0997617 L23.1840538,17.0997617 L23.1840538,17.3889064 C23.2804353,18.7382484 23.8587247,19.8948272 25.1116851,19.8948272 L25.4008298,19.8948272 C26.6055994,19.7502549 27.3284612,18.8828207 27.9549414,18.8828207 C28.2440861,18.9310115 28.5332308,19.0273931 28.7741847,19.1719654 L29.4006649,19.5574917 C28.9669478,20.1839719 28.4368492,20.7140705 27.7621782,21.0995968 C26.5092178,21.9188401 25.0634943,22.3043664 23.56958,22.3043664 C20.3889883,22.3043664 18.4613569,20.5213074 18.3167846,17.6780512 L18.3167846,17.1961433 C18.3167846,13.5818345 20.678133,9.63019025 25.9309284,9.63019025 C26.701981,9.63019025 27.4730335,9.72657182 28.1477045,9.96752574 C29.4006649,10.4012428 30.1235266,11.3168677 30.1235266,12.5216373 C30.1717174,13.9673608 29.2560925,16.6178539 24.4852049,17.051571 M39.0870124,19.3647286 C38.6532954,20.0875903 38.2677691,20.8586429 37.9786244,21.6778862 C37.1111903,22.1116033 36.1473746,22.2079848 35.1835589,22.2079848 C34.3643156,22.2079848 33.5932631,21.8224586 33.2077368,19.7020641 L32.0029672,13.6782161 C31.7620133,12.4734465 31.376487,11.2686769 30.8945792,10.1120981 C31.3282962,10.0157165 31.7620133,9.91933495 32.1957303,9.87114417 C32.2921119,9.87114417 32.3884935,9.82295339 32.484875,9.82295339 L32.5330658,9.82295339 C32.6294474,9.82295339 32.725829,9.82295339 32.8704013,9.7747626 L32.9185921,9.7747626 C33.159546,9.7747626 33.4004999,9.72657182 33.6896446,9.72657182 L35.4727036,9.72657182 C35.6654668,10.1120981 35.8582299,10.4976244 36.0028023,10.8831506 C36.050993,11.027723 36.0991838,11.1241045 36.1473746,11.2686769 C36.2437562,11.5578216 36.291947,11.8469663 36.3401377,12.136111 L37.1593811,17.6298604 C37.834052,16.3287092 38.4605322,14.9793673 39.0388216,13.6300253 C39.4243479,12.7144004 39.7616834,11.7987755 40.0026373,10.8349598 C40.0990189,10.4976244 40.1472097,10.2084797 40.2435912,9.87114417 C40.5327359,9.82295339 40.8218806,9.82295339 41.1110253,9.82295339 L43.8097092,9.82295339 C43.7133277,10.6421967 43.5205645,11.4132493 43.183229,12.1843018 C42.0266502,14.6420318 40.5809267,17.0033802 39.0870124,19.3647286 M54.0743462,19.4129194 C53.6406291,19.9912088 53.1105305,20.4731166 52.5322411,20.8586429 C52.4358595,20.9550245 52.2912872,21.0032152 52.1949056,21.0995968 C52.1949056,21.0995968 52.1467148,21.0995968 52.1467148,21.1477876 C52.0503333,21.1959784 51.9539517,21.2923599 51.8575701,21.3405507 C51.8575701,21.3405507 51.8093793,21.3405507 51.8093793,21.3887415 C51.7129978,21.4369323 51.6166162,21.4851231 51.4720439,21.5333139 C51.4720439,21.5333139 51.4238531,21.5333139 51.4238531,21.5815046 C51.2792807,21.6296954 51.1828992,21.6778862 51.0383268,21.726077 C50.7973729,21.8224586 50.5082282,21.9188401 50.2190835,22.0152217 C50.1708927,22.0152217 50.1708927,22.0152217 50.1227019,22.0634125 C50.0263203,22.1116033 49.9299388,22.1116033 49.8335572,22.159794 C49.7853664,22.159794 49.7371756,22.159794 49.6889849,22.2079848 C49.5926033,22.2079848 49.4962217,22.2561756 49.3998402,22.2561756 C49.3516494,22.2561756 49.3034586,22.2561756 49.2552678,22.3043664 C49.1588862,22.3043664 49.0625047,22.3525572 48.9661231,22.3525572 L47.2312549,22.3525572 C47.1348733,22.3525572 46.990301,22.3043664 46.8939194,22.3043664 C46.8457286,22.3043664 46.749347,22.2561756 46.7011563,22.2561756 C46.6047747,22.2561756 46.5083931,22.2079848 46.4120116,22.2079848 C46.3638208,22.2079848 46.2674392,22.159794 46.2192484,22.159794 C46.1228669,22.1116033 46.0264853,22.1116033 45.9782945,22.0634125 C45.9301037,22.0152217 45.8337222,22.0152217 45.7855314,21.9670309 C45.6891498,21.9188401 45.640959,21.9188401 45.5445774,21.8706493 C45.4963867,21.8224586 45.4000051,21.8224586 45.3518143,21.7742678 C45.3036235,21.726077 45.207242,21.6778862 45.1590512,21.6296954 C45.1108604,21.5815046 45.0626696,21.5333139 44.966288,21.5333139 C44.9180973,21.4851231 44.8217157,21.4369323 44.7735249,21.3887415 L44.1952355,20.8104521 C44.1470447,20.7622613 44.0988539,20.7140705 44.0506631,20.617689 C44.0024724,20.5694982 43.9542816,20.5213074 43.9060908,20.4249258 C43.855358,20.371792 43.8217766,20.3046292 43.8097092,20.2321627 C43.7615184,20.1839719 43.7615184,20.0875903 43.7133277,20.0393996 C43.6651369,19.9912088 43.6651369,19.8948272 43.6169461,19.8466364 C43.5687553,19.7984456 43.5687553,19.7020641 43.5205645,19.6538733 C43.4723737,19.5574917 43.4723737,19.5093009 43.424183,19.4129194 C43.424183,19.3647286 43.3759922,19.268347 43.3759922,19.2201562 C43.3759922,19.1237747 43.3278014,19.0755839 43.3278014,18.9792023 C43.3278014,18.9310115 43.2796106,18.83463 43.2796106,18.7864392 C43.2314198,18.5454853 43.183229,18.3045313 43.183229,18.0635774 L43.183229,17.485288 C43.183229,14.7866041 44.4361894,12.5216373 46.3638208,11.1722953 C46.7011563,10.9313414 46.990301,10.7385783 47.3758272,10.5940059 C47.7131627,10.4494336 48.098689,10.3048612 48.4360245,10.1602889 L48.4842153,10.1602889 C48.6769784,10.1120981 48.8215507,10.0639073 49.0143139,10.0157165 L49.0625047,10.0157165 C49.2552678,9.96752574 49.3998402,9.96752574 49.5926033,9.91933495 L49.6407941,9.91933495 C49.8335572,9.87114417 50.0263203,9.87114417 50.1708927,9.87114417 L51.5202346,9.87114417 C51.664807,9.87114417 51.7611886,9.91933495 51.9057609,9.91933495 L52.0021425,9.91933495 C52.1467148,9.96752574 52.2912872,9.96752574 52.4358595,10.0157165 C52.4840503,10.0157165 52.5322411,10.0639073 52.5804319,10.0639073 C52.6768135,10.1120981 52.773195,10.1120981 52.8695766,10.1602889 C52.9177674,10.1602889 52.9659582,10.2084797 53.0141489,10.2084797 C53.1105305,10.2566704 53.2551029,10.3048612 53.3514844,10.353052 C53.3996752,10.353052 53.447866,10.4012428 53.4960568,10.4494336 C53.5442476,10.4976244 53.6406291,10.5458151 53.6888199,10.5940059 C53.7370107,10.6421967 53.7852015,10.6421967 53.8333923,10.6903875 C53.8883076,10.7499137 53.953634,10.7989085 54.0261554,10.8349598 C54.122537,10.8831506 54.1707278,10.9795322 54.2671093,11.027723 L54.6526356,11.4132493 C54.7490172,11.5578216 54.8935895,11.702394 54.9899711,11.8469663 C55.0381619,11.9433479 55.0863526,11.9915387 55.1345434,12.0879202 C55.1345434,12.136111 55.1827342,12.136111 55.1827342,12.1843018 C55.5682605,13.0035451 55.8092144,13.8709792 55.7610236,14.7866041 C55.7128328,16.3287092 55.1345434,18.0153866 54.0743462,19.4129194 M63.5679306,5.29301971 L63.2787859,7.31703263 L62.7486873,10.7867691 L61.3993453,19.3647286 C61.3993453,19.4611102 61.3511545,19.5574917 61.3511545,19.6538733 L61.3511545,19.9912088 C61.3511545,20.0393996 61.3993453,20.0875903 61.3993453,20.1357811 L61.3993453,20.1839719 C61.3993453,20.2321627 61.4475361,20.2803535 61.4957269,20.3285443 L61.68849,20.5213074 C61.8812532,20.6658797 62.1222071,20.7140705 62.363161,20.7140705 C62.1703979,21.0032152 61.9294439,21.2441692 61.6402992,21.3887415 C61.5921085,21.3887415 61.5921085,21.4369323 61.5439177,21.4369323 C61.4957269,21.4851231 61.3993453,21.5333139 61.3511545,21.5815046 C61.3029638,21.6296954 61.254773,21.6296954 61.2065822,21.6296954 C61.1583914,21.6778862 61.0620098,21.6778862 61.0138191,21.726077 C60.9174375,21.7742678 60.7728651,21.8224586 60.6282928,21.8706493 C60.580102,21.8706493 60.5319112,21.9188401 60.4355297,21.9188401 C60.3391481,21.9670309 60.2427665,21.9670309 60.1463849,21.9670309 C60.0981942,21.9670309 60.0500034,21.9670309 59.9536218,22.0152217 C59.8572402,22.0152217 59.7608587,22.0634125 59.6162863,22.0634125 L58.1705628,22.0634125 C58.122372,22.0634125 58.0741812,22.0634125 58.0741812,22.0152217 C58.0259905,22.0152217 58.0259905,22.0152217 57.9777997,21.9670309 C57.9296089,21.9670309 57.8814181,21.9188401 57.8814181,21.9188401 C57.8814181,21.9188401 57.8332273,21.9188401 57.8332273,21.8706493 C57.7850365,21.8706493 57.7368458,21.8224586 57.688655,21.8224586 L57.6404642,21.8224586 C57.4477011,21.726077 57.2549379,21.5815046 57.1103656,21.3887415 L57.1103656,21.3405507 C57.0621748,21.2923599 57.0621748,21.2441692 57.013984,21.1959784 C57.013984,21.1959784 57.013984,21.1477876 56.9657932,21.1477876 C56.9176024,21.0995968 56.9176024,21.051406 56.9176024,21.0032152 L56.9176024,20.9550245 C56.9176024,20.9068337 56.8694116,20.8586429 56.8694116,20.7622613 L56.8694116,20.7140705 C56.8694116,20.6658797 56.8212209,20.5694982 56.8212209,20.5213074 L56.8212209,20.2321627 C56.8212209,19.9912088 56.8212209,19.7984456 56.8694116,19.5574917 L58.8452338,7.26884184 C58.8934246,7.12426949 58.8934246,6.97969714 58.8934246,6.78693401 C58.9898061,6.2086446 59.0379969,5.67854598 59.0861877,5.10025657 L59.0861877,3.70272384 C59.1825693,3.70272384 59.2307601,3.65453306 59.3271416,3.65453306 C59.4235232,3.65453306 59.5199048,3.60634227 59.6162863,3.60634227 C59.7608587,3.55815149 59.9536218,3.55815149 60.1463849,3.50996071 C60.2427665,3.50996071 60.3391481,3.50996071 60.4355297,3.46176992 C60.7246744,3.41357914 61.0138191,3.41357914 61.3511545,3.36538835 C61.5921085,3.36538835 61.7848716,3.31719757 62.0258255,3.31719757 C62.6041149,3.26900679 63.2305951,3.26900679 63.8088845,3.26900679 C63.8088845,3.65453306 63.7606937,4.1364409 63.7606937,4.61834873 C63.6161214,4.95568422 63.5679306,5.14844736 63.5679306,5.29301971 M76.7240146,20.7622613 C76.1457252,21.6296954 74.8927648,22.2079848 73.3988505,22.2079848 L72.9169427,22.2079848 C72.7723703,22.2079848 72.627798,22.159794 72.4832256,22.1116033 L72.0495086,21.9670309 C71.3748376,21.6778862 70.9893113,21.0032152 71.1820744,19.7020641 L71.2302652,19.4611102 C71.1820744,19.6056825 71.0856929,19.7020641 70.9893113,19.8466364 C70.844739,20.0875903 70.6519758,20.3285443 70.5074035,20.5213074 C70.3146403,20.7140705 70.1218772,20.9068337 69.9291141,21.051406 C69.8327325,21.1477876 69.7363509,21.1959784 69.6399694,21.2923599 C69.4422702,21.4381307 69.2327112,21.5670901 69.0134892,21.6778862 C68.6279629,21.8706493 68.1942458,22.0634125 67.7605288,22.159794 C67.5677657,22.2079848 67.3750025,22.2561756 67.1822394,22.2561756 C66.9894763,22.2561756 66.8449039,22.3043664 66.6521408,22.3043664 L66.2184237,22.3043664 C66.1702329,22.3043664 66.0738514,22.3043664 66.0256606,22.2561756 C65.9774698,22.2561756 65.929279,22.2561756 65.8810882,22.2079848 C65.8328974,22.2079848 65.7847067,22.159794 65.7365159,22.159794 C65.6883251,22.159794 65.6401343,22.1116033 65.5919435,22.1116033 C65.5919435,22.1116033 65.5437527,22.1116033 65.5437527,22.0634125 C64.4353647,21.5815046 64.0980292,20.2803535 64.3871739,18.5454853 L65.1582265,13.6300253 C65.1582265,13.485453 65.2064172,13.3408806 65.2064172,13.244499 L65.2064172,13.0999267 C65.2064172,13.0035451 65.2064172,12.9553543 65.254608,12.8589728 L65.254608,12.4734465 C65.3027988,12.1843018 65.3027988,11.9433479 65.3027988,11.6542032 L65.3027988,10.8831506 C65.3027988,10.5940059 65.3027988,10.353052 65.254608,10.0157165 C65.3027988,10.0157165 65.3509896,9.96752574 65.4473712,9.96752574 C65.495562,9.96752574 65.5437527,9.96752574 65.6401343,9.91933495 L70.0254956,9.91933495 C70.0736864,10.9795322 69.8327325,12.4252557 69.6399694,13.7745977 L68.9652984,17.9190051 C68.9652984,18.0153866 68.8689168,18.7382484 68.8689168,18.9310115 C68.8689168,19.1237747 68.8689168,19.3647286 68.9171076,19.5574917 C68.9171076,19.6538733 68.9652984,19.7502549 69.0134892,19.8948272 C69.06168,19.943018 69.1098707,20.0393996 69.1580615,20.0393996 L69.2062523,20.0393996 C69.3508247,20.0393996 69.5917786,19.8948272 69.8809233,19.6056825 C70.3146403,19.1719654 70.6519758,18.6418668 70.9411205,18.1117682 C71.0375021,17.8708143 71.1820744,17.6780512 71.278456,17.3889064 C71.3748376,17.1479525 71.4712191,16.8588078 71.5676007,16.6178539 C71.6157915,16.4732816 71.6639823,16.3287092 71.6639823,16.1841369 L72.0013178,13.8227884 C72.0495086,13.485453 72.0976993,13.1963083 72.1458901,12.9071636 L72.2904625,11.5578216 C72.3386533,11.1241045 72.386844,10.6421967 72.386844,10.1120981 C72.9651334,10.0639073 75.2301003,9.7747626 76.9649685,9.82295339 C76.9167777,11.1241045 76.7722054,12.4252557 76.5312514,13.7264069 L75.6156266,19.5093009 C75.6156266,20.3285443 76.0011528,20.7622613 76.7240146,20.7622613 M79.4226985,19.2201562 C79.4226985,18.9310115 79.4226985,18.6418668 79.4708893,18.4009129 L80.4347049,12.3770649 C80.2419418,12.3770649 80.1455602,12.4252557 80.0491787,12.4252557 C79.8082247,12.4734465 79.7118432,12.4734465 79.6154616,12.5216373 C79.4708893,12.5698281 79.2781261,12.5698281 79.1335538,12.6180188 C78.988959,11.7566105 78.988959,10.8771249 79.1335538,10.0157165 C79.3263169,10.0157165 79.51908,10.0157165 79.8082247,9.96752574 L80.9648036,9.96752574 C81.302139,9.05190085 81.8322377,8.2808483 82.0250008,7.22065106 C82.3141455,7.17246028 82.6996718,7.12426949 83.085198,7.07607871 C83.2779612,7.07607871 83.3743428,7.02788792 83.5189151,7.02788792 C83.6634875,7.02788792 83.8080598,7.02788792 84.0008229,6.97969714 C84.4827308,6.93150636 85.0128294,6.93150636 85.6393096,6.93150636 C85.5911188,7.75074968 85.4947372,8.76275614 85.3501649,9.96752574 L86.217599,9.96752574 C87.5669409,9.96752574 88.0970396,9.82295339 88.5307566,9.4856179 C88.7717105,9.91933495 88.9162829,10.4012428 88.9162829,10.8831506 C88.9162829,11.5578216 88.7235198,11.9915387 86.6031253,12.0397294 L85.0128294,12.0397294 L84.0490137,18.0635774 L84.0490137,18.4491037 C84.0490137,19.268347 84.43454,19.943018 85.0610202,19.943018 C86.0730266,19.943018 86.3139806,19.1719654 86.6995068,19.1719654 C87.6151317,19.3165378 88.1452304,19.8466364 88.1452304,19.8466364 C87.4705594,21.1477876 85.7356912,22.3525572 83.9044414,22.3525572 C81.1093759,22.3043664 79.51908,21.051406 79.4226985,19.2201562 L79.4226985,19.2201562 Z" id="Shape"></path>
        </g>
    </g>
</svg>