<?xml version="1.0" encoding="UTF-8"?>
<svg width="52px" height="32px" viewBox="0 0 52 32" version="1.1" xmlns="http://www.w3.org/2000/svg" xmlns:xlink="http://www.w3.org/1999/xlink">
    <!-- Generator: Sketch 57.1 (83088) - https://sketch.com -->
    <title>logo_ring</title>
    <desc>Created with Sketch.</desc>
    <g id="Page-1" stroke="none" stroke-width="1" fill="none" fill-rule="evenodd" opacity="0.900000036">
        <g id="logo_ring" transform="translate(0.488176, -0.218641)" fill="#364962" fill-rule="nonzero">
            <circle id="circle64" cx="14.9150808" cy="2.0121757" r="1.75119598"></circle>
            <g id="g74" transform="translate(0.002512, 6.002606)">
                <path d="M47.0474067,0.7725097 C48.6461486,1.43693689 49.9166894,2.70747769 50.5811166,4.30621961 C50.9316066,5.12677767 51.1092884,6.01074482 51.1030826,6.90300053 L51.1030826,19.4484537 L51.1135219,19.4484537 C51.1225132,20.3451915 50.9447547,21.233984 50.5915559,22.0582837 C49.9173641,23.6495441 48.6457279,24.9127465 47.0500165,25.5763347 C46.229414,25.9266814 45.3454769,26.1043572 44.4532356,26.0984505 C43.9483555,26.0955633 43.444924,26.0439965 42.9499734,25.9443207 C42.4145125,25.8404572 41.8901741,25.6857774 41.3840754,25.4823808 C40.8765399,25.2803675 40.3954183,25.0174596 39.9512787,24.6994318 C39.5299496,24.4026339 39.1656868,24.0321821 38.8760287,23.605913 C38.7591458,23.4348372 38.6997331,23.2310059 38.7063898,23.0239209 C38.6989661,22.7433327 38.8177307,22.4741966 39.0300087,22.2905586 C39.2281246,22.1029839 39.4905447,21.9983894 39.7633709,21.9982577 C39.9092976,22.0002251 40.0535727,22.0294342 40.1887732,22.084382 C40.3558169,22.1570811 40.4942993,22.2827239 40.5828576,22.4419288 C40.5844361,22.4682287 40.5966925,22.4927416 40.6167854,22.5097843 L40.7524965,22.6481053 C41.2106709,23.1504162 41.7944201,23.5215654 42.4436664,23.7233553 C43.0879392,23.9361583 43.761687,24.0462478 44.4401864,24.0495841 C45.0562051,24.0536852 45.6664895,23.9310954 46.2331397,23.6894275 C47.3404213,23.2197464 48.2219185,22.3382492 48.6915996,21.2309676 C48.9367021,20.6686057 49.0637268,20.061907 49.0648053,19.4484537 L49.0648053,17.0996066 C48.4600466,17.6768561 47.7516679,18.1346459 46.9769412,18.4488888 C46.1759671,18.7797936 45.3172541,18.9483426 44.4506257,18.9447565 C43.5538664,18.953977 42.6650271,18.7762091 41.8407957,18.4227905 C40.2569187,17.749728 38.9958072,16.4886165 38.3227447,14.9047395 C37.9690321,14.0805994 37.7912517,13.1916975 37.8007787,12.2949095 L37.8007787,6.90561036 C37.7941235,6.01331157 37.9718236,5.1292536 38.3227447,4.30882944 C38.6547831,3.51805516 39.1359127,2.79857591 39.7398825,2.18964743 C40.3411099,1.59088077 41.0493077,1.11019151 41.8277465,0.7725097 C43.4954733,0.0638485026 45.3796799,0.0638485026 47.0474067,0.7725097 Z M6.23488403,0.237494536 C7.00684539,0.250805284 7.77031703,0.401025398 8.48977721,0.681165648 C9.23096965,0.94329439 9.90670305,1.36262302 10.4706382,1.91039561 C10.6803201,2.0946037 10.8049165,2.35701145 10.8151434,2.63592837 C10.8162042,2.90746737 10.704708,3.16731033 10.5071759,3.35363164 C10.3085376,3.5527377 10.036692,3.66128715 9.7555448,3.6537621 C9.48594072,3.6457135 9.22943714,3.53565014 9.03784153,3.34580215 L9.00391374,3.31187436 C8.98376937,3.29147606 8.96094113,3.27391587 8.93605816,3.25967776 C8.90979382,3.2463778 8.88596911,3.22872987 8.86559274,3.20748115 C8.12591012,2.60042498 7.19422974,2.2766036 6.23749386,2.29404063 C5.00739396,2.29404063 4.04523661,2.71509322 3.35102181,3.55719838 C2.65680701,4.39930355 2.30882967,5.59460572 2.30708978,7.1431049 L2.30708978,18.2531515 C2.32841388,18.5467489 2.20815064,18.832859 1.98347085,19.0230514 C1.78737501,19.1880607 1.54029288,19.2802556 1.28403639,19.2840344 C1.0277799,19.2802556 0.78069778,19.1880607 0.584601935,19.0230514 C0.359569491,18.833118 0.239227103,18.5468196 0.260983007,18.2531515 L0.260983007,7.1431049 C0.254076086,6.2360736 0.380704849,5.33296429 0.636798537,4.46280942 C0.868588783,3.66891745 1.25140313,2.92721465 1.76424513,2.27838165 C2.26505114,1.6471928 2.90088794,1.13620474 3.62505397,0.782949021 C4.44145865,0.402799714 5.33456515,0.216140456 6.23488403,0.237494536 Z M15.6120035,0.840365282 C15.8042858,1.00360757 15.9200538,1.23699429 15.9360477,1.48518962 L15.9356224,18.2531515 C15.9569465,18.5467489 15.8366833,18.832859 15.6120035,19.0230514 C15.2077944,19.3660262 14.6147338,19.3660262 14.2105247,19.0230514 C13.9854923,18.833118 13.8651499,18.5468196 13.8869058,18.2531515 L13.8869058,1.61026515 C13.8655817,1.31666777 13.9858449,1.03055764 14.2105247,0.840365282 C14.6151296,0.498470356 15.2073986,0.498470356 15.6120035,0.840365282 Z M29.6267909,0.7725097 C31.2253714,1.43717816 32.4958324,2.70763911 33.1605009,4.30621961 C33.5109909,5.12677767 33.6886727,6.01074482 33.6824669,6.90300053 L33.6981259,18.2531515 C33.7188147,18.5471967 33.5975475,18.8333873 33.3718971,19.0230514 C32.9681345,19.3645523 32.3767908,19.3645523 31.9730282,19.0230514 C31.7801432,18.8602514 31.6641734,18.6266525 31.6486761,18.3782986 L31.6494092,6.90561036 C31.6536594,6.2895774 31.5310635,5.67926299 31.2892527,5.11265711 C30.8195716,4.00537547 29.9380744,3.1238783 28.8307928,2.65419718 C27.6832563,2.17630818 26.3924227,2.17630818 25.2448863,2.65419718 C24.1377604,3.1241093 23.2563384,4.00553126 22.7864263,5.11265711 C22.5460095,5.67960653 22.4243242,6.28980913 22.4288796,6.90561036 L22.4288796,18.2531515 C22.4506355,18.5468196 22.3302931,18.833118 22.1052607,19.0230514 C21.7010516,19.3660262 21.107991,19.3660262 20.7037819,19.0230514 C20.4787495,18.833118 20.3584071,18.5468196 20.380163,18.2531515 L20.380163,6.90561036 C20.3735078,6.01331157 20.5512079,5.1292536 20.902129,4.30882944 C21.2345691,3.51827134 21.7156502,2.79886465 22.3192667,2.18964743 C22.9204942,1.59088077 23.628692,1.11019151 24.4071308,0.7725097 C26.0748575,0.0638485026 27.9590642,0.0638485026 29.6267909,0.7725097 Z M42.6602823,2.65419718 C41.5498612,3.12149389 40.6645577,4.00211809 40.1913831,5.11004728 C39.9513904,5.67712735 39.8297228,6.28724135 39.8338363,6.90300053 L39.8338363,12.2662013 C39.8278632,12.8863558 39.9495694,13.5011054 40.1913831,14.0722037 C40.4246393,14.6210686 40.76134,15.1199173 41.1831185,15.5415381 C41.6042131,15.9632968 42.103236,16.2992288 42.6524528,16.5306637 C43.7999893,17.0085527 45.0908229,17.0085527 46.2383593,16.5306637 C47.345641,16.0609825 48.2271381,15.1794854 48.6968193,14.0722037 C48.9431524,13.5021592 49.0684584,12.8871823 49.0648053,12.2662013 L49.0648053,6.90561036 C49.0690554,6.2895774 48.9464595,5.67926299 48.7046487,5.11265711 C48.2349676,4.00537547 47.3534705,3.1238783 46.2461888,2.65419718 C45.0986524,2.17630818 43.8078188,2.17630818 42.6602823,2.65419718 Z" id="Combined-Shape"></path>
            </g>
        </g>
    </g>
</svg>