<?xml version="1.0" encoding="UTF-8"?>
<svg width="74px" height="49px" viewBox="0 0 74 49" version="1.1" xmlns="http://www.w3.org/2000/svg" xmlns:xlink="http://www.w3.org/1999/xlink">
    <!-- Generator: Sketch Private 58 (84659) - https://sketch.com -->
    <title>qualitative_survey_icon</title>
    <desc>Created with Sketch Private.</desc>
    <g id="Feature-page" stroke="none" stroke-width="1" fill="none" fill-rule="evenodd">
        <g id="FEATURE-PAGE---step-1" transform="translate(-825.000000, -1831.000000)">
            <g id="qualitative_survey_icon" transform="translate(826.000000, 1832.000000)">
                <g id="message-square" transform="translate(19.000000, 19.000000) scale(-1, 1) translate(-19.000000, -19.000000) " stroke="#364962" stroke-linecap="round" stroke-linejoin="round" stroke-width="1.5">
                    <path d="M38,25.3333333 C38,27.6652023 36.1096467,29.5555556 33.7777778,29.5555556 L8.44444444,29.5555556 L0,38 L0,4.22222222 C0,1.89035328 1.89035328,0 4.22222222,0 L33.7777778,0 C36.1096467,0 38,1.89035328 38,4.22222222 L38,25.3333333 Z" id="Path"></path>
                </g>
                <g id="message-square" transform="translate(31.000000, 9.000000)" fill="#4BCD88" fill-rule="nonzero">
                    <path d="M38,25.3333333 C38,27.6652023 36.1096467,29.5555556 33.7777778,29.5555556 L8.44444444,29.5555556 L0,38 L0,4.22222222 C0,1.89035328 1.89035328,0 4.22222222,0 L33.7777778,0 C36.1096467,0 38,1.89035328 38,4.22222222 L38,25.3333333 Z" id="Path"></path>
                </g>
                <g id="message-square" transform="translate(34.000000, 9.000000)" stroke="#364962" stroke-linecap="round" stroke-linejoin="round" stroke-width="1.5">
                    <path d="M38,25.3333333 C38,27.6652023 36.1096467,29.5555556 33.7777778,29.5555556 L8.44444444,29.5555556 L0,38 L0,4.22222222 C0,1.89035328 1.89035328,0 4.22222222,0 L33.7777778,0 C36.1096467,0 38,1.89035328 38,4.22222222 L38,25.3333333 Z" id="Path"></path>
                </g>
                <g id="Group-20" transform="translate(14.000000, 6.000000)" stroke="#364962" stroke-linecap="round" stroke-width="1.5">
                    <path d="M4.5,14.5 L4.5,15.5" id="Line"></path>
                    <path d="M-5.68434189e-14,3.47215369 C0.799346708,1.08212367 3.12104155,-0.353045704 5.49517565,0.0752784032 C7.86930975,0.50360251 9.60358309,2.67052034 9.6,5.20411526 C9.6,8.66803842 4.66003161,10.4 4.66003161,10.4" id="Path" stroke-linejoin="round"></path>
                </g>
                <g id="help-circle" transform="translate(14.000000, 4.000000)" stroke="#000000" stroke-linecap="round" stroke-linejoin="round" stroke-width="1.6">
                    <path d="M8.8,0.8 L8.8,0.8" id="Path"></path>
                </g>
                <g id="Group-19" transform="translate(53.000000, 16.000000)" stroke="#364962" stroke-linecap="round" stroke-width="1.5">
                    <path d="M0.5,12 L0.5,13" id="Line"></path>
                    <path d="M0.5,0 L0.5,9" id="Line"></path>
                </g>
            </g>
        </g>
    </g>
</svg>