<svg xmlns="http://www.w3.org/2000/svg" xmlns:xlink="http://www.w3.org/1999/xlink" width="255" height="270" viewBox="0 0 255 270"><title>illu-Unlimited Collaborators</title><defs><path id="a" d="M4 0h92a4 4 0 0 1 4 4v102a4 4 0 0 1-4 4H4a4 4 0 0 1-4-4V4a4 4 0 0 1 4-4z"/><mask id="b" width="100" height="110" x="0" y="0" fill="#fff" maskContentUnits="userSpaceOnUse" maskUnits="objectBoundingBox"><use xlink:href="#a"/></mask><filter id="c" width="178%" height="170.9%" x="-39%" y="-35.5%" filterUnits="objectBoundingBox"><feOffset dy="8" in="SourceAlpha" result="shadowOffsetOuter1"/><feGaussianBlur in="shadowOffsetOuter1" result="shadowBlurOuter1" stdDeviation="6"/><feColorMatrix in="shadowBlurOuter1" result="shadowMatrixOuter1" values="0 0 0 0 0 0 0 0 0 0 0 0 0 0 0 0 0 0 0.04 0"/><feMerge><feMergeNode in="shadowMatrixOuter1"/><feMergeNode in="SourceGraphic"/></feMerge></filter></defs><g fill="none" fill-rule="evenodd"><path fill="#FFF" d="M4 0h92a4 4 0 0 1 4 4v102a4 4 0 0 1-4 4H4a4 4 0 0 1-4-4V4a4 4 0 0 1 4-4z"/><path fill="#2C3F58" fill-rule="nonzero" d="M14.38 93h-1.32l3.684-8.496h1.08L21.472 93h-1.344l-.864-2.088h-4.032L14.38 93zm1.272-3.132h3.18l-1.584-3.984-1.596 3.984zM26.958 92.1c-.217.344-.51.606-.882.786-.373.18-.762.27-1.17.27-.44 0-.836-.078-1.188-.234a2.66 2.66 0 0 1-.9-.642 2.9 2.9 0 0 1-.577-.96 3.365 3.365 0 0 1-.203-1.176c0-.416.067-.806.203-1.17a2.86 2.86 0 0 1 .582-.954c.253-.272.554-.484.907-.636.352-.152.74-.228 1.163-.228.465 0 .868.098 1.212.294.345.196.616.434.817.714h.023v-4.236h1.128V93h-1.091v-.9h-.024zm-3.744-1.956c0 .264.04.52.12.768.08.248.2.468.36.66.16.192.355.346.588.462.232.116.503.174.816.174.288 0 .55-.056.786-.168.236-.112.437-.262.605-.45a2.03 2.03 0 0 0 .39-.654c.093-.248.138-.508.138-.78s-.045-.532-.137-.78a2.103 2.103 0 0 0-.39-.66 1.81 1.81 0 0 0-1.392-.624c-.313 0-.584.056-.816.168a1.74 1.74 0 0 0-.588.456 1.96 1.96 0 0 0-.36.66c-.08.248-.12.504-.12.768zm7.849-1.896c.144-.304.374-.562.69-.774.316-.212.69-.318 1.122-.318.384 0 .73.088 1.038.264.308.176.55.468.726.876.192-.368.46-.65.804-.846a2.24 2.24 0 0 1 1.128-.294c.368 0 .684.062.948.186a1.92 1.92 0 0 1 1.05 1.23c.084.28.126.58.126.9V93h-1.128v-3.156c0-.232-.02-.452-.06-.66a1.68 1.68 0 0 0-.204-.552 1.103 1.103 0 0 0-.384-.384c-.16-.096-.364-.144-.612-.144a1.281 1.281 0 0 0-1.11.582c-.116.172-.2.366-.252.582a2.81 2.81 0 0 0-.078.66V93h-1.128v-3.384c0-.224-.02-.428-.06-.612a1.245 1.245 0 0 0-.204-.474 1.01 1.01 0 0 0-.372-.312 1.254 1.254 0 0 0-.564-.114c-.416 0-.762.17-1.038.51-.276.34-.414.794-.414 1.362V93h-1.128v-4.464a18.354 18.354 0 0 0-.048-1.224h1.068a10.453 10.453 0 0 1 .048.936h.036zM41.661 93h-1.129v-5.688h1.129V93zm.191-7.74a.67.67 0 0 1-.221.516.761.761 0 0 1-.535.204.729.729 0 0 1-.527-.21.685.685 0 0 1-.217-.51c0-.208.072-.382.217-.522.144-.14.32-.21.527-.21a.75.75 0 0 1 .535.21.69.69 0 0 1 .221.522zm2.714 2.052a10.453 10.453 0 0 1 .048.936h.036c.072-.152.17-.294.294-.426a2.13 2.13 0 0 1 1.554-.666c.368 0 .684.062.948.186a1.92 1.92 0 0 1 1.05 1.23c.084.28.126.58.126.9V93h-1.128v-3.156c0-.232-.018-.452-.054-.66a1.59 1.59 0 0 0-.198-.552 1.074 1.074 0 0 0-.396-.384c-.168-.096-.384-.144-.648-.144-.448 0-.814.17-1.098.51-.284.34-.426.794-.426 1.362V93h-1.128v-4.464a18.354 18.354 0 0 0-.048-1.224h1.068zM51.587 93H50.46v-5.688h1.128V93zm.192-7.74a.67.67 0 0 1-.222.516.761.761 0 0 1-.534.204.729.729 0 0 1-.528-.21.685.685 0 0 1-.215-.51.729.729 0 0 1 .744-.732.75.75 0 0 1 .533.21.69.69 0 0 1 .222.522zm4.766 3.492a1.55 1.55 0 0 0-1.32-.708c-.128 0-.256.014-.384.042a1.128 1.128 0 0 0-.342.132.73.73 0 0 0-.24.228.613.613 0 0 0-.09.342c0 .24.108.418.324.534.216.116.54.222.972.318.272.064.524.14.756.228.232.088.434.198.606.33s.306.29.402.474c.096.184.144.4.144.648 0 .336-.064.62-.192.852a1.666 1.666 0 0 1-.51.57 2.091 2.091 0 0 1-.726.318 3.655 3.655 0 0 1-.84.096c-.432 0-.854-.084-1.266-.252a2.478 2.478 0 0 1-1.026-.768l.804-.684c.152.224.362.412.63.564.268.152.562.228.882.228.144 0 .282-.014.414-.042.132-.028.252-.074.36-.138a.741.741 0 0 0 .258-.252.745.745 0 0 0 .096-.396c0-.264-.126-.46-.378-.588-.252-.128-.622-.248-1.11-.36a6.83 6.83 0 0 1-.582-.174 1.947 1.947 0 0 1-.534-.282c-.16-.12-.29-.27-.39-.45-.1-.18-.15-.402-.15-.666 0-.304.062-.566.186-.786.124-.22.286-.4.486-.54s.428-.244.684-.312a3.072 3.072 0 0 1 1.974.138c.38.16.674.392.882.696l-.78.66zm4.957-.516H59.99V91.2c0 .344.064.59.192.738.129.148.332.222.612.222.105 0 .216-.012.337-.036.12-.024.227-.06.324-.108l.035.924a3.026 3.026 0 0 1-.96.156c-.536 0-.945-.148-1.23-.444-.284-.296-.425-.74-.425-1.332v-3.084h-1.093v-.924h1.093V85.68h1.115v1.632h1.512v.924zm1.082.3a18.354 18.354 0 0 0-.048-1.224h1.068a11.286 11.286 0 0 1 .048.96h.036c.16-.336.394-.606.702-.81a1.838 1.838 0 0 1 1.038-.306c.176 0 .324.016.444.048l-.048 1.044c-.16-.04-.332-.06-.516-.06-.272 0-.508.05-.708.15-.2.1-.366.234-.498.402a1.7 1.7 0 0 0-.294.582c-.064.22-.096.45-.096.69V93h-1.128v-4.464zm7.645.78c0-.424-.127-.738-.383-.942-.257-.204-.596-.306-1.02-.306-.32 0-.622.062-.906.186a2.294 2.294 0 0 0-.715.474l-.6-.72a3.03 3.03 0 0 1 1.026-.624 3.667 3.667 0 0 1 1.302-.228c.409 0 .762.058 1.063.174.3.116.545.274.738.474.192.2.335.436.431.708.097.272.144.564.144.876v2.484c0 .192.006.394.019.606.012.212.033.386.066.522h-1.02a3.552 3.552 0 0 1-.096-.816h-.037c-.208.304-.47.54-.785.708-.317.168-.69.252-1.123.252-.224 0-.457-.03-.701-.09a2.04 2.04 0 0 1-.666-.294 1.66 1.66 0 0 1-.498-.54c-.133-.224-.199-.5-.199-.828 0-.432.116-.774.349-1.026.232-.252.535-.444.912-.576a5.15 5.15 0 0 1 1.272-.258c.472-.04.947-.06 1.427-.06v-.156zm-.275.972c-.28 0-.57.012-.87.036-.3.024-.572.072-.817.144-.244.072-.445.18-.605.324a.737.737 0 0 0-.24.576c0 .168.033.308.102.42a.847.847 0 0 0 .27.276c.112.072.235.122.371.15.137.028.276.042.42.042.529 0 .934-.158 1.219-.474.284-.316.425-.714.425-1.194v-.3h-.275zm5.821-2.052h-1.512V91.2c0 .344.064.59.192.738.128.148.332.222.612.222.104 0 .216-.012.336-.036.12-.024.228-.06.324-.108l.036.924a3.026 3.026 0 0 1-.96.156c-.536 0-.946-.148-1.23-.444-.284-.296-.426-.74-.426-1.332v-3.084h-1.092v-.924h1.092V85.68h1.116v1.632h1.512v.924zm6.841 1.908c0 .44-.077.844-.234 1.212a2.88 2.88 0 0 1-.648.954 2.924 2.924 0 0 1-.977.624 3.28 3.28 0 0 1-1.213.222 3.28 3.28 0 0 1-1.212-.222 2.858 2.858 0 0 1-.971-.624 2.927 2.927 0 0 1-.642-.954 3.074 3.074 0 0 1-.234-1.212c0-.44.077-.842.234-1.206.156-.364.37-.678.642-.942.272-.264.595-.47.971-.618a3.28 3.28 0 0 1 1.213-.222c.432 0 .835.074 1.212.222.376.148.701.354.977.618.277.264.492.578.648.942.157.364.234.766.234 1.206zm-1.175 0c0-.272-.042-.532-.127-.78a1.975 1.975 0 0 0-.365-.654 1.758 1.758 0 0 0-.594-.45 1.868 1.868 0 0 0-.81-.168c-.305 0-.574.056-.81.168a1.758 1.758 0 0 0-.594.45c-.16.188-.282.406-.367.654a2.415 2.415 0 0 0-.126.78c0 .272.042.532.127.78.084.248.205.468.365.66s.358.344.594.456c.237.112.506.168.81.168.305 0 .574-.056.81-.168.237-.112.434-.264.594-.456.16-.192.282-.412.367-.66.084-.248.126-.508.126-.78zm2.653-1.608a18.354 18.354 0 0 0-.048-1.224h1.068a11.286 11.286 0 0 1 .048.96h.036c.16-.336.394-.606.702-.81a1.838 1.838 0 0 1 1.038-.306c.176 0 .324.016.444.048l-.048 1.044c-.16-.04-.332-.06-.516-.06-.272 0-.508.05-.708.15-.2.1-.366.234-.498.402a1.7 1.7 0 0 0-.294.582c-.064.22-.096.45-.096.69V93h-1.128v-4.464z" opacity=".5"/><path fill="#2C3F58" fill-rule="nonzero" d="M38.36 71.128c0 .448-.05.917-.152 1.408-.101.49-.288.941-.56 1.352-.272.41-.65.75-1.136 1.016-.485.267-1.112.4-1.88.4-.96 0-1.76-.248-2.4-.744a3.544 3.544 0 0 1-1.28-1.912l2.416-.816c.075.299.21.539.408.72.197.181.44.272.728.272.448 0 .744-.155.888-.464.144-.31.216-.715.216-1.216v-7.472h2.752v7.456zm10.466-.144c0 .65-.117 1.24-.352 1.768a3.964 3.964 0 0 1-.96 1.344 4.395 4.395 0 0 1-1.408.856 4.779 4.779 0 0 1-1.712.304 4.799 4.799 0 0 1-1.704-.304 4.282 4.282 0 0 1-1.408-.856 4.018 4.018 0 0 1-.952-1.344 4.307 4.307 0 0 1-.352-1.768c0-.65.117-1.237.352-1.76.235-.523.552-.965.952-1.328.4-.363.87-.64 1.408-.832a5.037 5.037 0 0 1 1.704-.288c.608 0 1.179.096 1.712.288.533.192 1.003.47 1.408.832a3.9 3.9 0 0 1 .96 1.328c.235.523.352 1.11.352 1.76zm-2.528 0c0-.256-.043-.507-.128-.752a1.989 1.989 0 0 0-.368-.648 1.802 1.802 0 0 0-1.408-.632c-.31 0-.581.059-.816.176a1.78 1.78 0 0 0-.584.456 1.953 1.953 0 0 0-.352.648 2.411 2.411 0 0 0 0 1.504c.08.245.2.467.36.664.16.197.357.355.592.472.235.117.507.176.816.176.31 0 .581-.059.816-.176.235-.117.432-.275.592-.472.16-.197.28-.419.36-.664.08-.245.12-.496.12-.752zM55.628 75v-4.32c0-.224-.016-.437-.048-.64a1.518 1.518 0 0 0-.184-.536 1.035 1.035 0 0 0-.36-.368c-.15-.09-.341-.136-.576-.136-.459 0-.81.163-1.056.488-.245.325-.368.728-.368 1.208V75h-2.624V62.904h2.624v5.136h.032c.181-.32.47-.605.864-.856.395-.25.87-.376 1.424-.376.544 0 1 .096 1.368.288.368.192.667.44.896.744.23.304.395.653.496 1.048.101.395.152.79.152 1.184V75h-2.64zm9.746 0v-4.352c0-.224-.019-.437-.056-.64a1.764 1.764 0 0 0-.184-.536.954.954 0 0 0-.36-.368 1.14 1.14 0 0 0-.584-.136c-.235 0-.44.045-.616.136-.176.09-.323.216-.44.376-.117.16-.205.344-.264.552a2.376 2.376 0 0 0-.088.648V75h-2.64v-7.968h2.544v1.104h.032a2.63 2.63 0 0 1 .376-.504c.155-.165.336-.307.544-.424.208-.117.435-.213.68-.288.245-.075.507-.112.784-.112.533 0 .987.096 1.36.288.373.192.675.44.904.744.23.304.395.653.496 1.048.101.395.152.79.152 1.184V75h-2.64z"/><g transform="translate(31 14)"><circle cx="19" cy="19" r="19" fill="#1B55FF" opacity=".15"/><path fill="#225CFF" fill-rule="nonzero" d="M15.964 20.794c0 .364-.04.747-.119 1.148-.08.401-.226.775-.441 1.12-.215.345-.518.63-.91.854-.392.224-.896.336-1.512.336-.803 0-1.444-.2-1.925-.602-.48-.401-.81-.929-.987-1.582l1.624-.462c.084.327.238.586.462.777.224.191.49.287.798.287.252 0 .46-.047.623-.14a.946.946 0 0 0 .378-.399c.089-.173.152-.378.189-.616.037-.238.056-.497.056-.777v-6.65h1.764v6.706zm4.944-6.706h1.526L26.704 24h-2.016l-.924-2.268h-4.298L18.57 24h-1.974l4.312-9.912zm2.24 6.132l-1.526-4.032-1.554 4.032h3.08z"/></g><path fill="#FFF" d="M5 118h92a4 4 0 0 1 4 4v102a4 4 0 0 1-4 4H5a4 4 0 0 1-4-4V122a4 4 0 0 1 4-4z"/><path fill="#2C3F58" fill-rule="nonzero" d="M35.852 209.464h.036l2.556-6.96h1.284L36.392 211h-1.104l-3.312-8.496h1.32l2.556 6.96zM41.518 211h-1.129v-5.688h1.128V211zm.191-7.74a.67.67 0 0 1-.222.516.761.761 0 0 1-.534.204.729.729 0 0 1-.528-.21.685.685 0 0 1-.215-.51.729.729 0 0 1 .744-.732.75.75 0 0 1 .533.21.69.69 0 0 1 .222.522zm5.858 4.392a2.145 2.145 0 0 0-.114-.63 1.446 1.446 0 0 0-.3-.51 1.41 1.41 0 0 0-.492-.342 1.742 1.742 0 0 0-.69-.126 1.824 1.824 0 0 0-1.23.468 1.801 1.801 0 0 0-.384.51c-.1.196-.158.406-.174.63h3.384zm1.14.456v.192c0 .064-.004.128-.012.192h-4.512c.008.24.062.466.162.678.1.212.234.396.402.552a1.864 1.864 0 0 0 1.284.498c.384 0 .716-.084.996-.252.28-.168.5-.372.66-.612l.792.636c-.304.4-.662.694-1.074.882-.412.188-.87.282-1.374.282-.432 0-.832-.072-1.2-.216a2.773 2.773 0 0 1-.948-.606 2.809 2.809 0 0 1-.624-.942 3.177 3.177 0 0 1-.228-1.224c0-.44.074-.846.222-1.218.148-.372.354-.69.618-.954s.576-.47.936-.618c.36-.148.748-.222 1.164-.222.416 0 .794.068 1.134.204.34.136.628.332.864.588.236.256.418.566.546.93.128.364.192.774.192 1.23zm1.91-2.796l1.284 4.344h.023l1.357-4.344h1.188l1.38 4.344h.024l1.284-4.344h1.188L56.46 211h-1.176l-1.404-4.272h-.025L52.464 211H51.29l-1.897-5.688h1.224zm12.937 2.34a2.145 2.145 0 0 0-.114-.63 1.446 1.446 0 0 0-.3-.51 1.41 1.41 0 0 0-.492-.342 1.742 1.742 0 0 0-.69-.126 1.824 1.824 0 0 0-1.23.468 1.801 1.801 0 0 0-.384.51c-.1.196-.158.406-.174.63h3.384zm1.14.456v.192c0 .064-.004.128-.012.192H60.17c.008.24.062.466.162.678.1.212.234.396.402.552a1.864 1.864 0 0 0 1.284.498c.384 0 .716-.084.996-.252.28-.168.5-.372.66-.612l.792.636c-.304.4-.662.694-1.074.882-.412.188-.87.282-1.374.282-.432 0-.832-.072-1.2-.216a2.773 2.773 0 0 1-.948-.606 2.809 2.809 0 0 1-.624-.942 3.177 3.177 0 0 1-.228-1.224c0-.44.074-.846.222-1.218.148-.372.354-.69.618-.954s.576-.47.936-.618c.36-.148.748-.222 1.164-.222.416 0 .794.068 1.134.204.34.136.628.332.864.588.236.256.418.566.546.93.128.364.192.774.192 1.23zm1.49-1.572a18.354 18.354 0 0 0-.049-1.224h1.069a11.286 11.286 0 0 1 .048.96h.035c.16-.336.394-.606.703-.81a1.838 1.838 0 0 1 1.038-.306c.176 0 .323.016.444.048l-.048 1.044c-.16-.04-.332-.06-.517-.06-.272 0-.507.05-.707.15-.2.1-.366.234-.499.402a1.7 1.7 0 0 0-.293.582c-.065.22-.097.45-.097.69V211h-1.128v-4.464z" opacity=".5"/><path fill="#2C3F58" fill-rule="nonzero" d="M40.36 189.128c0 .448-.05.917-.152 1.408-.101.49-.288.941-.56 1.352-.272.41-.65.75-1.136 1.016-.485.267-1.112.4-1.88.4-.96 0-1.76-.248-2.4-.744a3.544 3.544 0 0 1-1.28-1.912l2.416-.816c.075.299.21.539.408.72.197.181.44.272.728.272.448 0 .744-.155.888-.464.144-.31.216-.715.216-1.216v-7.472h2.752v7.456zm6.626.4h-.336c-.288 0-.579.013-.872.04a3.587 3.587 0 0 0-.784.152 1.45 1.45 0 0 0-.568.328.753.753 0 0 0-.224.568c0 .15.035.277.104.384.07.107.157.192.264.256.107.064.23.11.368.136.139.027.272.04.4.04.533 0 .941-.147 1.224-.44.283-.293.424-.69.424-1.192v-.272zm-4.816-3.408a4.595 4.595 0 0 1 1.64-1.008 5.62 5.62 0 0 1 1.912-.336c.672 0 1.24.083 1.704.248.464.165.84.421 1.128.768.288.347.499.784.632 1.312s.2 1.155.2 1.88V193h-2.4v-.848h-.048c-.203.33-.51.587-.92.768a3.27 3.27 0 0 1-1.336.272c-.32 0-.65-.043-.992-.128a2.906 2.906 0 0 1-.936-.416 2.253 2.253 0 0 1-.696-.768c-.181-.32-.272-.715-.272-1.184 0-.576.157-1.04.472-1.392.315-.352.72-.624 1.216-.816a6.442 6.442 0 0 1 1.656-.384c.608-.064 1.2-.096 1.776-.096v-.128c0-.395-.139-.685-.416-.872-.277-.187-.619-.28-1.024-.28-.373 0-.733.08-1.08.24-.347.16-.643.352-.888.576l-1.328-1.424zM59.788 193H56.54l-2.608-3.824h-.048V193h-2.64v-12.096h2.64v7.36h.048l2.544-3.232h3.184l-3.072 3.6 3.2 4.368zm6.05-4.896c0-.416-.13-.773-.392-1.072-.261-.299-.653-.448-1.176-.448-.256 0-.49.04-.704.12-.213.08-.4.19-.56.328-.16.139-.288.301-.384.488-.096.187-.15.381-.16.584h3.376zm2.416 1.008v.32c0 .107-.005.208-.016.304h-5.776c.021.224.088.427.2.608.112.181.256.339.432.472.176.133.373.237.592.312.219.075.445.112.68.112.416 0 .768-.077 1.056-.232.288-.155.523-.355.704-.6l1.824 1.152a3.69 3.69 0 0 1-1.48 1.256c-.613.293-1.325.44-2.136.44a5.097 5.097 0 0 1-1.696-.28c-.533-.187-1-.459-1.4-.816a3.779 3.779 0 0 1-.944-1.32c-.23-.523-.344-1.12-.344-1.792 0-.65.112-1.24.336-1.768.224-.528.528-.976.912-1.344a4.066 4.066 0 0 1 1.36-.856 4.65 4.65 0 0 1 1.696-.304c.587 0 1.125.099 1.616.296.49.197.912.483 1.264.856s.627.827.824 1.36c.197.533.296 1.141.296 1.824z"/><g transform="translate(32 132)"><circle cx="19" cy="19" r="19" fill="#FFEFD3"/><path fill="#FFAE00" fill-rule="nonzero" d="M16.964 20.794c0 .364-.04.747-.119 1.148-.08.401-.226.775-.441 1.12-.215.345-.518.63-.91.854-.392.224-.896.336-1.512.336-.803 0-1.444-.2-1.925-.602-.48-.401-.81-.929-.987-1.582l1.624-.462c.084.327.238.586.462.777.224.191.49.287.798.287.252 0 .46-.047.623-.14a.946.946 0 0 0 .378-.399c.089-.173.152-.378.189-.616.037-.238.056-.497.056-.777v-6.65h1.764v6.706zm7.058-4.634c-.187-.243-.45-.446-.791-.609a2.36 2.36 0 0 0-1.645-.168c-.206.051-.392.13-.56.238a1.315 1.315 0 0 0-.413.42c-.108.173-.161.38-.161.623 0 .224.046.415.14.574.093.159.221.294.385.406.163.112.361.21.595.294.233.084.49.168.77.252.317.103.646.22.987.35.34.13.653.303.938.518.284.215.518.485.7.812.182.327.273.733.273 1.218 0 .532-.098.996-.294 1.393a2.874 2.874 0 0 1-.784.987c-.327.261-.71.457-1.148.588-.439.13-.9.196-1.386.196a5.203 5.203 0 0 1-1.89-.357 3.65 3.65 0 0 1-1.512-1.057l1.26-1.176c.242.336.567.602.973.798a2.74 2.74 0 0 0 1.197.294c.205 0 .415-.026.63-.077a1.68 1.68 0 0 0 .58-.259 1.45 1.45 0 0 0 .42-.455c.108-.182.162-.408.162-.679 0-.261-.06-.478-.182-.651a1.628 1.628 0 0 0-.49-.448 3.518 3.518 0 0 0-.728-.329l-.882-.294a8.738 8.738 0 0 1-.896-.336 2.971 2.971 0 0 1-.805-.518 2.503 2.503 0 0 1-.581-.791c-.15-.313-.224-.702-.224-1.169 0-.504.105-.938.315-1.302.21-.364.485-.665.826-.903.34-.238.728-.415 1.162-.532a5.075 5.075 0 0 1 1.323-.175c.504 0 1.015.089 1.533.266.518.177.968.443 1.35.798l-1.147 1.26z"/></g><path fill="#FFF" d="M112 0h92a4 4 0 0 1 4 4v102a4 4 0 0 1-4 4h-92a4 4 0 0 1-4-4V4a4 4 0 0 1 4-4z"/><path fill="#2C3F58" fill-rule="nonzero" d="M143.22 91.944h4.44V93h-5.628v-8.496h5.448v1.044h-4.26v2.544h4.008v1.02h-4.008v2.832zm10.417.156c-.216.344-.51.606-.881.786-.373.18-.762.27-1.17.27-.44 0-.836-.078-1.189-.234a2.66 2.66 0 0 1-.9-.642 2.9 2.9 0 0 1-.576-.96 3.365 3.365 0 0 1-.203-1.176c0-.416.067-.806.204-1.17a2.86 2.86 0 0 1 .582-.954c.252-.272.553-.484.906-.636.352-.152.74-.228 1.163-.228.465 0 .868.098 1.213.294.344.196.615.434.815.714h.024v-4.236h1.129V93h-1.093v-.9h-.024zm-3.744-1.956c0 .264.04.52.12.768.08.248.2.468.36.66.16.192.356.346.589.462.232.116.503.174.816.174.288 0 .55-.056.786-.168.236-.112.437-.262.606-.45a2.03 2.03 0 0 0 .39-.654c.091-.248.137-.508.137-.78s-.046-.532-.137-.78a2.103 2.103 0 0 0-.39-.66 1.81 1.81 0 0 0-1.392-.624c-.313 0-.584.056-.816.168a1.74 1.74 0 0 0-.588.456 1.96 1.96 0 0 0-.36.66c-.08.248-.12.504-.12.768zM157.78 93h-1.128v-5.688h1.128V93zm.192-7.74a.67.67 0 0 1-.222.516.761.761 0 0 1-.534.204.729.729 0 0 1-.528-.21.685.685 0 0 1-.216-.51.729.729 0 0 1 .744-.732.75.75 0 0 1 .534.21.69.69 0 0 1 .222.522zm4.477 2.976h-1.512V91.2c0 .344.064.59.192.738.129.148.332.222.613.222.104 0 .215-.012.335-.036.12-.024.228-.06.325-.108l.035.924a3.026 3.026 0 0 1-.96.156c-.536 0-.945-.148-1.23-.444-.284-.296-.425-.74-.425-1.332v-3.084h-1.093v-.924h1.093V85.68h1.115v1.632h1.512v.924zm6.842 1.908c0 .44-.078.844-.234 1.212a2.88 2.88 0 0 1-.648.954 2.924 2.924 0 0 1-.978.624 3.28 3.28 0 0 1-1.212.222 3.28 3.28 0 0 1-1.212-.222 2.858 2.858 0 0 1-.972-.624 2.927 2.927 0 0 1-.642-.954 3.074 3.074 0 0 1-.234-1.212c0-.44.078-.842.234-1.206.156-.364.37-.678.642-.942.272-.264.596-.47.972-.618a3.28 3.28 0 0 1 1.212-.222c.432 0 .836.074 1.212.222.376.148.702.354.978.618s.492.578.648.942c.156.364.234.766.234 1.206zm-1.176 0c0-.272-.042-.532-.126-.78a1.975 1.975 0 0 0-.366-.654 1.758 1.758 0 0 0-.594-.45 1.868 1.868 0 0 0-.81-.168c-.304 0-.574.056-.81.168a1.758 1.758 0 0 0-.594.45c-.16.188-.282.406-.366.654a2.415 2.415 0 0 0-.126.78c0 .272.042.532.126.78.084.248.206.468.366.66s.358.344.594.456c.236.112.506.168.81.168.304 0 .574-.056.81-.168.236-.112.434-.264.594-.456.16-.192.282-.412.366-.66.084-.248.126-.508.126-.78zm2.654-1.608a18.354 18.354 0 0 0-.048-1.224h1.067a11.286 11.286 0 0 1 .048.96h.036c.16-.336.394-.606.702-.81a1.838 1.838 0 0 1 1.038-.306c.177 0 .324.016.445.048l-.049 1.044c-.16-.04-.331-.06-.516-.06-.272 0-.507.05-.708.15-.2.1-.365.234-.497.402a1.7 1.7 0 0 0-.294.582c-.064.22-.096.45-.096.69V93h-1.128v-4.464z" opacity=".5"/><path fill="#2C3F58" fill-rule="nonzero" d="M143.848 75l-.88-2.224h-4.384L137.752 75h-2.976l4.752-11.328h2.656L146.888 75h-3.04zm-3.04-8.304l-1.44 3.888h2.848l-1.408-3.888zM147.61 75V62.904h2.656V75h-2.656zm7.474-10.512c0 .203-.04.392-.12.568-.08.176-.187.328-.32.456s-.293.23-.48.304a1.558 1.558 0 0 1-.584.112 1.47 1.47 0 0 1-1.072-.424 1.373 1.373 0 0 1-.432-1.016 1.4 1.4 0 0 1 .112-.552c.075-.176.181-.328.32-.456s.299-.232.48-.312a1.558 1.558 0 0 1 1.656.296c.133.128.24.28.32.456.08.176.12.365.12.568zM152.268 75v-7.968h2.624V75h-2.624zm9.282-5.616a2.923 2.923 0 0 0-.752-.512 2.076 2.076 0 0 0-.912-.208c-.245 0-.472.048-.68.144a.505.505 0 0 0-.312.496c0 .224.115.384.344.48.23.096.6.203 1.112.32.299.064.6.155.904.272.304.117.579.272.824.464s.443.427.592.704c.15.277.224.608.224.992 0 .501-.101.925-.304 1.272a2.492 2.492 0 0 1-.792.84c-.325.213-.69.368-1.096.464a5.26 5.26 0 0 1-1.216.144c-.65 0-1.288-.104-1.912-.312-.624-.208-1.144-.515-1.56-.92l1.472-1.552c.235.256.523.47.864.64a2.4 2.4 0 0 0 1.088.256c.213 0 .424-.05.632-.152.208-.101.312-.28.312-.536 0-.245-.128-.427-.384-.544-.256-.117-.656-.24-1.2-.368a6.2 6.2 0 0 1-.832-.256 2.641 2.641 0 0 1-.744-.432 2.149 2.149 0 0 1-.536-.672c-.139-.267-.208-.587-.208-.96 0-.48.101-.888.304-1.224.203-.336.464-.61.784-.824.32-.213.675-.37 1.064-.472a4.59 4.59 0 0 1 1.16-.152 5.6 5.6 0 0 1 1.752.28c.57.187 1.053.467 1.448.84l-1.44 1.488zM169.552 75v-4.32c0-.224-.016-.437-.048-.64a1.518 1.518 0 0 0-.184-.536 1.035 1.035 0 0 0-.36-.368c-.15-.09-.341-.136-.576-.136-.459 0-.81.163-1.056.488-.245.325-.368.728-.368 1.208V75h-2.624V62.904h2.624v5.136h.032c.181-.32.47-.605.864-.856.395-.25.87-.376 1.424-.376.544 0 1 .096 1.368.288.368.192.667.44.896.744.23.304.395.653.496 1.048.101.395.152.79.152 1.184V75h-2.64zm9.218-3.472h-.336c-.288 0-.579.013-.872.04a3.587 3.587 0 0 0-.784.152 1.45 1.45 0 0 0-.568.328.753.753 0 0 0-.224.568c0 .15.035.277.104.384.07.107.157.192.264.256.107.064.23.11.368.136.139.027.272.04.4.04.533 0 .941-.147 1.224-.44.283-.293.424-.69.424-1.192v-.272zm-4.816-3.408a4.595 4.595 0 0 1 1.64-1.008 5.62 5.62 0 0 1 1.912-.336c.672 0 1.24.083 1.704.248.464.165.84.421 1.128.768.288.347.499.784.632 1.312s.2 1.155.2 1.88V75h-2.4v-.848h-.048c-.203.33-.51.587-.92.768a3.27 3.27 0 0 1-1.336.272c-.32 0-.65-.043-.992-.128a2.906 2.906 0 0 1-.936-.416 2.253 2.253 0 0 1-.696-.768c-.181-.32-.272-.715-.272-1.184 0-.576.157-1.04.472-1.392.315-.352.72-.624 1.216-.816a6.442 6.442 0 0 1 1.656-.384c.608-.064 1.2-.096 1.776-.096v-.128c0-.395-.139-.685-.416-.872-.277-.187-.619-.28-1.024-.28-.373 0-.733.08-1.08.24-.347.16-.643.352-.888.576l-1.328-1.424z"/><g transform="translate(139 14)"><circle cx="19" cy="19" r="19" fill="#A3E7C2" opacity=".6"/><path fill="#2F905D" fill-rule="nonzero" d="M11.2 14.088h1.526L16.996 24H14.98l-.924-2.268H9.758L8.862 24H6.888l4.312-9.912zm2.24 6.132l-1.526-4.032-1.554 4.032h3.08zm4.44-6.132h2.758l2.576 7.042h.042l2.548-7.042h2.772V24h-1.75v-7.966h-.028L23.788 24h-1.232l-2.968-7.966h-.028V24h-1.68v-9.912z"/></g><use fill="#2C3F58" fill-opacity=".06" stroke="#979797" stroke-dasharray="5" stroke-width="2" mask="url(#b)" opacity=".5" transform="translate(109 118)" xlink:href="#a"/><g filter="url(#c)" transform="rotate(7 -985.115 1242.465)"><path fill="#FFF" d="M4 0h92a4 4 0 0 1 4 4v102a4 4 0 0 1-4 4H4a4 4 0 0 1-4-4V4a4 4 0 0 1 4-4z"/><path fill="#2C3F58" fill-rule="nonzero" d="M35.615 91.464h.036l2.556-6.96h1.285L36.156 93H35.05l-3.312-8.496h1.32l2.556 6.96zM41.281 93h-1.128v-5.688h1.128V93zm.192-7.74a.67.67 0 0 1-.222.516.761.761 0 0 1-.534.204.729.729 0 0 1-.528-.21.685.685 0 0 1-.216-.51.729.729 0 0 1 .744-.732.75.75 0 0 1 .534.21.69.69 0 0 1 .222.522zm5.858 4.392a2.145 2.145 0 0 0-.114-.63 1.446 1.446 0 0 0-.3-.51 1.41 1.41 0 0 0-.492-.342 1.742 1.742 0 0 0-.69-.126 1.824 1.824 0 0 0-1.23.468 1.801 1.801 0 0 0-.385.51c-.1.196-.157.406-.173.63h3.383zm1.14.456v.192c0 .064-.004.128-.012.192h-4.513c.009.24.062.466.163.678.1.212.233.396.401.552a1.864 1.864 0 0 0 1.285.498c.384 0 .715-.084.995-.252.28-.168.5-.372.66-.612l.792.636c-.304.4-.661.694-1.073.882-.413.188-.87.282-1.374.282-.433 0-.832-.072-1.2-.216a2.773 2.773 0 0 1-.948-.606 2.809 2.809 0 0 1-.624-.942 3.177 3.177 0 0 1-.229-1.224c0-.44.074-.846.223-1.218.148-.372.353-.69.617-.954.265-.264.576-.47.937-.618.36-.148.747-.222 1.163-.222.417 0 .794.068 1.134.204.34.136.628.332.864.588.237.256.418.566.547.93.128.364.191.774.191 1.23zm1.909-2.796l1.284 4.344h.024l1.356-4.344h1.188l1.38 4.344h.024l1.284-4.344h1.188L56.224 93h-1.176l-1.404-4.272h-.024L52.228 93h-1.176l-1.896-5.688h1.224zm12.938 2.34a2.145 2.145 0 0 0-.114-.63 1.446 1.446 0 0 0-.3-.51 1.41 1.41 0 0 0-.493-.342 1.742 1.742 0 0 0-.69-.126 1.824 1.824 0 0 0-1.23.468 1.801 1.801 0 0 0-.383.51c-.1.196-.158.406-.174.63h3.384zm1.14.456v.192c0 .064-.004.128-.013.192h-4.511c.008.24.061.466.162.678.1.212.233.396.402.552a1.864 1.864 0 0 0 1.284.498c.384 0 .715-.084.996-.252.28-.168.5-.372.66-.612l.791.636c-.304.4-.661.694-1.073.882-.413.188-.87.282-1.374.282-.433 0-.832-.072-1.2-.216a2.773 2.773 0 0 1-.949-.606 2.809 2.809 0 0 1-.623-.942 3.177 3.177 0 0 1-.228-1.224c0-.44.073-.846.222-1.218.148-.372.353-.69.617-.954.265-.264.576-.47.936-.618.36-.148.748-.222 1.164-.222.417 0 .794.068 1.135.204.34.136.627.332.863.588.237.256.418.566.547.93.128.364.191.774.191 1.23zm1.489-1.572a18.354 18.354 0 0 0-.048-1.224h1.068a11.286 11.286 0 0 1 .048.96h.036c.16-.336.394-.606.702-.81a1.838 1.838 0 0 1 1.038-.306c.176 0 .324.016.444.048l-.048 1.044c-.16-.04-.332-.06-.516-.06-.272 0-.508.05-.708.15-.2.1-.366.234-.498.402a1.7 1.7 0 0 0-.294.582c-.064.22-.096.45-.096.69V93h-1.128v-4.464z" opacity=".5"/><path fill="#2C3F58" fill-rule="nonzero" d="M39.848 75l-.88-2.224h-4.384L33.752 75h-2.976l4.752-11.328h2.656L42.888 75h-3.04zm-3.04-8.304l-1.44 3.888h2.848l-1.408-3.888zM43.61 75V62.904h2.656V75H43.61zm10.114-4.896c0-.416-.13-.773-.392-1.072-.261-.299-.653-.448-1.176-.448-.256 0-.49.04-.704.12-.213.08-.4.19-.56.328-.16.139-.288.301-.384.488-.096.187-.15.381-.16.584h3.376zm2.416 1.008v.32c0 .107-.005.208-.016.304h-5.776c.021.224.088.427.2.608.112.181.256.339.432.472.176.133.373.237.592.312.219.075.445.112.68.112.416 0 .768-.077 1.056-.232.288-.155.523-.355.704-.6l1.824 1.152a3.69 3.69 0 0 1-1.48 1.256c-.613.293-1.325.44-2.136.44a5.097 5.097 0 0 1-1.696-.28c-.533-.187-1-.459-1.4-.816a3.779 3.779 0 0 1-.944-1.32c-.23-.523-.344-1.12-.344-1.792 0-.65.112-1.24.336-1.768.224-.528.528-.976.912-1.344a4.066 4.066 0 0 1 1.36-.856 4.65 4.65 0 0 1 1.696-.304c.587 0 1.125.099 1.616.296.49.197.912.483 1.264.856s.627.827.824 1.36c.197.533.296 1.141.296 1.824zM62.75 75l-1.712-2.448L59.278 75h-3.04l3.184-4.176-2.88-3.792h3.056l1.488 2.128 1.504-2.128h2.96l-2.864 3.792L65.838 75H62.75z"/><g transform="translate(31 14)"><circle cx="19" cy="19" r="19" fill="#FFDADE"/><path fill="#FF4354" fill-rule="nonzero" d="M13.584 14.088h1.526L19.38 24h-2.016l-.924-2.268h-4.298L11.246 24H9.272l4.312-9.912zm2.24 6.132l-1.526-4.032-1.554 4.032h3.08zm4.44-6.132h3.234c.57 0 1.083.051 1.54.154.457.103.85.27 1.176.504.327.233.579.532.756.896.177.364.266.803.266 1.316 0 .55-.103 1.013-.308 1.386a2.5 2.5 0 0 1-.833.903c-.35.229-.758.394-1.225.497a6.893 6.893 0 0 1-1.484.154h-1.358V24h-1.764v-9.912zm2.996 4.326c.29 0 .565-.021.826-.063.261-.042.495-.117.7-.224a1.28 1.28 0 0 0 .49-.441c.121-.187.182-.43.182-.728 0-.29-.06-.525-.182-.707a1.258 1.258 0 0 0-.483-.427c-.2-.103-.43-.17-.686-.203a6.26 6.26 0 0 0-.791-.049h-1.288v2.842h1.232z"/></g></g></g></svg>