<svg xmlns="http://www.w3.org/2000/svg" xmlns:xlink="http://www.w3.org/1999/xlink" width="350" height="227" viewBox="0 0 350 227"><title>illu-Unlimited Projects</title><defs><path id="a" d="M4 0h158a4 4 0 0 1 4 4v62a4 4 0 0 1-4 4H4a4 4 0 0 1-4-4V4a4 4 0 0 1 4-4z"/><mask id="b" width="166" height="70" x="0" y="0" fill="#fff" maskContentUnits="userSpaceOnUse" maskUnits="objectBoundingBox"><use xlink:href="#a"/></mask></defs><g fill="none" fill-rule="evenodd"><path fill="#FFF" d="M4 29h168a4 4 0 0 1 4 4v87a4 4 0 0 1-4 4H4a4 4 0 0 1-4-4V33a4 4 0 0 1 4-4z"/><g opacity=".9"><path fill="#225CFF" fill-rule="nonzero" d="M17.268 97.28a1.836 1.836 0 0 0-.678-.522 2.023 2.023 0 0 0-1.41-.144 1.61 1.61 0 0 0-.48.204 1.127 1.127 0 0 0-.354.36.992.992 0 0 0-.138.534c0 .192.04.356.12.492.08.136.19.252.33.348.14.096.31.18.51.252.2.072.42.144.66.216.272.088.554.188.846.3.292.112.56.26.804.444a2.2 2.2 0 0 1 .6.696c.156.28.234.628.234 1.044 0 .456-.084.854-.252 1.194-.168.34-.392.622-.672.846-.28.224-.608.392-.984.504a4.14 4.14 0 0 1-1.188.168 4.46 4.46 0 0 1-1.62-.306 3.129 3.129 0 0 1-1.296-.906l1.08-1.008c.208.288.486.516.834.684.348.168.69.252 1.026.252.176 0 .356-.022.54-.066a1.44 1.44 0 0 0 .498-.222c.148-.104.268-.234.36-.39a1.13 1.13 0 0 0 .138-.582.947.947 0 0 0-.156-.558 1.395 1.395 0 0 0-.42-.384 3.015 3.015 0 0 0-.624-.282l-.756-.252a7.49 7.49 0 0 1-.768-.288 2.547 2.547 0 0 1-.69-.444 2.146 2.146 0 0 1-.498-.678c-.128-.268-.192-.602-.192-1.002 0-.432.09-.804.27-1.116.18-.312.416-.57.708-.774a3.15 3.15 0 0 1 .996-.456c.372-.1.75-.15 1.134-.15.432 0 .87.076 1.314.228.444.152.83.38 1.158.684l-.984 1.08zm3.997-.456h-2.604v-1.32h6.72v1.32h-2.603V104h-1.512v-7.176zm6.962-1.32h1.308l3.66 8.496h-1.728l-.792-1.944h-3.684L26.223 104h-1.692l3.696-8.496zm1.92 5.256l-1.308-3.456-1.332 3.456h2.64zm3.806-5.256h2.951c.4 0 .788.042 1.164.126.377.084.71.222 1.003.414.292.192.525.444.701.756.177.312.264.692.264 1.14 0 .616-.173 1.118-.522 1.506-.348.388-.821.65-1.422.786L40.36 104h-1.824l-1.968-3.6h-1.104v3.6h-1.512v-8.496zm2.747 3.66c.217 0 .432-.016.649-.048a1.87 1.87 0 0 0 .582-.18c.172-.088.313-.214.425-.378.113-.164.168-.374.168-.63 0-.232-.051-.422-.156-.57a1.161 1.161 0 0 0-.396-.354 1.656 1.656 0 0 0-.546-.18 3.832 3.832 0 0 0-.594-.048h-1.368v2.388h1.237zm6.29-2.34h-2.604v-1.32h6.72v1.32h-2.604V104H42.99v-7.176zm9.075 0h-2.604v-1.32h6.72v1.32h-2.604V104h-1.512v-7.176zm5.018-1.32h5.628v1.32h-4.117v2.16h3.9v1.272h-3.9v2.4h4.332V104h-5.843v-8.496zm11.569 1.776a1.836 1.836 0 0 0-.678-.522 2.023 2.023 0 0 0-1.41-.144 1.61 1.61 0 0 0-.48.204 1.127 1.127 0 0 0-.354.36.992.992 0 0 0-.138.534c0 .192.04.356.12.492.08.136.19.252.33.348.14.096.31.18.51.252.2.072.42.144.66.216.272.088.554.188.846.3.292.112.56.26.804.444a2.2 2.2 0 0 1 .6.696c.156.28.234.628.234 1.044 0 .456-.084.854-.252 1.194-.168.34-.392.622-.672.846-.28.224-.608.392-.984.504a4.14 4.14 0 0 1-1.188.168 4.46 4.46 0 0 1-1.62-.306 3.129 3.129 0 0 1-1.296-.906l1.08-1.008c.208.288.486.516.834.684.348.168.69.252 1.026.252.176 0 .356-.022.54-.066a1.44 1.44 0 0 0 .498-.222c.148-.104.268-.234.36-.39a1.13 1.13 0 0 0 .138-.582.947.947 0 0 0-.156-.558 1.395 1.395 0 0 0-.42-.384 3.015 3.015 0 0 0-.624-.282l-.756-.252a7.49 7.49 0 0 1-.768-.288 2.547 2.547 0 0 1-.69-.444 2.146 2.146 0 0 1-.498-.678c-.128-.268-.192-.602-.192-1.002 0-.432.09-.804.27-1.116.18-.312.416-.57.708-.774a3.15 3.15 0 0 1 .996-.456c.372-.1.75-.15 1.134-.15.432 0 .87.076 1.314.228.444.152.83.38 1.158.684l-.984 1.08zm3.998-.456h-2.605v-1.32h6.72v1.32h-2.604V104H72.65v-7.176zm5.017-1.32h1.512V104h-1.512v-8.496zm3.302 0h2.004l3.948 6.36h.023v-6.36h1.513V104h-1.92l-4.033-6.564h-.023V104h-1.512v-8.496zm16.717 8.052c-.432.208-.906.37-1.422.486a8.176 8.176 0 0 1-1.782.174c-.688 0-1.316-.11-1.884-.33a4.308 4.308 0 0 1-1.464-.924 4.192 4.192 0 0 1-.954-1.416 4.688 4.688 0 0 1-.342-1.818c0-.68.118-1.294.354-1.842s.56-1.014.972-1.398c.412-.384.898-.68 1.458-.888a5.199 5.199 0 0 1 1.824-.312c.68 0 1.302.098 1.866.294.564.196 1.018.454 1.362.774l-1.044 1.128c-.216-.24-.518-.444-.906-.612a3.152 3.152 0 0 0-1.266-.252c-.448 0-.854.08-1.218.24-.364.16-.674.38-.93.66s-.454.608-.594.984a3.48 3.48 0 0 0-.21 1.224c0 .456.07.874.21 1.254.14.38.34.71.6.99.26.28.576.498.948.654.372.156.794.234 1.266.234.648 0 1.212-.1 1.692-.3v-2.16h-1.788v-1.248h3.252v4.404z"/><path stroke="#225CFF" stroke-linecap="round" stroke-linejoin="round" stroke-width="1.5" d="M105 100h14l-3-3m0 6l3-3" opacity=".85"/></g><g fill="#2C3F58" fill-rule="nonzero"><path d="M74.176 39.236h-3.924v-1.272l3.612-5.46h1.728V38h1.188v1.236h-1.188V41h-1.416v-1.764zm0-5.04h-.024L71.74 38h2.436v-3.804zm8.354-1.692l-2.173 3.144.013.012c.112-.048.253-.084.425-.108a3.45 3.45 0 0 1 .475-.036c.376 0 .727.07 1.056.21.328.14.615.332.864.576.248.244.441.532.582.864.14.332.21.69.21 1.074 0 .448-.08.856-.24 1.224-.16.368-.378.682-.654.942-.277.26-.604.46-.984.6-.38.14-.786.21-1.218.21-.449 0-.86-.074-1.236-.222a3.042 3.042 0 0 1-.984-.618 2.82 2.82 0 0 1-.888-2.076 3.467 3.467 0 0 1 .234-1.29c.076-.196.167-.394.276-.594.108-.2.23-.408.366-.624l2.124-3.288h1.752zm-3.289 5.832c0 .224.038.436.115.636a1.57 1.57 0 0 0 1.518 1.02c.488 0 .881-.154 1.182-.462.3-.308.45-.714.45-1.218 0-.24-.038-.462-.114-.666a1.436 1.436 0 0 0-.33-.522 1.61 1.61 0 0 0-1.164-.468c-.24 0-.462.04-.666.12-.205.08-.38.194-.528.342a1.512 1.512 0 0 0-.342.534 1.89 1.89 0 0 0-.12.684zm15.856-.456c0 .512-.088.974-.264 1.386a3.107 3.107 0 0 1-.72 1.05c-.305.288-.664.51-1.08.666a3.832 3.832 0 0 1-1.356.234c-.489 0-.94-.078-1.356-.234a3.232 3.232 0 0 1-1.086-.666 2.997 2.997 0 0 1-.72-1.05 3.566 3.566 0 0 1-.258-1.386v-5.376h1.512v5.316c0 .248.031.494.096.738.064.244.17.462.318.654s.343.348.588.468c.244.12.545.18.906.18.36 0 .661-.06.906-.18.244-.12.44-.276.588-.468.148-.192.253-.41.317-.654.065-.244.097-.49.097-.738v-5.316h1.512v5.376zm4.801-1.104a1.662 1.662 0 0 0-.528-.438 1.487 1.487 0 0 0-.732-.186c-.232 0-.444.048-.636.144a.496.496 0 0 0-.288.48c0 .224.106.382.318.474.212.092.522.186.93.282.216.048.434.112.654.192.22.08.42.186.6.318s.326.296.438.492c.112.196.168.434.168.714 0 .352-.066.65-.198.894a1.683 1.683 0 0 1-.528.594c-.22.152-.476.262-.768.33a3.982 3.982 0 0 1-.906.102c-.448 0-.884-.082-1.308-.246a2.765 2.765 0 0 1-1.056-.702l.948-.888c.16.208.368.38.624.516s.54.204.852.204c.104 0 .21-.012.318-.036.108-.024.208-.062.3-.114a.621.621 0 0 0 .222-.21.592.592 0 0 0 .084-.324c0-.24-.11-.412-.33-.516-.22-.104-.55-.208-.99-.312a4.76 4.76 0 0 1-.63-.186 2.056 2.056 0 0 1-.546-.3 1.39 1.39 0 0 1-.384-.462 1.467 1.467 0 0 1-.144-.684c0-.32.066-.596.198-.828a1.7 1.7 0 0 1 .522-.57c.216-.148.46-.258.732-.33.272-.072.552-.108.84-.108.416 0 .822.072 1.218.216.396.144.71.364.942.66l-.936.828zm6.146.768c0-.184-.026-.36-.078-.528a1.208 1.208 0 0 0-.246-.444 1.201 1.201 0 0 0-.426-.306 1.49 1.49 0 0 0-.606-.114c-.433 0-.798.13-1.098.39-.3.26-.466.594-.498 1.002h2.952zm1.44.648v.192c0 .064-.004.128-.012.192h-4.38a1.426 1.426 0 0 0 .528 1.014c.152.124.323.222.515.294.193.072.392.108.6.108.36 0 .664-.066.913-.198.248-.132.451-.314.612-.546l.96.768c-.569.768-1.392 1.152-2.472 1.152-.449 0-.86-.07-1.237-.21a2.917 2.917 0 0 1-.977-.594 2.677 2.677 0 0 1-.648-.942 3.247 3.247 0 0 1-.234-1.266c0-.464.077-.886.233-1.266.157-.38.37-.704.643-.972.272-.268.593-.476.965-.624a3.233 3.233 0 0 1 1.207-.222c.4 0 .77.066 1.11.198.34.132.633.328.881.588.249.26.442.584.582.972.14.388.21.842.21 1.362zm1.309-2.952h1.38v.96h.024a2.1 2.1 0 0 1 .672-.816 1.676 1.676 0 0 1 1.008-.312c.056 0 .116.002.18.006.064.004.12.014.168.03v1.32a1.695 1.695 0 0 0-.444-.06c-.328 0-.592.06-.792.18-.2.12-.356.264-.468.432-.112.168-.188.34-.228.516-.04.176-.06.316-.06.42V41h-1.44v-5.76zm6.375 1.152V35.24h1.008v-1.668h1.416v1.668h1.44v1.152h-1.44v2.676c0 .256.046.468.138.636.092.168.298.252.618.252.096 0 .2-.01.312-.03.112-.02.212-.05.3-.09l.048 1.128c-.128.048-.28.086-.456.114a3.211 3.211 0 0 1-.504.042c-.384 0-.696-.054-.936-.162a1.419 1.419 0 0 1-.57-.444 1.644 1.644 0 0 1-.288-.648 3.768 3.768 0 0 1-.078-.786v-2.688h-1.008zm8.882 1.152c0-.184-.026-.36-.078-.528a1.208 1.208 0 0 0-.246-.444 1.201 1.201 0 0 0-.426-.306 1.49 1.49 0 0 0-.606-.114c-.433 0-.798.13-1.098.39-.3.26-.466.594-.498 1.002h2.952zm1.44.648v.192c0 .064-.004.128-.012.192h-4.38a1.426 1.426 0 0 0 .528 1.014c.152.124.323.222.515.294.193.072.392.108.6.108.36 0 .664-.066.913-.198.248-.132.451-.314.612-.546l.96.768c-.569.768-1.392 1.152-2.472 1.152-.449 0-.86-.07-1.237-.21a2.917 2.917 0 0 1-.977-.594 2.677 2.677 0 0 1-.648-.942 3.247 3.247 0 0 1-.234-1.266c0-.464.077-.886.233-1.266.157-.38.37-.704.642-.972.273-.268.594-.476.967-.624a3.233 3.233 0 0 1 1.206-.222c.4 0 .77.066 1.11.198.34.132.633.328.882.588.248.26.441.584.582.972.14.388.21.842.21 1.362zm4.465-1.416a1.662 1.662 0 0 0-.528-.438 1.487 1.487 0 0 0-.732-.186c-.232 0-.444.048-.636.144a.496.496 0 0 0-.288.48c0 .224.106.382.318.474.212.092.522.186.93.282.216.048.434.112.654.192.22.08.42.186.6.318s.326.296.438.492c.112.196.168.434.168.714 0 .352-.066.65-.198.894a1.683 1.683 0 0 1-.528.594c-.22.152-.476.262-.768.33a3.982 3.982 0 0 1-.906.102c-.448 0-.884-.082-1.308-.246a2.765 2.765 0 0 1-1.056-.702l.948-.888c.16.208.368.38.624.516s.54.204.852.204c.104 0 .21-.012.318-.036.108-.024.208-.062.3-.114a.621.621 0 0 0 .222-.21.592.592 0 0 0 .084-.324c0-.24-.11-.412-.33-.516-.22-.104-.55-.208-.99-.312a4.76 4.76 0 0 1-.63-.186 2.056 2.056 0 0 1-.546-.3 1.39 1.39 0 0 1-.384-.462 1.467 1.467 0 0 1-.144-.684c0-.32.066-.596.198-.828a1.7 1.7 0 0 1 .522-.57c.216-.148.46-.258.732-.33.272-.072.552-.108.84-.108.416 0 .822.072 1.218.216.396.144.71.364.942.66l-.936.828zm1.262-.384V35.24h1.008v-1.668h1.416v1.668h1.44v1.152h-1.44v2.676c0 .256.045.468.138.636.092.168.297.252.618.252.096 0 .2-.01.312-.03.112-.02.211-.05.3-.09l.048 1.128c-.129.048-.28.086-.456.114a3.211 3.211 0 0 1-.504.042c-.385 0-.696-.054-.936-.162a1.419 1.419 0 0 1-.57-.444 1.644 1.644 0 0 1-.288-.648 3.768 3.768 0 0 1-.078-.786v-2.688h-1.008zm7.981.384a1.662 1.662 0 0 0-.528-.438 1.487 1.487 0 0 0-.732-.186c-.232 0-.444.048-.636.144a.496.496 0 0 0-.288.48c0 .224.106.382.318.474.212.092.522.186.93.282.216.048.434.112.654.192.22.08.42.186.6.318s.326.296.438.492c.112.196.168.434.168.714 0 .352-.066.65-.198.894a1.683 1.683 0 0 1-.528.594c-.22.152-.476.262-.768.33a3.982 3.982 0 0 1-.906.102c-.448 0-.884-.082-1.308-.246a2.765 2.765 0 0 1-1.056-.702l.948-.888c.16.208.368.38.624.516s.54.204.852.204c.104 0 .21-.012.318-.036.108-.024.208-.062.3-.114a.621.621 0 0 0 .222-.21.592.592 0 0 0 .084-.324c0-.24-.11-.412-.33-.516-.22-.104-.55-.208-.99-.312a4.76 4.76 0 0 1-.63-.186 2.056 2.056 0 0 1-.546-.3 1.39 1.39 0 0 1-.384-.462 1.467 1.467 0 0 1-.144-.684c0-.32.066-.596.198-.828a1.7 1.7 0 0 1 .522-.57c.216-.148.46-.258.732-.33.272-.072.552-.108.84-.108.416 0 .822.072 1.218.216.396.144.71.364.942.66l-.936.828z" opacity=".5"/><path d="M71.168 23V11.672h2.752V23h-2.752zm13.81-3.296c0 .619-.123 1.139-.368 1.56a2.92 2.92 0 0 1-.976 1.016c-.405.256-.867.44-1.384.552a7.502 7.502 0 0 1-1.592.168h-4.512V11.672h4.512c.437 0 .885.045 1.344.136.459.09.875.245 1.248.464.373.219.677.515.912.888s.352.848.352 1.424c0 .63-.17 1.15-.512 1.56-.341.41-.79.707-1.344.888v.032c.32.053.621.152.904.296.283.144.528.328.736.552.208.224.373.485.496.784.123.299.184.635.184 1.008zm-3.104-4.752c0-.384-.147-.664-.44-.84-.293-.176-.728-.264-1.304-.264h-1.344v2.336h1.472c.512 0 .91-.104 1.192-.312.283-.208.424-.515.424-.92zm.368 4.496c0-.47-.176-.795-.528-.976-.352-.181-.821-.272-1.408-.272h-1.52v2.592h1.536c.213 0 .435-.019.664-.056a2.09 2.09 0 0 0 .624-.2c.187-.096.339-.232.456-.408.117-.176.176-.403.176-.68zM96.948 23l.064-8.016h-.048L94.02 23H92.1l-2.864-8.016h-.048L89.252 23h-2.576V11.672h3.888l2.576 7.264h.064l2.464-7.264h3.952V23h-2.672zm17.38-7.84c0 .661-.123 1.219-.368 1.672a3.023 3.023 0 0 1-.992 1.096c-.416.277-.896.48-1.44.608a7.381 7.381 0 0 1-1.696.192h-1.36V23h-2.736V11.672h4.16c.619 0 1.197.061 1.736.184.539.123 1.008.32 1.408.592.4.272.715.63.944 1.072.23.443.344.99.344 1.64zm-2.736.016c0-.267-.053-.485-.16-.656a1.115 1.115 0 0 0-.432-.4 1.853 1.853 0 0 0-.616-.192 5.148 5.148 0 0 0-.712-.048h-1.2v2.672h1.152c.256 0 .501-.021.736-.064s.445-.117.632-.224a1.2 1.2 0 0 0 .44-.424c.107-.176.16-.397.16-.664zm8.61 2a2.044 2.044 0 0 0-.344-.064 3.46 3.46 0 0 0-.328-.016c-.352 0-.648.064-.888.192s-.432.283-.576.464a1.758 1.758 0 0 0-.312.592c-.064.213-.096.4-.096.56V23h-2.624v-7.968h2.528v1.152h.032c.203-.405.49-.736.864-.992a2.236 2.236 0 0 1 1.296-.384c.107 0 .21.005.312.016.101.01.184.027.248.048l-.112 2.304zm9.218 1.808c0 .65-.117 1.24-.352 1.768a3.964 3.964 0 0 1-.96 1.344 4.395 4.395 0 0 1-1.408.856 4.779 4.779 0 0 1-1.712.304 4.799 4.799 0 0 1-1.704-.304 4.282 4.282 0 0 1-1.408-.856 4.018 4.018 0 0 1-.952-1.344 4.307 4.307 0 0 1-.352-1.768c0-.65.117-1.237.352-1.76.235-.523.552-.965.952-1.328.4-.363.87-.64 1.408-.832a5.037 5.037 0 0 1 1.704-.288c.608 0 1.179.096 1.712.288.533.192 1.003.47 1.408.832a3.9 3.9 0 0 1 .96 1.328c.235.523.352 1.11.352 1.76zm-2.528 0c0-.256-.043-.507-.128-.752a1.989 1.989 0 0 0-.368-.648 1.802 1.802 0 0 0-1.408-.632c-.31 0-.581.059-.816.176a1.78 1.78 0 0 0-.584.456 1.953 1.953 0 0 0-.352.648 2.411 2.411 0 0 0 0 1.504c.08.245.2.467.36.664.16.197.357.355.592.472.235.117.507.176.816.176.31 0 .581-.059.816-.176.235-.117.432-.275.592-.472.16-.197.28-.419.36-.664.08-.245.12-.496.12-.752zm6.978-6.496c0 .203-.04.392-.12.568-.08.176-.187.328-.32.456s-.293.23-.48.304a1.558 1.558 0 0 1-.584.112 1.47 1.47 0 0 1-1.072-.424 1.373 1.373 0 0 1-.432-1.016 1.4 1.4 0 0 1 .112-.552c.075-.176.181-.328.32-.456s.299-.232.48-.312a1.558 1.558 0 0 1 1.656.296c.133.128.24.28.32.456.08.176.12.365.12.568zm-.192 10.72c0 .49-.045.957-.136 1.4-.09.443-.253.83-.488 1.16-.235.33-.56.592-.976.784-.416.192-.944.288-1.584.288-.181 0-.379-.01-.592-.032a3.151 3.151 0 0 1-.544-.096l.176-2.192c.096.032.195.053.296.064.101.01.19.016.264.016.384 0 .64-.13.768-.392.128-.261.192-.595.192-1v-8.176h2.624v8.176zm7.458-5.104c0-.416-.13-.773-.392-1.072-.261-.299-.653-.448-1.176-.448-.256 0-.49.04-.704.12-.213.08-.4.19-.56.328-.16.139-.288.301-.384.488-.096.187-.15.381-.16.584h3.376zm2.416 1.008v.32c0 .107-.005.208-.016.304h-5.776c.021.224.088.427.2.608.112.181.256.339.432.472.176.133.373.237.592.312.219.075.445.112.68.112.416 0 .768-.077 1.056-.232.288-.155.523-.355.704-.6l1.824 1.152a3.69 3.69 0 0 1-1.48 1.256c-.613.293-1.325.44-2.136.44a5.097 5.097 0 0 1-1.696-.28c-.533-.187-1-.459-1.4-.816a3.779 3.779 0 0 1-.944-1.32c-.23-.523-.344-1.12-.344-1.792 0-.65.112-1.24.336-1.768.224-.528.528-.976.912-1.344a4.066 4.066 0 0 1 1.36-.856 4.65 4.65 0 0 1 1.696-.304c.587 0 1.125.099 1.616.296.49.197.912.483 1.264.856s.627.827.824 1.36c.197.533.296 1.141.296 1.824zm7.01-1.504a1.593 1.593 0 0 0-.608-.464 1.864 1.864 0 0 0-.784-.176c-.277 0-.528.056-.752.168a1.825 1.825 0 0 0-.576.448c-.16.187-.285.403-.376.648-.09.245-.136.507-.136.784s.043.539.128.784.21.461.376.648c.165.187.363.333.592.44.23.107.488.16.776.16.267 0 .53-.05.792-.152.261-.101.472-.248.632-.44l1.456 1.776c-.33.32-.757.57-1.28.752a5.04 5.04 0 0 1-1.664.272c-.63 0-1.216-.096-1.76-.288a4.06 4.06 0 0 1-1.416-.84 3.944 3.944 0 0 1-.944-1.336c-.23-.523-.344-1.115-.344-1.776 0-.65.115-1.237.344-1.76.23-.523.544-.968.944-1.336.4-.368.872-.65 1.416-.848a5.075 5.075 0 0 1 2.6-.216c.283.053.555.125.816.216.261.09.501.203.72.336.219.133.408.28.568.44l-1.52 1.76zM155.86 17v3.04c0 .373.072.653.216.84.144.187.403.28.776.28.128 0 .264-.01.408-.032a1.4 1.4 0 0 0 .36-.096l.032 1.92c-.181.064-.41.12-.688.168a4.87 4.87 0 0 1-.832.072c-.533 0-.981-.067-1.344-.2a2.084 2.084 0 0 1-.872-.576 2.258 2.258 0 0 1-.472-.896 4.344 4.344 0 0 1-.144-1.16V17h-1.28v-1.968h1.264v-2.096h2.576v2.096h1.872V17h-1.872zm7.682.384a2.923 2.923 0 0 0-.752-.512 2.076 2.076 0 0 0-.912-.208c-.245 0-.472.048-.68.144a.505.505 0 0 0-.312.496c0 .224.115.384.344.48.23.096.6.203 1.112.32.299.064.6.155.904.272.304.117.579.272.824.464s.443.427.592.704c.15.277.224.608.224.992 0 .501-.101.925-.304 1.272a2.492 2.492 0 0 1-.792.84c-.325.213-.69.368-1.096.464a5.26 5.26 0 0 1-1.216.144c-.65 0-1.288-.104-1.912-.312-.624-.208-1.144-.515-1.56-.92l1.472-1.552c.235.256.523.47.864.64a2.4 2.4 0 0 0 1.088.256c.213 0 .424-.05.632-.152.208-.101.312-.28.312-.536 0-.245-.128-.427-.384-.544-.256-.117-.656-.24-1.2-.368a6.2 6.2 0 0 1-.832-.256 2.641 2.641 0 0 1-.744-.432 2.149 2.149 0 0 1-.536-.672c-.139-.267-.208-.587-.208-.96 0-.48.101-.888.304-1.224.203-.336.464-.61.784-.824.32-.213.675-.37 1.064-.472a4.59 4.59 0 0 1 1.16-.152 5.6 5.6 0 0 1 1.752.28c.57.187 1.053.467 1.448.84l-1.44 1.488z"/></g><path fill="#2C3F58" fill-rule="nonzero" d="M13.022 82v-9.912h2.408v7.826h3.836V82h-6.244zm11.258-3.038h-.294c-.252 0-.507.012-.763.035a3.138 3.138 0 0 0-.686.133c-.2.065-.367.161-.497.287a.659.659 0 0 0-.196.497c0 .13.03.243.09.336.061.093.138.168.232.224a.98.98 0 0 0 .322.119c.121.023.238.035.35.035.466 0 .823-.128 1.07-.385.248-.257.372-.604.372-1.043v-.238zm-4.214-2.982a4.02 4.02 0 0 1 1.435-.882 4.917 4.917 0 0 1 1.673-.294c.588 0 1.085.072 1.49.217.407.145.736.369.988.672.252.303.436.686.553 1.148.116.462.175 1.01.175 1.645V82h-2.1v-.742h-.042c-.178.29-.446.513-.805.672-.36.159-.75.238-1.17.238-.28 0-.569-.037-.867-.112a2.542 2.542 0 0 1-.82-.364 1.971 1.971 0 0 1-.608-.672c-.159-.28-.238-.625-.238-1.036 0-.504.137-.91.413-1.218a2.71 2.71 0 0 1 1.064-.714c.434-.168.917-.28 1.449-.336.532-.056 1.05-.084 1.554-.084v-.112c0-.345-.122-.6-.364-.763-.243-.163-.542-.245-.896-.245-.327 0-.642.07-.945.21-.304.14-.563.308-.777.504l-1.162-1.246zM32.569 82v-3.808c0-.196-.016-.383-.049-.56a1.544 1.544 0 0 0-.16-.469.835.835 0 0 0-.316-.322.998.998 0 0 0-.51-.119c-.206 0-.385.04-.54.119a1.09 1.09 0 0 0-.384.329c-.103.14-.18.301-.232.483a2.079 2.079 0 0 0-.076.567V82h-2.31v-6.972h2.226v.966h.027c.085-.15.194-.296.33-.441.135-.145.293-.268.476-.371.182-.103.38-.187.595-.252.214-.065.443-.098.685-.098.467 0 .864.084 1.19.252.327.168.59.385.791.651.201.266.346.572.434.917.09.345.133.69.133 1.036V82h-2.31zm9.228 0v-.91h-.028a2.18 2.18 0 0 1-.959.819 3.124 3.124 0 0 1-1.323.287 3.088 3.088 0 0 1-2.443-1.127 3.6 3.6 0 0 1-.65-1.183 4.398 4.398 0 0 1-.225-1.4c0-.485.077-.95.231-1.393.154-.443.374-.833.658-1.169.285-.336.63-.602 1.036-.798a3.1 3.1 0 0 1 1.365-.294c.514 0 .948.098 1.302.294.355.196.63.41.826.644h.028v-4.354h2.296V82h-2.114zm-.084-3.5c0-.224-.04-.443-.119-.658a1.859 1.859 0 0 0-.336-.574 1.67 1.67 0 0 0-.525-.406 1.544 1.544 0 0 0-.7-.154 1.577 1.577 0 0 0-1.232.553c-.14.163-.245.352-.315.567a2.11 2.11 0 0 0-.105.658c0 .224.035.446.105.665.07.22.175.413.315.581.14.168.313.303.518.406.206.103.444.154.714.154.262 0 .495-.051.7-.154a1.67 1.67 0 0 0 .525-.406c.145-.168.257-.36.336-.574.08-.215.12-.434.12-.658zm6.414-5.698c0 .177-.035.343-.105.497-.07.154-.163.287-.28.399a1.363 1.363 0 0 1-.931.364c-.373 0-.686-.124-.938-.371a1.202 1.202 0 0 1-.378-.889c0-.168.033-.329.098-.483.065-.154.159-.287.28-.399.121-.112.261-.203.42-.273a1.363 1.363 0 0 1 1.449.259c.117.112.21.245.28.399.07.154.105.32.105.497zM45.663 82v-6.972h2.296V82h-2.296zm8.598 0v-3.808c0-.196-.017-.383-.05-.56a1.544 1.544 0 0 0-.16-.469.835.835 0 0 0-.315-.322.998.998 0 0 0-.511-.119c-.206 0-.385.04-.54.119a1.09 1.09 0 0 0-.384.329c-.103.14-.18.301-.231.483a2.079 2.079 0 0 0-.077.567V82h-2.31v-6.972h2.226v.966h.028c.084-.15.193-.296.329-.441.135-.145.294-.268.476-.371.182-.103.38-.187.595-.252.214-.065.443-.098.686-.098.466 0 .863.084 1.19.252.326.168.59.385.79.651.201.266.346.572.435.917.088.345.133.69.133 1.036V82h-2.31zm11.342-.658c0 .681-.098 1.274-.294 1.778a3.34 3.34 0 0 1-.826 1.253 3.38 3.38 0 0 1-1.296.742 5.497 5.497 0 0 1-1.686.245 6.843 6.843 0 0 1-1.898-.28 5.2 5.2 0 0 1-1.687-.812l1.149-1.638c.336.299.706.52 1.113.665.406.145.804.217 1.197.217.672 0 1.168-.177 1.49-.532.323-.355.483-.826.483-1.414v-.42h-.041c-.215.28-.504.504-.869.672-.364.168-.779.252-1.245.252-.533 0-1.004-.096-1.414-.287a3.102 3.102 0 0 1-1.044-.777 3.4 3.4 0 0 1-.65-1.141 4.209 4.209 0 0 1-.224-1.379c0-.485.074-.947.224-1.386.149-.439.366-.826.65-1.162a3.177 3.177 0 0 1 1.044-.805c.41-.2.877-.301 1.4-.301.438 0 .858.089 1.26.266.4.177.723.453.965.826h.028v-.896h2.17v6.314zm-2.184-2.87c0-.233-.04-.457-.12-.672a1.709 1.709 0 0 0-.343-.567 1.622 1.622 0 0 0-.532-.385 1.674 1.674 0 0 0-.7-.14 1.536 1.536 0 0 0-1.204.518 1.66 1.66 0 0 0-.321.56 2.073 2.073 0 0 0-.112.686c0 .233.037.457.111.672.075.215.182.404.322.567.14.163.31.294.511.392.201.098.432.147.694.147a1.652 1.652 0 0 0 1.239-.532c.144-.159.256-.345.336-.56.079-.215.119-.443.119-.686zm16.159 2.156c-.439.504-.98.903-1.624 1.197-.644.294-1.386.441-2.226.441a5.808 5.808 0 0 1-2.121-.378 4.982 4.982 0 0 1-1.687-1.071 4.96 4.96 0 0 1-1.12-1.659 5.438 5.438 0 0 1-.406-2.128c0-.793.138-1.512.413-2.156a4.796 4.796 0 0 1 1.141-1.645 5.053 5.053 0 0 1 1.708-1.043 6.024 6.024 0 0 1 2.114-.364c.7 0 1.388.124 2.065.371s1.225.609 1.645 1.085l-1.624 1.624a2.01 2.01 0 0 0-.882-.686 2.925 2.925 0 0 0-1.12-.224c-.42 0-.805.077-1.155.231a2.71 2.71 0 0 0-.903.637c-.252.27-.448.59-.588.959-.14.369-.21.772-.21 1.211 0 .448.07.859.21 1.232.14.373.334.693.581.959.247.266.544.474.889.623.345.15.723.224 1.134.224.476 0 .891-.093 1.246-.28.355-.187.64-.43.854-.728l1.666 1.568zm8.024-2.142c0 .57-.103 1.085-.308 1.547a3.469 3.469 0 0 1-.84 1.176 3.845 3.845 0 0 1-1.232.749 4.182 4.182 0 0 1-1.498.266c-.523 0-1.02-.089-1.491-.266A3.747 3.747 0 0 1 81 81.209a3.516 3.516 0 0 1-.833-1.176 3.768 3.768 0 0 1-.308-1.547c0-.57.102-1.083.308-1.54a3.458 3.458 0 0 1 2.065-1.89 4.407 4.407 0 0 1 1.49-.252 4.39 4.39 0 0 1 1.499.252c.466.168.877.41 1.232.728.354.317.634.705.84 1.162.205.457.308.97.308 1.54zm-2.212 0a1.99 1.99 0 0 0-.112-.658 1.637 1.637 0 0 0-.84-.966 1.577 1.577 0 0 0-.714-.154c-.27 0-.509.051-.714.154a1.558 1.558 0 0 0-.511.399 1.71 1.71 0 0 0-.308.567 2.11 2.11 0 0 0 0 1.316 1.8 1.8 0 0 0 .315.581c.14.173.312.31.518.413.205.103.443.154.714.154.27 0 .508-.051.714-.154a1.55 1.55 0 0 0 .518-.413 1.8 1.8 0 0 0 .315-.581 2.11 2.11 0 0 0 .105-.658zM93.54 82v-3.808c0-.196-.017-.383-.05-.56a1.544 1.544 0 0 0-.16-.469.835.835 0 0 0-.316-.322.998.998 0 0 0-.51-.119c-.206 0-.385.04-.54.119a1.09 1.09 0 0 0-.385.329c-.102.14-.18.301-.23.483a2.079 2.079 0 0 0-.078.567V82h-2.31v-6.972h2.227v.966h.028c.084-.15.193-.296.329-.441.135-.145.293-.268.475-.371.183-.103.38-.187.596-.252.214-.065.443-.098.686-.098.466 0 .863.084 1.19.252.326.168.59.385.79.651.201.266.346.572.434.917.09.345.134.69.134 1.036V82h-2.31zm8.261 0h-2.478l-2.744-6.972h2.534l1.47 4.522h.042l1.47-4.522h2.45L101.801 82zm8.332-4.284c0-.364-.114-.677-.343-.938-.229-.261-.572-.392-1.029-.392-.224 0-.43.035-.616.105-.187.07-.35.166-.49.287a1.42 1.42 0 0 0-.336.427 1.25 1.25 0 0 0-.14.511h2.954zm2.114.882v.28c0 .093-.005.182-.014.266h-5.054c.019.196.077.373.175.532.098.159.224.296.378.413.154.117.327.208.518.273.191.065.39.098.595.098.364 0 .672-.068.924-.203s.457-.31.616-.525l1.596 1.008a3.23 3.23 0 0 1-1.295 1.099c-.537.257-1.16.385-1.869.385a4.46 4.46 0 0 1-1.484-.245 3.604 3.604 0 0 1-1.225-.714 3.306 3.306 0 0 1-.826-1.155c-.2-.457-.301-.98-.301-1.568 0-.57.098-1.085.294-1.547.196-.462.462-.854.798-1.176a3.557 3.557 0 0 1 1.19-.749 4.07 4.07 0 0 1 1.484-.266c.513 0 .985.086 1.414.259.43.173.798.422 1.106.749.308.327.548.723.721 1.19.173.467.259.999.259 1.596zm5.854-1.694a1.788 1.788 0 0 0-.301-.056 3.027 3.027 0 0 0-.287-.014c-.308 0-.567.056-.777.168-.21.112-.378.247-.504.406a1.538 1.538 0 0 0-.273.518c-.056.187-.084.35-.084.49V82h-2.296v-6.972h2.212v1.008h.028c.177-.355.43-.644.756-.868a1.956 1.956 0 0 1 1.134-.336c.093 0 .184.005.273.014.088.01.16.023.217.042l-.098 2.016zm5.028.182a2.558 2.558 0 0 0-.659-.448 1.817 1.817 0 0 0-.797-.182c-.215 0-.413.042-.596.126a.442.442 0 0 0-.272.434c0 .196.1.336.3.42.201.084.525.177.974.28.26.056.524.135.79.238.267.103.507.238.722.406.214.168.387.373.518.616.13.243.196.532.196.868 0 .439-.09.81-.267 1.113a2.18 2.18 0 0 1-.692.735 2.99 2.99 0 0 1-.96.406c-.354.084-.709.126-1.063.126-.57 0-1.127-.091-1.673-.273a3.512 3.512 0 0 1-1.366-.805l1.288-1.358c.206.224.458.41.757.56a2.1 2.1 0 0 0 .952.224c.186 0 .37-.044.552-.133.183-.089.273-.245.273-.469 0-.215-.111-.373-.335-.476-.225-.103-.574-.21-1.05-.322a5.426 5.426 0 0 1-.728-.224 2.311 2.311 0 0 1-.651-.378 1.88 1.88 0 0 1-.47-.588 1.8 1.8 0 0 1-.181-.84c0-.42.088-.777.266-1.071.177-.294.405-.534.686-.721.28-.187.59-.324.93-.413.341-.089.68-.133 1.016-.133a4.9 4.9 0 0 1 1.532.245c.5.163.922.408 1.267.735l-1.26 1.302zm4.901-4.284c0 .177-.035.343-.105.497-.07.154-.163.287-.28.399a1.363 1.363 0 0 1-.931.364c-.373 0-.686-.124-.938-.371a1.202 1.202 0 0 1-.378-.889c0-.168.033-.329.098-.483.066-.154.159-.287.28-.399.122-.112.262-.203.42-.273a1.363 1.363 0 0 1 1.449.259c.117.112.21.245.28.399.07.154.105.32.105.497zM125.566 82v-6.972h2.296V82h-2.296zm11.412-3.514c0 .57-.103 1.085-.308 1.547a3.469 3.469 0 0 1-.84 1.176 3.845 3.845 0 0 1-1.232.749 4.182 4.182 0 0 1-1.498.266c-.523 0-1.02-.089-1.491-.266a3.747 3.747 0 0 1-1.232-.749 3.516 3.516 0 0 1-.833-1.176 3.768 3.768 0 0 1-.308-1.547c0-.57.103-1.083.308-1.54a3.458 3.458 0 0 1 2.065-1.89 4.407 4.407 0 0 1 1.491-.252 4.39 4.39 0 0 1 1.498.252c.467.168.877.41 1.232.728.355.317.635.705.84 1.162.205.457.308.97.308 1.54zm-2.212 0a1.99 1.99 0 0 0-.112-.658 1.637 1.637 0 0 0-.84-.966 1.577 1.577 0 0 0-.714-.154c-.27 0-.509.051-.714.154a1.558 1.558 0 0 0-.511.399 1.71 1.71 0 0 0-.308.567 2.11 2.11 0 0 0 0 1.316 1.8 1.8 0 0 0 .315.581c.14.173.313.31.518.413.205.103.443.154.714.154.27 0 .509-.051.714-.154a1.55 1.55 0 0 0 .518-.413 1.8 1.8 0 0 0 .315-.581 2.11 2.11 0 0 0 .105-.658zm8.15 3.514v-3.808c0-.196-.017-.383-.05-.56a1.544 1.544 0 0 0-.16-.469.835.835 0 0 0-.315-.322.998.998 0 0 0-.511-.119c-.206 0-.385.04-.54.119a1.09 1.09 0 0 0-.384.329c-.103.14-.18.301-.231.483a2.079 2.079 0 0 0-.077.567V82h-2.31v-6.972h2.226v.966h.028c.084-.15.193-.296.329-.441.135-.145.294-.268.476-.371.182-.103.38-.187.595-.252.214-.065.443-.098.686-.098.466 0 .863.084 1.19.252.326.168.59.385.79.651.201.266.346.572.435.917.088.345.133.69.133 1.036V82h-2.31z"/><path fill="#FFF" d="M4 132h168a4 4 0 0 1 4 4v87a4 4 0 0 1-4 4H4a4 4 0 0 1-4-4v-87a4 4 0 0 1 4-4z"/><g opacity=".9"><path fill="#225CFF" fill-rule="nonzero" d="M17.268 200.28a1.836 1.836 0 0 0-.678-.522 2.023 2.023 0 0 0-1.41-.144 1.61 1.61 0 0 0-.48.204 1.127 1.127 0 0 0-.354.36.992.992 0 0 0-.138.534c0 .192.04.356.12.492.08.136.19.252.33.348.14.096.31.18.51.252.2.072.42.144.66.216.272.088.554.188.846.3.292.112.56.26.804.444a2.2 2.2 0 0 1 .6.696c.156.28.234.628.234 1.044 0 .456-.084.854-.252 1.194-.168.34-.392.622-.672.846-.28.224-.608.392-.984.504a4.14 4.14 0 0 1-1.188.168 4.46 4.46 0 0 1-1.62-.306 3.129 3.129 0 0 1-1.296-.906l1.08-1.008c.208.288.486.516.834.684.348.168.69.252 1.026.252.176 0 .356-.022.54-.066a1.44 1.44 0 0 0 .498-.222c.148-.104.268-.234.36-.39a1.13 1.13 0 0 0 .138-.582.947.947 0 0 0-.156-.558 1.395 1.395 0 0 0-.42-.384 3.015 3.015 0 0 0-.624-.282l-.756-.252a7.49 7.49 0 0 1-.768-.288 2.547 2.547 0 0 1-.69-.444 2.146 2.146 0 0 1-.498-.678c-.128-.268-.192-.602-.192-1.002 0-.432.09-.804.27-1.116.18-.312.416-.57.708-.774a3.15 3.15 0 0 1 .996-.456c.372-.1.75-.15 1.134-.15.432 0 .87.076 1.314.228.444.152.83.38 1.158.684l-.984 1.08zm2.474-1.776h5.628v1.32h-4.116v2.16h3.9v1.272h-3.9v2.4h4.332V207h-5.844v-8.496zm7.237 0h5.628v1.32h-4.116v2.16h3.9v1.272h-3.9v2.4h4.332V207h-5.844v-8.496zm10.155 0h2.952c.4 0 .788.042 1.164.126.376.084.71.222 1.002.414.292.192.526.444.702.756.176.312.264.692.264 1.14 0 .616-.174 1.118-.522 1.506-.348.388-.822.65-1.422.786L43.542 207h-1.824l-1.968-3.6h-1.104v3.6h-1.512v-8.496zm2.748 3.66c.216 0 .432-.016.648-.048a1.87 1.87 0 0 0 .582-.18c.172-.088.314-.214.426-.378.112-.164.168-.374.168-.63 0-.232-.052-.422-.156-.57a1.161 1.161 0 0 0-.396-.354 1.656 1.656 0 0 0-.546-.18 3.832 3.832 0 0 0-.594-.048h-1.368v2.388h1.236zm4.718-3.66h5.628v1.32h-4.116v2.16h3.9v1.272h-3.9v2.4h4.332V207H44.6v-8.496zm7.237 0h2.772c.488 0 .928.044 1.32.132a2.75 2.75 0 0 1 1.008.432c.28.2.496.456.648.768.152.312.228.688.228 1.128 0 .472-.088.868-.264 1.188-.176.32-.414.578-.714.774-.3.196-.65.338-1.05.426-.4.088-.824.132-1.272.132h-1.164V207h-1.512v-8.496zm2.568 3.708c.248 0 .484-.018.708-.054.224-.036.424-.1.6-.192s.316-.218.42-.378c.104-.16.156-.368.156-.624 0-.248-.052-.45-.156-.606a1.078 1.078 0 0 0-.414-.366 1.773 1.773 0 0 0-.588-.174 5.366 5.366 0 0 0-.678-.042h-1.104v2.436h1.056zm4.262.516c0-.68.113-1.294.342-1.842a4.044 4.044 0 0 1 .948-1.398c.404-.384.883-.68 1.44-.888a5.149 5.149 0 0 1 1.818-.312c.664 0 1.275.104 1.836.312a4.25 4.25 0 0 1 1.451.888c.409.384.726.85.955 1.398.228.548.342 1.162.342 1.842 0 .664-.114 1.27-.343 1.818a4.192 4.192 0 0 1-.953 1.416 4.333 4.333 0 0 1-1.453.924c-.56.22-1.171.33-1.835.33-.657 0-1.262-.11-1.819-.33a4.28 4.28 0 0 1-1.44-.924 4.236 4.236 0 0 1-.948-1.416 4.688 4.688 0 0 1-.342-1.818zm1.644 0c0 .456.07.874.21 1.254.14.38.34.71.6.99.26.28.567.498.924.654.356.156.75.234 1.182.234.432 0 .827-.078 1.188-.234.36-.156.67-.374.93-.654s.46-.61.6-.99c.14-.38.21-.798.21-1.254 0-.44-.07-.848-.21-1.224a2.984 2.984 0 0 0-.594-.984c-.257-.28-.564-.5-.924-.66-.36-.16-.76-.24-1.2-.24-.44 0-.838.08-1.194.24-.357.16-.662.38-.918.66-.257.28-.454.608-.594.984a3.48 3.48 0 0 0-.21 1.224zm8.869-4.224h2.952c.4 0 .788.042 1.164.126.376.084.71.222 1.002.414.292.192.526.444.702.756.176.312.264.692.264 1.14 0 .616-.174 1.118-.522 1.506-.348.388-.822.65-1.422.786L75.588 207h-1.824l-1.968-3.6h-1.104v3.6H69.18v-8.496zm2.748 3.66c.216 0 .432-.016.648-.048a1.87 1.87 0 0 0 .582-.18c.172-.088.314-.214.426-.378.112-.164.168-.374.168-.63 0-.232-.052-.422-.156-.57a1.161 1.161 0 0 0-.396-.354 1.656 1.656 0 0 0-.546-.18 3.832 3.832 0 0 0-.594-.048h-1.368v2.388h1.236zm6.29-2.34h-2.605v-1.32h6.72v1.32H79.73V207h-1.513v-7.176z"/><path stroke="#225CFF" stroke-linecap="round" stroke-linejoin="round" stroke-width="1.5" d="M89 203h14l-3-3m0 6l3-3" opacity=".85"/></g><path fill="#2C3F58" fill-rule="nonzero" d="M20.75 182.116c0 .541-.107.996-.322 1.365-.215.369-.5.665-.854.889a3.721 3.721 0 0 1-1.211.483 6.565 6.565 0 0 1-1.393.147h-3.948v-9.912h3.948c.383 0 .775.04 1.176.119.401.08.765.215 1.092.406.327.191.593.45.798.777.205.327.308.742.308 1.246 0 .55-.15 1.006-.448 1.365a2.5 2.5 0 0 1-1.176.777v.028c.28.047.544.133.791.259s.462.287.644.483.327.425.434.686c.107.261.161.555.161.882zm-2.716-4.158c0-.336-.128-.581-.385-.735-.257-.154-.637-.231-1.141-.231h-1.176v2.044h1.288c.448 0 .796-.091 1.043-.273.247-.182.371-.45.371-.805zm.322 3.934c0-.41-.154-.695-.462-.854-.308-.159-.719-.238-1.232-.238h-1.33v2.268h1.344c.187 0 .38-.016.581-.049.2-.033.383-.091.546-.175.163-.084.296-.203.399-.357.103-.154.154-.352.154-.595zM22.138 185v-10.584h2.324V185h-2.324zm11.44-3.514c0 .57-.103 1.085-.309 1.547a3.469 3.469 0 0 1-.84 1.176 3.845 3.845 0 0 1-1.232.749 4.182 4.182 0 0 1-1.497.266c-.523 0-1.02-.089-1.491-.266a3.747 3.747 0 0 1-1.232-.749 3.516 3.516 0 0 1-.834-1.176 3.768 3.768 0 0 1-.308-1.547c0-.57.103-1.083.308-1.54a3.458 3.458 0 0 1 2.066-1.89 4.407 4.407 0 0 1 1.49-.252 4.39 4.39 0 0 1 1.498.252c.467.168.878.41 1.232.728.355.317.635.705.84 1.162.206.457.309.97.309 1.54zm-2.213 0a1.99 1.99 0 0 0-.111-.658 1.637 1.637 0 0 0-.84-.966 1.577 1.577 0 0 0-.715-.154c-.27 0-.508.051-.714.154a1.558 1.558 0 0 0-.51.399 1.71 1.71 0 0 0-.309.567 2.11 2.11 0 0 0 0 1.316 1.8 1.8 0 0 0 .316.581c.14.173.312.31.518.413.205.103.443.154.713.154.271 0 .51-.051.714-.154a1.55 1.55 0 0 0 .518-.413 1.8 1.8 0 0 0 .316-.581 2.11 2.11 0 0 0 .105-.658zm10.964 2.856c0 .681-.098 1.274-.294 1.778a3.34 3.34 0 0 1-.826 1.253 3.38 3.38 0 0 1-1.295.742 5.497 5.497 0 0 1-1.687.245 6.843 6.843 0 0 1-1.897-.28 5.2 5.2 0 0 1-1.687-.812l1.148-1.638c.336.299.707.52 1.113.665.406.145.805.217 1.197.217.672 0 1.17-.177 1.491-.532.322-.355.483-.826.483-1.414v-.42h-.042c-.214.28-.504.504-.868.672-.364.168-.78.252-1.246.252-.532 0-1.003-.096-1.414-.287a3.102 3.102 0 0 1-1.043-.777 3.4 3.4 0 0 1-.65-1.141 4.209 4.209 0 0 1-.225-1.379c0-.485.075-.947.224-1.386.15-.439.367-.826.651-1.162a3.177 3.177 0 0 1 1.043-.805c.41-.2.878-.301 1.4-.301.439 0 .859.089 1.26.266.402.177.724.453.966.826h.028v-.896h2.17v6.314zm-2.184-2.87c0-.233-.04-.457-.119-.672a1.709 1.709 0 0 0-.343-.567 1.622 1.622 0 0 0-.532-.385 1.674 1.674 0 0 0-.7-.14 1.536 1.536 0 0 0-1.204.518 1.66 1.66 0 0 0-.322.56 2.073 2.073 0 0 0-.112.686c0 .233.038.457.112.672.075.215.182.404.322.567.14.163.31.294.511.392.2.098.432.147.693.147a1.652 1.652 0 0 0 1.24-.532c.144-.159.256-.345.335-.56.08-.215.12-.443.12-.686zm12.674-3.808a2.161 2.161 0 0 0-.805-.623 2.271 2.271 0 0 0-1.442-.189c-.164.028-.31.082-.441.161-.13.08-.24.182-.33.308a.82.82 0 0 0-.132.483c0 .168.035.308.105.42.07.112.172.21.308.294.135.084.296.161.483.231.186.07.396.142.63.217.336.112.686.236 1.05.371s.695.315.994.539c.298.224.546.502.742.833.196.331.294.744.294 1.239 0 .57-.105 1.062-.315 1.477-.21.415-.493.758-.847 1.029a3.63 3.63 0 0 1-1.218.602c-.458.13-.929.196-1.414.196-.71 0-1.396-.124-2.058-.371-.663-.247-1.214-.6-1.652-1.057l1.568-1.596c.242.299.562.548.959.749.396.2.79.301 1.183.301.177 0 .35-.019.518-.056.168-.037.315-.098.44-.182a.911.911 0 0 0 .302-.336c.074-.14.112-.308.112-.504a.797.797 0 0 0-.14-.476 1.368 1.368 0 0 0-.4-.357 3.214 3.214 0 0 0-.643-.294 33.092 33.092 0 0 0-.875-.287 8.362 8.362 0 0 1-.931-.364 3.116 3.116 0 0 1-.812-.539 2.496 2.496 0 0 1-.574-.798c-.145-.313-.217-.693-.217-1.141 0-.55.112-1.022.336-1.414a2.92 2.92 0 0 1 .882-.966 3.789 3.789 0 0 1 1.232-.553c.457-.117.92-.175 1.386-.175.56 0 1.131.103 1.715.308a4.416 4.416 0 0 1 1.533.91l-1.526 1.61zM60.226 185v-.966H60.2a1.973 1.973 0 0 1-.33.448c-.135.14-.293.261-.475.364a2.914 2.914 0 0 1-.602.252c-.22.065-.45.098-.694.098-.466 0-.86-.084-1.182-.252a2.291 2.291 0 0 1-.784-.651c-.201-.266-.346-.57-.434-.91a4.124 4.124 0 0 1-.133-1.043v-4.312h2.31v3.78c0 .196.013.383.041.56a1.4 1.4 0 0 0 .162.476c.079.14.184.25.314.329.131.08.304.119.518.119.402 0 .707-.15.918-.448.21-.299.314-.649.314-1.05v-3.766h2.296V185h-2.212zm11.678-3.514c0 .485-.074.952-.224 1.4a3.6 3.6 0 0 1-.65 1.183c-.285.34-.633.614-1.044.819-.41.205-.877.308-1.4.308-.466 0-.907-.096-1.323-.287a2.18 2.18 0 0 1-.959-.819h-.028v.91h-2.114v-10.584h2.296v4.354h.028c.196-.233.472-.448.826-.644.355-.196.789-.294 1.302-.294a3.1 3.1 0 0 1 1.365.294c.406.196.752.462 1.036.798.285.336.504.726.658 1.169.154.443.231.908.231 1.393zm-2.212 0a2.11 2.11 0 0 0-.105-.658 1.644 1.644 0 0 0-.315-.567 1.577 1.577 0 0 0-1.232-.553c-.261 0-.494.051-.7.154a1.67 1.67 0 0 0-.525.406c-.144.168-.256.36-.336.574a1.884 1.884 0 0 0 .336 1.89c.145.168.32.303.525.406.206.103.439.154.7.154.27 0 .509-.051.714-.154.206-.103.378-.238.518-.406.14-.168.245-.362.315-.581.07-.22.105-.441.105-.665zm7.674-1.4a2.557 2.557 0 0 0-.658-.448 1.817 1.817 0 0 0-.798-.182c-.215 0-.413.042-.595.126a.442.442 0 0 0-.273.434c0 .196.1.336.301.42.2.084.525.177.973.28.261.056.525.135.791.238.266.103.506.238.721.406.215.168.387.373.518.616.13.243.196.532.196.868 0 .439-.089.81-.266 1.113a2.18 2.18 0 0 1-.693.735 2.99 2.99 0 0 1-.959.406c-.355.084-.71.126-1.064.126-.57 0-1.127-.091-1.673-.273a3.512 3.512 0 0 1-1.365-.805l1.288-1.358c.205.224.457.41.756.56a2.1 2.1 0 0 0 .952.224c.187 0 .371-.044.553-.133.182-.089.273-.245.273-.469 0-.215-.112-.373-.336-.476-.224-.103-.574-.21-1.05-.322a5.426 5.426 0 0 1-.728-.224 2.311 2.311 0 0 1-.651-.378 1.88 1.88 0 0 1-.469-.588 1.8 1.8 0 0 1-.182-.84c0-.42.089-.777.266-1.071.177-.294.406-.534.686-.721.28-.187.59-.324.931-.413.34-.089.679-.133 1.015-.133a4.9 4.9 0 0 1 1.533.245c.5.163.922.408 1.267.735l-1.26 1.302zm7.212.196a1.394 1.394 0 0 0-.532-.406 1.63 1.63 0 0 0-.686-.154 1.45 1.45 0 0 0-.658.147 1.597 1.597 0 0 0-.504.392c-.14.163-.25.352-.33.567-.079.215-.118.443-.118.686 0 .243.037.471.112.686.074.215.184.404.329.567.144.163.317.292.518.385.2.093.427.14.679.14.233 0 .464-.044.693-.133.228-.089.413-.217.553-.385l1.274 1.554c-.29.28-.663.5-1.12.658a4.41 4.41 0 0 1-1.456.238c-.55 0-1.064-.084-1.54-.252a3.552 3.552 0 0 1-1.24-.735 3.45 3.45 0 0 1-.825-1.169c-.2-.457-.301-.975-.301-1.554 0-.57.1-1.083.3-1.54.201-.457.477-.847.827-1.169a3.64 3.64 0 0 1 1.239-.742 4.44 4.44 0 0 1 2.989 0c.228.08.438.177.63.294.191.117.357.245.497.385l-1.33 1.54zm6.665-.378a1.788 1.788 0 0 0-.3-.056 3.027 3.027 0 0 0-.287-.014c-.309 0-.567.056-.778.168-.21.112-.377.247-.504.406a1.538 1.538 0 0 0-.272.518c-.057.187-.085.35-.085.49V185h-2.295v-6.972h2.212v1.008h.028c.177-.355.429-.644.755-.868a1.956 1.956 0 0 1 1.135-.336c.093 0 .184.005.272.014.09.01.161.023.218.042l-.099 2.016zm3.418-4.102c0 .177-.035.343-.105.497-.07.154-.163.287-.28.399a1.363 1.363 0 0 1-.931.364c-.373 0-.686-.124-.938-.371a1.202 1.202 0 0 1-.378-.889c0-.168.033-.329.098-.483.066-.154.159-.287.28-.399.122-.112.262-.203.42-.273a1.363 1.363 0 0 1 1.449.259c.117.112.21.245.28.399.07.154.105.32.105.497zM92.197 185v-6.972h2.296V185h-2.296zm11.776-3.514c0 .485-.075.952-.224 1.4a3.6 3.6 0 0 1-.651 1.183 3.088 3.088 0 0 1-2.443 1.127c-.43 0-.835-.086-1.218-.259a2.175 2.175 0 0 1-.896-.707h-.028v4.13h-2.296v-10.332h2.184v.854h.042c.215-.28.511-.525.889-.735.378-.21.824-.315 1.337-.315.504 0 .961.098 1.372.294.41.196.758.462 1.043.798.285.336.504.726.658 1.169.154.443.231.908.231 1.393zm-2.226 0a2.11 2.11 0 0 0-.105-.658 1.71 1.71 0 0 0-.308-.567 1.558 1.558 0 0 0-.511-.399 1.577 1.577 0 0 0-.714-.154c-.261 0-.495.051-.7.154a1.67 1.67 0 0 0-.525.406c-.145.168-.257.36-.336.574a1.884 1.884 0 0 0 .336 1.89c.145.168.32.303.525.406.205.103.439.154.7.154a1.517 1.517 0 0 0 1.225-.56c.135-.168.238-.362.308-.581.07-.22.105-.441.105-.665zm6.064-1.736v2.66c0 .327.063.572.189.735.126.163.352.245.679.245.112 0 .23-.01.357-.028.126-.019.23-.047.315-.084l.028 1.68a3.79 3.79 0 0 1-.602.147 4.261 4.261 0 0 1-.728.063c-.467 0-.859-.058-1.176-.175a1.823 1.823 0 0 1-.763-.504 1.976 1.976 0 0 1-.413-.784 3.801 3.801 0 0 1-.126-1.015v-2.94h-1.12v-1.722h1.106v-1.834h2.254v1.834h1.638v1.722h-1.638zm5.111-3.948c0 .177-.034.343-.105.497-.07.154-.163.287-.28.399a1.363 1.363 0 0 1-.931.364c-.373 0-.685-.124-.938-.371a1.202 1.202 0 0 1-.378-.889c0-.168.033-.329.098-.483.066-.154.16-.287.28-.399.122-.112.262-.203.42-.273a1.363 1.363 0 0 1 1.449.259c.117.112.21.245.28.399.07.154.106.32.106.497zM110.46 185v-6.972h2.295V185h-2.296zm11.411-3.514c0 .57-.102 1.085-.308 1.547a3.469 3.469 0 0 1-.84 1.176 3.845 3.845 0 0 1-1.232.749 4.182 4.182 0 0 1-1.498.266c-.522 0-1.02-.089-1.49-.266a3.747 3.747 0 0 1-1.233-.749 3.516 3.516 0 0 1-.833-1.176 3.768 3.768 0 0 1-.308-1.547c0-.57.103-1.083.308-1.54a3.458 3.458 0 0 1 2.065-1.89 4.407 4.407 0 0 1 1.491-.252 4.39 4.39 0 0 1 1.498.252c.467.168.878.41 1.232.728.355.317.635.705.84 1.162.206.457.308.97.308 1.54zm-2.212 0a1.99 1.99 0 0 0-.112-.658 1.637 1.637 0 0 0-.84-.966 1.577 1.577 0 0 0-.714-.154c-.27 0-.508.051-.714.154a1.558 1.558 0 0 0-.51.399 1.71 1.71 0 0 0-.309.567 2.11 2.11 0 0 0 0 1.316 1.8 1.8 0 0 0 .315.581c.14.173.313.31.518.413.206.103.444.154.714.154.27 0 .509-.051.714-.154a1.55 1.55 0 0 0 .518-.413 1.8 1.8 0 0 0 .315-.581 2.11 2.11 0 0 0 .105-.658zm8.15 3.514v-3.808c0-.196-.016-.383-.049-.56a1.544 1.544 0 0 0-.161-.469.835.835 0 0 0-.315-.322.998.998 0 0 0-.511-.119c-.205 0-.385.04-.539.119a1.09 1.09 0 0 0-.385.329c-.103.14-.18.301-.231.483a2.079 2.079 0 0 0-.077.567V185h-2.31v-6.972h2.226v.966h.028c.084-.15.194-.296.329-.441.135-.145.294-.268.476-.371.182-.103.38-.187.595-.252.215-.065.443-.098.686-.098.467 0 .863.084 1.19.252.327.168.59.385.791.651.2.266.345.572.434.917.089.345.133.69.133 1.036V185h-2.31z"/><path fill="#FFF" d="M188 54h158a4 4 0 0 1 4 4v87a4 4 0 0 1-4 4H188a4 4 0 0 1-4-4V58a4 4 0 0 1 4-4z"/><g opacity=".9"><path fill="#225CFF" fill-rule="nonzero" d="M201.268 122.28a1.836 1.836 0 0 0-.678-.522 2.023 2.023 0 0 0-1.41-.144 1.61 1.61 0 0 0-.48.204 1.127 1.127 0 0 0-.354.36.992.992 0 0 0-.138.534c0 .192.04.356.12.492.08.136.19.252.33.348.14.096.31.18.51.252.2.072.42.144.66.216.272.088.554.188.846.3.292.112.56.26.804.444a2.2 2.2 0 0 1 .6.696c.156.28.234.628.234 1.044 0 .456-.084.854-.252 1.194-.168.34-.392.622-.672.846-.28.224-.608.392-.984.504a4.14 4.14 0 0 1-1.188.168 4.46 4.46 0 0 1-1.62-.306 3.129 3.129 0 0 1-1.296-.906l1.08-1.008c.208.288.486.516.834.684.348.168.69.252 1.026.252.176 0 .356-.022.54-.066a1.44 1.44 0 0 0 .498-.222c.148-.104.268-.234.36-.39a1.13 1.13 0 0 0 .138-.582.947.947 0 0 0-.156-.558 1.395 1.395 0 0 0-.42-.384 3.015 3.015 0 0 0-.624-.282l-.756-.252a7.49 7.49 0 0 1-.768-.288 2.547 2.547 0 0 1-.69-.444 2.146 2.146 0 0 1-.498-.678c-.128-.268-.192-.602-.192-1.002 0-.432.09-.804.27-1.116.18-.312.416-.57.708-.774a3.15 3.15 0 0 1 .996-.456c.372-.1.75-.15 1.134-.15.432 0 .87.076 1.314.228.444.152.83.38 1.158.684l-.984 1.08zm2.474-1.776h5.628v1.32h-4.116v2.16h3.9v1.272h-3.9v2.4h4.332V129h-5.844v-8.496zm7.237 0h5.628v1.32h-4.116v2.16h3.9v1.272h-3.9v2.4h4.332V129h-5.844v-8.496zm10.155 0h2.952c.4 0 .788.042 1.164.126.376.084.71.222 1.002.414.292.192.526.444.702.756.176.312.264.692.264 1.14 0 .616-.174 1.118-.522 1.506-.348.388-.822.65-1.422.786l2.268 3.768h-1.824l-1.968-3.6h-1.104v3.6h-1.512v-8.496zm2.748 3.66c.216 0 .432-.016.648-.048a1.87 1.87 0 0 0 .582-.18c.172-.088.314-.214.426-.378.112-.164.168-.374.168-.63 0-.232-.052-.422-.156-.57a1.161 1.161 0 0 0-.396-.354 1.656 1.656 0 0 0-.546-.18 3.832 3.832 0 0 0-.594-.048h-1.368v2.388h1.236zm4.717-3.66h5.629v1.32h-4.116v2.16h3.9v1.272h-3.9v2.4h4.332V129H228.6v-8.496zm7.238 0h2.772c.488 0 .928.044 1.32.132a2.75 2.75 0 0 1 1.008.432c.28.2.496.456.648.768.152.312.228.688.228 1.128 0 .472-.088.868-.264 1.188-.176.32-.414.578-.714.774-.3.196-.65.338-1.05.426-.4.088-.824.132-1.272.132h-1.164V129h-1.512v-8.496zm2.568 3.708c.248 0 .484-.018.708-.054.224-.036.424-.1.6-.192s.316-.218.42-.378c.104-.16.156-.368.156-.624 0-.248-.052-.45-.156-.606a1.078 1.078 0 0 0-.414-.366 1.773 1.773 0 0 0-.588-.174 5.366 5.366 0 0 0-.678-.042h-1.104v2.436h1.056zm4.262.516c0-.68.113-1.294.342-1.842a4.044 4.044 0 0 1 .948-1.398c.404-.384.883-.68 1.44-.888a5.149 5.149 0 0 1 1.818-.312c.664 0 1.275.104 1.836.312a4.25 4.25 0 0 1 1.452.888c.408.384.725.85.954 1.398.228.548.342 1.162.342 1.842 0 .664-.114 1.27-.342 1.818a4.192 4.192 0 0 1-.954 1.416 4.333 4.333 0 0 1-1.452.924c-.56.22-1.172.33-1.836.33-.657 0-1.262-.11-1.818-.33a4.28 4.28 0 0 1-1.44-.924 4.236 4.236 0 0 1-.948-1.416 4.688 4.688 0 0 1-.342-1.818zm1.644 0c0 .456.07.874.21 1.254.14.38.34.71.6.99.26.28.567.498.924.654.356.156.75.234 1.182.234.432 0 .827-.078 1.188-.234.36-.156.67-.374.93-.654s.46-.61.6-.99c.14-.38.21-.798.21-1.254 0-.44-.07-.848-.21-1.224a2.984 2.984 0 0 0-.594-.984c-.257-.28-.564-.5-.924-.66-.36-.16-.76-.24-1.2-.24-.44 0-.838.08-1.194.24-.357.16-.662.38-.918.66-.257.28-.454.608-.594.984a3.48 3.48 0 0 0-.21 1.224zm8.869-4.224h2.952c.4 0 .788.042 1.164.126.376.084.71.222 1.002.414.292.192.526.444.702.756.176.312.264.692.264 1.14 0 .616-.174 1.118-.522 1.506-.348.388-.822.65-1.422.786l2.268 3.768h-1.824l-1.968-3.6h-1.104v3.6h-1.512v-8.496zm2.748 3.66c.216 0 .432-.016.648-.048a1.87 1.87 0 0 0 .582-.18c.172-.088.314-.214.426-.378.112-.164.168-.374.168-.63 0-.232-.052-.422-.156-.57a1.161 1.161 0 0 0-.396-.354 1.656 1.656 0 0 0-.546-.18 3.832 3.832 0 0 0-.594-.048h-1.368v2.388h1.236zm6.29-2.34h-2.604v-1.32h6.72v1.32h-2.604V129h-1.512v-7.176z"/><path stroke="#225CFF" stroke-linecap="round" stroke-linejoin="round" stroke-width="1.5" d="M273 125h14l-3-3m0 6l3-3" opacity=".85"/></g><path fill="#2C3F58" fill-rule="nonzero" d="M205.744 105.628c-.439.504-.98.903-1.624 1.197-.644.294-1.386.441-2.226.441a5.808 5.808 0 0 1-2.121-.378 4.982 4.982 0 0 1-1.687-1.071 4.96 4.96 0 0 1-1.12-1.659 5.438 5.438 0 0 1-.406-2.128c0-.793.138-1.512.413-2.156a4.796 4.796 0 0 1 1.141-1.645 5.053 5.053 0 0 1 1.708-1.043 6.024 6.024 0 0 1 2.114-.364c.7 0 1.388.124 2.065.371s1.225.609 1.645 1.085l-1.624 1.624a2.01 2.01 0 0 0-.882-.686 2.925 2.925 0 0 0-1.12-.224c-.42 0-.805.077-1.155.231a2.71 2.71 0 0 0-.903.637c-.252.27-.448.59-.588.959-.14.369-.21.772-.21 1.211 0 .448.07.859.21 1.232.14.373.334.693.581.959.247.266.544.474.889.623.345.15.723.224 1.134.224.476 0 .891-.093 1.246-.28.355-.187.64-.43.854-.728l1.666 1.568zm5.084-6.496V107h-2.394v-7.868h-2.8v-2.044h7.994v2.044h-2.8zm9.676 7.868l-.77-1.946h-3.837L215.17 107h-2.604l4.158-9.912h2.324l4.117 9.912h-2.66zm-2.66-7.266l-1.26 3.402h2.492l-1.232-3.402zm17.923 5.894c-.439.504-.98.903-1.624 1.197-.644.294-1.386.441-2.226.441a5.808 5.808 0 0 1-2.121-.378 4.982 4.982 0 0 1-1.687-1.071 4.96 4.96 0 0 1-1.12-1.659 5.438 5.438 0 0 1-.406-2.128c0-.793.138-1.512.413-2.156a4.796 4.796 0 0 1 1.141-1.645 5.053 5.053 0 0 1 1.708-1.043 6.024 6.024 0 0 1 2.114-.364c.7 0 1.388.124 2.065.371s1.225.609 1.645 1.085l-1.624 1.624a2.01 2.01 0 0 0-.882-.686 2.925 2.925 0 0 0-1.12-.224c-.42 0-.805.077-1.155.231a2.71 2.71 0 0 0-.903.637c-.252.27-.448.59-.588.959-.14.369-.21.772-.21 1.211 0 .448.07.859.21 1.232.14.373.334.693.581.959.247.266.544.474.889.623.345.15.723.224 1.134.224.476 0 .891-.093 1.246-.28.355-.187.64-.43.854-.728l1.666 1.568zm.828 1.372V96.416h2.324V107h-2.324zm6.54-9.198c0 .177-.035.343-.106.497-.07.154-.163.287-.28.399a1.363 1.363 0 0 1-.931.364c-.373 0-.685-.124-.938-.371a1.202 1.202 0 0 1-.378-.889c0-.168.033-.329.098-.483.066-.154.16-.287.28-.399.122-.112.262-.203.42-.273a1.363 1.363 0 0 1 1.449.259c.117.112.21.245.28.399.07.154.105.32.105.497zM240.67 107v-6.972h2.296V107h-2.296zm8.822-4.718a1.394 1.394 0 0 0-.532-.406 1.63 1.63 0 0 0-.686-.154 1.45 1.45 0 0 0-.658.147 1.597 1.597 0 0 0-.504.392c-.14.163-.25.352-.329.567-.08.215-.119.443-.119.686 0 .243.038.471.112.686.075.215.185.404.33.567.144.163.317.292.517.385.2.093.427.14.68.14.233 0 .464-.044.692-.133.229-.089.413-.217.553-.385l1.274 1.554c-.29.28-.662.5-1.12.658a4.41 4.41 0 0 1-1.456.238c-.55 0-1.064-.084-1.54-.252a3.552 3.552 0 0 1-1.239-.735 3.45 3.45 0 0 1-.826-1.169c-.2-.457-.3-.975-.3-1.554 0-.57.1-1.083.3-1.54.2-.457.476-.847.826-1.169a3.64 3.64 0 0 1 1.24-.742 4.44 4.44 0 0 1 2.988 0c.229.08.439.177.63.294.192.117.357.245.497.385l-1.33 1.54zm9.634 4.718h-2.842l-2.282-3.346h-.042V107h-2.31V96.416h2.31v6.44h.042l2.226-2.828h2.786l-2.688 3.15 2.8 3.822zm4.776-3.038h-.294c-.252 0-.507.012-.763.035a3.138 3.138 0 0 0-.686.133c-.2.065-.367.161-.497.287a.659.659 0 0 0-.196.497c0 .13.03.243.09.336.061.093.138.168.232.224a.98.98 0 0 0 .322.119c.121.023.238.035.35.035.466 0 .823-.128 1.07-.385.248-.257.372-.604.372-1.043v-.238zm-4.214-2.982a4.02 4.02 0 0 1 1.435-.882 4.917 4.917 0 0 1 1.673-.294c.588 0 1.085.072 1.49.217.407.145.736.369.988.672.252.303.436.686.553 1.148.116.462.175 1.01.175 1.645V107h-2.1v-.742h-.042c-.178.29-.446.513-.805.672-.36.159-.75.238-1.17.238-.28 0-.569-.037-.867-.112a2.542 2.542 0 0 1-.82-.364 1.971 1.971 0 0 1-.608-.672c-.159-.28-.238-.625-.238-1.036 0-.504.137-.91.413-1.218a2.71 2.71 0 0 1 1.064-.714c.434-.168.917-.28 1.449-.336.532-.056 1.05-.084 1.554-.084v-.112c0-.345-.122-.6-.364-.763-.243-.163-.542-.245-.896-.245-.327 0-.642.07-.945.21-.304.14-.563.308-.777.504l-1.162-1.246zm15.696 2.506c0 .485-.075.952-.224 1.4a3.6 3.6 0 0 1-.651 1.183 3.088 3.088 0 0 1-2.443 1.127c-.467 0-.908-.096-1.323-.287a2.18 2.18 0 0 1-.96-.819h-.027v.91h-2.114V96.416h2.296v4.354h.028c.196-.233.47-.448.826-.644.354-.196.788-.294 1.302-.294a3.1 3.1 0 0 1 1.365.294c.406.196.75.462 1.036.798.284.336.503.726.658 1.169.154.443.23.908.23 1.393zm-2.212 0a2.11 2.11 0 0 0-.105-.658 1.644 1.644 0 0 0-.316-.567 1.577 1.577 0 0 0-1.232-.553c-.26 0-.494.051-.7.154a1.67 1.67 0 0 0-.524.406c-.145.168-.257.36-.336.574a1.884 1.884 0 0 0 .336 1.89c.144.168.32.303.525.406.205.103.438.154.7.154.27 0 .508-.051.714-.154.205-.103.377-.238.518-.406.14-.168.244-.362.315-.581.07-.22.105-.441.105-.665zm6.063-5.684c0 .177-.035.343-.105.497-.07.154-.163.287-.28.399a1.363 1.363 0 0 1-.931.364c-.373 0-.686-.124-.938-.371a1.202 1.202 0 0 1-.378-.889c0-.168.033-.329.098-.483.066-.154.159-.287.28-.399.122-.112.262-.203.42-.273a1.363 1.363 0 0 1 1.449.259c.117.112.21.245.28.399.07.154.105.32.105.497zM276.771 107v-6.972h2.296V107h-2.296zm4.048 0V96.416h2.324V107h-2.324zm6.54-9.198c0 .177-.035.343-.105.497-.07.154-.164.287-.28.399a1.363 1.363 0 0 1-.931.364c-.374 0-.686-.124-.938-.371a1.202 1.202 0 0 1-.378-.889c0-.168.032-.329.098-.483.065-.154.158-.287.28-.399.121-.112.261-.203.42-.273a1.363 1.363 0 0 1 1.449.259c.116.112.21.245.28.399.07.154.105.32.105.497zM284.895 107v-6.972h2.296V107h-2.296zm6.512-5.25v2.66c0 .327.062.572.189.735.126.163.352.245.679.245.112 0 .23-.01.357-.028.126-.019.23-.047.315-.084l.028 1.68a3.79 3.79 0 0 1-.602.147 4.261 4.261 0 0 1-.728.063c-.467 0-.86-.058-1.176-.175a1.823 1.823 0 0 1-.763-.504 1.976 1.976 0 0 1-.413-.784 3.801 3.801 0 0 1-.126-1.015v-2.94h-1.12v-1.722h1.106v-1.834h2.254v1.834h1.638v1.722h-1.638zm6.553 6.3a6.09 6.09 0 0 1-.469.973 2.93 2.93 0 0 1-.616.728c-.238.2-.518.352-.84.455a3.771 3.771 0 0 1-1.14.154c-.215 0-.437-.014-.666-.042a4.118 4.118 0 0 1-.595-.112l.252-1.932a2.54 2.54 0 0 0 .742.126c.355 0 .612-.082.77-.245.159-.163.294-.394.406-.693l.224-.574-2.912-6.86h2.548l1.554 4.48h.042l1.386-4.48h2.436l-3.122 8.022z"/><g transform="translate(184 157)"><use fill="#2C3F58" fill-opacity=".06" stroke="#979797" stroke-dasharray="6" stroke-width="2" mask="url(#b)" opacity=".5" xlink:href="#a"/><path fill="#C4C6CB" d="M83 28a1 1 0 0 1 1 1v5h5a1 1 0 0 1 0 2h-5v5a1 1 0 0 1-2 0v-5h-5a1 1 0 0 1 0-2h5v-5a1 1 0 0 1 1-1z"/></g><g transform="translate(8)"><circle cx="25" cy="25" r="25" fill="#DAE4FF"/><path fill="#225CFF" fill-rule="nonzero" stroke="#225CFF" stroke-width=".3" d="M8.75 18.75v.923h6.569v-.923H8.75zm7.5 0v.923h9.361s-.956-.923-2.222-.923h-7.14zm11.197 0v.923h5.663l-.336-.923h-5.327zm9.724 0l-.336.923h5.612v-.923h-5.276zM8.75 20.546v.924h6.569v-.924H8.75zm7.5.001v.922h10.447s-.122-.71-.335-.922H16.25zm11.197 0v.922h6.289l-.311-.922h-5.978zm9.052 0l-.311.922h6.259v-.922h-5.948zm-25.861 1.795v.925h2.845v-.925h-2.845zm7.5 0v.925h2.845v-.925h-2.845zm5.612 0v.925h2.845s.18-.488.18-.925H23.75zm5.586 0v.925h5.04l-.337-.925h-4.703zm6.544 0l-.338.925h5.069v-.925H35.88zM10.638 24.14v.923h2.845v-.923h-2.845zm7.5 0v.923h7.266s.608-.474.802-.923h-8.068zm11.198 0v.923h2.845v-.514l.18.514h5.212l.194-.514v.514h2.845v-.923h-5.34l-.284.782-.285-.782h-5.367zm-18.698 1.796v.923h2.845v-.923h-2.845zm7.5 0v.923h8.067c-.194-.448-.801-.923-.801-.923h-7.266zm11.197 0v.923h2.845v-.923h-2.845zm3.362 0l.345.923h3.907l.328-.923h-4.58zm5.069 0v.923h2.845v-.923h-2.845zm-27.127 1.796v.923h2.845v-.923h-2.845zm7.5 0v.923h2.844v-.923H18.14zm5.612 0v.923h3.025c0-.435-.18-.923-.18-.923H23.75zm5.586 0v.923h2.845v-.923h-2.845zm4.007 0l.333.923h2.62l.335-.923h-3.288zm4.423 0v.923h2.845v-.923h-2.845zM8.803 29.528v.925h6.568v-.925H8.803zm7.448 0v.925h10.113c.212-.212.334-.925.334-.925H16.251zm11.249 0v.925h4.68v-.925H27.5zm6.491 0l.343.925h1.333l.321-.925h-1.997zm3.776 0v.925H42.5v-.925h-4.733zM8.803 31.325v.924h6.568v-.924H8.803zm7.448 0v.922h7.138c1.266 0 2.222-.922 2.222-.922h-9.36zm11.249 0v.924h4.68v-.924H27.5zm7.141 0l.33.921.057.002.334-.922h-.72zm3.126 0v.924H42.5v-.924h-4.733z"/></g></g></svg>